%TF.GenerationSoftware,KiCad,Pcbnew,8.0.5-dirty*%
%TF.CreationDate,2024-12-31T15:12:57-08:00*%
%TF.ProjectId,sisyphus-pci,73697379-7068-4757-932d-7063692e6b69,rev?*%
%TF.SameCoordinates,Original*%
%TF.FileFunction,Paste,Top*%
%TF.FilePolarity,Positive*%
%FSLAX46Y46*%
G04 Gerber Fmt 4.6, Leading zero omitted, Abs format (unit mm)*
G04 Created by KiCad (PCBNEW 8.0.5-dirty) date 2024-12-31 15:12:57*
%MOMM*%
%LPD*%
G01*
G04 APERTURE LIST*
G04 Aperture macros list*
%AMRoundRect*
0 Rectangle with rounded corners*
0 $1 Rounding radius*
0 $2 $3 $4 $5 $6 $7 $8 $9 X,Y pos of 4 corners*
0 Add a 4 corners polygon primitive as box body*
4,1,4,$2,$3,$4,$5,$6,$7,$8,$9,$2,$3,0*
0 Add four circle primitives for the rounded corners*
1,1,$1+$1,$2,$3*
1,1,$1+$1,$4,$5*
1,1,$1+$1,$6,$7*
1,1,$1+$1,$8,$9*
0 Add four rect primitives between the rounded corners*
20,1,$1+$1,$2,$3,$4,$5,0*
20,1,$1+$1,$4,$5,$6,$7,0*
20,1,$1+$1,$6,$7,$8,$9,0*
20,1,$1+$1,$8,$9,$2,$3,0*%
G04 Aperture macros list end*
%ADD10RoundRect,0.250000X0.250000X0.475000X-0.250000X0.475000X-0.250000X-0.475000X0.250000X-0.475000X0*%
%ADD11RoundRect,0.250000X-0.325000X-0.650000X0.325000X-0.650000X0.325000X0.650000X-0.325000X0.650000X0*%
%ADD12RoundRect,0.250000X0.350000X-0.850000X0.350000X0.850000X-0.350000X0.850000X-0.350000X-0.850000X0*%
%ADD13RoundRect,0.250000X1.125000X-1.275000X1.125000X1.275000X-1.125000X1.275000X-1.125000X-1.275000X0*%
%ADD14RoundRect,0.250000X0.475000X-0.250000X0.475000X0.250000X-0.475000X0.250000X-0.475000X-0.250000X0*%
%ADD15RoundRect,0.250000X-0.550000X1.250000X-0.550000X-1.250000X0.550000X-1.250000X0.550000X1.250000X0*%
%ADD16RoundRect,0.250000X-0.475000X0.250000X-0.475000X-0.250000X0.475000X-0.250000X0.475000X0.250000X0*%
%ADD17RoundRect,0.250000X0.450000X-0.262500X0.450000X0.262500X-0.450000X0.262500X-0.450000X-0.262500X0*%
%ADD18RoundRect,0.250000X-0.450000X0.262500X-0.450000X-0.262500X0.450000X-0.262500X0.450000X0.262500X0*%
%ADD19RoundRect,0.218750X-0.218750X-0.381250X0.218750X-0.381250X0.218750X0.381250X-0.218750X0.381250X0*%
%ADD20RoundRect,0.250000X-0.250000X-0.475000X0.250000X-0.475000X0.250000X0.475000X-0.250000X0.475000X0*%
%ADD21RoundRect,0.150000X-0.150000X0.825000X-0.150000X-0.825000X0.150000X-0.825000X0.150000X0.825000X0*%
%ADD22RoundRect,0.250000X0.262500X0.450000X-0.262500X0.450000X-0.262500X-0.450000X0.262500X-0.450000X0*%
%ADD23RoundRect,0.250000X-1.100000X0.325000X-1.100000X-0.325000X1.100000X-0.325000X1.100000X0.325000X0*%
%ADD24R,2.400000X3.850000*%
%ADD25RoundRect,0.250000X0.650000X-0.325000X0.650000X0.325000X-0.650000X0.325000X-0.650000X-0.325000X0*%
%ADD26RoundRect,0.150000X-1.350000X-0.150000X1.350000X-0.150000X1.350000X0.150000X-1.350000X0.150000X0*%
%ADD27RoundRect,0.151250X-1.348750X-0.151250X1.348750X-0.151250X1.348750X0.151250X-1.348750X0.151250X0*%
%ADD28RoundRect,0.250000X-0.650000X0.325000X-0.650000X-0.325000X0.650000X-0.325000X0.650000X0.325000X0*%
%ADD29RoundRect,0.250000X-0.262500X-0.450000X0.262500X-0.450000X0.262500X0.450000X-0.262500X0.450000X0*%
%ADD30R,1.500000X0.200000*%
%ADD31R,0.200000X1.500000*%
G04 APERTURE END LIST*
D10*
%TO.C,C25*%
X116700000Y-114500000D03*
X114800000Y-114500000D03*
%TD*%
D11*
%TO.C,C32*%
X83025000Y-121152500D03*
X85975000Y-121152500D03*
%TD*%
D12*
%TO.C,U3*%
X85970000Y-142790000D03*
D13*
X86725000Y-138165000D03*
X89775000Y-138165000D03*
X86725000Y-134815000D03*
X89775000Y-134815000D03*
D12*
X90530000Y-142790000D03*
%TD*%
D14*
%TO.C,C17*%
X131200000Y-118349999D03*
X131200000Y-116450001D03*
%TD*%
D15*
%TO.C,C61*%
X67000000Y-144800000D03*
X67000000Y-149200000D03*
%TD*%
D16*
%TO.C,C9*%
X151250000Y-119562500D03*
X151250000Y-121462500D03*
%TD*%
%TO.C,C15*%
X146250000Y-132300000D03*
X146250000Y-134200000D03*
%TD*%
D11*
%TO.C,C56*%
X75275000Y-149500000D03*
X78225000Y-149500000D03*
%TD*%
D17*
%TO.C,R4*%
X59750000Y-127860000D03*
X59750000Y-126035000D03*
%TD*%
D18*
%TO.C,R25*%
X76300000Y-117640000D03*
X76300000Y-119465000D03*
%TD*%
D14*
%TO.C,C5*%
X59500000Y-148150000D03*
X59500000Y-146250000D03*
%TD*%
D16*
%TO.C,C27*%
X125500000Y-115550001D03*
X125500000Y-117449999D03*
%TD*%
D14*
%TO.C,C20*%
X136300000Y-118349999D03*
X136300000Y-116450001D03*
%TD*%
D19*
%TO.C,FB2*%
X78125000Y-109000000D03*
X80250000Y-109000000D03*
%TD*%
%TO.C,FB3*%
X88250000Y-107500000D03*
X90375000Y-107500000D03*
%TD*%
D18*
%TO.C,R12*%
X145000000Y-123087500D03*
X145000000Y-124912500D03*
%TD*%
D16*
%TO.C,C48*%
X151250000Y-115212500D03*
X151250000Y-117112500D03*
%TD*%
D20*
%TO.C,C68*%
X91950000Y-107500000D03*
X93850000Y-107500000D03*
%TD*%
D16*
%TO.C,C34*%
X141000000Y-111450000D03*
X141000000Y-113350000D03*
%TD*%
D20*
%TO.C,C7*%
X120300000Y-143250000D03*
X122200000Y-143250000D03*
%TD*%
%TO.C,C67*%
X81750000Y-109100000D03*
X83650000Y-109100000D03*
%TD*%
D21*
%TO.C,U6*%
X76205000Y-140925000D03*
X74935000Y-140925000D03*
X73665000Y-140925000D03*
X72395000Y-140925000D03*
X72395000Y-145875000D03*
X73665000Y-145875000D03*
X74935000Y-145875000D03*
X76205000Y-145875000D03*
%TD*%
D16*
%TO.C,C3*%
X59500000Y-142850000D03*
X59500000Y-144750000D03*
%TD*%
D14*
%TO.C,C19*%
X114600000Y-110649999D03*
X114600000Y-108750001D03*
%TD*%
D22*
%TO.C,R16*%
X158325000Y-126250000D03*
X156500000Y-126250000D03*
%TD*%
D23*
%TO.C,C28*%
X124625000Y-111024999D03*
X124625000Y-113975001D03*
%TD*%
D15*
%TO.C,C47*%
X94000000Y-144800000D03*
X94000000Y-149200000D03*
%TD*%
D17*
%TO.C,R15*%
X145000000Y-121412500D03*
X145000000Y-119587500D03*
%TD*%
D16*
%TO.C,C26*%
X123000000Y-115550000D03*
X123000000Y-117450000D03*
%TD*%
D22*
%TO.C,R8*%
X61412500Y-138710000D03*
X59587500Y-138710000D03*
%TD*%
D18*
%TO.C,R2*%
X59500000Y-129400000D03*
X59500000Y-131225000D03*
%TD*%
D10*
%TO.C,C22*%
X116700000Y-116750000D03*
X114800000Y-116750000D03*
%TD*%
D22*
%TO.C,R11*%
X61412500Y-136810000D03*
X59587500Y-136810000D03*
%TD*%
%TO.C,R6*%
X61412500Y-132980000D03*
X59587500Y-132980000D03*
%TD*%
D24*
%TO.C,Y1*%
X150250000Y-130025000D03*
X150250000Y-137975000D03*
%TD*%
D20*
%TO.C,C40*%
X157300000Y-148750000D03*
X159200000Y-148750000D03*
%TD*%
D16*
%TO.C,C49*%
X80154793Y-117639756D03*
X80154793Y-119539756D03*
%TD*%
%TO.C,C50*%
X92800000Y-119350000D03*
X92800000Y-121250000D03*
%TD*%
%TO.C,C6*%
X148000000Y-123050000D03*
X148000000Y-124950000D03*
%TD*%
D17*
%TO.C,R30*%
X94800000Y-121212500D03*
X94800000Y-119387500D03*
%TD*%
D25*
%TO.C,C46*%
X155500000Y-146725000D03*
X155500000Y-143775000D03*
%TD*%
D17*
%TO.C,R5*%
X61500000Y-148112500D03*
X61500000Y-146287500D03*
%TD*%
D18*
%TO.C,R14*%
X154250000Y-119600000D03*
X154250000Y-121425000D03*
%TD*%
D14*
%TO.C,C10*%
X148050000Y-121462500D03*
X148050000Y-119562500D03*
%TD*%
D17*
%TO.C,R29*%
X78200000Y-119477500D03*
X78200000Y-117652500D03*
%TD*%
D22*
%TO.C,R35*%
X72412500Y-115000000D03*
X70587500Y-115000000D03*
%TD*%
D15*
%TO.C,C39*%
X82250000Y-144800000D03*
X82250000Y-149200000D03*
%TD*%
D20*
%TO.C,C1*%
X61200000Y-121200000D03*
X63100000Y-121200000D03*
%TD*%
D26*
%TO.C,U5*%
X83000000Y-114997500D03*
X83000000Y-116267500D03*
X83000000Y-117537500D03*
X83000000Y-118807500D03*
D27*
X89000000Y-118805000D03*
D26*
X89000000Y-117537500D03*
X89000000Y-116267500D03*
D27*
X89000000Y-115000000D03*
%TD*%
D10*
%TO.C,C18*%
X119950000Y-119000000D03*
X118050000Y-119000000D03*
%TD*%
D16*
%TO.C,C2*%
X61500000Y-129380000D03*
X61500000Y-131280000D03*
%TD*%
%TO.C,C8*%
X148000000Y-115212500D03*
X148000000Y-117112500D03*
%TD*%
D22*
%TO.C,R9*%
X61412500Y-140625000D03*
X59587500Y-140625000D03*
%TD*%
D28*
%TO.C,C38*%
X138800000Y-111425000D03*
X138800000Y-114375000D03*
%TD*%
D19*
%TO.C,FB1*%
X61175000Y-119300000D03*
X63300000Y-119300000D03*
%TD*%
D14*
%TO.C,C4*%
X61750000Y-127880000D03*
X61750000Y-125980000D03*
%TD*%
D22*
%TO.C,R7*%
X61412500Y-134890000D03*
X59587500Y-134890000D03*
%TD*%
D14*
%TO.C,C16*%
X120500000Y-116450000D03*
X120500000Y-114550000D03*
%TD*%
D20*
%TO.C,C29*%
X75050000Y-137900000D03*
X76950000Y-137900000D03*
%TD*%
D16*
%TO.C,C51*%
X98250000Y-144550000D03*
X98250000Y-146450000D03*
%TD*%
D22*
%TO.C,R37*%
X72412500Y-108000000D03*
X70587500Y-108000000D03*
%TD*%
D14*
%TO.C,C24*%
X118500000Y-116450000D03*
X118500000Y-114550000D03*
%TD*%
D29*
%TO.C,R1*%
X107087500Y-130600000D03*
X108912500Y-130600000D03*
%TD*%
D28*
%TO.C,C30*%
X134000000Y-111425000D03*
X134000000Y-114375000D03*
%TD*%
D18*
%TO.C,R26*%
X96800000Y-119387500D03*
X96800000Y-121212500D03*
%TD*%
D16*
%TO.C,C12*%
X133900000Y-135800000D03*
X133900000Y-137700000D03*
%TD*%
D14*
%TO.C,C43*%
X98250000Y-150950000D03*
X98250000Y-149050000D03*
%TD*%
%TO.C,C14*%
X146250000Y-130700000D03*
X146250000Y-128800000D03*
%TD*%
D30*
%TO.C,U1*%
X131700000Y-135550000D03*
X131700000Y-135150000D03*
X131700000Y-134750000D03*
X131700000Y-134350000D03*
X131700000Y-133950000D03*
X131700000Y-133550000D03*
X131700000Y-133150000D03*
X131700000Y-132750000D03*
X131700000Y-132350000D03*
X131700000Y-131950000D03*
X131700000Y-131550000D03*
X131700000Y-131150000D03*
X131700000Y-130750000D03*
X131700000Y-130350000D03*
X131700000Y-129950000D03*
X131700000Y-129550000D03*
X131700000Y-129150000D03*
X131700000Y-128750000D03*
X131700000Y-128350000D03*
X131700000Y-127950000D03*
X131700000Y-127550000D03*
X131700000Y-127150000D03*
X131700000Y-126750000D03*
X131700000Y-126350000D03*
X131700000Y-125950000D03*
D31*
X129800000Y-124050000D03*
X129400000Y-124050000D03*
X129000000Y-124050000D03*
X128600000Y-124050000D03*
X128200000Y-124050000D03*
X127800000Y-124050000D03*
X127400000Y-124050000D03*
X127000000Y-124050000D03*
X126600000Y-124050000D03*
X126200000Y-124050000D03*
X125800000Y-124050000D03*
X125400000Y-124050000D03*
X125000000Y-124050000D03*
X124600000Y-124050000D03*
X124200000Y-124050000D03*
X123800000Y-124050000D03*
X123400000Y-124050000D03*
X123000000Y-124050000D03*
X122600000Y-124050000D03*
X122200000Y-124050000D03*
X121800000Y-124050000D03*
X121400000Y-124050000D03*
X121000000Y-124050000D03*
X120600000Y-124050000D03*
X120200000Y-124050000D03*
D30*
X118300000Y-125950000D03*
X118300000Y-126350000D03*
X118300000Y-126750000D03*
X118300000Y-127150000D03*
X118300000Y-127550000D03*
X118300000Y-127950000D03*
X118300000Y-128350000D03*
X118300000Y-128750000D03*
X118300000Y-129150000D03*
X118300000Y-129550000D03*
X118300000Y-129950000D03*
X118300000Y-130350000D03*
X118300000Y-130750000D03*
X118300000Y-131150000D03*
X118300000Y-131550000D03*
X118300000Y-131950000D03*
X118300000Y-132350000D03*
X118300000Y-132750000D03*
X118300000Y-133150000D03*
X118300000Y-133550000D03*
X118300000Y-133950000D03*
X118300000Y-134350000D03*
X118300000Y-134750000D03*
X118300000Y-135150000D03*
X118300000Y-135550000D03*
D31*
X120200000Y-137450000D03*
X120600000Y-137450000D03*
X121000000Y-137450000D03*
X121400000Y-137450000D03*
X121800000Y-137450000D03*
X122200000Y-137450000D03*
X122600000Y-137450000D03*
X123000000Y-137450000D03*
X123400000Y-137450000D03*
X123800000Y-137450000D03*
X124200000Y-137450000D03*
X124600000Y-137450000D03*
X125000000Y-137450000D03*
X125400000Y-137450000D03*
X125800000Y-137450000D03*
X126200000Y-137450000D03*
X126600000Y-137450000D03*
X127000000Y-137450000D03*
X127400000Y-137450000D03*
X127800000Y-137450000D03*
X128200000Y-137450000D03*
X128600000Y-137450000D03*
X129000000Y-137450000D03*
X129400000Y-137450000D03*
X129800000Y-137450000D03*
%TD*%
D18*
%TO.C,R13*%
X145000000Y-115250000D03*
X145000000Y-117075000D03*
%TD*%
%TO.C,R3*%
X61500000Y-142875000D03*
X61500000Y-144700000D03*
%TD*%
D20*
%TO.C,C13*%
X137050000Y-129500000D03*
X138950000Y-129500000D03*
%TD*%
D28*
%TO.C,C31*%
X92800000Y-114825000D03*
X92800000Y-117775000D03*
%TD*%
D14*
%TO.C,C21*%
X119875299Y-110649999D03*
X119875299Y-108750001D03*
%TD*%
D22*
%TO.C,R10*%
X61662500Y-124250000D03*
X59837500Y-124250000D03*
%TD*%
D10*
%TO.C,C11*%
X116450000Y-130525000D03*
X114550000Y-130525000D03*
%TD*%
M02*
