%TF.GenerationSoftware,KiCad,Pcbnew,8.0.5-dirty*%
%TF.CreationDate,2024-12-31T09:15:25-08:00*%
%TF.ProjectId,sisyphus-pci,73697379-7068-4757-932d-7063692e6b69,rev?*%
%TF.SameCoordinates,Original*%
%TF.FileFunction,Paste,Top*%
%TF.FilePolarity,Positive*%
%FSLAX46Y46*%
G04 Gerber Fmt 4.6, Leading zero omitted, Abs format (unit mm)*
G04 Created by KiCad (PCBNEW 8.0.5-dirty) date 2024-12-31 09:15:25*
%MOMM*%
%LPD*%
G01*
G04 APERTURE LIST*
G04 Aperture macros list*
%AMRoundRect*
0 Rectangle with rounded corners*
0 $1 Rounding radius*
0 $2 $3 $4 $5 $6 $7 $8 $9 X,Y pos of 4 corners*
0 Add a 4 corners polygon primitive as box body*
4,1,4,$2,$3,$4,$5,$6,$7,$8,$9,$2,$3,0*
0 Add four circle primitives for the rounded corners*
1,1,$1+$1,$2,$3*
1,1,$1+$1,$4,$5*
1,1,$1+$1,$6,$7*
1,1,$1+$1,$8,$9*
0 Add four rect primitives between the rounded corners*
20,1,$1+$1,$2,$3,$4,$5,0*
20,1,$1+$1,$4,$5,$6,$7,0*
20,1,$1+$1,$6,$7,$8,$9,0*
20,1,$1+$1,$8,$9,$2,$3,0*%
G04 Aperture macros list end*
%ADD10RoundRect,0.250000X0.475000X-0.250000X0.475000X0.250000X-0.475000X0.250000X-0.475000X-0.250000X0*%
%ADD11RoundRect,0.250000X-0.475000X0.250000X-0.475000X-0.250000X0.475000X-0.250000X0.475000X0.250000X0*%
%ADD12R,1.950000X0.400000*%
%ADD13R,1.850000X0.400000*%
%ADD14RoundRect,0.250000X0.350000X-0.850000X0.350000X0.850000X-0.350000X0.850000X-0.350000X-0.850000X0*%
%ADD15RoundRect,0.250000X1.125000X-1.275000X1.125000X1.275000X-1.125000X1.275000X-1.125000X-1.275000X0*%
%ADD16RoundRect,0.250000X-0.650000X0.325000X-0.650000X-0.325000X0.650000X-0.325000X0.650000X0.325000X0*%
%ADD17RoundRect,0.250000X-0.250000X-0.475000X0.250000X-0.475000X0.250000X0.475000X-0.250000X0.475000X0*%
%ADD18RoundRect,0.250000X0.450000X-0.262500X0.450000X0.262500X-0.450000X0.262500X-0.450000X-0.262500X0*%
%ADD19RoundRect,0.150000X-0.587500X-0.150000X0.587500X-0.150000X0.587500X0.150000X-0.587500X0.150000X0*%
%ADD20RoundRect,0.218750X-0.218750X-0.381250X0.218750X-0.381250X0.218750X0.381250X-0.218750X0.381250X0*%
%ADD21RoundRect,0.250000X-0.450000X0.262500X-0.450000X-0.262500X0.450000X-0.262500X0.450000X0.262500X0*%
%ADD22RoundRect,0.250000X0.250000X0.475000X-0.250000X0.475000X-0.250000X-0.475000X0.250000X-0.475000X0*%
%ADD23RoundRect,0.150000X-0.150000X0.825000X-0.150000X-0.825000X0.150000X-0.825000X0.150000X0.825000X0*%
%ADD24RoundRect,0.250000X0.262500X0.450000X-0.262500X0.450000X-0.262500X-0.450000X0.262500X-0.450000X0*%
%ADD25RoundRect,0.250000X-0.262500X-0.450000X0.262500X-0.450000X0.262500X0.450000X-0.262500X0.450000X0*%
%ADD26R,2.400000X3.850000*%
%ADD27R,1.500000X0.200000*%
%ADD28R,0.200000X1.500000*%
G04 APERTURE END LIST*
D10*
%TO.C,C25*%
X118100000Y-115775000D03*
X118100000Y-113875000D03*
%TD*%
D11*
%TO.C,C35*%
X91587500Y-93681250D03*
X91587500Y-95581250D03*
%TD*%
D12*
%TO.C,U2*%
X82412500Y-92431250D03*
X82412500Y-93081250D03*
X82412500Y-93731250D03*
X82412500Y-94381250D03*
X82412500Y-95031250D03*
X82412500Y-95681250D03*
X82412500Y-96331250D03*
D13*
X88612500Y-96331250D03*
X88612500Y-95681250D03*
X88612500Y-95031250D03*
X88612500Y-94381250D03*
X88612500Y-93731250D03*
X88612500Y-93081250D03*
X88612500Y-92431250D03*
%TD*%
D14*
%TO.C,U3*%
X85920000Y-145990000D03*
D15*
X86675000Y-141365000D03*
X89725000Y-141365000D03*
X86675000Y-138015000D03*
X89725000Y-138015000D03*
D14*
X90480000Y-145990000D03*
%TD*%
D16*
%TO.C,C36*%
X93737500Y-93756250D03*
X93737500Y-96706250D03*
%TD*%
D17*
%TO.C,C17*%
X132650000Y-119050000D03*
X134550000Y-119050000D03*
%TD*%
%TO.C,C9*%
X146100000Y-116150000D03*
X148000000Y-116150000D03*
%TD*%
D11*
%TO.C,C15*%
X146250000Y-132300000D03*
X146250000Y-134200000D03*
%TD*%
D18*
%TO.C,R4*%
X61290000Y-127860000D03*
X61290000Y-126035000D03*
%TD*%
D10*
%TO.C,C5*%
X61300000Y-148150000D03*
X61300000Y-146250000D03*
%TD*%
D17*
%TO.C,C27*%
X124050000Y-102250000D03*
X125950000Y-102250000D03*
%TD*%
%TO.C,C20*%
X132650000Y-116150000D03*
X134550000Y-116150000D03*
%TD*%
D10*
%TO.C,C32*%
X77462500Y-92156250D03*
X77462500Y-90256250D03*
%TD*%
D19*
%TO.C,Q1*%
X61312500Y-109050000D03*
X61312500Y-110950000D03*
X63187500Y-110000000D03*
%TD*%
D20*
%TO.C,FB2*%
X62437500Y-78000000D03*
X64562500Y-78000000D03*
%TD*%
%TO.C,FB3*%
X62500000Y-70500000D03*
X64625000Y-70500000D03*
%TD*%
D21*
%TO.C,R12*%
X146100000Y-121387500D03*
X146100000Y-123212500D03*
%TD*%
D22*
%TO.C,C48*%
X148420000Y-85500000D03*
X146520000Y-85500000D03*
%TD*%
D17*
%TO.C,C68*%
X66312500Y-70500000D03*
X68212500Y-70500000D03*
%TD*%
D10*
%TO.C,C50*%
X92087500Y-100331250D03*
X92087500Y-98431250D03*
%TD*%
D18*
%TO.C,R17*%
X119725000Y-111975000D03*
X119725000Y-110150000D03*
%TD*%
D17*
%TO.C,C34*%
X142150000Y-85500000D03*
X144050000Y-85500000D03*
%TD*%
%TO.C,C7*%
X120150000Y-140400000D03*
X122050000Y-140400000D03*
%TD*%
%TO.C,C67*%
X66250000Y-78000000D03*
X68150000Y-78000000D03*
%TD*%
D23*
%TO.C,U6*%
X80205000Y-137425000D03*
X78935000Y-137425000D03*
X77665000Y-137425000D03*
X76395000Y-137425000D03*
X76395000Y-142375000D03*
X77665000Y-142375000D03*
X78935000Y-142375000D03*
X80205000Y-142375000D03*
%TD*%
D11*
%TO.C,C3*%
X61300000Y-142850000D03*
X61300000Y-144750000D03*
%TD*%
D23*
%TO.C,U4*%
X80005000Y-108325000D03*
X78735000Y-108325000D03*
X77465000Y-108325000D03*
X76195000Y-108325000D03*
X76195000Y-113275000D03*
X77465000Y-113275000D03*
X78735000Y-113275000D03*
X80005000Y-113275000D03*
%TD*%
D10*
%TO.C,C19*%
X115250000Y-84199999D03*
X115250000Y-82300001D03*
%TD*%
D24*
%TO.C,R16*%
X158325000Y-126250000D03*
X156500000Y-126250000D03*
%TD*%
D17*
%TO.C,C55*%
X77450000Y-118400000D03*
X79350000Y-118400000D03*
%TD*%
D24*
%TO.C,R35*%
X72112500Y-87500000D03*
X70287500Y-87500000D03*
%TD*%
D16*
%TO.C,C37*%
X77487500Y-93756250D03*
X77487500Y-96706250D03*
%TD*%
D24*
%TO.C,R37*%
X72112500Y-80750000D03*
X70287500Y-80750000D03*
%TD*%
D18*
%TO.C,R15*%
X146100000Y-119837500D03*
X146100000Y-118012500D03*
%TD*%
D17*
%TO.C,C26*%
X122850000Y-111100000D03*
X124750000Y-111100000D03*
%TD*%
D24*
%TO.C,R19*%
X85500000Y-89967733D03*
X83675000Y-89967733D03*
%TD*%
%TO.C,R8*%
X63125000Y-138710000D03*
X61300000Y-138710000D03*
%TD*%
D25*
%TO.C,R27*%
X75375000Y-104050000D03*
X77200000Y-104050000D03*
%TD*%
D21*
%TO.C,R2*%
X61290000Y-129400000D03*
X61290000Y-131225000D03*
%TD*%
D25*
%TO.C,R32*%
X77475000Y-116450000D03*
X79300000Y-116450000D03*
%TD*%
D24*
%TO.C,R20*%
X85500000Y-98831250D03*
X83675000Y-98831250D03*
%TD*%
D17*
%TO.C,C22*%
X119850000Y-117750000D03*
X121750000Y-117750000D03*
%TD*%
D24*
%TO.C,R11*%
X63125000Y-136810000D03*
X61300000Y-136810000D03*
%TD*%
%TO.C,R6*%
X63125000Y-132980000D03*
X61300000Y-132980000D03*
%TD*%
D21*
%TO.C,R22*%
X79450000Y-98368750D03*
X79450000Y-100193750D03*
%TD*%
D26*
%TO.C,Y1*%
X150250000Y-130025000D03*
X150250000Y-137975000D03*
%TD*%
D17*
%TO.C,C40*%
X158250000Y-150200000D03*
X160150000Y-150200000D03*
%TD*%
%TO.C,C53*%
X78750000Y-106000000D03*
X80650000Y-106000000D03*
%TD*%
D18*
%TO.C,R29*%
X94087500Y-91343750D03*
X94087500Y-89518750D03*
%TD*%
D11*
%TO.C,C31*%
X79687500Y-93681250D03*
X79687500Y-95581250D03*
%TD*%
D25*
%TO.C,R18*%
X122887500Y-108400000D03*
X124712500Y-108400000D03*
%TD*%
D11*
%TO.C,C6*%
X148050000Y-121387500D03*
X148050000Y-123287500D03*
%TD*%
%TO.C,C52*%
X81800000Y-113250000D03*
X81800000Y-115150000D03*
%TD*%
D18*
%TO.C,R5*%
X63240000Y-148112500D03*
X63240000Y-146287500D03*
%TD*%
D25*
%TO.C,R14*%
X146100000Y-114200000D03*
X147925000Y-114200000D03*
%TD*%
D10*
%TO.C,C10*%
X148050000Y-119887500D03*
X148050000Y-117987500D03*
%TD*%
D11*
%TO.C,C49*%
X92137500Y-89506250D03*
X92137500Y-91406250D03*
%TD*%
D25*
%TO.C,R28*%
X74025000Y-118400000D03*
X75850000Y-118400000D03*
%TD*%
D17*
%TO.C,C1*%
X61200000Y-121200000D03*
X63100000Y-121200000D03*
%TD*%
D22*
%TO.C,C23*%
X119750000Y-108400000D03*
X117850000Y-108400000D03*
%TD*%
%TO.C,C18*%
X121750000Y-119725000D03*
X119850000Y-119725000D03*
%TD*%
D11*
%TO.C,C2*%
X63230000Y-129380000D03*
X63230000Y-131280000D03*
%TD*%
D17*
%TO.C,C8*%
X146087500Y-110300000D03*
X147987500Y-110300000D03*
%TD*%
D24*
%TO.C,R9*%
X63125000Y-140625000D03*
X61300000Y-140625000D03*
%TD*%
D20*
%TO.C,FB1*%
X61175000Y-119300000D03*
X63300000Y-119300000D03*
%TD*%
D10*
%TO.C,C4*%
X63240000Y-127880000D03*
X63240000Y-125980000D03*
%TD*%
D18*
%TO.C,R33*%
X74400000Y-115312500D03*
X74400000Y-113487500D03*
%TD*%
%TO.C,R21*%
X79400000Y-92162500D03*
X79400000Y-90337500D03*
%TD*%
D24*
%TO.C,R7*%
X63125000Y-134890000D03*
X61300000Y-134890000D03*
%TD*%
D25*
%TO.C,R31*%
X78775000Y-104050000D03*
X80600000Y-104050000D03*
%TD*%
D18*
%TO.C,R26*%
X96000000Y-100312500D03*
X96000000Y-98487500D03*
%TD*%
D10*
%TO.C,C16*%
X123600000Y-115950000D03*
X123600000Y-114050000D03*
%TD*%
D21*
%TO.C,R25*%
X95987500Y-89543750D03*
X95987500Y-91368750D03*
%TD*%
D17*
%TO.C,C29*%
X79050000Y-134400000D03*
X80950000Y-134400000D03*
%TD*%
D11*
%TO.C,C51*%
X98225000Y-145950000D03*
X98225000Y-147850000D03*
%TD*%
D18*
%TO.C,R38*%
X71000000Y-115312500D03*
X71000000Y-113487500D03*
%TD*%
D22*
%TO.C,C24*%
X121750000Y-115775000D03*
X119850000Y-115775000D03*
%TD*%
D24*
%TO.C,R34*%
X70550000Y-110500000D03*
X68725000Y-110500000D03*
%TD*%
D25*
%TO.C,R1*%
X107087500Y-130950000D03*
X108912500Y-130950000D03*
%TD*%
D21*
%TO.C,R30*%
X94087500Y-98506250D03*
X94087500Y-100331250D03*
%TD*%
D11*
%TO.C,C12*%
X133900000Y-134800000D03*
X133900000Y-136700000D03*
%TD*%
D10*
%TO.C,C43*%
X99000000Y-151900000D03*
X99000000Y-150000000D03*
%TD*%
%TO.C,C14*%
X146250000Y-130700000D03*
X146250000Y-128800000D03*
%TD*%
D27*
%TO.C,U1*%
X131700000Y-134800000D03*
X131700000Y-134400000D03*
X131700000Y-134000000D03*
X131700000Y-133600000D03*
X131700000Y-133200000D03*
X131700000Y-132800000D03*
X131700000Y-132400000D03*
X131700000Y-132000000D03*
X131700000Y-131600000D03*
X131700000Y-131200000D03*
X131700000Y-130800000D03*
X131700000Y-130400000D03*
X131700000Y-130000000D03*
X131700000Y-129600000D03*
X131700000Y-129200000D03*
X131700000Y-128800000D03*
X131700000Y-128400000D03*
X131700000Y-128000000D03*
X131700000Y-127600000D03*
X131700000Y-127200000D03*
X131700000Y-126800000D03*
X131700000Y-126400000D03*
X131700000Y-126000000D03*
X131700000Y-125600000D03*
X131700000Y-125200000D03*
D28*
X129800000Y-123300000D03*
X129400000Y-123300000D03*
X129000000Y-123300000D03*
X128600000Y-123300000D03*
X128200000Y-123300000D03*
X127800000Y-123300000D03*
X127400000Y-123300000D03*
X127000000Y-123300000D03*
X126600000Y-123300000D03*
X126200000Y-123300000D03*
X125800000Y-123300000D03*
X125400000Y-123300000D03*
X125000000Y-123300000D03*
X124600000Y-123300000D03*
X124200000Y-123300000D03*
X123800000Y-123300000D03*
X123400000Y-123300000D03*
X123000000Y-123300000D03*
X122600000Y-123300000D03*
X122200000Y-123300000D03*
X121800000Y-123300000D03*
X121400000Y-123300000D03*
X121000000Y-123300000D03*
X120600000Y-123300000D03*
X120200000Y-123300000D03*
D27*
X118300000Y-125200000D03*
X118300000Y-125600000D03*
X118300000Y-126000000D03*
X118300000Y-126400000D03*
X118300000Y-126800000D03*
X118300000Y-127200000D03*
X118300000Y-127600000D03*
X118300000Y-128000000D03*
X118300000Y-128400000D03*
X118300000Y-128800000D03*
X118300000Y-129200000D03*
X118300000Y-129600000D03*
X118300000Y-130000000D03*
X118300000Y-130400000D03*
X118300000Y-130800000D03*
X118300000Y-131200000D03*
X118300000Y-131600000D03*
X118300000Y-132000000D03*
X118300000Y-132400000D03*
X118300000Y-132800000D03*
X118300000Y-133200000D03*
X118300000Y-133600000D03*
X118300000Y-134000000D03*
X118300000Y-134400000D03*
X118300000Y-134800000D03*
D28*
X120200000Y-136700000D03*
X120600000Y-136700000D03*
X121000000Y-136700000D03*
X121400000Y-136700000D03*
X121800000Y-136700000D03*
X122200000Y-136700000D03*
X122600000Y-136700000D03*
X123000000Y-136700000D03*
X123400000Y-136700000D03*
X123800000Y-136700000D03*
X124200000Y-136700000D03*
X124600000Y-136700000D03*
X125000000Y-136700000D03*
X125400000Y-136700000D03*
X125800000Y-136700000D03*
X126200000Y-136700000D03*
X126600000Y-136700000D03*
X127000000Y-136700000D03*
X127400000Y-136700000D03*
X127800000Y-136700000D03*
X128200000Y-136700000D03*
X128600000Y-136700000D03*
X129000000Y-136700000D03*
X129400000Y-136700000D03*
X129800000Y-136700000D03*
%TD*%
D25*
%TO.C,R13*%
X146087500Y-112250000D03*
X147912500Y-112250000D03*
%TD*%
D21*
%TO.C,R3*%
X63240000Y-142875000D03*
X63240000Y-144700000D03*
%TD*%
D11*
%TO.C,C33*%
X77500000Y-98300000D03*
X77500000Y-100200000D03*
%TD*%
D17*
%TO.C,C13*%
X137300000Y-129250000D03*
X139200000Y-129250000D03*
%TD*%
D10*
%TO.C,C21*%
X123000000Y-84199999D03*
X123000000Y-82300001D03*
%TD*%
D24*
%TO.C,R10*%
X63185000Y-124280000D03*
X61360000Y-124280000D03*
%TD*%
D22*
%TO.C,C11*%
X113400000Y-129850000D03*
X111500000Y-129850000D03*
%TD*%
M02*
