%TF.GenerationSoftware,KiCad,Pcbnew,8.0.5-dirty*%
%TF.CreationDate,2024-12-31T09:31:43-08:00*%
%TF.ProjectId,sisyphus-pci,73697379-7068-4757-932d-7063692e6b69,rev?*%
%TF.SameCoordinates,Original*%
%TF.FileFunction,Drillmap*%
%TF.FilePolarity,Positive*%
%FSLAX45Y45*%
G04 Gerber Fmt 4.5, Leading zero omitted, Abs format (unit mm)*
G04 Created by KiCad (PCBNEW 8.0.5-dirty) date 2024-12-31 09:31:43*
%MOMM*%
%LPD*%
G01*
G04 APERTURE LIST*
%ADD10C,0.050000*%
%ADD11C,0.125000*%
%ADD12C,0.200000*%
%ADD13C,0.100000*%
%ADD14C,0.110000*%
%ADD15C,0.320000*%
G04 APERTURE END LIST*
D10*
X4510000Y-6450000D02*
G75*
G02*
X4210000Y-6450000I-150000J0D01*
G01*
X4210000Y-6450000D02*
G75*
G02*
X4510000Y-6450000I150000J0D01*
G01*
D11*
X8755000Y-7410000D02*
X15960000Y-7410000D01*
X16257000Y-7707000D01*
X16257000Y-14953979D01*
X15950000Y-15254304D01*
X15950000Y-16000000D01*
X14480000Y-16000000D01*
X14480000Y-15320227D01*
X14457777Y-15297500D01*
X14335273Y-15297500D01*
X14313000Y-15320185D01*
X14313000Y-15987000D01*
X14300000Y-16000000D01*
X8060000Y-16000000D01*
X8003000Y-15938378D01*
X8003000Y-15331500D01*
X7968000Y-15296500D01*
X5535000Y-15296500D01*
X5535000Y-15860000D01*
X3955000Y-15860000D01*
X3955000Y-6130000D01*
X7475000Y-6130000D01*
X8755000Y-7410000D01*
D12*
D13*
X4035000Y-6210000D02*
X4065000Y-6240000D01*
X4065000Y-6210000D02*
X4035000Y-6240000D01*
X4035000Y-6537500D02*
X4065000Y-6567500D01*
X4065000Y-6537500D02*
X4035000Y-6567500D01*
X4035000Y-7310000D02*
X4065000Y-7340000D01*
X4065000Y-7310000D02*
X4035000Y-7340000D01*
X4035000Y-7560000D02*
X4065000Y-7590000D01*
X4065000Y-7560000D02*
X4035000Y-7590000D01*
X4035000Y-8335000D02*
X4065000Y-8365000D01*
X4065000Y-8335000D02*
X4035000Y-8365000D01*
X4035000Y-8660000D02*
X4065000Y-8690000D01*
X4065000Y-8660000D02*
X4035000Y-8690000D01*
X4035000Y-8985000D02*
X4065000Y-9015000D01*
X4065000Y-8985000D02*
X4035000Y-9015000D01*
X4035000Y-9535000D02*
X4065000Y-9565000D01*
X4065000Y-9535000D02*
X4035000Y-9565000D01*
X4035000Y-9785000D02*
X4065000Y-9815000D01*
X4065000Y-9785000D02*
X4035000Y-9815000D01*
X4035000Y-10060000D02*
X4065000Y-10090000D01*
X4065000Y-10060000D02*
X4035000Y-10090000D01*
X4035000Y-10875000D02*
X4065000Y-10905000D01*
X4065000Y-10875000D02*
X4035000Y-10905000D01*
X4035000Y-11125000D02*
X4065000Y-11155000D01*
X4065000Y-11125000D02*
X4035000Y-11155000D01*
X4035000Y-11375000D02*
X4065000Y-11405000D01*
X4065000Y-11375000D02*
X4035000Y-11405000D01*
X4035000Y-11835000D02*
X4065000Y-11865000D01*
X4065000Y-11835000D02*
X4035000Y-11865000D01*
X4035000Y-12085000D02*
X4065000Y-12115000D01*
X4065000Y-12085000D02*
X4035000Y-12115000D01*
X4035000Y-12335000D02*
X4065000Y-12365000D01*
X4065000Y-12335000D02*
X4035000Y-12365000D01*
X4035000Y-12610000D02*
X4065000Y-12640000D01*
X4065000Y-12610000D02*
X4035000Y-12640000D01*
X4035000Y-12885000D02*
X4065000Y-12915000D01*
X4065000Y-12885000D02*
X4035000Y-12915000D01*
X4035000Y-13135000D02*
X4065000Y-13165000D01*
X4065000Y-13135000D02*
X4035000Y-13165000D01*
X4035000Y-13385000D02*
X4065000Y-13415000D01*
X4065000Y-13385000D02*
X4035000Y-13415000D01*
X4035000Y-13635000D02*
X4065000Y-13665000D01*
X4065000Y-13635000D02*
X4035000Y-13665000D01*
X4035000Y-13885000D02*
X4065000Y-13915000D01*
X4065000Y-13885000D02*
X4035000Y-13915000D01*
X4035000Y-14135000D02*
X4065000Y-14165000D01*
X4065000Y-14135000D02*
X4035000Y-14165000D01*
X4035000Y-14410000D02*
X4065000Y-14440000D01*
X4065000Y-14410000D02*
X4035000Y-14440000D01*
X4035000Y-14685000D02*
X4065000Y-14715000D01*
X4065000Y-14685000D02*
X4035000Y-14715000D01*
X4035000Y-14935000D02*
X4065000Y-14965000D01*
X4065000Y-14935000D02*
X4035000Y-14965000D01*
X4035000Y-15160000D02*
X4065000Y-15190000D01*
X4065000Y-15160000D02*
X4035000Y-15190000D01*
X4035000Y-15460000D02*
X4065000Y-15490000D01*
X4065000Y-15460000D02*
X4035000Y-15490000D01*
X4545000Y-9925000D02*
X4575000Y-9955000D01*
X4575000Y-9925000D02*
X4545000Y-9955000D01*
X5110000Y-11935000D02*
X5140000Y-11965000D01*
X5140000Y-11935000D02*
X5110000Y-11965000D01*
X5150000Y-6210000D02*
X5180000Y-6240000D01*
X5180000Y-6210000D02*
X5150000Y-6240000D01*
X5385000Y-6210000D02*
X5415000Y-6240000D01*
X5415000Y-6210000D02*
X5385000Y-6240000D01*
X5485000Y-11085000D02*
X5515000Y-11115000D01*
X5515000Y-11085000D02*
X5485000Y-11115000D01*
X5635000Y-6210000D02*
X5665000Y-6240000D01*
X5665000Y-6210000D02*
X5635000Y-6240000D01*
X5710000Y-15160000D02*
X5740000Y-15190000D01*
X5740000Y-15160000D02*
X5710000Y-15190000D01*
X5885000Y-6210000D02*
X5915000Y-6240000D01*
X5915000Y-6210000D02*
X5885000Y-6240000D01*
X5960000Y-15160000D02*
X5990000Y-15190000D01*
X5990000Y-15160000D02*
X5960000Y-15190000D01*
X5985000Y-13110000D02*
X6015000Y-13140000D01*
X6015000Y-13110000D02*
X5985000Y-13140000D01*
X6010000Y-12660000D02*
X6040000Y-12690000D01*
X6040000Y-12660000D02*
X6010000Y-12690000D01*
X6035000Y-13474000D02*
X6065000Y-13504000D01*
X6065000Y-13474000D02*
X6035000Y-13504000D01*
X6114536Y-14534641D02*
X6144536Y-14564641D01*
X6144536Y-14534641D02*
X6114536Y-14564641D01*
X6115000Y-14800000D02*
X6145000Y-14830000D01*
X6145000Y-14800000D02*
X6115000Y-14830000D01*
X6135000Y-6210000D02*
X6165000Y-6240000D01*
X6165000Y-6210000D02*
X6135000Y-6240000D01*
X6210000Y-15160000D02*
X6240000Y-15190000D01*
X6240000Y-15160000D02*
X6210000Y-15190000D01*
X6309000Y-14541000D02*
X6339000Y-14571000D01*
X6339000Y-14541000D02*
X6309000Y-14571000D01*
X6315000Y-9985000D02*
X6345000Y-10015000D01*
X6345000Y-9985000D02*
X6315000Y-10015000D01*
X6405000Y-11915000D02*
X6435000Y-11945000D01*
X6435000Y-11915000D02*
X6405000Y-11945000D01*
X6410000Y-6210000D02*
X6440000Y-6240000D01*
X6440000Y-6210000D02*
X6410000Y-6240000D01*
X6460000Y-12510000D02*
X6490000Y-12540000D01*
X6490000Y-12510000D02*
X6460000Y-12540000D01*
X6485000Y-13185000D02*
X6515000Y-13215000D01*
X6515000Y-13185000D02*
X6485000Y-13215000D01*
X6485000Y-15160000D02*
X6515000Y-15190000D01*
X6515000Y-15160000D02*
X6485000Y-15190000D01*
X6560000Y-12885000D02*
X6590000Y-12915000D01*
X6590000Y-12885000D02*
X6560000Y-12915000D01*
X6685000Y-6210000D02*
X6715000Y-6240000D01*
X6715000Y-6210000D02*
X6685000Y-6240000D01*
X6735000Y-15160000D02*
X6765000Y-15190000D01*
X6765000Y-15160000D02*
X6735000Y-15190000D01*
X6785000Y-11135000D02*
X6815000Y-11165000D01*
X6815000Y-11135000D02*
X6785000Y-11165000D01*
X6925000Y-10375000D02*
X6955000Y-10405000D01*
X6955000Y-10375000D02*
X6925000Y-10405000D01*
X6935000Y-6210000D02*
X6965000Y-6240000D01*
X6965000Y-6210000D02*
X6935000Y-6240000D01*
X6985000Y-15160000D02*
X7015000Y-15190000D01*
X7015000Y-15160000D02*
X6985000Y-15190000D01*
X7060000Y-7035000D02*
X7090000Y-7065000D01*
X7090000Y-7035000D02*
X7060000Y-7065000D01*
X7085000Y-10505000D02*
X7115000Y-10535000D01*
X7115000Y-10505000D02*
X7085000Y-10535000D01*
X7185000Y-6210000D02*
X7215000Y-6240000D01*
X7215000Y-6210000D02*
X7185000Y-6240000D01*
X7196250Y-8060000D02*
X7226250Y-8090000D01*
X7226250Y-8060000D02*
X7196250Y-8090000D01*
X7235000Y-15160000D02*
X7265000Y-15190000D01*
X7265000Y-15160000D02*
X7235000Y-15190000D01*
X7285000Y-11785000D02*
X7315000Y-11815000D01*
X7315000Y-11785000D02*
X7285000Y-11815000D01*
X7435000Y-6210000D02*
X7465000Y-6240000D01*
X7465000Y-6210000D02*
X7435000Y-6240000D01*
X7435000Y-10395000D02*
X7465000Y-10425000D01*
X7465000Y-10395000D02*
X7435000Y-10425000D01*
X7485000Y-15160000D02*
X7515000Y-15190000D01*
X7515000Y-15160000D02*
X7485000Y-15190000D01*
X7590000Y-6370000D02*
X7620000Y-6400000D01*
X7620000Y-6370000D02*
X7590000Y-6400000D01*
X7685000Y-14035000D02*
X7715000Y-14065000D01*
X7715000Y-14035000D02*
X7685000Y-14065000D01*
X7695000Y-11010000D02*
X7725000Y-11040000D01*
X7725000Y-11010000D02*
X7695000Y-11040000D01*
X7695000Y-11110000D02*
X7725000Y-11140000D01*
X7725000Y-11110000D02*
X7695000Y-11140000D01*
X7735000Y-15160000D02*
X7765000Y-15190000D01*
X7765000Y-15160000D02*
X7735000Y-15190000D01*
X7760000Y-13960000D02*
X7790000Y-13990000D01*
X7790000Y-13960000D02*
X7760000Y-13990000D01*
X7765000Y-6545000D02*
X7795000Y-6575000D01*
X7795000Y-6545000D02*
X7765000Y-6575000D01*
X7795000Y-11060000D02*
X7825000Y-11090000D01*
X7825000Y-11060000D02*
X7795000Y-11090000D01*
X7835000Y-14035000D02*
X7865000Y-14065000D01*
X7865000Y-14035000D02*
X7835000Y-14065000D01*
X7853750Y-9353125D02*
X7883750Y-9383125D01*
X7883750Y-9353125D02*
X7853750Y-9383125D01*
X7878500Y-13858500D02*
X7908500Y-13888500D01*
X7908500Y-13858500D02*
X7878500Y-13888500D01*
X7895000Y-11010000D02*
X7925000Y-11040000D01*
X7925000Y-11010000D02*
X7895000Y-11040000D01*
X7895000Y-11110000D02*
X7925000Y-11140000D01*
X7925000Y-11110000D02*
X7895000Y-11140000D01*
X7910000Y-13960000D02*
X7940000Y-13990000D01*
X7940000Y-13960000D02*
X7910000Y-13990000D01*
X7945000Y-6730000D02*
X7975000Y-6760000D01*
X7975000Y-6730000D02*
X7945000Y-6760000D01*
X7985000Y-14035000D02*
X8015000Y-14065000D01*
X8015000Y-14035000D02*
X7985000Y-14065000D01*
X8071250Y-9715625D02*
X8101250Y-9745625D01*
X8101250Y-9715625D02*
X8071250Y-9745625D01*
X8073750Y-9148125D02*
X8103750Y-9178125D01*
X8103750Y-9148125D02*
X8073750Y-9178125D01*
X8115000Y-6895000D02*
X8145000Y-6925000D01*
X8145000Y-6895000D02*
X8115000Y-6925000D01*
X8150000Y-12940000D02*
X8180000Y-12970000D01*
X8180000Y-12940000D02*
X8150000Y-12970000D01*
X8260000Y-10360000D02*
X8290000Y-10390000D01*
X8290000Y-10360000D02*
X8260000Y-10390000D01*
X8265000Y-7045000D02*
X8295000Y-7075000D01*
X8295000Y-7045000D02*
X8265000Y-7075000D01*
X8360000Y-13660000D02*
X8390000Y-13690000D01*
X8390000Y-13660000D02*
X8360000Y-13690000D01*
X8360000Y-13860000D02*
X8390000Y-13890000D01*
X8390000Y-13860000D02*
X8360000Y-13890000D01*
X8360000Y-14060000D02*
X8390000Y-14090000D01*
X8390000Y-14060000D02*
X8360000Y-14090000D01*
X8360000Y-14260000D02*
X8390000Y-14290000D01*
X8390000Y-14260000D02*
X8360000Y-14290000D01*
X8375000Y-11305000D02*
X8405000Y-11335000D01*
X8405000Y-11305000D02*
X8375000Y-11335000D01*
X8393750Y-8828125D02*
X8423750Y-8858125D01*
X8423750Y-8828125D02*
X8393750Y-8858125D01*
X8408750Y-9468125D02*
X8438750Y-9498125D01*
X8438750Y-9468125D02*
X8408750Y-9498125D01*
X8410000Y-13560000D02*
X8440000Y-13590000D01*
X8440000Y-13560000D02*
X8410000Y-13590000D01*
X8410000Y-13760000D02*
X8440000Y-13790000D01*
X8440000Y-13760000D02*
X8410000Y-13790000D01*
X8410000Y-13960000D02*
X8440000Y-13990000D01*
X8440000Y-13960000D02*
X8410000Y-13990000D01*
X8410000Y-14160000D02*
X8440000Y-14190000D01*
X8440000Y-14160000D02*
X8410000Y-14190000D01*
X8415000Y-7195000D02*
X8445000Y-7225000D01*
X8445000Y-7195000D02*
X8415000Y-7225000D01*
X8458750Y-9343125D02*
X8488750Y-9373125D01*
X8488750Y-9343125D02*
X8458750Y-9373125D01*
X8458750Y-9518125D02*
X8488750Y-9548125D01*
X8488750Y-9518125D02*
X8458750Y-9548125D01*
X8460000Y-10360000D02*
X8490000Y-10390000D01*
X8490000Y-10360000D02*
X8460000Y-10390000D01*
X8460000Y-13460000D02*
X8490000Y-13490000D01*
X8490000Y-13460000D02*
X8460000Y-13490000D01*
X8460000Y-13660000D02*
X8490000Y-13690000D01*
X8490000Y-13660000D02*
X8460000Y-13690000D01*
X8460000Y-13860000D02*
X8490000Y-13890000D01*
X8490000Y-13860000D02*
X8460000Y-13890000D01*
X8460000Y-14060000D02*
X8490000Y-14090000D01*
X8490000Y-14060000D02*
X8460000Y-14090000D01*
X8460000Y-14260000D02*
X8490000Y-14290000D01*
X8490000Y-14260000D02*
X8460000Y-14290000D01*
X8475000Y-15355000D02*
X8505000Y-15385000D01*
X8505000Y-15355000D02*
X8475000Y-15385000D01*
X8510000Y-12810000D02*
X8540000Y-12840000D01*
X8540000Y-12810000D02*
X8510000Y-12840000D01*
X8510000Y-13560000D02*
X8540000Y-13590000D01*
X8540000Y-13560000D02*
X8510000Y-13590000D01*
X8523750Y-9518125D02*
X8553750Y-9548125D01*
X8553750Y-9518125D02*
X8523750Y-9548125D01*
X8560000Y-13460000D02*
X8590000Y-13490000D01*
X8590000Y-13460000D02*
X8560000Y-13490000D01*
X8565000Y-7345000D02*
X8595000Y-7375000D01*
X8595000Y-7345000D02*
X8565000Y-7375000D01*
X8583750Y-9343125D02*
X8613750Y-9373125D01*
X8613750Y-9343125D02*
X8583750Y-9373125D01*
X8588750Y-9518125D02*
X8618750Y-9548125D01*
X8618750Y-9518125D02*
X8588750Y-9548125D01*
X8610000Y-13560000D02*
X8640000Y-13590000D01*
X8640000Y-13560000D02*
X8610000Y-13590000D01*
X8638750Y-9468125D02*
X8668750Y-9498125D01*
X8668750Y-9468125D02*
X8638750Y-9498125D01*
X8657500Y-13857500D02*
X8687500Y-13887500D01*
X8687500Y-13857500D02*
X8657500Y-13887500D01*
X8657500Y-13957500D02*
X8687500Y-13987500D01*
X8687500Y-13957500D02*
X8657500Y-13987500D01*
X8657500Y-14057500D02*
X8687500Y-14087500D01*
X8687500Y-14057500D02*
X8657500Y-14087500D01*
X8660000Y-13460000D02*
X8690000Y-13490000D01*
X8690000Y-13460000D02*
X8660000Y-13490000D01*
X8710000Y-13560000D02*
X8740000Y-13590000D01*
X8740000Y-13560000D02*
X8710000Y-13590000D01*
X8718750Y-9128125D02*
X8748750Y-9158125D01*
X8748750Y-9128125D02*
X8718750Y-9158125D01*
X8725000Y-7485000D02*
X8755000Y-7515000D01*
X8755000Y-7485000D02*
X8725000Y-7515000D01*
X8757500Y-13857500D02*
X8787500Y-13887500D01*
X8787500Y-13857500D02*
X8757500Y-13887500D01*
X8757500Y-13957500D02*
X8787500Y-13987500D01*
X8787500Y-13957500D02*
X8757500Y-13987500D01*
X8757500Y-14057500D02*
X8787500Y-14087500D01*
X8787500Y-14057500D02*
X8757500Y-14087500D01*
X8760000Y-13460000D02*
X8790000Y-13490000D01*
X8790000Y-13460000D02*
X8760000Y-13490000D01*
X8810000Y-13560000D02*
X8840000Y-13590000D01*
X8840000Y-13560000D02*
X8810000Y-13590000D01*
X8810000Y-15135000D02*
X8840000Y-15165000D01*
X8840000Y-15135000D02*
X8810000Y-15165000D01*
X8848750Y-9618125D02*
X8878750Y-9648125D01*
X8878750Y-9618125D02*
X8848750Y-9648125D01*
X8857500Y-13857500D02*
X8887500Y-13887500D01*
X8887500Y-13857500D02*
X8857500Y-13887500D01*
X8857500Y-13957500D02*
X8887500Y-13987500D01*
X8887500Y-13957500D02*
X8857500Y-13987500D01*
X8857500Y-14057500D02*
X8887500Y-14087500D01*
X8887500Y-14057500D02*
X8857500Y-14087500D01*
X8860000Y-13460000D02*
X8890000Y-13490000D01*
X8890000Y-13460000D02*
X8860000Y-13490000D01*
X8910000Y-13560000D02*
X8940000Y-13590000D01*
X8940000Y-13560000D02*
X8910000Y-13590000D01*
X8957500Y-13857500D02*
X8987500Y-13887500D01*
X8987500Y-13857500D02*
X8957500Y-13887500D01*
X8957500Y-13957500D02*
X8987500Y-13987500D01*
X8987500Y-13957500D02*
X8957500Y-13987500D01*
X8957500Y-14057500D02*
X8987500Y-14087500D01*
X8987500Y-14057500D02*
X8957500Y-14087500D01*
X8960000Y-13460000D02*
X8990000Y-13490000D01*
X8990000Y-13460000D02*
X8960000Y-13490000D01*
X8975000Y-7485000D02*
X9005000Y-7515000D01*
X9005000Y-7485000D02*
X8975000Y-7515000D01*
X9010000Y-13560000D02*
X9040000Y-13590000D01*
X9040000Y-13560000D02*
X9010000Y-13590000D01*
X9060000Y-12235000D02*
X9090000Y-12265000D01*
X9090000Y-12235000D02*
X9060000Y-12265000D01*
X9060000Y-13460000D02*
X9090000Y-13490000D01*
X9090000Y-13460000D02*
X9060000Y-13490000D01*
X9110000Y-13560000D02*
X9140000Y-13590000D01*
X9140000Y-13560000D02*
X9110000Y-13590000D01*
X9135000Y-10360000D02*
X9165000Y-10390000D01*
X9165000Y-10360000D02*
X9135000Y-10390000D01*
X9160000Y-13460000D02*
X9190000Y-13490000D01*
X9190000Y-13460000D02*
X9160000Y-13490000D01*
X9160000Y-13660000D02*
X9190000Y-13690000D01*
X9190000Y-13660000D02*
X9160000Y-13690000D01*
X9160000Y-13860000D02*
X9190000Y-13890000D01*
X9190000Y-13860000D02*
X9160000Y-13890000D01*
X9160000Y-14060000D02*
X9190000Y-14090000D01*
X9190000Y-14060000D02*
X9160000Y-14090000D01*
X9168750Y-9124375D02*
X9198750Y-9154375D01*
X9198750Y-9124375D02*
X9168750Y-9154375D01*
X9168750Y-9608125D02*
X9198750Y-9638125D01*
X9198750Y-9608125D02*
X9168750Y-9638125D01*
X9205409Y-15114591D02*
X9235409Y-15144591D01*
X9235409Y-15114591D02*
X9205409Y-15144591D01*
X9210000Y-7485000D02*
X9240000Y-7515000D01*
X9240000Y-7485000D02*
X9210000Y-7515000D01*
X9210000Y-13560000D02*
X9240000Y-13590000D01*
X9240000Y-13560000D02*
X9210000Y-13590000D01*
X9210000Y-13760000D02*
X9240000Y-13790000D01*
X9240000Y-13760000D02*
X9210000Y-13790000D01*
X9210000Y-13960000D02*
X9240000Y-13990000D01*
X9240000Y-13960000D02*
X9210000Y-13990000D01*
X9210000Y-14160000D02*
X9240000Y-14190000D01*
X9240000Y-14160000D02*
X9210000Y-14190000D01*
X9235000Y-12060000D02*
X9265000Y-12090000D01*
X9265000Y-12060000D02*
X9235000Y-12090000D01*
X9260000Y-13660000D02*
X9290000Y-13690000D01*
X9290000Y-13660000D02*
X9260000Y-13690000D01*
X9260000Y-13860000D02*
X9290000Y-13890000D01*
X9290000Y-13860000D02*
X9260000Y-13890000D01*
X9260000Y-14060000D02*
X9290000Y-14090000D01*
X9290000Y-14060000D02*
X9260000Y-14090000D01*
X9263750Y-9343125D02*
X9293750Y-9373125D01*
X9293750Y-9343125D02*
X9263750Y-9373125D01*
X9275000Y-15025000D02*
X9305000Y-15055000D01*
X9305000Y-15025000D02*
X9275000Y-15055000D01*
X9360000Y-10360000D02*
X9390000Y-10390000D01*
X9390000Y-10360000D02*
X9360000Y-10390000D01*
X9410000Y-11885000D02*
X9440000Y-11915000D01*
X9440000Y-11885000D02*
X9410000Y-11915000D01*
X9460000Y-7485000D02*
X9490000Y-7515000D01*
X9490000Y-7485000D02*
X9460000Y-7515000D01*
X9547500Y-15115000D02*
X9577500Y-15145000D01*
X9577500Y-15115000D02*
X9547500Y-15145000D01*
X9605000Y-13190000D02*
X9635000Y-13220000D01*
X9635000Y-13190000D02*
X9605000Y-13220000D01*
X9610000Y-13860000D02*
X9640000Y-13890000D01*
X9640000Y-13860000D02*
X9610000Y-13890000D01*
X9610000Y-14160000D02*
X9640000Y-14190000D01*
X9640000Y-14160000D02*
X9610000Y-14190000D01*
X9635000Y-15025000D02*
X9665000Y-15055000D01*
X9665000Y-15025000D02*
X9635000Y-15055000D01*
X9635000Y-15305000D02*
X9665000Y-15335000D01*
X9665000Y-15305000D02*
X9635000Y-15335000D01*
X9710000Y-7485000D02*
X9740000Y-7515000D01*
X9740000Y-7485000D02*
X9710000Y-7515000D01*
X9785000Y-11310000D02*
X9815000Y-11340000D01*
X9815000Y-11310000D02*
X9785000Y-11340000D01*
X9785000Y-12895000D02*
X9815000Y-12925000D01*
X9815000Y-12895000D02*
X9785000Y-12925000D01*
X9927500Y-15122500D02*
X9957500Y-15152500D01*
X9957500Y-15122500D02*
X9927500Y-15152500D01*
X9935000Y-10360000D02*
X9965000Y-10390000D01*
X9965000Y-10360000D02*
X9935000Y-10390000D01*
X9935000Y-10735000D02*
X9965000Y-10765000D01*
X9965000Y-10735000D02*
X9935000Y-10765000D01*
X9935000Y-13560000D02*
X9965000Y-13590000D01*
X9965000Y-13560000D02*
X9935000Y-13590000D01*
X9935000Y-13860000D02*
X9965000Y-13890000D01*
X9965000Y-13860000D02*
X9935000Y-13890000D01*
X9935000Y-14825000D02*
X9965000Y-14855000D01*
X9965000Y-14825000D02*
X9935000Y-14855000D01*
X9960000Y-7485000D02*
X9990000Y-7515000D01*
X9990000Y-7485000D02*
X9960000Y-7515000D01*
X9985000Y-14310000D02*
X10015000Y-14340000D01*
X10015000Y-14310000D02*
X9985000Y-14340000D01*
X10125000Y-13190000D02*
X10155000Y-13220000D01*
X10155000Y-13190000D02*
X10125000Y-13220000D01*
X10155000Y-14535000D02*
X10185000Y-14565000D01*
X10185000Y-14535000D02*
X10155000Y-14565000D01*
X10160000Y-11160000D02*
X10190000Y-11190000D01*
X10190000Y-11160000D02*
X10160000Y-11190000D01*
X10185000Y-10360000D02*
X10215000Y-10390000D01*
X10215000Y-10360000D02*
X10185000Y-10390000D01*
X10185000Y-10735000D02*
X10215000Y-10765000D01*
X10215000Y-10735000D02*
X10185000Y-10765000D01*
X10210000Y-14085000D02*
X10240000Y-14115000D01*
X10240000Y-14085000D02*
X10210000Y-14115000D01*
X10235000Y-7485000D02*
X10265000Y-7515000D01*
X10265000Y-7485000D02*
X10235000Y-7515000D01*
X10335000Y-11010000D02*
X10365000Y-11040000D01*
X10365000Y-11010000D02*
X10335000Y-11040000D01*
X10385000Y-14810000D02*
X10415000Y-14840000D01*
X10415000Y-14810000D02*
X10385000Y-14840000D01*
X10385000Y-15060000D02*
X10415000Y-15090000D01*
X10415000Y-15060000D02*
X10385000Y-15090000D01*
X10385000Y-15305000D02*
X10415000Y-15335000D01*
X10415000Y-15305000D02*
X10385000Y-15335000D01*
X10435000Y-11435000D02*
X10465000Y-11465000D01*
X10465000Y-11435000D02*
X10435000Y-11465000D01*
X10435000Y-13860000D02*
X10465000Y-13890000D01*
X10465000Y-13860000D02*
X10435000Y-13890000D01*
X10510000Y-7485000D02*
X10540000Y-7515000D01*
X10540000Y-7485000D02*
X10510000Y-7515000D01*
X10553750Y-12878750D02*
X10583750Y-12908750D01*
X10583750Y-12878750D02*
X10553750Y-12908750D01*
X10560000Y-8010000D02*
X10590000Y-8040000D01*
X10590000Y-8010000D02*
X10560000Y-8040000D01*
X10560000Y-11560000D02*
X10590000Y-11590000D01*
X10590000Y-11560000D02*
X10560000Y-11590000D01*
X10610000Y-9385000D02*
X10640000Y-9415000D01*
X10640000Y-9385000D02*
X10610000Y-9415000D01*
X10610000Y-10010000D02*
X10640000Y-10040000D01*
X10640000Y-10010000D02*
X10610000Y-10040000D01*
X10610000Y-10360000D02*
X10640000Y-10390000D01*
X10640000Y-10360000D02*
X10610000Y-10390000D01*
X10610000Y-10735000D02*
X10640000Y-10765000D01*
X10640000Y-10735000D02*
X10610000Y-10765000D01*
X10610000Y-11060000D02*
X10640000Y-11090000D01*
X10640000Y-11060000D02*
X10610000Y-11090000D01*
X10610000Y-12235000D02*
X10640000Y-12265000D01*
X10640000Y-12235000D02*
X10610000Y-12265000D01*
X10625000Y-11275000D02*
X10655000Y-11305000D01*
X10655000Y-11275000D02*
X10625000Y-11305000D01*
X10660000Y-13635000D02*
X10690000Y-13665000D01*
X10690000Y-13635000D02*
X10660000Y-13665000D01*
X10685000Y-13085000D02*
X10715000Y-13115000D01*
X10715000Y-13085000D02*
X10685000Y-13115000D01*
X10710000Y-7810000D02*
X10740000Y-7840000D01*
X10740000Y-7810000D02*
X10710000Y-7840000D01*
X10710000Y-11710000D02*
X10740000Y-11740000D01*
X10740000Y-11710000D02*
X10710000Y-11740000D01*
X10710000Y-14810000D02*
X10740000Y-14840000D01*
X10740000Y-14810000D02*
X10710000Y-14840000D01*
X10710000Y-15060000D02*
X10740000Y-15090000D01*
X10740000Y-15060000D02*
X10710000Y-15090000D01*
X10710000Y-15310000D02*
X10740000Y-15340000D01*
X10740000Y-15310000D02*
X10710000Y-15340000D01*
X10760000Y-7485000D02*
X10790000Y-7515000D01*
X10790000Y-7485000D02*
X10760000Y-7515000D01*
X10760000Y-12085000D02*
X10790000Y-12115000D01*
X10790000Y-12085000D02*
X10760000Y-12115000D01*
X10835000Y-11595000D02*
X10865000Y-11625000D01*
X10865000Y-11595000D02*
X10835000Y-11625000D01*
X10857500Y-13312500D02*
X10887500Y-13342500D01*
X10887500Y-13312500D02*
X10857500Y-13342500D01*
X10860000Y-11860000D02*
X10890000Y-11890000D01*
X10890000Y-11860000D02*
X10860000Y-11890000D01*
X10935000Y-8385000D02*
X10965000Y-8415000D01*
X10965000Y-8385000D02*
X10935000Y-8415000D01*
X10960000Y-12235000D02*
X10990000Y-12265000D01*
X10990000Y-12235000D02*
X10960000Y-12265000D01*
X10975000Y-11465000D02*
X11005000Y-11495000D01*
X11005000Y-11465000D02*
X10975000Y-11495000D01*
X10985000Y-11735000D02*
X11015000Y-11765000D01*
X11015000Y-11735000D02*
X10985000Y-11765000D01*
X11000000Y-13155000D02*
X11030000Y-13185000D01*
X11030000Y-13155000D02*
X11000000Y-13185000D01*
X11010000Y-7485000D02*
X11040000Y-7515000D01*
X11040000Y-7485000D02*
X11010000Y-7515000D01*
X11010000Y-8735000D02*
X11040000Y-8765000D01*
X11040000Y-8735000D02*
X11010000Y-8765000D01*
X11010000Y-10010000D02*
X11040000Y-10040000D01*
X11040000Y-10010000D02*
X11010000Y-10040000D01*
X11010000Y-10360000D02*
X11040000Y-10390000D01*
X11040000Y-10360000D02*
X11010000Y-10390000D01*
X11010000Y-10735000D02*
X11040000Y-10765000D01*
X11040000Y-10735000D02*
X11010000Y-10765000D01*
X11010000Y-11060000D02*
X11040000Y-11090000D01*
X11040000Y-11060000D02*
X11010000Y-11090000D01*
X11015000Y-11275000D02*
X11045000Y-11305000D01*
X11045000Y-11275000D02*
X11015000Y-11305000D01*
X11035000Y-13035000D02*
X11065000Y-13065000D01*
X11065000Y-13035000D02*
X11035000Y-13065000D01*
X11085000Y-14310000D02*
X11115000Y-14340000D01*
X11115000Y-14310000D02*
X11085000Y-14340000D01*
X11110000Y-8210000D02*
X11140000Y-8240000D01*
X11140000Y-8210000D02*
X11110000Y-8240000D01*
X11110000Y-11610000D02*
X11140000Y-11640000D01*
X11140000Y-11610000D02*
X11110000Y-11640000D01*
X11110000Y-12085000D02*
X11140000Y-12115000D01*
X11140000Y-12085000D02*
X11110000Y-12115000D01*
X11137773Y-12692227D02*
X11167773Y-12722227D01*
X11167773Y-12692227D02*
X11137773Y-12722227D01*
X11172500Y-9875000D02*
X11202500Y-9905000D01*
X11202500Y-9875000D02*
X11172500Y-9905000D01*
X11186917Y-12755530D02*
X11216917Y-12785530D01*
X11216917Y-12755530D02*
X11186917Y-12785530D01*
X11210000Y-15305000D02*
X11240000Y-15335000D01*
X11240000Y-15305000D02*
X11210000Y-15335000D01*
X11215000Y-11965000D02*
X11245000Y-11995000D01*
X11245000Y-11965000D02*
X11215000Y-11995000D01*
X11230000Y-12327573D02*
X11260000Y-12357573D01*
X11260000Y-12327573D02*
X11230000Y-12357573D01*
X11260000Y-7485000D02*
X11290000Y-7515000D01*
X11290000Y-7485000D02*
X11260000Y-7515000D01*
X11285000Y-14085000D02*
X11315000Y-14115000D01*
X11315000Y-14085000D02*
X11285000Y-14115000D01*
X11297878Y-12399782D02*
X11327878Y-12429782D01*
X11327878Y-12399782D02*
X11297878Y-12429782D01*
X11315000Y-12295000D02*
X11345000Y-12325000D01*
X11345000Y-12295000D02*
X11315000Y-12325000D01*
X11330964Y-12473984D02*
X11360964Y-12503984D01*
X11360964Y-12473984D02*
X11330964Y-12503984D01*
X11335000Y-9160000D02*
X11365000Y-9190000D01*
X11365000Y-9160000D02*
X11335000Y-9190000D01*
X11335000Y-9610000D02*
X11365000Y-9640000D01*
X11365000Y-9610000D02*
X11335000Y-9640000D01*
X11335000Y-10010000D02*
X11365000Y-10040000D01*
X11365000Y-10010000D02*
X11335000Y-10040000D01*
X11335000Y-10360000D02*
X11365000Y-10390000D01*
X11365000Y-10360000D02*
X11335000Y-10390000D01*
X11335000Y-10735000D02*
X11365000Y-10765000D01*
X11365000Y-10735000D02*
X11335000Y-10765000D01*
X11335000Y-11060000D02*
X11365000Y-11090000D01*
X11365000Y-11060000D02*
X11335000Y-11090000D01*
X11335000Y-11410000D02*
X11365000Y-11440000D01*
X11365000Y-11410000D02*
X11335000Y-11440000D01*
X11335000Y-11855000D02*
X11365000Y-11885000D01*
X11365000Y-11855000D02*
X11335000Y-11885000D01*
X11351676Y-12551256D02*
X11381676Y-12581256D01*
X11381676Y-12551256D02*
X11351676Y-12581256D01*
X11419000Y-12603517D02*
X11449000Y-12633517D01*
X11449000Y-12603517D02*
X11419000Y-12633517D01*
X11475000Y-15305000D02*
X11505000Y-15335000D01*
X11505000Y-15305000D02*
X11475000Y-15335000D01*
X11485000Y-13860000D02*
X11515000Y-13890000D01*
X11515000Y-13860000D02*
X11485000Y-13890000D01*
X11502370Y-12605000D02*
X11532370Y-12635000D01*
X11532370Y-12605000D02*
X11502370Y-12635000D01*
X11510000Y-8610000D02*
X11540000Y-8640000D01*
X11540000Y-8610000D02*
X11510000Y-8640000D01*
X11535000Y-7485000D02*
X11565000Y-7515000D01*
X11565000Y-7485000D02*
X11535000Y-7515000D01*
X11535000Y-12295000D02*
X11565000Y-12325000D01*
X11565000Y-12295000D02*
X11535000Y-12325000D01*
X11576038Y-12710000D02*
X11606038Y-12740000D01*
X11606038Y-12710000D02*
X11576038Y-12740000D01*
X11635000Y-11560000D02*
X11665000Y-11590000D01*
X11665000Y-11560000D02*
X11635000Y-11590000D01*
X11675000Y-12955000D02*
X11705000Y-12985000D01*
X11705000Y-12955000D02*
X11675000Y-12985000D01*
X11680000Y-12725902D02*
X11710000Y-12755902D01*
X11710000Y-12725902D02*
X11680000Y-12755902D01*
X11685000Y-10360000D02*
X11715000Y-10390000D01*
X11715000Y-10360000D02*
X11685000Y-10390000D01*
X11685000Y-10735000D02*
X11715000Y-10765000D01*
X11715000Y-10735000D02*
X11685000Y-10765000D01*
X11685000Y-11060000D02*
X11715000Y-11090000D01*
X11715000Y-11060000D02*
X11685000Y-11090000D01*
X11735000Y-9160000D02*
X11765000Y-9190000D01*
X11765000Y-9160000D02*
X11735000Y-9190000D01*
X11735000Y-9610000D02*
X11765000Y-9640000D01*
X11765000Y-9610000D02*
X11735000Y-9640000D01*
X11805000Y-12115000D02*
X11835000Y-12145000D01*
X11835000Y-12115000D02*
X11805000Y-12145000D01*
X11810000Y-7485000D02*
X11840000Y-7515000D01*
X11840000Y-7485000D02*
X11810000Y-7515000D01*
X11850000Y-15310000D02*
X11880000Y-15340000D01*
X11880000Y-15310000D02*
X11850000Y-15340000D01*
X11860000Y-12285000D02*
X11890000Y-12315000D01*
X11890000Y-12285000D02*
X11860000Y-12315000D01*
X11885000Y-8185000D02*
X11915000Y-8215000D01*
X11915000Y-8185000D02*
X11885000Y-8215000D01*
X11936203Y-13355886D02*
X11966203Y-13385886D01*
X11966203Y-13355886D02*
X11936203Y-13385886D01*
X11951250Y-13638750D02*
X11981250Y-13668750D01*
X11981250Y-13638750D02*
X11951250Y-13668750D01*
X11977500Y-13425000D02*
X12007500Y-13455000D01*
X12007500Y-13425000D02*
X11977500Y-13455000D01*
X11978298Y-12735945D02*
X12008298Y-12765945D01*
X12008298Y-12735945D02*
X11978298Y-12765945D01*
X11990000Y-13005000D02*
X12020000Y-13035000D01*
X12020000Y-13005000D02*
X11990000Y-13035000D01*
X12000000Y-14025000D02*
X12030000Y-14055000D01*
X12030000Y-14025000D02*
X12000000Y-14055000D01*
X12010000Y-13095000D02*
X12040000Y-13125000D01*
X12040000Y-13095000D02*
X12010000Y-13125000D01*
X12015000Y-13330000D02*
X12045000Y-13360000D01*
X12045000Y-13330000D02*
X12015000Y-13360000D01*
X12038298Y-12682808D02*
X12068298Y-12712808D01*
X12068298Y-12682808D02*
X12038298Y-12712808D01*
X12060000Y-7485000D02*
X12090000Y-7515000D01*
X12090000Y-7485000D02*
X12060000Y-7515000D01*
X12060000Y-9010000D02*
X12090000Y-9040000D01*
X12090000Y-9010000D02*
X12060000Y-9040000D01*
X12060000Y-10735000D02*
X12090000Y-10765000D01*
X12090000Y-10735000D02*
X12060000Y-10765000D01*
X12069626Y-12881186D02*
X12099626Y-12911186D01*
X12099626Y-12881186D02*
X12069626Y-12911186D01*
X12091569Y-13166569D02*
X12121569Y-13196569D01*
X12121569Y-13166569D02*
X12091569Y-13196569D01*
X12126194Y-12821186D02*
X12156194Y-12851186D01*
X12156194Y-12821186D02*
X12126194Y-12851186D01*
X12137500Y-11362500D02*
X12167500Y-11392500D01*
X12167500Y-11362500D02*
X12137500Y-11392500D01*
X12147500Y-11807001D02*
X12177500Y-11837001D01*
X12177500Y-11807001D02*
X12147500Y-11837001D01*
X12147500Y-12947500D02*
X12177500Y-12977500D01*
X12177500Y-12947500D02*
X12147500Y-12977500D01*
X12166427Y-13528693D02*
X12196427Y-13558693D01*
X12196427Y-13528693D02*
X12166427Y-13558693D01*
X12185000Y-10960000D02*
X12215000Y-10990000D01*
X12215000Y-10960000D02*
X12185000Y-10990000D01*
X12185000Y-11085000D02*
X12215000Y-11115000D01*
X12215000Y-11085000D02*
X12185000Y-11115000D01*
X12185000Y-11235000D02*
X12215000Y-11265000D01*
X12215000Y-11235000D02*
X12185000Y-11265000D01*
X12190000Y-14025000D02*
X12220000Y-14055000D01*
X12220000Y-14025000D02*
X12190000Y-14055000D01*
X12210000Y-15310000D02*
X12240000Y-15340000D01*
X12240000Y-15310000D02*
X12210000Y-15340000D01*
X12245000Y-13025000D02*
X12275000Y-13055000D01*
X12275000Y-13025000D02*
X12245000Y-13055000D01*
X12245000Y-13205000D02*
X12275000Y-13235000D01*
X12275000Y-13205000D02*
X12245000Y-13235000D01*
X12245000Y-13385000D02*
X12275000Y-13415000D01*
X12275000Y-13385000D02*
X12245000Y-13415000D01*
X12245695Y-13539488D02*
X12275695Y-13569488D01*
X12275695Y-13539488D02*
X12245695Y-13569488D01*
X12255000Y-14855000D02*
X12285000Y-14885000D01*
X12285000Y-14855000D02*
X12255000Y-14885000D01*
X12310000Y-7485000D02*
X12340000Y-7515000D01*
X12340000Y-7485000D02*
X12310000Y-7515000D01*
X12325670Y-13537483D02*
X12355670Y-13567483D01*
X12355670Y-13537483D02*
X12325670Y-13567483D01*
X12335000Y-10960000D02*
X12365000Y-10990000D01*
X12365000Y-10960000D02*
X12335000Y-10990000D01*
X12335000Y-11235000D02*
X12365000Y-11265000D01*
X12365000Y-11235000D02*
X12335000Y-11265000D01*
X12385000Y-10360000D02*
X12415000Y-10390000D01*
X12415000Y-10360000D02*
X12385000Y-10390000D01*
X12405000Y-13025000D02*
X12435000Y-13055000D01*
X12435000Y-13025000D02*
X12405000Y-13055000D01*
X12405000Y-13205000D02*
X12435000Y-13235000D01*
X12435000Y-13205000D02*
X12405000Y-13235000D01*
X12405000Y-13385000D02*
X12435000Y-13415000D01*
X12435000Y-13385000D02*
X12405000Y-13415000D01*
X12406698Y-13538781D02*
X12436698Y-13568781D01*
X12436698Y-13538781D02*
X12406698Y-13568781D01*
X12445000Y-15245000D02*
X12475000Y-15275000D01*
X12475000Y-15245000D02*
X12445000Y-15275000D01*
X12485000Y-10610000D02*
X12515000Y-10640000D01*
X12515000Y-10610000D02*
X12485000Y-10640000D01*
X12486698Y-13538781D02*
X12516698Y-13568781D01*
X12516698Y-13538781D02*
X12486698Y-13568781D01*
X12515000Y-11357500D02*
X12545000Y-11387500D01*
X12545000Y-11357500D02*
X12515000Y-11387500D01*
X12560000Y-7485000D02*
X12590000Y-7515000D01*
X12590000Y-7485000D02*
X12560000Y-7515000D01*
X12565000Y-13025000D02*
X12595000Y-13055000D01*
X12595000Y-13025000D02*
X12565000Y-13055000D01*
X12565000Y-13205000D02*
X12595000Y-13235000D01*
X12595000Y-13205000D02*
X12565000Y-13235000D01*
X12565000Y-13385000D02*
X12595000Y-13415000D01*
X12595000Y-13385000D02*
X12565000Y-13415000D01*
X12566699Y-13538781D02*
X12596699Y-13568781D01*
X12596699Y-13538781D02*
X12566699Y-13568781D01*
X12567500Y-11845000D02*
X12597500Y-11875000D01*
X12597500Y-11845000D02*
X12567500Y-11875000D01*
X12600000Y-12025000D02*
X12630000Y-12055000D01*
X12630000Y-12025000D02*
X12600000Y-12055000D01*
X12605000Y-15245000D02*
X12635000Y-15275000D01*
X12635000Y-15245000D02*
X12605000Y-15275000D01*
X12646699Y-13538781D02*
X12676699Y-13568781D01*
X12676699Y-13538781D02*
X12646699Y-13568781D01*
X12660397Y-12470397D02*
X12690397Y-12500397D01*
X12690397Y-12470397D02*
X12660397Y-12500397D01*
X12682709Y-12198380D02*
X12712709Y-12228380D01*
X12712709Y-12198380D02*
X12682709Y-12228380D01*
X12685000Y-10735000D02*
X12715000Y-10765000D01*
X12715000Y-10735000D02*
X12685000Y-10765000D01*
X12685000Y-11060000D02*
X12715000Y-11090000D01*
X12715000Y-11060000D02*
X12685000Y-11090000D01*
X12725000Y-12781186D02*
X12755000Y-12811186D01*
X12755000Y-12781186D02*
X12725000Y-12811186D01*
X12725000Y-13025000D02*
X12755000Y-13055000D01*
X12755000Y-13025000D02*
X12725000Y-13055000D01*
X12725000Y-13205000D02*
X12755000Y-13235000D01*
X12755000Y-13205000D02*
X12725000Y-13235000D01*
X12725000Y-13385000D02*
X12755000Y-13415000D01*
X12755000Y-13385000D02*
X12725000Y-13415000D01*
X12726699Y-13538780D02*
X12756699Y-13568780D01*
X12756699Y-13538780D02*
X12726699Y-13568780D01*
X12757950Y-12171199D02*
X12787950Y-12201199D01*
X12787950Y-12171199D02*
X12757950Y-12201199D01*
X12805000Y-12781186D02*
X12835000Y-12811186D01*
X12835000Y-12781186D02*
X12805000Y-12811186D01*
X12806699Y-13538780D02*
X12836699Y-13568780D01*
X12836699Y-13538780D02*
X12806699Y-13568780D01*
X12835000Y-7485000D02*
X12865000Y-7515000D01*
X12865000Y-7485000D02*
X12835000Y-7515000D01*
X12860000Y-9610000D02*
X12890000Y-9640000D01*
X12890000Y-9610000D02*
X12860000Y-9640000D01*
X12860000Y-10360000D02*
X12890000Y-10390000D01*
X12890000Y-10360000D02*
X12860000Y-10390000D01*
X12860000Y-10735000D02*
X12890000Y-10765000D01*
X12890000Y-10735000D02*
X12860000Y-10765000D01*
X12860000Y-11060000D02*
X12890000Y-11090000D01*
X12890000Y-11060000D02*
X12860000Y-11090000D01*
X12865000Y-15246000D02*
X12895000Y-15276000D01*
X12895000Y-15246000D02*
X12865000Y-15276000D01*
X12885000Y-13025000D02*
X12915000Y-13055000D01*
X12915000Y-13025000D02*
X12885000Y-13055000D01*
X12885000Y-13205000D02*
X12915000Y-13235000D01*
X12915000Y-13205000D02*
X12885000Y-13235000D01*
X12885000Y-13385000D02*
X12915000Y-13415000D01*
X12915000Y-13385000D02*
X12885000Y-13415000D01*
X12886699Y-13538780D02*
X12916699Y-13568780D01*
X12916699Y-13538780D02*
X12886699Y-13568780D01*
X12934693Y-12190000D02*
X12964693Y-12220000D01*
X12964693Y-12190000D02*
X12934693Y-12220000D01*
X12943982Y-12533982D02*
X12973982Y-12563982D01*
X12973982Y-12533982D02*
X12943982Y-12563982D01*
X12945000Y-12438990D02*
X12975000Y-12468990D01*
X12975000Y-12438990D02*
X12945000Y-12468990D01*
X13015000Y-11845000D02*
X13045000Y-11875000D01*
X13045000Y-11845000D02*
X13015000Y-11875000D01*
X13035000Y-13860000D02*
X13065000Y-13890000D01*
X13065000Y-13860000D02*
X13035000Y-13890000D01*
X13038375Y-13344297D02*
X13068375Y-13374297D01*
X13068375Y-13344297D02*
X13038375Y-13374297D01*
X13039414Y-12864203D02*
X13069414Y-12894203D01*
X13069414Y-12864203D02*
X13039414Y-12894203D01*
X13039414Y-12944203D02*
X13069414Y-12974203D01*
X13069414Y-12944203D02*
X13039414Y-12974203D01*
X13039424Y-13024217D02*
X13069424Y-13054217D01*
X13069424Y-13024217D02*
X13039424Y-13054217D01*
X13039488Y-13104305D02*
X13069488Y-13134305D01*
X13069488Y-13104305D02*
X13039488Y-13134305D01*
X13039488Y-13184305D02*
X13069488Y-13214305D01*
X13069488Y-13184305D02*
X13039488Y-13214305D01*
X13039488Y-13264305D02*
X13069488Y-13294305D01*
X13069488Y-13264305D02*
X13039488Y-13294305D01*
X13039488Y-13424305D02*
X13069488Y-13454305D01*
X13069488Y-13424305D02*
X13039488Y-13454305D01*
X13105000Y-15245000D02*
X13135000Y-15275000D01*
X13135000Y-15245000D02*
X13105000Y-15275000D01*
X13110000Y-7485000D02*
X13140000Y-7515000D01*
X13140000Y-7485000D02*
X13110000Y-7515000D01*
X13110000Y-13655000D02*
X13140000Y-13685000D01*
X13140000Y-13655000D02*
X13110000Y-13685000D01*
X13185000Y-9610000D02*
X13215000Y-9640000D01*
X13215000Y-9610000D02*
X13185000Y-9640000D01*
X13185000Y-10010000D02*
X13215000Y-10040000D01*
X13215000Y-10010000D02*
X13185000Y-10040000D01*
X13185000Y-10360000D02*
X13215000Y-10390000D01*
X13215000Y-10360000D02*
X13185000Y-10390000D01*
X13185000Y-10735000D02*
X13215000Y-10765000D01*
X13215000Y-10735000D02*
X13185000Y-10765000D01*
X13185000Y-11060000D02*
X13215000Y-11090000D01*
X13215000Y-11060000D02*
X13185000Y-11090000D01*
X13310000Y-14260000D02*
X13340000Y-14290000D01*
X13340000Y-14260000D02*
X13310000Y-14290000D01*
X13340000Y-11450000D02*
X13370000Y-11480000D01*
X13370000Y-11450000D02*
X13340000Y-11480000D01*
X13345000Y-11745000D02*
X13375000Y-11775000D01*
X13375000Y-11745000D02*
X13345000Y-11775000D01*
X13345000Y-12030000D02*
X13375000Y-12060000D01*
X13375000Y-12030000D02*
X13345000Y-12060000D01*
X13360000Y-7485000D02*
X13390000Y-7515000D01*
X13390000Y-7485000D02*
X13360000Y-7515000D01*
X13375000Y-13505000D02*
X13405000Y-13535000D01*
X13405000Y-13505000D02*
X13375000Y-13535000D01*
X13410000Y-10010000D02*
X13440000Y-10040000D01*
X13440000Y-10010000D02*
X13410000Y-10040000D01*
X13410000Y-10360000D02*
X13440000Y-10390000D01*
X13440000Y-10360000D02*
X13410000Y-10390000D01*
X13410000Y-11060000D02*
X13440000Y-11090000D01*
X13440000Y-11060000D02*
X13410000Y-11090000D01*
X13440000Y-11600000D02*
X13470000Y-11630000D01*
X13470000Y-11600000D02*
X13440000Y-11630000D01*
X13610000Y-7485000D02*
X13640000Y-7515000D01*
X13640000Y-7485000D02*
X13610000Y-7515000D01*
X13615000Y-15245000D02*
X13645000Y-15275000D01*
X13645000Y-15245000D02*
X13615000Y-15275000D01*
X13660000Y-10035000D02*
X13690000Y-10065000D01*
X13690000Y-10035000D02*
X13660000Y-10065000D01*
X13710000Y-11845000D02*
X13740000Y-11875000D01*
X13740000Y-11845000D02*
X13710000Y-11875000D01*
X13715000Y-12910000D02*
X13745000Y-12940000D01*
X13745000Y-12910000D02*
X13715000Y-12940000D01*
X13735000Y-13860000D02*
X13765000Y-13890000D01*
X13765000Y-13860000D02*
X13735000Y-13890000D01*
X13735000Y-14260000D02*
X13765000Y-14290000D01*
X13765000Y-14260000D02*
X13735000Y-14290000D01*
X13735000Y-14660000D02*
X13765000Y-14690000D01*
X13765000Y-14660000D02*
X13735000Y-14690000D01*
X13860000Y-7485000D02*
X13890000Y-7515000D01*
X13890000Y-7485000D02*
X13860000Y-7515000D01*
X13935000Y-13085000D02*
X13965000Y-13115000D01*
X13965000Y-13085000D02*
X13935000Y-13115000D01*
X14075000Y-11455000D02*
X14105000Y-11485000D01*
X14105000Y-11455000D02*
X14075000Y-11485000D01*
X14130000Y-15245000D02*
X14160000Y-15275000D01*
X14160000Y-15245000D02*
X14130000Y-15275000D01*
X14135000Y-7485000D02*
X14165000Y-7515000D01*
X14165000Y-7485000D02*
X14135000Y-7515000D01*
X14210000Y-12410000D02*
X14240000Y-12440000D01*
X14240000Y-12410000D02*
X14210000Y-12440000D01*
X14210000Y-13335000D02*
X14240000Y-13365000D01*
X14240000Y-13335000D02*
X14210000Y-13365000D01*
X14235000Y-8910000D02*
X14265000Y-8940000D01*
X14265000Y-8910000D02*
X14235000Y-8940000D01*
X14385000Y-14260000D02*
X14415000Y-14290000D01*
X14415000Y-14260000D02*
X14385000Y-14290000D01*
X14385000Y-14660000D02*
X14415000Y-14690000D01*
X14415000Y-14660000D02*
X14385000Y-14690000D01*
X14385000Y-15185000D02*
X14415000Y-15215000D01*
X14415000Y-15185000D02*
X14385000Y-15215000D01*
X14420000Y-11110000D02*
X14450000Y-11140000D01*
X14450000Y-11110000D02*
X14420000Y-11140000D01*
X14435000Y-7485000D02*
X14465000Y-7515000D01*
X14465000Y-7485000D02*
X14435000Y-7515000D01*
X14480000Y-11440000D02*
X14510000Y-11470000D01*
X14510000Y-11440000D02*
X14480000Y-11470000D01*
X14480000Y-12120000D02*
X14510000Y-12150000D01*
X14510000Y-12120000D02*
X14480000Y-12150000D01*
X14485000Y-13610000D02*
X14515000Y-13640000D01*
X14515000Y-13610000D02*
X14485000Y-13640000D01*
X14710000Y-7485000D02*
X14740000Y-7515000D01*
X14740000Y-7485000D02*
X14710000Y-7515000D01*
X14760000Y-14660000D02*
X14790000Y-14690000D01*
X14790000Y-14660000D02*
X14760000Y-14690000D01*
X14760000Y-15185000D02*
X14790000Y-15215000D01*
X14790000Y-15185000D02*
X14760000Y-15215000D01*
X14960000Y-7485000D02*
X14990000Y-7515000D01*
X14990000Y-7485000D02*
X14960000Y-7515000D01*
X15110000Y-13385000D02*
X15140000Y-13415000D01*
X15140000Y-13385000D02*
X15110000Y-13415000D01*
X15135000Y-15245000D02*
X15165000Y-15275000D01*
X15165000Y-15245000D02*
X15135000Y-15275000D01*
X15210000Y-7485000D02*
X15240000Y-7515000D01*
X15240000Y-7485000D02*
X15210000Y-7515000D01*
X15297500Y-12435000D02*
X15327500Y-12465000D01*
X15327500Y-12435000D02*
X15297500Y-12465000D01*
X15460000Y-7485000D02*
X15490000Y-7515000D01*
X15490000Y-7485000D02*
X15460000Y-7515000D01*
X15535000Y-15060000D02*
X15565000Y-15090000D01*
X15565000Y-15060000D02*
X15535000Y-15090000D01*
X15535000Y-15260000D02*
X15565000Y-15290000D01*
X15565000Y-15260000D02*
X15535000Y-15290000D01*
X15635000Y-15160000D02*
X15665000Y-15190000D01*
X15665000Y-15160000D02*
X15635000Y-15190000D01*
X15735000Y-7485000D02*
X15765000Y-7515000D01*
X15765000Y-7485000D02*
X15735000Y-7515000D01*
X15735000Y-15060000D02*
X15765000Y-15090000D01*
X15765000Y-15060000D02*
X15735000Y-15090000D01*
X15735000Y-15260000D02*
X15765000Y-15290000D01*
X15765000Y-15260000D02*
X15735000Y-15290000D01*
X15910000Y-7485000D02*
X15940000Y-7515000D01*
X15940000Y-7485000D02*
X15910000Y-7515000D01*
X16035000Y-7610000D02*
X16065000Y-7640000D01*
X16065000Y-7610000D02*
X16035000Y-7640000D01*
X16160000Y-7735000D02*
X16190000Y-7765000D01*
X16190000Y-7735000D02*
X16160000Y-7765000D01*
X16160000Y-7995000D02*
X16190000Y-8025000D01*
X16190000Y-7995000D02*
X16160000Y-8025000D01*
X16160000Y-8265000D02*
X16190000Y-8295000D01*
X16190000Y-8265000D02*
X16160000Y-8295000D01*
X16160000Y-8555000D02*
X16190000Y-8585000D01*
X16190000Y-8555000D02*
X16160000Y-8585000D01*
X16160000Y-8830000D02*
X16190000Y-8860000D01*
X16190000Y-8830000D02*
X16160000Y-8860000D01*
X16160000Y-9105000D02*
X16190000Y-9135000D01*
X16190000Y-9105000D02*
X16160000Y-9135000D01*
X16160000Y-9355000D02*
X16190000Y-9385000D01*
X16190000Y-9355000D02*
X16160000Y-9385000D01*
X16160000Y-9605000D02*
X16190000Y-9635000D01*
X16190000Y-9605000D02*
X16160000Y-9635000D01*
X16160000Y-9855000D02*
X16190000Y-9885000D01*
X16190000Y-9855000D02*
X16160000Y-9885000D01*
X16160000Y-10130000D02*
X16190000Y-10160000D01*
X16190000Y-10130000D02*
X16160000Y-10160000D01*
X16160000Y-10355000D02*
X16190000Y-10385000D01*
X16190000Y-10355000D02*
X16160000Y-10385000D01*
X16160000Y-10630000D02*
X16190000Y-10660000D01*
X16190000Y-10630000D02*
X16160000Y-10660000D01*
X16160000Y-10880000D02*
X16190000Y-10910000D01*
X16190000Y-10880000D02*
X16160000Y-10910000D01*
X16160000Y-11130000D02*
X16190000Y-11160000D01*
X16190000Y-11130000D02*
X16160000Y-11160000D01*
X16160000Y-11380000D02*
X16190000Y-11410000D01*
X16190000Y-11380000D02*
X16160000Y-11410000D01*
X16160000Y-11655000D02*
X16190000Y-11685000D01*
X16190000Y-11655000D02*
X16160000Y-11685000D01*
X16160000Y-11930000D02*
X16190000Y-11960000D01*
X16190000Y-11930000D02*
X16160000Y-11960000D01*
X16160000Y-12180000D02*
X16190000Y-12210000D01*
X16190000Y-12180000D02*
X16160000Y-12210000D01*
X16160000Y-12430000D02*
X16190000Y-12460000D01*
X16190000Y-12430000D02*
X16160000Y-12460000D01*
X16160000Y-12680000D02*
X16190000Y-12710000D01*
X16190000Y-12680000D02*
X16160000Y-12710000D01*
X16160000Y-12955000D02*
X16190000Y-12985000D01*
X16190000Y-12955000D02*
X16160000Y-12985000D01*
X16160000Y-13230000D02*
X16190000Y-13260000D01*
X16190000Y-13230000D02*
X16160000Y-13260000D01*
X16160000Y-13504000D02*
X16190000Y-13534000D01*
X16190000Y-13504000D02*
X16160000Y-13534000D01*
X16160000Y-13794000D02*
X16190000Y-13824000D01*
X16190000Y-13794000D02*
X16160000Y-13824000D01*
X16160000Y-14094000D02*
X16190000Y-14124000D01*
X16190000Y-14094000D02*
X16160000Y-14124000D01*
X16160000Y-14369000D02*
X16190000Y-14399000D01*
X16190000Y-14369000D02*
X16160000Y-14399000D01*
X16160000Y-14619000D02*
X16190000Y-14649000D01*
X16190000Y-14619000D02*
X16160000Y-14649000D01*
X16160000Y-14869000D02*
X16190000Y-14899000D01*
X16190000Y-14869000D02*
X16160000Y-14899000D01*
X4425000Y-7435000D02*
G75*
G02*
X4385000Y-7435000I-20000J0D01*
G01*
X4385000Y-7435000D02*
G75*
G02*
X4425000Y-7435000I20000J0D01*
G01*
X4385000Y-7385000D02*
X4385000Y-7485000D01*
X4425000Y-7485000D02*
G75*
G02*
X4385000Y-7485000I-20000J0D01*
G01*
X4425000Y-7485000D02*
X4425000Y-7385000D01*
X4425000Y-7385000D02*
G75*
G03*
X4385000Y-7385000I-20000J0D01*
G01*
X4425000Y-8685000D02*
G75*
G02*
X4385000Y-8685000I-20000J0D01*
G01*
X4385000Y-8685000D02*
G75*
G02*
X4425000Y-8685000I20000J0D01*
G01*
X4385000Y-8635000D02*
X4385000Y-8735000D01*
X4425000Y-8735000D02*
G75*
G02*
X4385000Y-8735000I-20000J0D01*
G01*
X4425000Y-8735000D02*
X4425000Y-8635000D01*
X4425000Y-8635000D02*
G75*
G03*
X4385000Y-8635000I-20000J0D01*
G01*
X4425000Y-11200000D02*
G75*
G02*
X4385000Y-11200000I-20000J0D01*
G01*
X4385000Y-11200000D02*
G75*
G02*
X4425000Y-11200000I20000J0D01*
G01*
X4385000Y-11150000D02*
X4385000Y-11250000D01*
X4425000Y-11250000D02*
G75*
G02*
X4385000Y-11250000I-20000J0D01*
G01*
X4425000Y-11250000D02*
X4425000Y-11150000D01*
X4425000Y-11150000D02*
G75*
G03*
X4385000Y-11150000I-20000J0D01*
G01*
X4925000Y-6935000D02*
G75*
G02*
X4885000Y-6935000I-20000J0D01*
G01*
X4885000Y-6935000D02*
G75*
G02*
X4925000Y-6935000I20000J0D01*
G01*
X4955000Y-6915000D02*
X4855000Y-6915000D01*
X4855000Y-6955000D02*
G75*
G02*
X4855000Y-6915000I0J20000D01*
G01*
X4855000Y-6955000D02*
X4955000Y-6955000D01*
X4955000Y-6955000D02*
G75*
G03*
X4955000Y-6915000I0J20000D01*
G01*
X4925000Y-7935000D02*
G75*
G02*
X4885000Y-7935000I-20000J0D01*
G01*
X4885000Y-7935000D02*
G75*
G02*
X4925000Y-7935000I20000J0D01*
G01*
X4855000Y-7955000D02*
X4955000Y-7955000D01*
X4955000Y-7915000D02*
G75*
G02*
X4955000Y-7955000I0J-20000D01*
G01*
X4955000Y-7915000D02*
X4855000Y-7915000D01*
X4855000Y-7915000D02*
G75*
G03*
X4855000Y-7955000I0J-20000D01*
G01*
X4925000Y-8185000D02*
G75*
G02*
X4885000Y-8185000I-20000J0D01*
G01*
X4885000Y-8185000D02*
G75*
G02*
X4925000Y-8185000I20000J0D01*
G01*
X4955000Y-8165000D02*
X4855000Y-8165000D01*
X4855000Y-8205000D02*
G75*
G02*
X4855000Y-8165000I0J20000D01*
G01*
X4855000Y-8205000D02*
X4955000Y-8205000D01*
X4955000Y-8205000D02*
G75*
G03*
X4955000Y-8165000I0J20000D01*
G01*
X4925000Y-9185000D02*
G75*
G02*
X4885000Y-9185000I-20000J0D01*
G01*
X4885000Y-9185000D02*
G75*
G02*
X4925000Y-9185000I20000J0D01*
G01*
X4855000Y-9205000D02*
X4955000Y-9205000D01*
X4955000Y-9165000D02*
G75*
G02*
X4955000Y-9205000I0J-20000D01*
G01*
X4955000Y-9165000D02*
X4855000Y-9165000D01*
X4855000Y-9165000D02*
G75*
G03*
X4855000Y-9205000I0J-20000D01*
G01*
X4925000Y-10700000D02*
G75*
G02*
X4885000Y-10700000I-20000J0D01*
G01*
X4885000Y-10700000D02*
G75*
G02*
X4925000Y-10700000I20000J0D01*
G01*
X4955000Y-10680000D02*
X4855000Y-10680000D01*
X4855000Y-10720000D02*
G75*
G02*
X4855000Y-10680000I0J20000D01*
G01*
X4855000Y-10720000D02*
X4955000Y-10720000D01*
X4955000Y-10720000D02*
G75*
G03*
X4955000Y-10680000I0J20000D01*
G01*
X4925000Y-11700000D02*
G75*
G02*
X4885000Y-11700000I-20000J0D01*
G01*
X4885000Y-11700000D02*
G75*
G02*
X4925000Y-11700000I20000J0D01*
G01*
X4855000Y-11720000D02*
X4955000Y-11720000D01*
X4955000Y-11680000D02*
G75*
G02*
X4955000Y-11720000I0J-20000D01*
G01*
X4955000Y-11680000D02*
X4855000Y-11680000D01*
X4855000Y-11680000D02*
G75*
G03*
X4855000Y-11720000I0J-20000D01*
G01*
X15850000Y-7742500D02*
X15850000Y-7807500D01*
X15817500Y-7775000D02*
X15882500Y-7775000D01*
X15850000Y-7869500D02*
X15850000Y-7934500D01*
X15817500Y-7902000D02*
X15882500Y-7902000D01*
X15850000Y-7996500D02*
X15850000Y-8061500D01*
X15817500Y-8029000D02*
X15882500Y-8029000D01*
X4933285Y-10978285D02*
X4933285Y-10921716D01*
X4876716Y-10921716D01*
X4876716Y-10978285D01*
X4933285Y-10978285D01*
X4940000Y-10910000D02*
X4870000Y-10910000D01*
X4870000Y-10990000D02*
G75*
G02*
X4870000Y-10910000I0J40000D01*
G01*
X4870000Y-10990000D02*
X4940000Y-10990000D01*
X4940000Y-10990000D02*
G75*
G03*
X4940000Y-10910000I0J40000D01*
G01*
X4933285Y-11478284D02*
X4933285Y-11421715D01*
X4876716Y-11421715D01*
X4876716Y-11478284D01*
X4933285Y-11478284D01*
X4870000Y-11490000D02*
X4940000Y-11490000D01*
X4940000Y-11410000D02*
G75*
G02*
X4940000Y-11490000I0J-40000D01*
G01*
X4940000Y-11410000D02*
X4870000Y-11410000D01*
X4870000Y-11410000D02*
G75*
G03*
X4870000Y-11490000I0J-40000D01*
G01*
X6598284Y-11728284D02*
X6598284Y-11671715D01*
X6541715Y-11671715D01*
X6541715Y-11728284D01*
X6598284Y-11728284D01*
X6603284Y-10728285D02*
X6603284Y-10671716D01*
X6546715Y-10671716D01*
X6546715Y-10728285D01*
X6603284Y-10728285D01*
X6703284Y-8103284D02*
X6703284Y-8046715D01*
X6646715Y-8046715D01*
X6646715Y-8103284D01*
X6703284Y-8103284D01*
X6703284Y-8303284D02*
X6703284Y-8246715D01*
X6646715Y-8246715D01*
X6646715Y-8303284D01*
X6703284Y-8303284D01*
X6703284Y-8803285D02*
X6703284Y-8746716D01*
X6646715Y-8746716D01*
X6646715Y-8803285D01*
X6703284Y-8803285D01*
X6703284Y-9003285D02*
X6703284Y-8946716D01*
X6646715Y-8946716D01*
X6646715Y-9003285D01*
X6703284Y-9003285D01*
X6703284Y-9378285D02*
X6703284Y-9321716D01*
X6646715Y-9321716D01*
X6646715Y-9378285D01*
X6703284Y-9378285D01*
X6703284Y-9578285D02*
X6703284Y-9521716D01*
X6646715Y-9521716D01*
X6646715Y-9578285D01*
X6703284Y-9578285D01*
X6703284Y-10078285D02*
X6703284Y-10021716D01*
X6646715Y-10021716D01*
X6646715Y-10078285D01*
X6703284Y-10078285D01*
X6703284Y-10278285D02*
X6703284Y-10221716D01*
X6646715Y-10221716D01*
X6646715Y-10278285D01*
X6703284Y-10278285D01*
X6798284Y-11728284D02*
X6798284Y-11671715D01*
X6741715Y-11671715D01*
X6741715Y-11728284D01*
X6798284Y-11728284D01*
X6803284Y-10728285D02*
X6803284Y-10671716D01*
X6746715Y-10671716D01*
X6746715Y-10728285D01*
X6803284Y-10728285D01*
X7118284Y-14628284D02*
X7118284Y-14571715D01*
X7061715Y-14571715D01*
X7061715Y-14628284D01*
X7118284Y-14628284D01*
X7118284Y-14828284D02*
X7118284Y-14771715D01*
X7061715Y-14771715D01*
X7061715Y-14828284D01*
X7118284Y-14828284D01*
X7288284Y-10638285D02*
X7288284Y-10581716D01*
X7231715Y-10581716D01*
X7231715Y-10638285D01*
X7288284Y-10638285D01*
X7288284Y-10838285D02*
X7288284Y-10781716D01*
X7231715Y-10781716D01*
X7231715Y-10838285D01*
X7288284Y-10838285D01*
X7668284Y-14622773D02*
X7668284Y-14566204D01*
X7611715Y-14566204D01*
X7611715Y-14622773D01*
X7668284Y-14622773D01*
X7668284Y-14822773D02*
X7668284Y-14766204D01*
X7611715Y-14766204D01*
X7611715Y-14822773D01*
X7668284Y-14822773D01*
X8220994Y-14623298D02*
X8220994Y-14566729D01*
X8164425Y-14566729D01*
X8164425Y-14623298D01*
X8220994Y-14623298D01*
X8220994Y-14823298D02*
X8220994Y-14766729D01*
X8164425Y-14766729D01*
X8164425Y-14823298D01*
X8220994Y-14823298D01*
X9475785Y-14623298D02*
X9475785Y-14566729D01*
X9419216Y-14566729D01*
X9419216Y-14623298D01*
X9475785Y-14623298D01*
X9475785Y-14823298D02*
X9475785Y-14766729D01*
X9419216Y-14766729D01*
X9419216Y-14823298D01*
X9475785Y-14823298D01*
X9912035Y-9896410D02*
X9912035Y-9839841D01*
X9855466Y-9839841D01*
X9855466Y-9896410D01*
X9912035Y-9896410D01*
X9917035Y-9171410D02*
X9917035Y-9114841D01*
X9860466Y-9114841D01*
X9860466Y-9171410D01*
X9917035Y-9171410D01*
X10112035Y-9896410D02*
X10112035Y-9839841D01*
X10055466Y-9839841D01*
X10055466Y-9896410D01*
X10112035Y-9896410D01*
X10117035Y-9171410D02*
X10117035Y-9114841D01*
X10060466Y-9114841D01*
X10060466Y-9171410D01*
X10117035Y-9171410D01*
X12378284Y-9878285D02*
X12378284Y-9821716D01*
X12321715Y-9821716D01*
X12321715Y-9878285D01*
X12378284Y-9878285D01*
X12380784Y-9050785D02*
X12380784Y-8994216D01*
X12324215Y-8994216D01*
X12324215Y-9050785D01*
X12380784Y-9050785D01*
X12578284Y-9878285D02*
X12578284Y-9821716D01*
X12521715Y-9821716D01*
X12521715Y-9878285D01*
X12578284Y-9878285D01*
X12580784Y-9050785D02*
X12580784Y-8994216D01*
X12524215Y-8994216D01*
X12524215Y-9050785D01*
X12580784Y-9050785D01*
X13678284Y-9478285D02*
X13678284Y-9421716D01*
X13621715Y-9421716D01*
X13621715Y-9478285D01*
X13678284Y-9478285D01*
X13878284Y-9478285D02*
X13878284Y-9421716D01*
X13821715Y-9421716D01*
X13821715Y-9478285D01*
X13878284Y-9478285D01*
X15613284Y-14423298D02*
X15613284Y-14366729D01*
X15556715Y-14366729D01*
X15556715Y-14423298D01*
X15613284Y-14423298D01*
X15613284Y-14623298D02*
X15613284Y-14566729D01*
X15556715Y-14566729D01*
X15556715Y-14623298D01*
X15613284Y-14623298D01*
X4763500Y-13137000D02*
X4813500Y-13087000D01*
X4763500Y-13037000D01*
X4713500Y-13087000D01*
X4763500Y-13137000D01*
X4763500Y-13414000D02*
X4813500Y-13364000D01*
X4763500Y-13314000D01*
X4713500Y-13364000D01*
X4763500Y-13414000D01*
X4763500Y-13691000D02*
X4813500Y-13641000D01*
X4763500Y-13591000D01*
X4713500Y-13641000D01*
X4763500Y-13691000D01*
X4763500Y-13968000D02*
X4813500Y-13918000D01*
X4763500Y-13868000D01*
X4713500Y-13918000D01*
X4763500Y-13968000D01*
X4763500Y-14245000D02*
X4813500Y-14195000D01*
X4763500Y-14145000D01*
X4713500Y-14195000D01*
X4763500Y-14245000D01*
X4763500Y-14522000D02*
X4813500Y-14472000D01*
X4763500Y-14422000D01*
X4713500Y-14472000D01*
X4763500Y-14522000D01*
X4763500Y-14799000D02*
X4813500Y-14749000D01*
X4763500Y-14699000D01*
X4713500Y-14749000D01*
X4763500Y-14799000D01*
X5047500Y-12998500D02*
X5097500Y-12948500D01*
X5047500Y-12898500D01*
X4997500Y-12948500D01*
X5047500Y-12998500D01*
X5047500Y-13275500D02*
X5097500Y-13225500D01*
X5047500Y-13175500D01*
X4997500Y-13225500D01*
X5047500Y-13275500D01*
X5047500Y-13552500D02*
X5097500Y-13502500D01*
X5047500Y-13452500D01*
X4997500Y-13502500D01*
X5047500Y-13552500D01*
X5047500Y-13829500D02*
X5097500Y-13779500D01*
X5047500Y-13729500D01*
X4997500Y-13779500D01*
X5047500Y-13829500D01*
X5047500Y-14106500D02*
X5097500Y-14056500D01*
X5047500Y-14006500D01*
X4997500Y-14056500D01*
X5047500Y-14106500D01*
X5047500Y-14383500D02*
X5097500Y-14333500D01*
X5047500Y-14283500D01*
X4997500Y-14333500D01*
X5047500Y-14383500D01*
X5047500Y-14660500D02*
X5097500Y-14610500D01*
X5047500Y-14560500D01*
X4997500Y-14610500D01*
X5047500Y-14660500D01*
X5047500Y-14937500D02*
X5097500Y-14887500D01*
X5047500Y-14837500D01*
X4997500Y-14887500D01*
X5047500Y-14937500D01*
X5175000Y-9742824D02*
X5225000Y-9692824D01*
X5175000Y-9642824D01*
X5125000Y-9692824D01*
X5175000Y-9742824D01*
X5175000Y-9992824D02*
X5225000Y-9942824D01*
X5175000Y-9892824D01*
X5125000Y-9942824D01*
X5175000Y-9992824D01*
X5175000Y-10242824D02*
X5225000Y-10192824D01*
X5175000Y-10142824D01*
X5125000Y-10192824D01*
X5175000Y-10242824D01*
X5425000Y-9742824D02*
X5475000Y-9692824D01*
X5425000Y-9642824D01*
X5375000Y-9692824D01*
X5425000Y-9742824D01*
X5425000Y-9992824D02*
X5475000Y-9942824D01*
X5425000Y-9892824D01*
X5375000Y-9942824D01*
X5425000Y-9992824D01*
X5425000Y-10242824D02*
X5475000Y-10192824D01*
X5425000Y-10142824D01*
X5375000Y-10192824D01*
X5425000Y-10242824D01*
X5970000Y-8338000D02*
X6020000Y-8288000D01*
X5970000Y-8238000D01*
X5920000Y-8288000D01*
X5970000Y-8338000D01*
X5970000Y-8592000D02*
X6020000Y-8542000D01*
X5970000Y-8492000D01*
X5920000Y-8542000D01*
X5970000Y-8592000D01*
X5970000Y-8846000D02*
X6020000Y-8796000D01*
X5970000Y-8746000D01*
X5920000Y-8796000D01*
X5970000Y-8846000D01*
X5970000Y-9100000D02*
X6020000Y-9050000D01*
X5970000Y-9000000D01*
X5920000Y-9050000D01*
X5970000Y-9100000D01*
X5975000Y-7113000D02*
X6025000Y-7063000D01*
X5975000Y-7013000D01*
X5925000Y-7063000D01*
X5975000Y-7113000D01*
X5975000Y-7367000D02*
X6025000Y-7317000D01*
X5975000Y-7267000D01*
X5925000Y-7317000D01*
X5975000Y-7367000D01*
X5975000Y-7621000D02*
X6025000Y-7571000D01*
X5975000Y-7521000D01*
X5925000Y-7571000D01*
X5975000Y-7621000D01*
X5975000Y-7875000D02*
X6025000Y-7825000D01*
X5975000Y-7775000D01*
X5925000Y-7825000D01*
X5975000Y-7875000D01*
X11132470Y-7700000D02*
X11182470Y-7650000D01*
X11132470Y-7600000D01*
X11082470Y-7650000D01*
X11132470Y-7700000D01*
X11386470Y-7700000D02*
X11436470Y-7650000D01*
X11386470Y-7600000D01*
X11336470Y-7650000D01*
X11386470Y-7700000D01*
X11640470Y-7700000D02*
X11690470Y-7650000D01*
X11640470Y-7600000D01*
X11590470Y-7650000D01*
X11640470Y-7700000D01*
X11894470Y-7700000D02*
X11944470Y-7650000D01*
X11894470Y-7600000D01*
X11844470Y-7650000D01*
X11894470Y-7700000D01*
X12452000Y-7700000D02*
X12502000Y-7650000D01*
X12452000Y-7600000D01*
X12402000Y-7650000D01*
X12452000Y-7700000D01*
X12452000Y-7954000D02*
X12502000Y-7904000D01*
X12452000Y-7854000D01*
X12402000Y-7904000D01*
X12452000Y-7954000D01*
X12706000Y-7700000D02*
X12756000Y-7650000D01*
X12706000Y-7600000D01*
X12656000Y-7650000D01*
X12706000Y-7700000D01*
X12706000Y-7954000D02*
X12756000Y-7904000D01*
X12706000Y-7854000D01*
X12656000Y-7904000D01*
X12706000Y-7954000D01*
X12960000Y-7700000D02*
X13010000Y-7650000D01*
X12960000Y-7600000D01*
X12910000Y-7650000D01*
X12960000Y-7700000D01*
X12960000Y-7954000D02*
X13010000Y-7904000D01*
X12960000Y-7854000D01*
X12910000Y-7904000D01*
X12960000Y-7954000D01*
X13214000Y-7700000D02*
X13264000Y-7650000D01*
X13214000Y-7600000D01*
X13164000Y-7650000D01*
X13214000Y-7700000D01*
X13214000Y-7954000D02*
X13264000Y-7904000D01*
X13214000Y-7854000D01*
X13164000Y-7904000D01*
X13214000Y-7954000D01*
X13468000Y-7700000D02*
X13518000Y-7650000D01*
X13468000Y-7600000D01*
X13418000Y-7650000D01*
X13468000Y-7700000D01*
X13468000Y-7954000D02*
X13518000Y-7904000D01*
X13468000Y-7854000D01*
X13418000Y-7904000D01*
X13468000Y-7954000D01*
X13722000Y-7700000D02*
X13772000Y-7650000D01*
X13722000Y-7600000D01*
X13672000Y-7650000D01*
X13722000Y-7700000D01*
X13722000Y-7954000D02*
X13772000Y-7904000D01*
X13722000Y-7854000D01*
X13672000Y-7904000D01*
X13722000Y-7954000D01*
X13976000Y-7700000D02*
X14026000Y-7650000D01*
X13976000Y-7600000D01*
X13926000Y-7650000D01*
X13976000Y-7700000D01*
X13976000Y-7954000D02*
X14026000Y-7904000D01*
X13976000Y-7854000D01*
X13926000Y-7904000D01*
X13976000Y-7954000D01*
X14230000Y-7700000D02*
X14280000Y-7650000D01*
X14230000Y-7600000D01*
X14180000Y-7650000D01*
X14230000Y-7700000D01*
X14230000Y-7954000D02*
X14280000Y-7904000D01*
X14230000Y-7854000D01*
X14180000Y-7904000D01*
X14230000Y-7954000D01*
X14484000Y-7700000D02*
X14534000Y-7650000D01*
X14484000Y-7600000D01*
X14434000Y-7650000D01*
X14484000Y-7700000D01*
X14484000Y-7954000D02*
X14534000Y-7904000D01*
X14484000Y-7854000D01*
X14434000Y-7904000D01*
X14484000Y-7954000D01*
X14738000Y-7700000D02*
X14788000Y-7650000D01*
X14738000Y-7600000D01*
X14688000Y-7650000D01*
X14738000Y-7700000D01*
X14738000Y-7954000D02*
X14788000Y-7904000D01*
X14738000Y-7854000D01*
X14688000Y-7904000D01*
X14738000Y-7954000D01*
X14992000Y-7700000D02*
X15042000Y-7650000D01*
X14992000Y-7600000D01*
X14942000Y-7650000D01*
X14992000Y-7700000D01*
X14992000Y-7954000D02*
X15042000Y-7904000D01*
X14992000Y-7854000D01*
X14942000Y-7904000D01*
X14992000Y-7954000D01*
X15246000Y-7700000D02*
X15296000Y-7650000D01*
X15246000Y-7600000D01*
X15196000Y-7650000D01*
X15246000Y-7700000D01*
X15246000Y-7954000D02*
X15296000Y-7904000D01*
X15246000Y-7854000D01*
X15196000Y-7904000D01*
X15246000Y-7954000D01*
X15500000Y-7700000D02*
X15550000Y-7650000D01*
X15500000Y-7600000D01*
X15450000Y-7650000D01*
X15500000Y-7700000D01*
X15500000Y-7954000D02*
X15550000Y-7904000D01*
X15500000Y-7854000D01*
X15450000Y-7904000D01*
X15500000Y-7954000D01*
X15596000Y-13342000D02*
X15646000Y-13292000D01*
X15596000Y-13242000D01*
X15546000Y-13292000D01*
X15596000Y-13342000D01*
X15596000Y-13596000D02*
X15646000Y-13546000D01*
X15596000Y-13496000D01*
X15546000Y-13546000D01*
X15596000Y-13596000D01*
X15596000Y-13850000D02*
X15646000Y-13800000D01*
X15596000Y-13750000D01*
X15546000Y-13800000D01*
X15596000Y-13850000D01*
X15850000Y-13342000D02*
X15900000Y-13292000D01*
X15850000Y-13242000D01*
X15800000Y-13292000D01*
X15850000Y-13342000D01*
X15850000Y-13596000D02*
X15900000Y-13546000D01*
X15850000Y-13496000D01*
X15800000Y-13546000D01*
X15850000Y-13596000D01*
X15850000Y-13850000D02*
X15900000Y-13800000D01*
X15850000Y-13750000D01*
X15800000Y-13800000D01*
X15850000Y-13850000D01*
D14*
X5700000Y-9412824D02*
X5810000Y-9522824D01*
X5810000Y-9412824D02*
X5700000Y-9522824D01*
X5810000Y-9467824D02*
G75*
G02*
X5700000Y-9467824I-55000J0D01*
G01*
X5700000Y-9467824D02*
G75*
G02*
X5810000Y-9467824I55000J0D01*
G01*
D13*
X5810000Y-9502824D02*
X5810000Y-9432824D01*
X5700000Y-9432824D02*
G75*
G02*
X5810000Y-9432824I55000J0D01*
G01*
X5700000Y-9432824D02*
X5700000Y-9502824D01*
X5700000Y-9502824D02*
G75*
G03*
X5810000Y-9502824I55000J0D01*
G01*
D14*
X5700000Y-10362824D02*
X5810000Y-10472824D01*
X5810000Y-10362824D02*
X5700000Y-10472824D01*
X5810000Y-10417824D02*
G75*
G02*
X5700000Y-10417824I-55000J0D01*
G01*
X5700000Y-10417824D02*
G75*
G02*
X5810000Y-10417824I55000J0D01*
G01*
D13*
X5810000Y-10452824D02*
X5810000Y-10382824D01*
X5700000Y-10382824D02*
G75*
G02*
X5810000Y-10382824I55000J0D01*
G01*
X5700000Y-10382824D02*
X5700000Y-10452824D01*
X5700000Y-10452824D02*
G75*
G03*
X5810000Y-10452824I55000J0D01*
G01*
D15*
X4745500Y-12093000D02*
X5065500Y-12413000D01*
X5065500Y-12093000D02*
X4745500Y-12413000D01*
X4905500Y-12093000D02*
X4905500Y-12413000D01*
X4745500Y-12253000D02*
X5065500Y-12253000D01*
X4745500Y-15423000D02*
X5065500Y-15743000D01*
X5065500Y-15423000D02*
X4745500Y-15743000D01*
X4905500Y-15423000D02*
X4905500Y-15743000D01*
X4745500Y-15583000D02*
X5065500Y-15583000D01*
D12*
X4209527Y-16317734D02*
X4209527Y-16117734D01*
X4209527Y-16117734D02*
X4257146Y-16117734D01*
X4257146Y-16117734D02*
X4285717Y-16127258D01*
X4285717Y-16127258D02*
X4304765Y-16146305D01*
X4304765Y-16146305D02*
X4314289Y-16165353D01*
X4314289Y-16165353D02*
X4323813Y-16203448D01*
X4323813Y-16203448D02*
X4323813Y-16232019D01*
X4323813Y-16232019D02*
X4314289Y-16270115D01*
X4314289Y-16270115D02*
X4304765Y-16289162D01*
X4304765Y-16289162D02*
X4285717Y-16308210D01*
X4285717Y-16308210D02*
X4257146Y-16317734D01*
X4257146Y-16317734D02*
X4209527Y-16317734D01*
X4409527Y-16317734D02*
X4409527Y-16184400D01*
X4409527Y-16222496D02*
X4419051Y-16203448D01*
X4419051Y-16203448D02*
X4428574Y-16193924D01*
X4428574Y-16193924D02*
X4447622Y-16184400D01*
X4447622Y-16184400D02*
X4466670Y-16184400D01*
X4533336Y-16317734D02*
X4533336Y-16184400D01*
X4533336Y-16117734D02*
X4523813Y-16127258D01*
X4523813Y-16127258D02*
X4533336Y-16136781D01*
X4533336Y-16136781D02*
X4542860Y-16127258D01*
X4542860Y-16127258D02*
X4533336Y-16117734D01*
X4533336Y-16117734D02*
X4533336Y-16136781D01*
X4657146Y-16317734D02*
X4638098Y-16308210D01*
X4638098Y-16308210D02*
X4628574Y-16289162D01*
X4628574Y-16289162D02*
X4628574Y-16117734D01*
X4761908Y-16317734D02*
X4742860Y-16308210D01*
X4742860Y-16308210D02*
X4733336Y-16289162D01*
X4733336Y-16289162D02*
X4733336Y-16117734D01*
X4990479Y-16317734D02*
X4990479Y-16117734D01*
X4990479Y-16117734D02*
X5057146Y-16260591D01*
X5057146Y-16260591D02*
X5123813Y-16117734D01*
X5123813Y-16117734D02*
X5123813Y-16317734D01*
X5304765Y-16317734D02*
X5304765Y-16212972D01*
X5304765Y-16212972D02*
X5295241Y-16193924D01*
X5295241Y-16193924D02*
X5276194Y-16184400D01*
X5276194Y-16184400D02*
X5238098Y-16184400D01*
X5238098Y-16184400D02*
X5219051Y-16193924D01*
X5304765Y-16308210D02*
X5285717Y-16317734D01*
X5285717Y-16317734D02*
X5238098Y-16317734D01*
X5238098Y-16317734D02*
X5219051Y-16308210D01*
X5219051Y-16308210D02*
X5209527Y-16289162D01*
X5209527Y-16289162D02*
X5209527Y-16270115D01*
X5209527Y-16270115D02*
X5219051Y-16251067D01*
X5219051Y-16251067D02*
X5238098Y-16241543D01*
X5238098Y-16241543D02*
X5285717Y-16241543D01*
X5285717Y-16241543D02*
X5304765Y-16232019D01*
X5400003Y-16184400D02*
X5400003Y-16384400D01*
X5400003Y-16193924D02*
X5419051Y-16184400D01*
X5419051Y-16184400D02*
X5457146Y-16184400D01*
X5457146Y-16184400D02*
X5476194Y-16193924D01*
X5476194Y-16193924D02*
X5485717Y-16203448D01*
X5485717Y-16203448D02*
X5495241Y-16222496D01*
X5495241Y-16222496D02*
X5495241Y-16279638D01*
X5495241Y-16279638D02*
X5485717Y-16298686D01*
X5485717Y-16298686D02*
X5476194Y-16308210D01*
X5476194Y-16308210D02*
X5457146Y-16317734D01*
X5457146Y-16317734D02*
X5419051Y-16317734D01*
X5419051Y-16317734D02*
X5400003Y-16308210D01*
X5580955Y-16298686D02*
X5590479Y-16308210D01*
X5590479Y-16308210D02*
X5580955Y-16317734D01*
X5580955Y-16317734D02*
X5571432Y-16308210D01*
X5571432Y-16308210D02*
X5580955Y-16298686D01*
X5580955Y-16298686D02*
X5580955Y-16317734D01*
X5580955Y-16193924D02*
X5590479Y-16203448D01*
X5590479Y-16203448D02*
X5580955Y-16212972D01*
X5580955Y-16212972D02*
X5571432Y-16203448D01*
X5571432Y-16203448D02*
X5580955Y-16193924D01*
X5580955Y-16193924D02*
X5580955Y-16212972D01*
D13*
X3918750Y-16631250D02*
X3948750Y-16661250D01*
X3948750Y-16631250D02*
X3918750Y-16661250D01*
D12*
X4247622Y-16537734D02*
X4266670Y-16537734D01*
X4266670Y-16537734D02*
X4285717Y-16547258D01*
X4285717Y-16547258D02*
X4295241Y-16556781D01*
X4295241Y-16556781D02*
X4304765Y-16575829D01*
X4304765Y-16575829D02*
X4314289Y-16613924D01*
X4314289Y-16613924D02*
X4314289Y-16661543D01*
X4314289Y-16661543D02*
X4304765Y-16699638D01*
X4304765Y-16699638D02*
X4295241Y-16718686D01*
X4295241Y-16718686D02*
X4285717Y-16728210D01*
X4285717Y-16728210D02*
X4266670Y-16737734D01*
X4266670Y-16737734D02*
X4247622Y-16737734D01*
X4247622Y-16737734D02*
X4228574Y-16728210D01*
X4228574Y-16728210D02*
X4219051Y-16718686D01*
X4219051Y-16718686D02*
X4209527Y-16699638D01*
X4209527Y-16699638D02*
X4200003Y-16661543D01*
X4200003Y-16661543D02*
X4200003Y-16613924D01*
X4200003Y-16613924D02*
X4209527Y-16575829D01*
X4209527Y-16575829D02*
X4219051Y-16556781D01*
X4219051Y-16556781D02*
X4228574Y-16547258D01*
X4228574Y-16547258D02*
X4247622Y-16537734D01*
X4400003Y-16718686D02*
X4409527Y-16728210D01*
X4409527Y-16728210D02*
X4400003Y-16737734D01*
X4400003Y-16737734D02*
X4390479Y-16728210D01*
X4390479Y-16728210D02*
X4400003Y-16718686D01*
X4400003Y-16718686D02*
X4400003Y-16737734D01*
X4476194Y-16537734D02*
X4600003Y-16537734D01*
X4600003Y-16537734D02*
X4533336Y-16613924D01*
X4533336Y-16613924D02*
X4561908Y-16613924D01*
X4561908Y-16613924D02*
X4580955Y-16623448D01*
X4580955Y-16623448D02*
X4590479Y-16632972D01*
X4590479Y-16632972D02*
X4600003Y-16652019D01*
X4600003Y-16652019D02*
X4600003Y-16699638D01*
X4600003Y-16699638D02*
X4590479Y-16718686D01*
X4590479Y-16718686D02*
X4580955Y-16728210D01*
X4580955Y-16728210D02*
X4561908Y-16737734D01*
X4561908Y-16737734D02*
X4504765Y-16737734D01*
X4504765Y-16737734D02*
X4485717Y-16728210D01*
X4485717Y-16728210D02*
X4476194Y-16718686D01*
X4723813Y-16537734D02*
X4742860Y-16537734D01*
X4742860Y-16537734D02*
X4761908Y-16547258D01*
X4761908Y-16547258D02*
X4771432Y-16556781D01*
X4771432Y-16556781D02*
X4780955Y-16575829D01*
X4780955Y-16575829D02*
X4790479Y-16613924D01*
X4790479Y-16613924D02*
X4790479Y-16661543D01*
X4790479Y-16661543D02*
X4780955Y-16699638D01*
X4780955Y-16699638D02*
X4771432Y-16718686D01*
X4771432Y-16718686D02*
X4761908Y-16728210D01*
X4761908Y-16728210D02*
X4742860Y-16737734D01*
X4742860Y-16737734D02*
X4723813Y-16737734D01*
X4723813Y-16737734D02*
X4704765Y-16728210D01*
X4704765Y-16728210D02*
X4695241Y-16718686D01*
X4695241Y-16718686D02*
X4685717Y-16699638D01*
X4685717Y-16699638D02*
X4676194Y-16661543D01*
X4676194Y-16661543D02*
X4676194Y-16613924D01*
X4676194Y-16613924D02*
X4685717Y-16575829D01*
X4685717Y-16575829D02*
X4695241Y-16556781D01*
X4695241Y-16556781D02*
X4704765Y-16547258D01*
X4704765Y-16547258D02*
X4723813Y-16537734D01*
X4914289Y-16537734D02*
X4933336Y-16537734D01*
X4933336Y-16537734D02*
X4952384Y-16547258D01*
X4952384Y-16547258D02*
X4961908Y-16556781D01*
X4961908Y-16556781D02*
X4971432Y-16575829D01*
X4971432Y-16575829D02*
X4980955Y-16613924D01*
X4980955Y-16613924D02*
X4980955Y-16661543D01*
X4980955Y-16661543D02*
X4971432Y-16699638D01*
X4971432Y-16699638D02*
X4961908Y-16718686D01*
X4961908Y-16718686D02*
X4952384Y-16728210D01*
X4952384Y-16728210D02*
X4933336Y-16737734D01*
X4933336Y-16737734D02*
X4914289Y-16737734D01*
X4914289Y-16737734D02*
X4895241Y-16728210D01*
X4895241Y-16728210D02*
X4885717Y-16718686D01*
X4885717Y-16718686D02*
X4876194Y-16699638D01*
X4876194Y-16699638D02*
X4866670Y-16661543D01*
X4866670Y-16661543D02*
X4866670Y-16613924D01*
X4866670Y-16613924D02*
X4876194Y-16575829D01*
X4876194Y-16575829D02*
X4885717Y-16556781D01*
X4885717Y-16556781D02*
X4895241Y-16547258D01*
X4895241Y-16547258D02*
X4914289Y-16537734D01*
X5066670Y-16737734D02*
X5066670Y-16604400D01*
X5066670Y-16623448D02*
X5076194Y-16613924D01*
X5076194Y-16613924D02*
X5095241Y-16604400D01*
X5095241Y-16604400D02*
X5123813Y-16604400D01*
X5123813Y-16604400D02*
X5142860Y-16613924D01*
X5142860Y-16613924D02*
X5152384Y-16632972D01*
X5152384Y-16632972D02*
X5152384Y-16737734D01*
X5152384Y-16632972D02*
X5161908Y-16613924D01*
X5161908Y-16613924D02*
X5180955Y-16604400D01*
X5180955Y-16604400D02*
X5209527Y-16604400D01*
X5209527Y-16604400D02*
X5228575Y-16613924D01*
X5228575Y-16613924D02*
X5238098Y-16632972D01*
X5238098Y-16632972D02*
X5238098Y-16737734D01*
X5333336Y-16737734D02*
X5333336Y-16604400D01*
X5333336Y-16623448D02*
X5342860Y-16613924D01*
X5342860Y-16613924D02*
X5361908Y-16604400D01*
X5361908Y-16604400D02*
X5390479Y-16604400D01*
X5390479Y-16604400D02*
X5409527Y-16613924D01*
X5409527Y-16613924D02*
X5419051Y-16632972D01*
X5419051Y-16632972D02*
X5419051Y-16737734D01*
X5419051Y-16632972D02*
X5428575Y-16613924D01*
X5428575Y-16613924D02*
X5447622Y-16604400D01*
X5447622Y-16604400D02*
X5476194Y-16604400D01*
X5476194Y-16604400D02*
X5495241Y-16613924D01*
X5495241Y-16613924D02*
X5504765Y-16632972D01*
X5504765Y-16632972D02*
X5504765Y-16737734D01*
X5895241Y-16528210D02*
X5723813Y-16785353D01*
X6152384Y-16537734D02*
X6171432Y-16537734D01*
X6171432Y-16537734D02*
X6190479Y-16547258D01*
X6190479Y-16547258D02*
X6200003Y-16556781D01*
X6200003Y-16556781D02*
X6209527Y-16575829D01*
X6209527Y-16575829D02*
X6219051Y-16613924D01*
X6219051Y-16613924D02*
X6219051Y-16661543D01*
X6219051Y-16661543D02*
X6209527Y-16699638D01*
X6209527Y-16699638D02*
X6200003Y-16718686D01*
X6200003Y-16718686D02*
X6190479Y-16728210D01*
X6190479Y-16728210D02*
X6171432Y-16737734D01*
X6171432Y-16737734D02*
X6152384Y-16737734D01*
X6152384Y-16737734D02*
X6133336Y-16728210D01*
X6133336Y-16728210D02*
X6123813Y-16718686D01*
X6123813Y-16718686D02*
X6114289Y-16699638D01*
X6114289Y-16699638D02*
X6104765Y-16661543D01*
X6104765Y-16661543D02*
X6104765Y-16613924D01*
X6104765Y-16613924D02*
X6114289Y-16575829D01*
X6114289Y-16575829D02*
X6123813Y-16556781D01*
X6123813Y-16556781D02*
X6133336Y-16547258D01*
X6133336Y-16547258D02*
X6152384Y-16537734D01*
X6304765Y-16718686D02*
X6314289Y-16728210D01*
X6314289Y-16728210D02*
X6304765Y-16737734D01*
X6304765Y-16737734D02*
X6295241Y-16728210D01*
X6295241Y-16728210D02*
X6304765Y-16718686D01*
X6304765Y-16718686D02*
X6304765Y-16737734D01*
X6438098Y-16537734D02*
X6457146Y-16537734D01*
X6457146Y-16537734D02*
X6476194Y-16547258D01*
X6476194Y-16547258D02*
X6485717Y-16556781D01*
X6485717Y-16556781D02*
X6495241Y-16575829D01*
X6495241Y-16575829D02*
X6504765Y-16613924D01*
X6504765Y-16613924D02*
X6504765Y-16661543D01*
X6504765Y-16661543D02*
X6495241Y-16699638D01*
X6495241Y-16699638D02*
X6485717Y-16718686D01*
X6485717Y-16718686D02*
X6476194Y-16728210D01*
X6476194Y-16728210D02*
X6457146Y-16737734D01*
X6457146Y-16737734D02*
X6438098Y-16737734D01*
X6438098Y-16737734D02*
X6419051Y-16728210D01*
X6419051Y-16728210D02*
X6409527Y-16718686D01*
X6409527Y-16718686D02*
X6400003Y-16699638D01*
X6400003Y-16699638D02*
X6390479Y-16661543D01*
X6390479Y-16661543D02*
X6390479Y-16613924D01*
X6390479Y-16613924D02*
X6400003Y-16575829D01*
X6400003Y-16575829D02*
X6409527Y-16556781D01*
X6409527Y-16556781D02*
X6419051Y-16547258D01*
X6419051Y-16547258D02*
X6438098Y-16537734D01*
X6695241Y-16737734D02*
X6580956Y-16737734D01*
X6638098Y-16737734D02*
X6638098Y-16537734D01*
X6638098Y-16537734D02*
X6619051Y-16566305D01*
X6619051Y-16566305D02*
X6600003Y-16585353D01*
X6600003Y-16585353D02*
X6580956Y-16594877D01*
X6885717Y-16737734D02*
X6771432Y-16737734D01*
X6828575Y-16737734D02*
X6828575Y-16537734D01*
X6828575Y-16537734D02*
X6809527Y-16566305D01*
X6809527Y-16566305D02*
X6790479Y-16585353D01*
X6790479Y-16585353D02*
X6771432Y-16594877D01*
X7000003Y-16623448D02*
X6980956Y-16613924D01*
X6980956Y-16613924D02*
X6971432Y-16604400D01*
X6971432Y-16604400D02*
X6961908Y-16585353D01*
X6961908Y-16585353D02*
X6961908Y-16575829D01*
X6961908Y-16575829D02*
X6971432Y-16556781D01*
X6971432Y-16556781D02*
X6980956Y-16547258D01*
X6980956Y-16547258D02*
X7000003Y-16537734D01*
X7000003Y-16537734D02*
X7038098Y-16537734D01*
X7038098Y-16537734D02*
X7057146Y-16547258D01*
X7057146Y-16547258D02*
X7066670Y-16556781D01*
X7066670Y-16556781D02*
X7076194Y-16575829D01*
X7076194Y-16575829D02*
X7076194Y-16585353D01*
X7076194Y-16585353D02*
X7066670Y-16604400D01*
X7066670Y-16604400D02*
X7057146Y-16613924D01*
X7057146Y-16613924D02*
X7038098Y-16623448D01*
X7038098Y-16623448D02*
X7000003Y-16623448D01*
X7000003Y-16623448D02*
X6980956Y-16632972D01*
X6980956Y-16632972D02*
X6971432Y-16642496D01*
X6971432Y-16642496D02*
X6961908Y-16661543D01*
X6961908Y-16661543D02*
X6961908Y-16699638D01*
X6961908Y-16699638D02*
X6971432Y-16718686D01*
X6971432Y-16718686D02*
X6980956Y-16728210D01*
X6980956Y-16728210D02*
X7000003Y-16737734D01*
X7000003Y-16737734D02*
X7038098Y-16737734D01*
X7038098Y-16737734D02*
X7057146Y-16728210D01*
X7057146Y-16728210D02*
X7066670Y-16718686D01*
X7066670Y-16718686D02*
X7076194Y-16699638D01*
X7076194Y-16699638D02*
X7076194Y-16661543D01*
X7076194Y-16661543D02*
X7066670Y-16642496D01*
X7066670Y-16642496D02*
X7057146Y-16632972D01*
X7057146Y-16632972D02*
X7038098Y-16623448D01*
X7152384Y-16537734D02*
X7152384Y-16575829D01*
X7228575Y-16537734D02*
X7228575Y-16575829D01*
X7523813Y-16813924D02*
X7514289Y-16804400D01*
X7514289Y-16804400D02*
X7495241Y-16775829D01*
X7495241Y-16775829D02*
X7485718Y-16756781D01*
X7485718Y-16756781D02*
X7476194Y-16728210D01*
X7476194Y-16728210D02*
X7466670Y-16680591D01*
X7466670Y-16680591D02*
X7466670Y-16642496D01*
X7466670Y-16642496D02*
X7476194Y-16594877D01*
X7476194Y-16594877D02*
X7485718Y-16566305D01*
X7485718Y-16566305D02*
X7495241Y-16547258D01*
X7495241Y-16547258D02*
X7514289Y-16518686D01*
X7514289Y-16518686D02*
X7523813Y-16509162D01*
X7685718Y-16604400D02*
X7685718Y-16737734D01*
X7638098Y-16528210D02*
X7590479Y-16671067D01*
X7590479Y-16671067D02*
X7714289Y-16671067D01*
X7885718Y-16537734D02*
X7790479Y-16537734D01*
X7790479Y-16537734D02*
X7780956Y-16632972D01*
X7780956Y-16632972D02*
X7790479Y-16623448D01*
X7790479Y-16623448D02*
X7809527Y-16613924D01*
X7809527Y-16613924D02*
X7857146Y-16613924D01*
X7857146Y-16613924D02*
X7876194Y-16623448D01*
X7876194Y-16623448D02*
X7885718Y-16632972D01*
X7885718Y-16632972D02*
X7895241Y-16652019D01*
X7895241Y-16652019D02*
X7895241Y-16699638D01*
X7895241Y-16699638D02*
X7885718Y-16718686D01*
X7885718Y-16718686D02*
X7876194Y-16728210D01*
X7876194Y-16728210D02*
X7857146Y-16737734D01*
X7857146Y-16737734D02*
X7809527Y-16737734D01*
X7809527Y-16737734D02*
X7790479Y-16728210D01*
X7790479Y-16728210D02*
X7780956Y-16718686D01*
X7961908Y-16537734D02*
X8085718Y-16537734D01*
X8085718Y-16537734D02*
X8019051Y-16613924D01*
X8019051Y-16613924D02*
X8047622Y-16613924D01*
X8047622Y-16613924D02*
X8066670Y-16623448D01*
X8066670Y-16623448D02*
X8076194Y-16632972D01*
X8076194Y-16632972D02*
X8085718Y-16652019D01*
X8085718Y-16652019D02*
X8085718Y-16699638D01*
X8085718Y-16699638D02*
X8076194Y-16718686D01*
X8076194Y-16718686D02*
X8066670Y-16728210D01*
X8066670Y-16728210D02*
X8047622Y-16737734D01*
X8047622Y-16737734D02*
X7990479Y-16737734D01*
X7990479Y-16737734D02*
X7971432Y-16728210D01*
X7971432Y-16728210D02*
X7961908Y-16718686D01*
X8323813Y-16737734D02*
X8323813Y-16537734D01*
X8409527Y-16737734D02*
X8409527Y-16632972D01*
X8409527Y-16632972D02*
X8400003Y-16613924D01*
X8400003Y-16613924D02*
X8380956Y-16604400D01*
X8380956Y-16604400D02*
X8352384Y-16604400D01*
X8352384Y-16604400D02*
X8333337Y-16613924D01*
X8333337Y-16613924D02*
X8323813Y-16623448D01*
X8533337Y-16737734D02*
X8514289Y-16728210D01*
X8514289Y-16728210D02*
X8504765Y-16718686D01*
X8504765Y-16718686D02*
X8495242Y-16699638D01*
X8495242Y-16699638D02*
X8495242Y-16642496D01*
X8495242Y-16642496D02*
X8504765Y-16623448D01*
X8504765Y-16623448D02*
X8514289Y-16613924D01*
X8514289Y-16613924D02*
X8533337Y-16604400D01*
X8533337Y-16604400D02*
X8561908Y-16604400D01*
X8561908Y-16604400D02*
X8580956Y-16613924D01*
X8580956Y-16613924D02*
X8590480Y-16623448D01*
X8590480Y-16623448D02*
X8600003Y-16642496D01*
X8600003Y-16642496D02*
X8600003Y-16699638D01*
X8600003Y-16699638D02*
X8590480Y-16718686D01*
X8590480Y-16718686D02*
X8580956Y-16728210D01*
X8580956Y-16728210D02*
X8561908Y-16737734D01*
X8561908Y-16737734D02*
X8533337Y-16737734D01*
X8714289Y-16737734D02*
X8695242Y-16728210D01*
X8695242Y-16728210D02*
X8685718Y-16709162D01*
X8685718Y-16709162D02*
X8685718Y-16537734D01*
X8866670Y-16728210D02*
X8847623Y-16737734D01*
X8847623Y-16737734D02*
X8809527Y-16737734D01*
X8809527Y-16737734D02*
X8790480Y-16728210D01*
X8790480Y-16728210D02*
X8780956Y-16709162D01*
X8780956Y-16709162D02*
X8780956Y-16632972D01*
X8780956Y-16632972D02*
X8790480Y-16613924D01*
X8790480Y-16613924D02*
X8809527Y-16604400D01*
X8809527Y-16604400D02*
X8847623Y-16604400D01*
X8847623Y-16604400D02*
X8866670Y-16613924D01*
X8866670Y-16613924D02*
X8876194Y-16632972D01*
X8876194Y-16632972D02*
X8876194Y-16652019D01*
X8876194Y-16652019D02*
X8780956Y-16671067D01*
X8952384Y-16728210D02*
X8971432Y-16737734D01*
X8971432Y-16737734D02*
X9009527Y-16737734D01*
X9009527Y-16737734D02*
X9028575Y-16728210D01*
X9028575Y-16728210D02*
X9038099Y-16709162D01*
X9038099Y-16709162D02*
X9038099Y-16699638D01*
X9038099Y-16699638D02*
X9028575Y-16680591D01*
X9028575Y-16680591D02*
X9009527Y-16671067D01*
X9009527Y-16671067D02*
X8980956Y-16671067D01*
X8980956Y-16671067D02*
X8961908Y-16661543D01*
X8961908Y-16661543D02*
X8952384Y-16642496D01*
X8952384Y-16642496D02*
X8952384Y-16632972D01*
X8952384Y-16632972D02*
X8961908Y-16613924D01*
X8961908Y-16613924D02*
X8980956Y-16604400D01*
X8980956Y-16604400D02*
X9009527Y-16604400D01*
X9009527Y-16604400D02*
X9028575Y-16613924D01*
X9104765Y-16813924D02*
X9114289Y-16804400D01*
X9114289Y-16804400D02*
X9133337Y-16775829D01*
X9133337Y-16775829D02*
X9142861Y-16756781D01*
X9142861Y-16756781D02*
X9152384Y-16728210D01*
X9152384Y-16728210D02*
X9161908Y-16680591D01*
X9161908Y-16680591D02*
X9161908Y-16642496D01*
X9161908Y-16642496D02*
X9152384Y-16594877D01*
X9152384Y-16594877D02*
X9142861Y-16566305D01*
X9142861Y-16566305D02*
X9133337Y-16547258D01*
X9133337Y-16547258D02*
X9114289Y-16518686D01*
X9114289Y-16518686D02*
X9104765Y-16509162D01*
D13*
X3948750Y-16910250D02*
G75*
G02*
X3908750Y-16910250I-20000J0D01*
G01*
X3908750Y-16910250D02*
G75*
G02*
X3948750Y-16910250I20000J0D01*
G01*
D12*
X4247622Y-16801734D02*
X4266670Y-16801734D01*
X4266670Y-16801734D02*
X4285717Y-16811258D01*
X4285717Y-16811258D02*
X4295241Y-16820781D01*
X4295241Y-16820781D02*
X4304765Y-16839829D01*
X4304765Y-16839829D02*
X4314289Y-16877924D01*
X4314289Y-16877924D02*
X4314289Y-16925543D01*
X4314289Y-16925543D02*
X4304765Y-16963639D01*
X4304765Y-16963639D02*
X4295241Y-16982686D01*
X4295241Y-16982686D02*
X4285717Y-16992210D01*
X4285717Y-16992210D02*
X4266670Y-17001734D01*
X4266670Y-17001734D02*
X4247622Y-17001734D01*
X4247622Y-17001734D02*
X4228574Y-16992210D01*
X4228574Y-16992210D02*
X4219051Y-16982686D01*
X4219051Y-16982686D02*
X4209527Y-16963639D01*
X4209527Y-16963639D02*
X4200003Y-16925543D01*
X4200003Y-16925543D02*
X4200003Y-16877924D01*
X4200003Y-16877924D02*
X4209527Y-16839829D01*
X4209527Y-16839829D02*
X4219051Y-16820781D01*
X4219051Y-16820781D02*
X4228574Y-16811258D01*
X4228574Y-16811258D02*
X4247622Y-16801734D01*
X4400003Y-16982686D02*
X4409527Y-16992210D01*
X4409527Y-16992210D02*
X4400003Y-17001734D01*
X4400003Y-17001734D02*
X4390479Y-16992210D01*
X4390479Y-16992210D02*
X4400003Y-16982686D01*
X4400003Y-16982686D02*
X4400003Y-17001734D01*
X4580955Y-16868400D02*
X4580955Y-17001734D01*
X4533336Y-16792210D02*
X4485717Y-16935067D01*
X4485717Y-16935067D02*
X4609527Y-16935067D01*
X4723813Y-16801734D02*
X4742860Y-16801734D01*
X4742860Y-16801734D02*
X4761908Y-16811258D01*
X4761908Y-16811258D02*
X4771432Y-16820781D01*
X4771432Y-16820781D02*
X4780955Y-16839829D01*
X4780955Y-16839829D02*
X4790479Y-16877924D01*
X4790479Y-16877924D02*
X4790479Y-16925543D01*
X4790479Y-16925543D02*
X4780955Y-16963639D01*
X4780955Y-16963639D02*
X4771432Y-16982686D01*
X4771432Y-16982686D02*
X4761908Y-16992210D01*
X4761908Y-16992210D02*
X4742860Y-17001734D01*
X4742860Y-17001734D02*
X4723813Y-17001734D01*
X4723813Y-17001734D02*
X4704765Y-16992210D01*
X4704765Y-16992210D02*
X4695241Y-16982686D01*
X4695241Y-16982686D02*
X4685717Y-16963639D01*
X4685717Y-16963639D02*
X4676194Y-16925543D01*
X4676194Y-16925543D02*
X4676194Y-16877924D01*
X4676194Y-16877924D02*
X4685717Y-16839829D01*
X4685717Y-16839829D02*
X4695241Y-16820781D01*
X4695241Y-16820781D02*
X4704765Y-16811258D01*
X4704765Y-16811258D02*
X4723813Y-16801734D01*
X4914289Y-16801734D02*
X4933336Y-16801734D01*
X4933336Y-16801734D02*
X4952384Y-16811258D01*
X4952384Y-16811258D02*
X4961908Y-16820781D01*
X4961908Y-16820781D02*
X4971432Y-16839829D01*
X4971432Y-16839829D02*
X4980955Y-16877924D01*
X4980955Y-16877924D02*
X4980955Y-16925543D01*
X4980955Y-16925543D02*
X4971432Y-16963639D01*
X4971432Y-16963639D02*
X4961908Y-16982686D01*
X4961908Y-16982686D02*
X4952384Y-16992210D01*
X4952384Y-16992210D02*
X4933336Y-17001734D01*
X4933336Y-17001734D02*
X4914289Y-17001734D01*
X4914289Y-17001734D02*
X4895241Y-16992210D01*
X4895241Y-16992210D02*
X4885717Y-16982686D01*
X4885717Y-16982686D02*
X4876194Y-16963639D01*
X4876194Y-16963639D02*
X4866670Y-16925543D01*
X4866670Y-16925543D02*
X4866670Y-16877924D01*
X4866670Y-16877924D02*
X4876194Y-16839829D01*
X4876194Y-16839829D02*
X4885717Y-16820781D01*
X4885717Y-16820781D02*
X4895241Y-16811258D01*
X4895241Y-16811258D02*
X4914289Y-16801734D01*
X5066670Y-17001734D02*
X5066670Y-16868400D01*
X5066670Y-16887448D02*
X5076194Y-16877924D01*
X5076194Y-16877924D02*
X5095241Y-16868400D01*
X5095241Y-16868400D02*
X5123813Y-16868400D01*
X5123813Y-16868400D02*
X5142860Y-16877924D01*
X5142860Y-16877924D02*
X5152384Y-16896972D01*
X5152384Y-16896972D02*
X5152384Y-17001734D01*
X5152384Y-16896972D02*
X5161908Y-16877924D01*
X5161908Y-16877924D02*
X5180955Y-16868400D01*
X5180955Y-16868400D02*
X5209527Y-16868400D01*
X5209527Y-16868400D02*
X5228575Y-16877924D01*
X5228575Y-16877924D02*
X5238098Y-16896972D01*
X5238098Y-16896972D02*
X5238098Y-17001734D01*
X5333336Y-17001734D02*
X5333336Y-16868400D01*
X5333336Y-16887448D02*
X5342860Y-16877924D01*
X5342860Y-16877924D02*
X5361908Y-16868400D01*
X5361908Y-16868400D02*
X5390479Y-16868400D01*
X5390479Y-16868400D02*
X5409527Y-16877924D01*
X5409527Y-16877924D02*
X5419051Y-16896972D01*
X5419051Y-16896972D02*
X5419051Y-17001734D01*
X5419051Y-16896972D02*
X5428575Y-16877924D01*
X5428575Y-16877924D02*
X5447622Y-16868400D01*
X5447622Y-16868400D02*
X5476194Y-16868400D01*
X5476194Y-16868400D02*
X5495241Y-16877924D01*
X5495241Y-16877924D02*
X5504765Y-16896972D01*
X5504765Y-16896972D02*
X5504765Y-17001734D01*
X5895241Y-16792210D02*
X5723813Y-17049353D01*
X6152384Y-16801734D02*
X6171432Y-16801734D01*
X6171432Y-16801734D02*
X6190479Y-16811258D01*
X6190479Y-16811258D02*
X6200003Y-16820781D01*
X6200003Y-16820781D02*
X6209527Y-16839829D01*
X6209527Y-16839829D02*
X6219051Y-16877924D01*
X6219051Y-16877924D02*
X6219051Y-16925543D01*
X6219051Y-16925543D02*
X6209527Y-16963639D01*
X6209527Y-16963639D02*
X6200003Y-16982686D01*
X6200003Y-16982686D02*
X6190479Y-16992210D01*
X6190479Y-16992210D02*
X6171432Y-17001734D01*
X6171432Y-17001734D02*
X6152384Y-17001734D01*
X6152384Y-17001734D02*
X6133336Y-16992210D01*
X6133336Y-16992210D02*
X6123813Y-16982686D01*
X6123813Y-16982686D02*
X6114289Y-16963639D01*
X6114289Y-16963639D02*
X6104765Y-16925543D01*
X6104765Y-16925543D02*
X6104765Y-16877924D01*
X6104765Y-16877924D02*
X6114289Y-16839829D01*
X6114289Y-16839829D02*
X6123813Y-16820781D01*
X6123813Y-16820781D02*
X6133336Y-16811258D01*
X6133336Y-16811258D02*
X6152384Y-16801734D01*
X6304765Y-16982686D02*
X6314289Y-16992210D01*
X6314289Y-16992210D02*
X6304765Y-17001734D01*
X6304765Y-17001734D02*
X6295241Y-16992210D01*
X6295241Y-16992210D02*
X6304765Y-16982686D01*
X6304765Y-16982686D02*
X6304765Y-17001734D01*
X6438098Y-16801734D02*
X6457146Y-16801734D01*
X6457146Y-16801734D02*
X6476194Y-16811258D01*
X6476194Y-16811258D02*
X6485717Y-16820781D01*
X6485717Y-16820781D02*
X6495241Y-16839829D01*
X6495241Y-16839829D02*
X6504765Y-16877924D01*
X6504765Y-16877924D02*
X6504765Y-16925543D01*
X6504765Y-16925543D02*
X6495241Y-16963639D01*
X6495241Y-16963639D02*
X6485717Y-16982686D01*
X6485717Y-16982686D02*
X6476194Y-16992210D01*
X6476194Y-16992210D02*
X6457146Y-17001734D01*
X6457146Y-17001734D02*
X6438098Y-17001734D01*
X6438098Y-17001734D02*
X6419051Y-16992210D01*
X6419051Y-16992210D02*
X6409527Y-16982686D01*
X6409527Y-16982686D02*
X6400003Y-16963639D01*
X6400003Y-16963639D02*
X6390479Y-16925543D01*
X6390479Y-16925543D02*
X6390479Y-16877924D01*
X6390479Y-16877924D02*
X6400003Y-16839829D01*
X6400003Y-16839829D02*
X6409527Y-16820781D01*
X6409527Y-16820781D02*
X6419051Y-16811258D01*
X6419051Y-16811258D02*
X6438098Y-16801734D01*
X6695241Y-17001734D02*
X6580956Y-17001734D01*
X6638098Y-17001734D02*
X6638098Y-16801734D01*
X6638098Y-16801734D02*
X6619051Y-16830305D01*
X6619051Y-16830305D02*
X6600003Y-16849353D01*
X6600003Y-16849353D02*
X6580956Y-16858877D01*
X6876194Y-16801734D02*
X6780956Y-16801734D01*
X6780956Y-16801734D02*
X6771432Y-16896972D01*
X6771432Y-16896972D02*
X6780956Y-16887448D01*
X6780956Y-16887448D02*
X6800003Y-16877924D01*
X6800003Y-16877924D02*
X6847622Y-16877924D01*
X6847622Y-16877924D02*
X6866670Y-16887448D01*
X6866670Y-16887448D02*
X6876194Y-16896972D01*
X6876194Y-16896972D02*
X6885717Y-16916020D01*
X6885717Y-16916020D02*
X6885717Y-16963639D01*
X6885717Y-16963639D02*
X6876194Y-16982686D01*
X6876194Y-16982686D02*
X6866670Y-16992210D01*
X6866670Y-16992210D02*
X6847622Y-17001734D01*
X6847622Y-17001734D02*
X6800003Y-17001734D01*
X6800003Y-17001734D02*
X6780956Y-16992210D01*
X6780956Y-16992210D02*
X6771432Y-16982686D01*
X6952384Y-16801734D02*
X7085717Y-16801734D01*
X7085717Y-16801734D02*
X7000003Y-17001734D01*
X7152384Y-16801734D02*
X7152384Y-16839829D01*
X7228575Y-16801734D02*
X7228575Y-16839829D01*
X7523813Y-17077924D02*
X7514289Y-17068400D01*
X7514289Y-17068400D02*
X7495241Y-17039829D01*
X7495241Y-17039829D02*
X7485718Y-17020781D01*
X7485718Y-17020781D02*
X7476194Y-16992210D01*
X7476194Y-16992210D02*
X7466670Y-16944591D01*
X7466670Y-16944591D02*
X7466670Y-16906496D01*
X7466670Y-16906496D02*
X7476194Y-16858877D01*
X7476194Y-16858877D02*
X7485718Y-16830305D01*
X7485718Y-16830305D02*
X7495241Y-16811258D01*
X7495241Y-16811258D02*
X7514289Y-16782686D01*
X7514289Y-16782686D02*
X7523813Y-16773162D01*
X7638098Y-16801734D02*
X7657146Y-16801734D01*
X7657146Y-16801734D02*
X7676194Y-16811258D01*
X7676194Y-16811258D02*
X7685718Y-16820781D01*
X7685718Y-16820781D02*
X7695241Y-16839829D01*
X7695241Y-16839829D02*
X7704765Y-16877924D01*
X7704765Y-16877924D02*
X7704765Y-16925543D01*
X7704765Y-16925543D02*
X7695241Y-16963639D01*
X7695241Y-16963639D02*
X7685718Y-16982686D01*
X7685718Y-16982686D02*
X7676194Y-16992210D01*
X7676194Y-16992210D02*
X7657146Y-17001734D01*
X7657146Y-17001734D02*
X7638098Y-17001734D01*
X7638098Y-17001734D02*
X7619051Y-16992210D01*
X7619051Y-16992210D02*
X7609527Y-16982686D01*
X7609527Y-16982686D02*
X7600003Y-16963639D01*
X7600003Y-16963639D02*
X7590479Y-16925543D01*
X7590479Y-16925543D02*
X7590479Y-16877924D01*
X7590479Y-16877924D02*
X7600003Y-16839829D01*
X7600003Y-16839829D02*
X7609527Y-16820781D01*
X7609527Y-16820781D02*
X7619051Y-16811258D01*
X7619051Y-16811258D02*
X7638098Y-16801734D01*
X7942860Y-17001734D02*
X7942860Y-16801734D01*
X8028575Y-17001734D02*
X8028575Y-16896972D01*
X8028575Y-16896972D02*
X8019051Y-16877924D01*
X8019051Y-16877924D02*
X8000003Y-16868400D01*
X8000003Y-16868400D02*
X7971432Y-16868400D01*
X7971432Y-16868400D02*
X7952384Y-16877924D01*
X7952384Y-16877924D02*
X7942860Y-16887448D01*
X8152384Y-17001734D02*
X8133337Y-16992210D01*
X8133337Y-16992210D02*
X8123813Y-16982686D01*
X8123813Y-16982686D02*
X8114289Y-16963639D01*
X8114289Y-16963639D02*
X8114289Y-16906496D01*
X8114289Y-16906496D02*
X8123813Y-16887448D01*
X8123813Y-16887448D02*
X8133337Y-16877924D01*
X8133337Y-16877924D02*
X8152384Y-16868400D01*
X8152384Y-16868400D02*
X8180956Y-16868400D01*
X8180956Y-16868400D02*
X8200003Y-16877924D01*
X8200003Y-16877924D02*
X8209527Y-16887448D01*
X8209527Y-16887448D02*
X8219051Y-16906496D01*
X8219051Y-16906496D02*
X8219051Y-16963639D01*
X8219051Y-16963639D02*
X8209527Y-16982686D01*
X8209527Y-16982686D02*
X8200003Y-16992210D01*
X8200003Y-16992210D02*
X8180956Y-17001734D01*
X8180956Y-17001734D02*
X8152384Y-17001734D01*
X8333337Y-17001734D02*
X8314289Y-16992210D01*
X8314289Y-16992210D02*
X8304765Y-16973162D01*
X8304765Y-16973162D02*
X8304765Y-16801734D01*
X8485718Y-16992210D02*
X8466670Y-17001734D01*
X8466670Y-17001734D02*
X8428575Y-17001734D01*
X8428575Y-17001734D02*
X8409527Y-16992210D01*
X8409527Y-16992210D02*
X8400003Y-16973162D01*
X8400003Y-16973162D02*
X8400003Y-16896972D01*
X8400003Y-16896972D02*
X8409527Y-16877924D01*
X8409527Y-16877924D02*
X8428575Y-16868400D01*
X8428575Y-16868400D02*
X8466670Y-16868400D01*
X8466670Y-16868400D02*
X8485718Y-16877924D01*
X8485718Y-16877924D02*
X8495242Y-16896972D01*
X8495242Y-16896972D02*
X8495242Y-16916020D01*
X8495242Y-16916020D02*
X8400003Y-16935067D01*
X8571432Y-16992210D02*
X8590480Y-17001734D01*
X8590480Y-17001734D02*
X8628575Y-17001734D01*
X8628575Y-17001734D02*
X8647623Y-16992210D01*
X8647623Y-16992210D02*
X8657146Y-16973162D01*
X8657146Y-16973162D02*
X8657146Y-16963639D01*
X8657146Y-16963639D02*
X8647623Y-16944591D01*
X8647623Y-16944591D02*
X8628575Y-16935067D01*
X8628575Y-16935067D02*
X8600003Y-16935067D01*
X8600003Y-16935067D02*
X8580956Y-16925543D01*
X8580956Y-16925543D02*
X8571432Y-16906496D01*
X8571432Y-16906496D02*
X8571432Y-16896972D01*
X8571432Y-16896972D02*
X8580956Y-16877924D01*
X8580956Y-16877924D02*
X8600003Y-16868400D01*
X8600003Y-16868400D02*
X8628575Y-16868400D01*
X8628575Y-16868400D02*
X8647623Y-16877924D01*
X8895242Y-16925543D02*
X9047623Y-16925543D01*
X8971432Y-17001734D02*
X8971432Y-16849353D01*
X9304765Y-17001734D02*
X9342861Y-17001734D01*
X9342861Y-17001734D02*
X9361908Y-16992210D01*
X9361908Y-16992210D02*
X9371432Y-16982686D01*
X9371432Y-16982686D02*
X9390480Y-16954115D01*
X9390480Y-16954115D02*
X9400004Y-16916020D01*
X9400004Y-16916020D02*
X9400004Y-16839829D01*
X9400004Y-16839829D02*
X9390480Y-16820781D01*
X9390480Y-16820781D02*
X9380956Y-16811258D01*
X9380956Y-16811258D02*
X9361908Y-16801734D01*
X9361908Y-16801734D02*
X9323813Y-16801734D01*
X9323813Y-16801734D02*
X9304765Y-16811258D01*
X9304765Y-16811258D02*
X9295242Y-16820781D01*
X9295242Y-16820781D02*
X9285718Y-16839829D01*
X9285718Y-16839829D02*
X9285718Y-16887448D01*
X9285718Y-16887448D02*
X9295242Y-16906496D01*
X9295242Y-16906496D02*
X9304765Y-16916020D01*
X9304765Y-16916020D02*
X9323813Y-16925543D01*
X9323813Y-16925543D02*
X9361908Y-16925543D01*
X9361908Y-16925543D02*
X9380956Y-16916020D01*
X9380956Y-16916020D02*
X9390480Y-16906496D01*
X9390480Y-16906496D02*
X9400004Y-16887448D01*
X9628575Y-16992210D02*
X9647623Y-17001734D01*
X9647623Y-17001734D02*
X9685718Y-17001734D01*
X9685718Y-17001734D02*
X9704766Y-16992210D01*
X9704766Y-16992210D02*
X9714289Y-16973162D01*
X9714289Y-16973162D02*
X9714289Y-16963639D01*
X9714289Y-16963639D02*
X9704766Y-16944591D01*
X9704766Y-16944591D02*
X9685718Y-16935067D01*
X9685718Y-16935067D02*
X9657146Y-16935067D01*
X9657146Y-16935067D02*
X9638099Y-16925543D01*
X9638099Y-16925543D02*
X9628575Y-16906496D01*
X9628575Y-16906496D02*
X9628575Y-16896972D01*
X9628575Y-16896972D02*
X9638099Y-16877924D01*
X9638099Y-16877924D02*
X9657146Y-16868400D01*
X9657146Y-16868400D02*
X9685718Y-16868400D01*
X9685718Y-16868400D02*
X9704766Y-16877924D01*
X9828575Y-17001734D02*
X9809527Y-16992210D01*
X9809527Y-16992210D02*
X9800004Y-16973162D01*
X9800004Y-16973162D02*
X9800004Y-16801734D01*
X9933337Y-17001734D02*
X9914289Y-16992210D01*
X9914289Y-16992210D02*
X9904766Y-16982686D01*
X9904766Y-16982686D02*
X9895242Y-16963639D01*
X9895242Y-16963639D02*
X9895242Y-16906496D01*
X9895242Y-16906496D02*
X9904766Y-16887448D01*
X9904766Y-16887448D02*
X9914289Y-16877924D01*
X9914289Y-16877924D02*
X9933337Y-16868400D01*
X9933337Y-16868400D02*
X9961908Y-16868400D01*
X9961908Y-16868400D02*
X9980956Y-16877924D01*
X9980956Y-16877924D02*
X9990480Y-16887448D01*
X9990480Y-16887448D02*
X10000004Y-16906496D01*
X10000004Y-16906496D02*
X10000004Y-16963639D01*
X10000004Y-16963639D02*
X9990480Y-16982686D01*
X9990480Y-16982686D02*
X9980956Y-16992210D01*
X9980956Y-16992210D02*
X9961908Y-17001734D01*
X9961908Y-17001734D02*
X9933337Y-17001734D01*
X10057147Y-16868400D02*
X10133337Y-16868400D01*
X10085718Y-16801734D02*
X10085718Y-16973162D01*
X10085718Y-16973162D02*
X10095242Y-16992210D01*
X10095242Y-16992210D02*
X10114289Y-17001734D01*
X10114289Y-17001734D02*
X10133337Y-17001734D01*
X10190480Y-16992210D02*
X10209527Y-17001734D01*
X10209527Y-17001734D02*
X10247623Y-17001734D01*
X10247623Y-17001734D02*
X10266670Y-16992210D01*
X10266670Y-16992210D02*
X10276194Y-16973162D01*
X10276194Y-16973162D02*
X10276194Y-16963639D01*
X10276194Y-16963639D02*
X10266670Y-16944591D01*
X10266670Y-16944591D02*
X10247623Y-16935067D01*
X10247623Y-16935067D02*
X10219051Y-16935067D01*
X10219051Y-16935067D02*
X10200004Y-16925543D01*
X10200004Y-16925543D02*
X10190480Y-16906496D01*
X10190480Y-16906496D02*
X10190480Y-16896972D01*
X10190480Y-16896972D02*
X10200004Y-16877924D01*
X10200004Y-16877924D02*
X10219051Y-16868400D01*
X10219051Y-16868400D02*
X10247623Y-16868400D01*
X10247623Y-16868400D02*
X10266670Y-16877924D01*
X10342861Y-17077924D02*
X10352385Y-17068400D01*
X10352385Y-17068400D02*
X10371432Y-17039829D01*
X10371432Y-17039829D02*
X10380956Y-17020781D01*
X10380956Y-17020781D02*
X10390480Y-16992210D01*
X10390480Y-16992210D02*
X10400004Y-16944591D01*
X10400004Y-16944591D02*
X10400004Y-16906496D01*
X10400004Y-16906496D02*
X10390480Y-16858877D01*
X10390480Y-16858877D02*
X10380956Y-16830305D01*
X10380956Y-16830305D02*
X10371432Y-16811258D01*
X10371432Y-16811258D02*
X10352385Y-16782686D01*
X10352385Y-16782686D02*
X10342861Y-16773162D01*
D13*
X3916250Y-17141750D02*
X3916250Y-17206750D01*
X3883750Y-17174250D02*
X3948750Y-17174250D01*
D12*
X4247622Y-17065734D02*
X4266670Y-17065734D01*
X4266670Y-17065734D02*
X4285717Y-17075258D01*
X4285717Y-17075258D02*
X4295241Y-17084781D01*
X4295241Y-17084781D02*
X4304765Y-17103829D01*
X4304765Y-17103829D02*
X4314289Y-17141924D01*
X4314289Y-17141924D02*
X4314289Y-17189543D01*
X4314289Y-17189543D02*
X4304765Y-17227639D01*
X4304765Y-17227639D02*
X4295241Y-17246686D01*
X4295241Y-17246686D02*
X4285717Y-17256210D01*
X4285717Y-17256210D02*
X4266670Y-17265734D01*
X4266670Y-17265734D02*
X4247622Y-17265734D01*
X4247622Y-17265734D02*
X4228574Y-17256210D01*
X4228574Y-17256210D02*
X4219051Y-17246686D01*
X4219051Y-17246686D02*
X4209527Y-17227639D01*
X4209527Y-17227639D02*
X4200003Y-17189543D01*
X4200003Y-17189543D02*
X4200003Y-17141924D01*
X4200003Y-17141924D02*
X4209527Y-17103829D01*
X4209527Y-17103829D02*
X4219051Y-17084781D01*
X4219051Y-17084781D02*
X4228574Y-17075258D01*
X4228574Y-17075258D02*
X4247622Y-17065734D01*
X4400003Y-17246686D02*
X4409527Y-17256210D01*
X4409527Y-17256210D02*
X4400003Y-17265734D01*
X4400003Y-17265734D02*
X4390479Y-17256210D01*
X4390479Y-17256210D02*
X4400003Y-17246686D01*
X4400003Y-17246686D02*
X4400003Y-17265734D01*
X4580955Y-17065734D02*
X4542860Y-17065734D01*
X4542860Y-17065734D02*
X4523813Y-17075258D01*
X4523813Y-17075258D02*
X4514289Y-17084781D01*
X4514289Y-17084781D02*
X4495241Y-17113353D01*
X4495241Y-17113353D02*
X4485717Y-17151448D01*
X4485717Y-17151448D02*
X4485717Y-17227639D01*
X4485717Y-17227639D02*
X4495241Y-17246686D01*
X4495241Y-17246686D02*
X4504765Y-17256210D01*
X4504765Y-17256210D02*
X4523813Y-17265734D01*
X4523813Y-17265734D02*
X4561908Y-17265734D01*
X4561908Y-17265734D02*
X4580955Y-17256210D01*
X4580955Y-17256210D02*
X4590479Y-17246686D01*
X4590479Y-17246686D02*
X4600003Y-17227639D01*
X4600003Y-17227639D02*
X4600003Y-17180020D01*
X4600003Y-17180020D02*
X4590479Y-17160972D01*
X4590479Y-17160972D02*
X4580955Y-17151448D01*
X4580955Y-17151448D02*
X4561908Y-17141924D01*
X4561908Y-17141924D02*
X4523813Y-17141924D01*
X4523813Y-17141924D02*
X4504765Y-17151448D01*
X4504765Y-17151448D02*
X4495241Y-17160972D01*
X4495241Y-17160972D02*
X4485717Y-17180020D01*
X4780955Y-17065734D02*
X4685717Y-17065734D01*
X4685717Y-17065734D02*
X4676194Y-17160972D01*
X4676194Y-17160972D02*
X4685717Y-17151448D01*
X4685717Y-17151448D02*
X4704765Y-17141924D01*
X4704765Y-17141924D02*
X4752384Y-17141924D01*
X4752384Y-17141924D02*
X4771432Y-17151448D01*
X4771432Y-17151448D02*
X4780955Y-17160972D01*
X4780955Y-17160972D02*
X4790479Y-17180020D01*
X4790479Y-17180020D02*
X4790479Y-17227639D01*
X4790479Y-17227639D02*
X4780955Y-17246686D01*
X4780955Y-17246686D02*
X4771432Y-17256210D01*
X4771432Y-17256210D02*
X4752384Y-17265734D01*
X4752384Y-17265734D02*
X4704765Y-17265734D01*
X4704765Y-17265734D02*
X4685717Y-17256210D01*
X4685717Y-17256210D02*
X4676194Y-17246686D01*
X4914289Y-17065734D02*
X4933336Y-17065734D01*
X4933336Y-17065734D02*
X4952384Y-17075258D01*
X4952384Y-17075258D02*
X4961908Y-17084781D01*
X4961908Y-17084781D02*
X4971432Y-17103829D01*
X4971432Y-17103829D02*
X4980955Y-17141924D01*
X4980955Y-17141924D02*
X4980955Y-17189543D01*
X4980955Y-17189543D02*
X4971432Y-17227639D01*
X4971432Y-17227639D02*
X4961908Y-17246686D01*
X4961908Y-17246686D02*
X4952384Y-17256210D01*
X4952384Y-17256210D02*
X4933336Y-17265734D01*
X4933336Y-17265734D02*
X4914289Y-17265734D01*
X4914289Y-17265734D02*
X4895241Y-17256210D01*
X4895241Y-17256210D02*
X4885717Y-17246686D01*
X4885717Y-17246686D02*
X4876194Y-17227639D01*
X4876194Y-17227639D02*
X4866670Y-17189543D01*
X4866670Y-17189543D02*
X4866670Y-17141924D01*
X4866670Y-17141924D02*
X4876194Y-17103829D01*
X4876194Y-17103829D02*
X4885717Y-17084781D01*
X4885717Y-17084781D02*
X4895241Y-17075258D01*
X4895241Y-17075258D02*
X4914289Y-17065734D01*
X5066670Y-17265734D02*
X5066670Y-17132400D01*
X5066670Y-17151448D02*
X5076194Y-17141924D01*
X5076194Y-17141924D02*
X5095241Y-17132400D01*
X5095241Y-17132400D02*
X5123813Y-17132400D01*
X5123813Y-17132400D02*
X5142860Y-17141924D01*
X5142860Y-17141924D02*
X5152384Y-17160972D01*
X5152384Y-17160972D02*
X5152384Y-17265734D01*
X5152384Y-17160972D02*
X5161908Y-17141924D01*
X5161908Y-17141924D02*
X5180955Y-17132400D01*
X5180955Y-17132400D02*
X5209527Y-17132400D01*
X5209527Y-17132400D02*
X5228575Y-17141924D01*
X5228575Y-17141924D02*
X5238098Y-17160972D01*
X5238098Y-17160972D02*
X5238098Y-17265734D01*
X5333336Y-17265734D02*
X5333336Y-17132400D01*
X5333336Y-17151448D02*
X5342860Y-17141924D01*
X5342860Y-17141924D02*
X5361908Y-17132400D01*
X5361908Y-17132400D02*
X5390479Y-17132400D01*
X5390479Y-17132400D02*
X5409527Y-17141924D01*
X5409527Y-17141924D02*
X5419051Y-17160972D01*
X5419051Y-17160972D02*
X5419051Y-17265734D01*
X5419051Y-17160972D02*
X5428575Y-17141924D01*
X5428575Y-17141924D02*
X5447622Y-17132400D01*
X5447622Y-17132400D02*
X5476194Y-17132400D01*
X5476194Y-17132400D02*
X5495241Y-17141924D01*
X5495241Y-17141924D02*
X5504765Y-17160972D01*
X5504765Y-17160972D02*
X5504765Y-17265734D01*
X5895241Y-17056210D02*
X5723813Y-17313353D01*
X6152384Y-17065734D02*
X6171432Y-17065734D01*
X6171432Y-17065734D02*
X6190479Y-17075258D01*
X6190479Y-17075258D02*
X6200003Y-17084781D01*
X6200003Y-17084781D02*
X6209527Y-17103829D01*
X6209527Y-17103829D02*
X6219051Y-17141924D01*
X6219051Y-17141924D02*
X6219051Y-17189543D01*
X6219051Y-17189543D02*
X6209527Y-17227639D01*
X6209527Y-17227639D02*
X6200003Y-17246686D01*
X6200003Y-17246686D02*
X6190479Y-17256210D01*
X6190479Y-17256210D02*
X6171432Y-17265734D01*
X6171432Y-17265734D02*
X6152384Y-17265734D01*
X6152384Y-17265734D02*
X6133336Y-17256210D01*
X6133336Y-17256210D02*
X6123813Y-17246686D01*
X6123813Y-17246686D02*
X6114289Y-17227639D01*
X6114289Y-17227639D02*
X6104765Y-17189543D01*
X6104765Y-17189543D02*
X6104765Y-17141924D01*
X6104765Y-17141924D02*
X6114289Y-17103829D01*
X6114289Y-17103829D02*
X6123813Y-17084781D01*
X6123813Y-17084781D02*
X6133336Y-17075258D01*
X6133336Y-17075258D02*
X6152384Y-17065734D01*
X6304765Y-17246686D02*
X6314289Y-17256210D01*
X6314289Y-17256210D02*
X6304765Y-17265734D01*
X6304765Y-17265734D02*
X6295241Y-17256210D01*
X6295241Y-17256210D02*
X6304765Y-17246686D01*
X6304765Y-17246686D02*
X6304765Y-17265734D01*
X6438098Y-17065734D02*
X6457146Y-17065734D01*
X6457146Y-17065734D02*
X6476194Y-17075258D01*
X6476194Y-17075258D02*
X6485717Y-17084781D01*
X6485717Y-17084781D02*
X6495241Y-17103829D01*
X6495241Y-17103829D02*
X6504765Y-17141924D01*
X6504765Y-17141924D02*
X6504765Y-17189543D01*
X6504765Y-17189543D02*
X6495241Y-17227639D01*
X6495241Y-17227639D02*
X6485717Y-17246686D01*
X6485717Y-17246686D02*
X6476194Y-17256210D01*
X6476194Y-17256210D02*
X6457146Y-17265734D01*
X6457146Y-17265734D02*
X6438098Y-17265734D01*
X6438098Y-17265734D02*
X6419051Y-17256210D01*
X6419051Y-17256210D02*
X6409527Y-17246686D01*
X6409527Y-17246686D02*
X6400003Y-17227639D01*
X6400003Y-17227639D02*
X6390479Y-17189543D01*
X6390479Y-17189543D02*
X6390479Y-17141924D01*
X6390479Y-17141924D02*
X6400003Y-17103829D01*
X6400003Y-17103829D02*
X6409527Y-17084781D01*
X6409527Y-17084781D02*
X6419051Y-17075258D01*
X6419051Y-17075258D02*
X6438098Y-17065734D01*
X6580956Y-17084781D02*
X6590479Y-17075258D01*
X6590479Y-17075258D02*
X6609527Y-17065734D01*
X6609527Y-17065734D02*
X6657146Y-17065734D01*
X6657146Y-17065734D02*
X6676194Y-17075258D01*
X6676194Y-17075258D02*
X6685717Y-17084781D01*
X6685717Y-17084781D02*
X6695241Y-17103829D01*
X6695241Y-17103829D02*
X6695241Y-17122877D01*
X6695241Y-17122877D02*
X6685717Y-17151448D01*
X6685717Y-17151448D02*
X6571432Y-17265734D01*
X6571432Y-17265734D02*
X6695241Y-17265734D01*
X6876194Y-17065734D02*
X6780956Y-17065734D01*
X6780956Y-17065734D02*
X6771432Y-17160972D01*
X6771432Y-17160972D02*
X6780956Y-17151448D01*
X6780956Y-17151448D02*
X6800003Y-17141924D01*
X6800003Y-17141924D02*
X6847622Y-17141924D01*
X6847622Y-17141924D02*
X6866670Y-17151448D01*
X6866670Y-17151448D02*
X6876194Y-17160972D01*
X6876194Y-17160972D02*
X6885717Y-17180020D01*
X6885717Y-17180020D02*
X6885717Y-17227639D01*
X6885717Y-17227639D02*
X6876194Y-17246686D01*
X6876194Y-17246686D02*
X6866670Y-17256210D01*
X6866670Y-17256210D02*
X6847622Y-17265734D01*
X6847622Y-17265734D02*
X6800003Y-17265734D01*
X6800003Y-17265734D02*
X6780956Y-17256210D01*
X6780956Y-17256210D02*
X6771432Y-17246686D01*
X7057146Y-17065734D02*
X7019051Y-17065734D01*
X7019051Y-17065734D02*
X7000003Y-17075258D01*
X7000003Y-17075258D02*
X6990479Y-17084781D01*
X6990479Y-17084781D02*
X6971432Y-17113353D01*
X6971432Y-17113353D02*
X6961908Y-17151448D01*
X6961908Y-17151448D02*
X6961908Y-17227639D01*
X6961908Y-17227639D02*
X6971432Y-17246686D01*
X6971432Y-17246686D02*
X6980956Y-17256210D01*
X6980956Y-17256210D02*
X7000003Y-17265734D01*
X7000003Y-17265734D02*
X7038098Y-17265734D01*
X7038098Y-17265734D02*
X7057146Y-17256210D01*
X7057146Y-17256210D02*
X7066670Y-17246686D01*
X7066670Y-17246686D02*
X7076194Y-17227639D01*
X7076194Y-17227639D02*
X7076194Y-17180020D01*
X7076194Y-17180020D02*
X7066670Y-17160972D01*
X7066670Y-17160972D02*
X7057146Y-17151448D01*
X7057146Y-17151448D02*
X7038098Y-17141924D01*
X7038098Y-17141924D02*
X7000003Y-17141924D01*
X7000003Y-17141924D02*
X6980956Y-17151448D01*
X6980956Y-17151448D02*
X6971432Y-17160972D01*
X6971432Y-17160972D02*
X6961908Y-17180020D01*
X7152384Y-17065734D02*
X7152384Y-17103829D01*
X7228575Y-17065734D02*
X7228575Y-17103829D01*
X7523813Y-17341924D02*
X7514289Y-17332400D01*
X7514289Y-17332400D02*
X7495241Y-17303829D01*
X7495241Y-17303829D02*
X7485718Y-17284781D01*
X7485718Y-17284781D02*
X7476194Y-17256210D01*
X7476194Y-17256210D02*
X7466670Y-17208591D01*
X7466670Y-17208591D02*
X7466670Y-17170496D01*
X7466670Y-17170496D02*
X7476194Y-17122877D01*
X7476194Y-17122877D02*
X7485718Y-17094305D01*
X7485718Y-17094305D02*
X7495241Y-17075258D01*
X7495241Y-17075258D02*
X7514289Y-17046686D01*
X7514289Y-17046686D02*
X7523813Y-17037162D01*
X7580956Y-17065734D02*
X7704765Y-17065734D01*
X7704765Y-17065734D02*
X7638098Y-17141924D01*
X7638098Y-17141924D02*
X7666670Y-17141924D01*
X7666670Y-17141924D02*
X7685718Y-17151448D01*
X7685718Y-17151448D02*
X7695241Y-17160972D01*
X7695241Y-17160972D02*
X7704765Y-17180020D01*
X7704765Y-17180020D02*
X7704765Y-17227639D01*
X7704765Y-17227639D02*
X7695241Y-17246686D01*
X7695241Y-17246686D02*
X7685718Y-17256210D01*
X7685718Y-17256210D02*
X7666670Y-17265734D01*
X7666670Y-17265734D02*
X7609527Y-17265734D01*
X7609527Y-17265734D02*
X7590479Y-17256210D01*
X7590479Y-17256210D02*
X7580956Y-17246686D01*
X7942860Y-17265734D02*
X7942860Y-17065734D01*
X8028575Y-17265734D02*
X8028575Y-17160972D01*
X8028575Y-17160972D02*
X8019051Y-17141924D01*
X8019051Y-17141924D02*
X8000003Y-17132400D01*
X8000003Y-17132400D02*
X7971432Y-17132400D01*
X7971432Y-17132400D02*
X7952384Y-17141924D01*
X7952384Y-17141924D02*
X7942860Y-17151448D01*
X8152384Y-17265734D02*
X8133337Y-17256210D01*
X8133337Y-17256210D02*
X8123813Y-17246686D01*
X8123813Y-17246686D02*
X8114289Y-17227639D01*
X8114289Y-17227639D02*
X8114289Y-17170496D01*
X8114289Y-17170496D02*
X8123813Y-17151448D01*
X8123813Y-17151448D02*
X8133337Y-17141924D01*
X8133337Y-17141924D02*
X8152384Y-17132400D01*
X8152384Y-17132400D02*
X8180956Y-17132400D01*
X8180956Y-17132400D02*
X8200003Y-17141924D01*
X8200003Y-17141924D02*
X8209527Y-17151448D01*
X8209527Y-17151448D02*
X8219051Y-17170496D01*
X8219051Y-17170496D02*
X8219051Y-17227639D01*
X8219051Y-17227639D02*
X8209527Y-17246686D01*
X8209527Y-17246686D02*
X8200003Y-17256210D01*
X8200003Y-17256210D02*
X8180956Y-17265734D01*
X8180956Y-17265734D02*
X8152384Y-17265734D01*
X8333337Y-17265734D02*
X8314289Y-17256210D01*
X8314289Y-17256210D02*
X8304765Y-17237162D01*
X8304765Y-17237162D02*
X8304765Y-17065734D01*
X8485718Y-17256210D02*
X8466670Y-17265734D01*
X8466670Y-17265734D02*
X8428575Y-17265734D01*
X8428575Y-17265734D02*
X8409527Y-17256210D01*
X8409527Y-17256210D02*
X8400003Y-17237162D01*
X8400003Y-17237162D02*
X8400003Y-17160972D01*
X8400003Y-17160972D02*
X8409527Y-17141924D01*
X8409527Y-17141924D02*
X8428575Y-17132400D01*
X8428575Y-17132400D02*
X8466670Y-17132400D01*
X8466670Y-17132400D02*
X8485718Y-17141924D01*
X8485718Y-17141924D02*
X8495242Y-17160972D01*
X8495242Y-17160972D02*
X8495242Y-17180020D01*
X8495242Y-17180020D02*
X8400003Y-17199067D01*
X8571432Y-17256210D02*
X8590480Y-17265734D01*
X8590480Y-17265734D02*
X8628575Y-17265734D01*
X8628575Y-17265734D02*
X8647623Y-17256210D01*
X8647623Y-17256210D02*
X8657146Y-17237162D01*
X8657146Y-17237162D02*
X8657146Y-17227639D01*
X8657146Y-17227639D02*
X8647623Y-17208591D01*
X8647623Y-17208591D02*
X8628575Y-17199067D01*
X8628575Y-17199067D02*
X8600003Y-17199067D01*
X8600003Y-17199067D02*
X8580956Y-17189543D01*
X8580956Y-17189543D02*
X8571432Y-17170496D01*
X8571432Y-17170496D02*
X8571432Y-17160972D01*
X8571432Y-17160972D02*
X8580956Y-17141924D01*
X8580956Y-17141924D02*
X8600003Y-17132400D01*
X8600003Y-17132400D02*
X8628575Y-17132400D01*
X8628575Y-17132400D02*
X8647623Y-17141924D01*
X8723813Y-17341924D02*
X8733337Y-17332400D01*
X8733337Y-17332400D02*
X8752384Y-17303829D01*
X8752384Y-17303829D02*
X8761908Y-17284781D01*
X8761908Y-17284781D02*
X8771432Y-17256210D01*
X8771432Y-17256210D02*
X8780956Y-17208591D01*
X8780956Y-17208591D02*
X8780956Y-17170496D01*
X8780956Y-17170496D02*
X8771432Y-17122877D01*
X8771432Y-17122877D02*
X8761908Y-17094305D01*
X8761908Y-17094305D02*
X8752384Y-17075258D01*
X8752384Y-17075258D02*
X8733337Y-17046686D01*
X8733337Y-17046686D02*
X8723813Y-17037162D01*
D13*
X3937034Y-17466535D02*
X3937034Y-17409966D01*
X3880465Y-17409966D01*
X3880465Y-17466535D01*
X3937034Y-17466535D01*
D12*
X4247622Y-17329734D02*
X4266670Y-17329734D01*
X4266670Y-17329734D02*
X4285717Y-17339258D01*
X4285717Y-17339258D02*
X4295241Y-17348781D01*
X4295241Y-17348781D02*
X4304765Y-17367829D01*
X4304765Y-17367829D02*
X4314289Y-17405924D01*
X4314289Y-17405924D02*
X4314289Y-17453543D01*
X4314289Y-17453543D02*
X4304765Y-17491639D01*
X4304765Y-17491639D02*
X4295241Y-17510686D01*
X4295241Y-17510686D02*
X4285717Y-17520210D01*
X4285717Y-17520210D02*
X4266670Y-17529734D01*
X4266670Y-17529734D02*
X4247622Y-17529734D01*
X4247622Y-17529734D02*
X4228574Y-17520210D01*
X4228574Y-17520210D02*
X4219051Y-17510686D01*
X4219051Y-17510686D02*
X4209527Y-17491639D01*
X4209527Y-17491639D02*
X4200003Y-17453543D01*
X4200003Y-17453543D02*
X4200003Y-17405924D01*
X4200003Y-17405924D02*
X4209527Y-17367829D01*
X4209527Y-17367829D02*
X4219051Y-17348781D01*
X4219051Y-17348781D02*
X4228574Y-17339258D01*
X4228574Y-17339258D02*
X4247622Y-17329734D01*
X4400003Y-17510686D02*
X4409527Y-17520210D01*
X4409527Y-17520210D02*
X4400003Y-17529734D01*
X4400003Y-17529734D02*
X4390479Y-17520210D01*
X4390479Y-17520210D02*
X4400003Y-17510686D01*
X4400003Y-17510686D02*
X4400003Y-17529734D01*
X4523813Y-17415448D02*
X4504765Y-17405924D01*
X4504765Y-17405924D02*
X4495241Y-17396400D01*
X4495241Y-17396400D02*
X4485717Y-17377353D01*
X4485717Y-17377353D02*
X4485717Y-17367829D01*
X4485717Y-17367829D02*
X4495241Y-17348781D01*
X4495241Y-17348781D02*
X4504765Y-17339258D01*
X4504765Y-17339258D02*
X4523813Y-17329734D01*
X4523813Y-17329734D02*
X4561908Y-17329734D01*
X4561908Y-17329734D02*
X4580955Y-17339258D01*
X4580955Y-17339258D02*
X4590479Y-17348781D01*
X4590479Y-17348781D02*
X4600003Y-17367829D01*
X4600003Y-17367829D02*
X4600003Y-17377353D01*
X4600003Y-17377353D02*
X4590479Y-17396400D01*
X4590479Y-17396400D02*
X4580955Y-17405924D01*
X4580955Y-17405924D02*
X4561908Y-17415448D01*
X4561908Y-17415448D02*
X4523813Y-17415448D01*
X4523813Y-17415448D02*
X4504765Y-17424972D01*
X4504765Y-17424972D02*
X4495241Y-17434496D01*
X4495241Y-17434496D02*
X4485717Y-17453543D01*
X4485717Y-17453543D02*
X4485717Y-17491639D01*
X4485717Y-17491639D02*
X4495241Y-17510686D01*
X4495241Y-17510686D02*
X4504765Y-17520210D01*
X4504765Y-17520210D02*
X4523813Y-17529734D01*
X4523813Y-17529734D02*
X4561908Y-17529734D01*
X4561908Y-17529734D02*
X4580955Y-17520210D01*
X4580955Y-17520210D02*
X4590479Y-17510686D01*
X4590479Y-17510686D02*
X4600003Y-17491639D01*
X4600003Y-17491639D02*
X4600003Y-17453543D01*
X4600003Y-17453543D02*
X4590479Y-17434496D01*
X4590479Y-17434496D02*
X4580955Y-17424972D01*
X4580955Y-17424972D02*
X4561908Y-17415448D01*
X4723813Y-17329734D02*
X4742860Y-17329734D01*
X4742860Y-17329734D02*
X4761908Y-17339258D01*
X4761908Y-17339258D02*
X4771432Y-17348781D01*
X4771432Y-17348781D02*
X4780955Y-17367829D01*
X4780955Y-17367829D02*
X4790479Y-17405924D01*
X4790479Y-17405924D02*
X4790479Y-17453543D01*
X4790479Y-17453543D02*
X4780955Y-17491639D01*
X4780955Y-17491639D02*
X4771432Y-17510686D01*
X4771432Y-17510686D02*
X4761908Y-17520210D01*
X4761908Y-17520210D02*
X4742860Y-17529734D01*
X4742860Y-17529734D02*
X4723813Y-17529734D01*
X4723813Y-17529734D02*
X4704765Y-17520210D01*
X4704765Y-17520210D02*
X4695241Y-17510686D01*
X4695241Y-17510686D02*
X4685717Y-17491639D01*
X4685717Y-17491639D02*
X4676194Y-17453543D01*
X4676194Y-17453543D02*
X4676194Y-17405924D01*
X4676194Y-17405924D02*
X4685717Y-17367829D01*
X4685717Y-17367829D02*
X4695241Y-17348781D01*
X4695241Y-17348781D02*
X4704765Y-17339258D01*
X4704765Y-17339258D02*
X4723813Y-17329734D01*
X4914289Y-17329734D02*
X4933336Y-17329734D01*
X4933336Y-17329734D02*
X4952384Y-17339258D01*
X4952384Y-17339258D02*
X4961908Y-17348781D01*
X4961908Y-17348781D02*
X4971432Y-17367829D01*
X4971432Y-17367829D02*
X4980955Y-17405924D01*
X4980955Y-17405924D02*
X4980955Y-17453543D01*
X4980955Y-17453543D02*
X4971432Y-17491639D01*
X4971432Y-17491639D02*
X4961908Y-17510686D01*
X4961908Y-17510686D02*
X4952384Y-17520210D01*
X4952384Y-17520210D02*
X4933336Y-17529734D01*
X4933336Y-17529734D02*
X4914289Y-17529734D01*
X4914289Y-17529734D02*
X4895241Y-17520210D01*
X4895241Y-17520210D02*
X4885717Y-17510686D01*
X4885717Y-17510686D02*
X4876194Y-17491639D01*
X4876194Y-17491639D02*
X4866670Y-17453543D01*
X4866670Y-17453543D02*
X4866670Y-17405924D01*
X4866670Y-17405924D02*
X4876194Y-17367829D01*
X4876194Y-17367829D02*
X4885717Y-17348781D01*
X4885717Y-17348781D02*
X4895241Y-17339258D01*
X4895241Y-17339258D02*
X4914289Y-17329734D01*
X5066670Y-17529734D02*
X5066670Y-17396400D01*
X5066670Y-17415448D02*
X5076194Y-17405924D01*
X5076194Y-17405924D02*
X5095241Y-17396400D01*
X5095241Y-17396400D02*
X5123813Y-17396400D01*
X5123813Y-17396400D02*
X5142860Y-17405924D01*
X5142860Y-17405924D02*
X5152384Y-17424972D01*
X5152384Y-17424972D02*
X5152384Y-17529734D01*
X5152384Y-17424972D02*
X5161908Y-17405924D01*
X5161908Y-17405924D02*
X5180955Y-17396400D01*
X5180955Y-17396400D02*
X5209527Y-17396400D01*
X5209527Y-17396400D02*
X5228575Y-17405924D01*
X5228575Y-17405924D02*
X5238098Y-17424972D01*
X5238098Y-17424972D02*
X5238098Y-17529734D01*
X5333336Y-17529734D02*
X5333336Y-17396400D01*
X5333336Y-17415448D02*
X5342860Y-17405924D01*
X5342860Y-17405924D02*
X5361908Y-17396400D01*
X5361908Y-17396400D02*
X5390479Y-17396400D01*
X5390479Y-17396400D02*
X5409527Y-17405924D01*
X5409527Y-17405924D02*
X5419051Y-17424972D01*
X5419051Y-17424972D02*
X5419051Y-17529734D01*
X5419051Y-17424972D02*
X5428575Y-17405924D01*
X5428575Y-17405924D02*
X5447622Y-17396400D01*
X5447622Y-17396400D02*
X5476194Y-17396400D01*
X5476194Y-17396400D02*
X5495241Y-17405924D01*
X5495241Y-17405924D02*
X5504765Y-17424972D01*
X5504765Y-17424972D02*
X5504765Y-17529734D01*
X5895241Y-17320210D02*
X5723813Y-17577353D01*
X6152384Y-17329734D02*
X6171432Y-17329734D01*
X6171432Y-17329734D02*
X6190479Y-17339258D01*
X6190479Y-17339258D02*
X6200003Y-17348781D01*
X6200003Y-17348781D02*
X6209527Y-17367829D01*
X6209527Y-17367829D02*
X6219051Y-17405924D01*
X6219051Y-17405924D02*
X6219051Y-17453543D01*
X6219051Y-17453543D02*
X6209527Y-17491639D01*
X6209527Y-17491639D02*
X6200003Y-17510686D01*
X6200003Y-17510686D02*
X6190479Y-17520210D01*
X6190479Y-17520210D02*
X6171432Y-17529734D01*
X6171432Y-17529734D02*
X6152384Y-17529734D01*
X6152384Y-17529734D02*
X6133336Y-17520210D01*
X6133336Y-17520210D02*
X6123813Y-17510686D01*
X6123813Y-17510686D02*
X6114289Y-17491639D01*
X6114289Y-17491639D02*
X6104765Y-17453543D01*
X6104765Y-17453543D02*
X6104765Y-17405924D01*
X6104765Y-17405924D02*
X6114289Y-17367829D01*
X6114289Y-17367829D02*
X6123813Y-17348781D01*
X6123813Y-17348781D02*
X6133336Y-17339258D01*
X6133336Y-17339258D02*
X6152384Y-17329734D01*
X6304765Y-17510686D02*
X6314289Y-17520210D01*
X6314289Y-17520210D02*
X6304765Y-17529734D01*
X6304765Y-17529734D02*
X6295241Y-17520210D01*
X6295241Y-17520210D02*
X6304765Y-17510686D01*
X6304765Y-17510686D02*
X6304765Y-17529734D01*
X6438098Y-17329734D02*
X6457146Y-17329734D01*
X6457146Y-17329734D02*
X6476194Y-17339258D01*
X6476194Y-17339258D02*
X6485717Y-17348781D01*
X6485717Y-17348781D02*
X6495241Y-17367829D01*
X6495241Y-17367829D02*
X6504765Y-17405924D01*
X6504765Y-17405924D02*
X6504765Y-17453543D01*
X6504765Y-17453543D02*
X6495241Y-17491639D01*
X6495241Y-17491639D02*
X6485717Y-17510686D01*
X6485717Y-17510686D02*
X6476194Y-17520210D01*
X6476194Y-17520210D02*
X6457146Y-17529734D01*
X6457146Y-17529734D02*
X6438098Y-17529734D01*
X6438098Y-17529734D02*
X6419051Y-17520210D01*
X6419051Y-17520210D02*
X6409527Y-17510686D01*
X6409527Y-17510686D02*
X6400003Y-17491639D01*
X6400003Y-17491639D02*
X6390479Y-17453543D01*
X6390479Y-17453543D02*
X6390479Y-17405924D01*
X6390479Y-17405924D02*
X6400003Y-17367829D01*
X6400003Y-17367829D02*
X6409527Y-17348781D01*
X6409527Y-17348781D02*
X6419051Y-17339258D01*
X6419051Y-17339258D02*
X6438098Y-17329734D01*
X6571432Y-17329734D02*
X6695241Y-17329734D01*
X6695241Y-17329734D02*
X6628575Y-17405924D01*
X6628575Y-17405924D02*
X6657146Y-17405924D01*
X6657146Y-17405924D02*
X6676194Y-17415448D01*
X6676194Y-17415448D02*
X6685717Y-17424972D01*
X6685717Y-17424972D02*
X6695241Y-17444020D01*
X6695241Y-17444020D02*
X6695241Y-17491639D01*
X6695241Y-17491639D02*
X6685717Y-17510686D01*
X6685717Y-17510686D02*
X6676194Y-17520210D01*
X6676194Y-17520210D02*
X6657146Y-17529734D01*
X6657146Y-17529734D02*
X6600003Y-17529734D01*
X6600003Y-17529734D02*
X6580956Y-17520210D01*
X6580956Y-17520210D02*
X6571432Y-17510686D01*
X6885717Y-17529734D02*
X6771432Y-17529734D01*
X6828575Y-17529734D02*
X6828575Y-17329734D01*
X6828575Y-17329734D02*
X6809527Y-17358305D01*
X6809527Y-17358305D02*
X6790479Y-17377353D01*
X6790479Y-17377353D02*
X6771432Y-17386877D01*
X7066670Y-17329734D02*
X6971432Y-17329734D01*
X6971432Y-17329734D02*
X6961908Y-17424972D01*
X6961908Y-17424972D02*
X6971432Y-17415448D01*
X6971432Y-17415448D02*
X6990479Y-17405924D01*
X6990479Y-17405924D02*
X7038098Y-17405924D01*
X7038098Y-17405924D02*
X7057146Y-17415448D01*
X7057146Y-17415448D02*
X7066670Y-17424972D01*
X7066670Y-17424972D02*
X7076194Y-17444020D01*
X7076194Y-17444020D02*
X7076194Y-17491639D01*
X7076194Y-17491639D02*
X7066670Y-17510686D01*
X7066670Y-17510686D02*
X7057146Y-17520210D01*
X7057146Y-17520210D02*
X7038098Y-17529734D01*
X7038098Y-17529734D02*
X6990479Y-17529734D01*
X6990479Y-17529734D02*
X6971432Y-17520210D01*
X6971432Y-17520210D02*
X6961908Y-17510686D01*
X7152384Y-17329734D02*
X7152384Y-17367829D01*
X7228575Y-17329734D02*
X7228575Y-17367829D01*
X7523813Y-17605924D02*
X7514289Y-17596400D01*
X7514289Y-17596400D02*
X7495241Y-17567829D01*
X7495241Y-17567829D02*
X7485718Y-17548781D01*
X7485718Y-17548781D02*
X7476194Y-17520210D01*
X7476194Y-17520210D02*
X7466670Y-17472591D01*
X7466670Y-17472591D02*
X7466670Y-17434496D01*
X7466670Y-17434496D02*
X7476194Y-17386877D01*
X7476194Y-17386877D02*
X7485718Y-17358305D01*
X7485718Y-17358305D02*
X7495241Y-17339258D01*
X7495241Y-17339258D02*
X7514289Y-17310686D01*
X7514289Y-17310686D02*
X7523813Y-17301162D01*
X7580956Y-17329734D02*
X7704765Y-17329734D01*
X7704765Y-17329734D02*
X7638098Y-17405924D01*
X7638098Y-17405924D02*
X7666670Y-17405924D01*
X7666670Y-17405924D02*
X7685718Y-17415448D01*
X7685718Y-17415448D02*
X7695241Y-17424972D01*
X7695241Y-17424972D02*
X7704765Y-17444020D01*
X7704765Y-17444020D02*
X7704765Y-17491639D01*
X7704765Y-17491639D02*
X7695241Y-17510686D01*
X7695241Y-17510686D02*
X7685718Y-17520210D01*
X7685718Y-17520210D02*
X7666670Y-17529734D01*
X7666670Y-17529734D02*
X7609527Y-17529734D01*
X7609527Y-17529734D02*
X7590479Y-17520210D01*
X7590479Y-17520210D02*
X7580956Y-17510686D01*
X7876194Y-17396400D02*
X7876194Y-17529734D01*
X7828575Y-17320210D02*
X7780956Y-17463067D01*
X7780956Y-17463067D02*
X7904765Y-17463067D01*
X8133337Y-17529734D02*
X8133337Y-17329734D01*
X8219051Y-17529734D02*
X8219051Y-17424972D01*
X8219051Y-17424972D02*
X8209527Y-17405924D01*
X8209527Y-17405924D02*
X8190480Y-17396400D01*
X8190480Y-17396400D02*
X8161908Y-17396400D01*
X8161908Y-17396400D02*
X8142860Y-17405924D01*
X8142860Y-17405924D02*
X8133337Y-17415448D01*
X8342860Y-17529734D02*
X8323813Y-17520210D01*
X8323813Y-17520210D02*
X8314289Y-17510686D01*
X8314289Y-17510686D02*
X8304765Y-17491639D01*
X8304765Y-17491639D02*
X8304765Y-17434496D01*
X8304765Y-17434496D02*
X8314289Y-17415448D01*
X8314289Y-17415448D02*
X8323813Y-17405924D01*
X8323813Y-17405924D02*
X8342860Y-17396400D01*
X8342860Y-17396400D02*
X8371432Y-17396400D01*
X8371432Y-17396400D02*
X8390480Y-17405924D01*
X8390480Y-17405924D02*
X8400003Y-17415448D01*
X8400003Y-17415448D02*
X8409527Y-17434496D01*
X8409527Y-17434496D02*
X8409527Y-17491639D01*
X8409527Y-17491639D02*
X8400003Y-17510686D01*
X8400003Y-17510686D02*
X8390480Y-17520210D01*
X8390480Y-17520210D02*
X8371432Y-17529734D01*
X8371432Y-17529734D02*
X8342860Y-17529734D01*
X8523813Y-17529734D02*
X8504765Y-17520210D01*
X8504765Y-17520210D02*
X8495242Y-17501162D01*
X8495242Y-17501162D02*
X8495242Y-17329734D01*
X8676194Y-17520210D02*
X8657146Y-17529734D01*
X8657146Y-17529734D02*
X8619051Y-17529734D01*
X8619051Y-17529734D02*
X8600003Y-17520210D01*
X8600003Y-17520210D02*
X8590480Y-17501162D01*
X8590480Y-17501162D02*
X8590480Y-17424972D01*
X8590480Y-17424972D02*
X8600003Y-17405924D01*
X8600003Y-17405924D02*
X8619051Y-17396400D01*
X8619051Y-17396400D02*
X8657146Y-17396400D01*
X8657146Y-17396400D02*
X8676194Y-17405924D01*
X8676194Y-17405924D02*
X8685718Y-17424972D01*
X8685718Y-17424972D02*
X8685718Y-17444020D01*
X8685718Y-17444020D02*
X8590480Y-17463067D01*
X8761908Y-17520210D02*
X8780956Y-17529734D01*
X8780956Y-17529734D02*
X8819051Y-17529734D01*
X8819051Y-17529734D02*
X8838099Y-17520210D01*
X8838099Y-17520210D02*
X8847623Y-17501162D01*
X8847623Y-17501162D02*
X8847623Y-17491639D01*
X8847623Y-17491639D02*
X8838099Y-17472591D01*
X8838099Y-17472591D02*
X8819051Y-17463067D01*
X8819051Y-17463067D02*
X8790480Y-17463067D01*
X8790480Y-17463067D02*
X8771432Y-17453543D01*
X8771432Y-17453543D02*
X8761908Y-17434496D01*
X8761908Y-17434496D02*
X8761908Y-17424972D01*
X8761908Y-17424972D02*
X8771432Y-17405924D01*
X8771432Y-17405924D02*
X8790480Y-17396400D01*
X8790480Y-17396400D02*
X8819051Y-17396400D01*
X8819051Y-17396400D02*
X8838099Y-17405924D01*
X9085718Y-17453543D02*
X9238099Y-17453543D01*
X9161908Y-17529734D02*
X9161908Y-17377353D01*
X9476194Y-17348781D02*
X9485718Y-17339258D01*
X9485718Y-17339258D02*
X9504765Y-17329734D01*
X9504765Y-17329734D02*
X9552385Y-17329734D01*
X9552385Y-17329734D02*
X9571432Y-17339258D01*
X9571432Y-17339258D02*
X9580956Y-17348781D01*
X9580956Y-17348781D02*
X9590480Y-17367829D01*
X9590480Y-17367829D02*
X9590480Y-17386877D01*
X9590480Y-17386877D02*
X9580956Y-17415448D01*
X9580956Y-17415448D02*
X9466670Y-17529734D01*
X9466670Y-17529734D02*
X9590480Y-17529734D01*
X9819051Y-17520210D02*
X9838099Y-17529734D01*
X9838099Y-17529734D02*
X9876194Y-17529734D01*
X9876194Y-17529734D02*
X9895242Y-17520210D01*
X9895242Y-17520210D02*
X9904766Y-17501162D01*
X9904766Y-17501162D02*
X9904766Y-17491639D01*
X9904766Y-17491639D02*
X9895242Y-17472591D01*
X9895242Y-17472591D02*
X9876194Y-17463067D01*
X9876194Y-17463067D02*
X9847623Y-17463067D01*
X9847623Y-17463067D02*
X9828575Y-17453543D01*
X9828575Y-17453543D02*
X9819051Y-17434496D01*
X9819051Y-17434496D02*
X9819051Y-17424972D01*
X9819051Y-17424972D02*
X9828575Y-17405924D01*
X9828575Y-17405924D02*
X9847623Y-17396400D01*
X9847623Y-17396400D02*
X9876194Y-17396400D01*
X9876194Y-17396400D02*
X9895242Y-17405924D01*
X10019051Y-17529734D02*
X10000004Y-17520210D01*
X10000004Y-17520210D02*
X9990480Y-17501162D01*
X9990480Y-17501162D02*
X9990480Y-17329734D01*
X10123813Y-17529734D02*
X10104766Y-17520210D01*
X10104766Y-17520210D02*
X10095242Y-17510686D01*
X10095242Y-17510686D02*
X10085718Y-17491639D01*
X10085718Y-17491639D02*
X10085718Y-17434496D01*
X10085718Y-17434496D02*
X10095242Y-17415448D01*
X10095242Y-17415448D02*
X10104766Y-17405924D01*
X10104766Y-17405924D02*
X10123813Y-17396400D01*
X10123813Y-17396400D02*
X10152385Y-17396400D01*
X10152385Y-17396400D02*
X10171432Y-17405924D01*
X10171432Y-17405924D02*
X10180956Y-17415448D01*
X10180956Y-17415448D02*
X10190480Y-17434496D01*
X10190480Y-17434496D02*
X10190480Y-17491639D01*
X10190480Y-17491639D02*
X10180956Y-17510686D01*
X10180956Y-17510686D02*
X10171432Y-17520210D01*
X10171432Y-17520210D02*
X10152385Y-17529734D01*
X10152385Y-17529734D02*
X10123813Y-17529734D01*
X10247623Y-17396400D02*
X10323813Y-17396400D01*
X10276194Y-17329734D02*
X10276194Y-17501162D01*
X10276194Y-17501162D02*
X10285718Y-17520210D01*
X10285718Y-17520210D02*
X10304766Y-17529734D01*
X10304766Y-17529734D02*
X10323813Y-17529734D01*
X10380956Y-17520210D02*
X10400004Y-17529734D01*
X10400004Y-17529734D02*
X10438099Y-17529734D01*
X10438099Y-17529734D02*
X10457147Y-17520210D01*
X10457147Y-17520210D02*
X10466670Y-17501162D01*
X10466670Y-17501162D02*
X10466670Y-17491639D01*
X10466670Y-17491639D02*
X10457147Y-17472591D01*
X10457147Y-17472591D02*
X10438099Y-17463067D01*
X10438099Y-17463067D02*
X10409527Y-17463067D01*
X10409527Y-17463067D02*
X10390480Y-17453543D01*
X10390480Y-17453543D02*
X10380956Y-17434496D01*
X10380956Y-17434496D02*
X10380956Y-17424972D01*
X10380956Y-17424972D02*
X10390480Y-17405924D01*
X10390480Y-17405924D02*
X10409527Y-17396400D01*
X10409527Y-17396400D02*
X10438099Y-17396400D01*
X10438099Y-17396400D02*
X10457147Y-17405924D01*
X10533337Y-17605924D02*
X10542861Y-17596400D01*
X10542861Y-17596400D02*
X10561908Y-17567829D01*
X10561908Y-17567829D02*
X10571432Y-17548781D01*
X10571432Y-17548781D02*
X10580956Y-17520210D01*
X10580956Y-17520210D02*
X10590480Y-17472591D01*
X10590480Y-17472591D02*
X10590480Y-17434496D01*
X10590480Y-17434496D02*
X10580956Y-17386877D01*
X10580956Y-17386877D02*
X10571432Y-17358305D01*
X10571432Y-17358305D02*
X10561908Y-17339258D01*
X10561908Y-17339258D02*
X10542861Y-17310686D01*
X10542861Y-17310686D02*
X10533337Y-17301162D01*
D13*
X3898750Y-17752250D02*
X3948750Y-17702250D01*
X3898750Y-17652250D01*
X3848750Y-17702250D01*
X3898750Y-17752250D01*
D12*
X4314289Y-17793734D02*
X4200003Y-17793734D01*
X4257146Y-17793734D02*
X4257146Y-17593734D01*
X4257146Y-17593734D02*
X4238098Y-17622305D01*
X4238098Y-17622305D02*
X4219051Y-17641353D01*
X4219051Y-17641353D02*
X4200003Y-17650877D01*
X4400003Y-17774686D02*
X4409527Y-17784210D01*
X4409527Y-17784210D02*
X4400003Y-17793734D01*
X4400003Y-17793734D02*
X4390479Y-17784210D01*
X4390479Y-17784210D02*
X4400003Y-17774686D01*
X4400003Y-17774686D02*
X4400003Y-17793734D01*
X4533336Y-17593734D02*
X4552384Y-17593734D01*
X4552384Y-17593734D02*
X4571432Y-17603258D01*
X4571432Y-17603258D02*
X4580955Y-17612781D01*
X4580955Y-17612781D02*
X4590479Y-17631829D01*
X4590479Y-17631829D02*
X4600003Y-17669924D01*
X4600003Y-17669924D02*
X4600003Y-17717543D01*
X4600003Y-17717543D02*
X4590479Y-17755639D01*
X4590479Y-17755639D02*
X4580955Y-17774686D01*
X4580955Y-17774686D02*
X4571432Y-17784210D01*
X4571432Y-17784210D02*
X4552384Y-17793734D01*
X4552384Y-17793734D02*
X4533336Y-17793734D01*
X4533336Y-17793734D02*
X4514289Y-17784210D01*
X4514289Y-17784210D02*
X4504765Y-17774686D01*
X4504765Y-17774686D02*
X4495241Y-17755639D01*
X4495241Y-17755639D02*
X4485717Y-17717543D01*
X4485717Y-17717543D02*
X4485717Y-17669924D01*
X4485717Y-17669924D02*
X4495241Y-17631829D01*
X4495241Y-17631829D02*
X4504765Y-17612781D01*
X4504765Y-17612781D02*
X4514289Y-17603258D01*
X4514289Y-17603258D02*
X4533336Y-17593734D01*
X4723813Y-17593734D02*
X4742860Y-17593734D01*
X4742860Y-17593734D02*
X4761908Y-17603258D01*
X4761908Y-17603258D02*
X4771432Y-17612781D01*
X4771432Y-17612781D02*
X4780955Y-17631829D01*
X4780955Y-17631829D02*
X4790479Y-17669924D01*
X4790479Y-17669924D02*
X4790479Y-17717543D01*
X4790479Y-17717543D02*
X4780955Y-17755639D01*
X4780955Y-17755639D02*
X4771432Y-17774686D01*
X4771432Y-17774686D02*
X4761908Y-17784210D01*
X4761908Y-17784210D02*
X4742860Y-17793734D01*
X4742860Y-17793734D02*
X4723813Y-17793734D01*
X4723813Y-17793734D02*
X4704765Y-17784210D01*
X4704765Y-17784210D02*
X4695241Y-17774686D01*
X4695241Y-17774686D02*
X4685717Y-17755639D01*
X4685717Y-17755639D02*
X4676194Y-17717543D01*
X4676194Y-17717543D02*
X4676194Y-17669924D01*
X4676194Y-17669924D02*
X4685717Y-17631829D01*
X4685717Y-17631829D02*
X4695241Y-17612781D01*
X4695241Y-17612781D02*
X4704765Y-17603258D01*
X4704765Y-17603258D02*
X4723813Y-17593734D01*
X4914289Y-17593734D02*
X4933336Y-17593734D01*
X4933336Y-17593734D02*
X4952384Y-17603258D01*
X4952384Y-17603258D02*
X4961908Y-17612781D01*
X4961908Y-17612781D02*
X4971432Y-17631829D01*
X4971432Y-17631829D02*
X4980955Y-17669924D01*
X4980955Y-17669924D02*
X4980955Y-17717543D01*
X4980955Y-17717543D02*
X4971432Y-17755639D01*
X4971432Y-17755639D02*
X4961908Y-17774686D01*
X4961908Y-17774686D02*
X4952384Y-17784210D01*
X4952384Y-17784210D02*
X4933336Y-17793734D01*
X4933336Y-17793734D02*
X4914289Y-17793734D01*
X4914289Y-17793734D02*
X4895241Y-17784210D01*
X4895241Y-17784210D02*
X4885717Y-17774686D01*
X4885717Y-17774686D02*
X4876194Y-17755639D01*
X4876194Y-17755639D02*
X4866670Y-17717543D01*
X4866670Y-17717543D02*
X4866670Y-17669924D01*
X4866670Y-17669924D02*
X4876194Y-17631829D01*
X4876194Y-17631829D02*
X4885717Y-17612781D01*
X4885717Y-17612781D02*
X4895241Y-17603258D01*
X4895241Y-17603258D02*
X4914289Y-17593734D01*
X5066670Y-17793734D02*
X5066670Y-17660400D01*
X5066670Y-17679448D02*
X5076194Y-17669924D01*
X5076194Y-17669924D02*
X5095241Y-17660400D01*
X5095241Y-17660400D02*
X5123813Y-17660400D01*
X5123813Y-17660400D02*
X5142860Y-17669924D01*
X5142860Y-17669924D02*
X5152384Y-17688972D01*
X5152384Y-17688972D02*
X5152384Y-17793734D01*
X5152384Y-17688972D02*
X5161908Y-17669924D01*
X5161908Y-17669924D02*
X5180955Y-17660400D01*
X5180955Y-17660400D02*
X5209527Y-17660400D01*
X5209527Y-17660400D02*
X5228575Y-17669924D01*
X5228575Y-17669924D02*
X5238098Y-17688972D01*
X5238098Y-17688972D02*
X5238098Y-17793734D01*
X5333336Y-17793734D02*
X5333336Y-17660400D01*
X5333336Y-17679448D02*
X5342860Y-17669924D01*
X5342860Y-17669924D02*
X5361908Y-17660400D01*
X5361908Y-17660400D02*
X5390479Y-17660400D01*
X5390479Y-17660400D02*
X5409527Y-17669924D01*
X5409527Y-17669924D02*
X5419051Y-17688972D01*
X5419051Y-17688972D02*
X5419051Y-17793734D01*
X5419051Y-17688972D02*
X5428575Y-17669924D01*
X5428575Y-17669924D02*
X5447622Y-17660400D01*
X5447622Y-17660400D02*
X5476194Y-17660400D01*
X5476194Y-17660400D02*
X5495241Y-17669924D01*
X5495241Y-17669924D02*
X5504765Y-17688972D01*
X5504765Y-17688972D02*
X5504765Y-17793734D01*
X5895241Y-17584210D02*
X5723813Y-17841353D01*
X6152384Y-17593734D02*
X6171432Y-17593734D01*
X6171432Y-17593734D02*
X6190479Y-17603258D01*
X6190479Y-17603258D02*
X6200003Y-17612781D01*
X6200003Y-17612781D02*
X6209527Y-17631829D01*
X6209527Y-17631829D02*
X6219051Y-17669924D01*
X6219051Y-17669924D02*
X6219051Y-17717543D01*
X6219051Y-17717543D02*
X6209527Y-17755639D01*
X6209527Y-17755639D02*
X6200003Y-17774686D01*
X6200003Y-17774686D02*
X6190479Y-17784210D01*
X6190479Y-17784210D02*
X6171432Y-17793734D01*
X6171432Y-17793734D02*
X6152384Y-17793734D01*
X6152384Y-17793734D02*
X6133336Y-17784210D01*
X6133336Y-17784210D02*
X6123813Y-17774686D01*
X6123813Y-17774686D02*
X6114289Y-17755639D01*
X6114289Y-17755639D02*
X6104765Y-17717543D01*
X6104765Y-17717543D02*
X6104765Y-17669924D01*
X6104765Y-17669924D02*
X6114289Y-17631829D01*
X6114289Y-17631829D02*
X6123813Y-17612781D01*
X6123813Y-17612781D02*
X6133336Y-17603258D01*
X6133336Y-17603258D02*
X6152384Y-17593734D01*
X6304765Y-17774686D02*
X6314289Y-17784210D01*
X6314289Y-17784210D02*
X6304765Y-17793734D01*
X6304765Y-17793734D02*
X6295241Y-17784210D01*
X6295241Y-17784210D02*
X6304765Y-17774686D01*
X6304765Y-17774686D02*
X6304765Y-17793734D01*
X6438098Y-17593734D02*
X6457146Y-17593734D01*
X6457146Y-17593734D02*
X6476194Y-17603258D01*
X6476194Y-17603258D02*
X6485717Y-17612781D01*
X6485717Y-17612781D02*
X6495241Y-17631829D01*
X6495241Y-17631829D02*
X6504765Y-17669924D01*
X6504765Y-17669924D02*
X6504765Y-17717543D01*
X6504765Y-17717543D02*
X6495241Y-17755639D01*
X6495241Y-17755639D02*
X6485717Y-17774686D01*
X6485717Y-17774686D02*
X6476194Y-17784210D01*
X6476194Y-17784210D02*
X6457146Y-17793734D01*
X6457146Y-17793734D02*
X6438098Y-17793734D01*
X6438098Y-17793734D02*
X6419051Y-17784210D01*
X6419051Y-17784210D02*
X6409527Y-17774686D01*
X6409527Y-17774686D02*
X6400003Y-17755639D01*
X6400003Y-17755639D02*
X6390479Y-17717543D01*
X6390479Y-17717543D02*
X6390479Y-17669924D01*
X6390479Y-17669924D02*
X6400003Y-17631829D01*
X6400003Y-17631829D02*
X6409527Y-17612781D01*
X6409527Y-17612781D02*
X6419051Y-17603258D01*
X6419051Y-17603258D02*
X6438098Y-17593734D01*
X6571432Y-17593734D02*
X6695241Y-17593734D01*
X6695241Y-17593734D02*
X6628575Y-17669924D01*
X6628575Y-17669924D02*
X6657146Y-17669924D01*
X6657146Y-17669924D02*
X6676194Y-17679448D01*
X6676194Y-17679448D02*
X6685717Y-17688972D01*
X6685717Y-17688972D02*
X6695241Y-17708020D01*
X6695241Y-17708020D02*
X6695241Y-17755639D01*
X6695241Y-17755639D02*
X6685717Y-17774686D01*
X6685717Y-17774686D02*
X6676194Y-17784210D01*
X6676194Y-17784210D02*
X6657146Y-17793734D01*
X6657146Y-17793734D02*
X6600003Y-17793734D01*
X6600003Y-17793734D02*
X6580956Y-17784210D01*
X6580956Y-17784210D02*
X6571432Y-17774686D01*
X6790479Y-17793734D02*
X6828575Y-17793734D01*
X6828575Y-17793734D02*
X6847622Y-17784210D01*
X6847622Y-17784210D02*
X6857146Y-17774686D01*
X6857146Y-17774686D02*
X6876194Y-17746115D01*
X6876194Y-17746115D02*
X6885717Y-17708020D01*
X6885717Y-17708020D02*
X6885717Y-17631829D01*
X6885717Y-17631829D02*
X6876194Y-17612781D01*
X6876194Y-17612781D02*
X6866670Y-17603258D01*
X6866670Y-17603258D02*
X6847622Y-17593734D01*
X6847622Y-17593734D02*
X6809527Y-17593734D01*
X6809527Y-17593734D02*
X6790479Y-17603258D01*
X6790479Y-17603258D02*
X6780956Y-17612781D01*
X6780956Y-17612781D02*
X6771432Y-17631829D01*
X6771432Y-17631829D02*
X6771432Y-17679448D01*
X6771432Y-17679448D02*
X6780956Y-17698496D01*
X6780956Y-17698496D02*
X6790479Y-17708020D01*
X6790479Y-17708020D02*
X6809527Y-17717543D01*
X6809527Y-17717543D02*
X6847622Y-17717543D01*
X6847622Y-17717543D02*
X6866670Y-17708020D01*
X6866670Y-17708020D02*
X6876194Y-17698496D01*
X6876194Y-17698496D02*
X6885717Y-17679448D01*
X7057146Y-17660400D02*
X7057146Y-17793734D01*
X7009527Y-17584210D02*
X6961908Y-17727067D01*
X6961908Y-17727067D02*
X7085717Y-17727067D01*
X7152384Y-17593734D02*
X7152384Y-17631829D01*
X7228575Y-17593734D02*
X7228575Y-17631829D01*
X7523813Y-17869924D02*
X7514289Y-17860400D01*
X7514289Y-17860400D02*
X7495241Y-17831829D01*
X7495241Y-17831829D02*
X7485718Y-17812781D01*
X7485718Y-17812781D02*
X7476194Y-17784210D01*
X7476194Y-17784210D02*
X7466670Y-17736591D01*
X7466670Y-17736591D02*
X7466670Y-17698496D01*
X7466670Y-17698496D02*
X7476194Y-17650877D01*
X7476194Y-17650877D02*
X7485718Y-17622305D01*
X7485718Y-17622305D02*
X7495241Y-17603258D01*
X7495241Y-17603258D02*
X7514289Y-17574686D01*
X7514289Y-17574686D02*
X7523813Y-17565162D01*
X7685718Y-17593734D02*
X7647622Y-17593734D01*
X7647622Y-17593734D02*
X7628575Y-17603258D01*
X7628575Y-17603258D02*
X7619051Y-17612781D01*
X7619051Y-17612781D02*
X7600003Y-17641353D01*
X7600003Y-17641353D02*
X7590479Y-17679448D01*
X7590479Y-17679448D02*
X7590479Y-17755639D01*
X7590479Y-17755639D02*
X7600003Y-17774686D01*
X7600003Y-17774686D02*
X7609527Y-17784210D01*
X7609527Y-17784210D02*
X7628575Y-17793734D01*
X7628575Y-17793734D02*
X7666670Y-17793734D01*
X7666670Y-17793734D02*
X7685718Y-17784210D01*
X7685718Y-17784210D02*
X7695241Y-17774686D01*
X7695241Y-17774686D02*
X7704765Y-17755639D01*
X7704765Y-17755639D02*
X7704765Y-17708020D01*
X7704765Y-17708020D02*
X7695241Y-17688972D01*
X7695241Y-17688972D02*
X7685718Y-17679448D01*
X7685718Y-17679448D02*
X7666670Y-17669924D01*
X7666670Y-17669924D02*
X7628575Y-17669924D01*
X7628575Y-17669924D02*
X7609527Y-17679448D01*
X7609527Y-17679448D02*
X7600003Y-17688972D01*
X7600003Y-17688972D02*
X7590479Y-17708020D01*
X7885718Y-17593734D02*
X7790479Y-17593734D01*
X7790479Y-17593734D02*
X7780956Y-17688972D01*
X7780956Y-17688972D02*
X7790479Y-17679448D01*
X7790479Y-17679448D02*
X7809527Y-17669924D01*
X7809527Y-17669924D02*
X7857146Y-17669924D01*
X7857146Y-17669924D02*
X7876194Y-17679448D01*
X7876194Y-17679448D02*
X7885718Y-17688972D01*
X7885718Y-17688972D02*
X7895241Y-17708020D01*
X7895241Y-17708020D02*
X7895241Y-17755639D01*
X7895241Y-17755639D02*
X7885718Y-17774686D01*
X7885718Y-17774686D02*
X7876194Y-17784210D01*
X7876194Y-17784210D02*
X7857146Y-17793734D01*
X7857146Y-17793734D02*
X7809527Y-17793734D01*
X7809527Y-17793734D02*
X7790479Y-17784210D01*
X7790479Y-17784210D02*
X7780956Y-17774686D01*
X8133337Y-17793734D02*
X8133337Y-17593734D01*
X8219051Y-17793734D02*
X8219051Y-17688972D01*
X8219051Y-17688972D02*
X8209527Y-17669924D01*
X8209527Y-17669924D02*
X8190480Y-17660400D01*
X8190480Y-17660400D02*
X8161908Y-17660400D01*
X8161908Y-17660400D02*
X8142860Y-17669924D01*
X8142860Y-17669924D02*
X8133337Y-17679448D01*
X8342860Y-17793734D02*
X8323813Y-17784210D01*
X8323813Y-17784210D02*
X8314289Y-17774686D01*
X8314289Y-17774686D02*
X8304765Y-17755639D01*
X8304765Y-17755639D02*
X8304765Y-17698496D01*
X8304765Y-17698496D02*
X8314289Y-17679448D01*
X8314289Y-17679448D02*
X8323813Y-17669924D01*
X8323813Y-17669924D02*
X8342860Y-17660400D01*
X8342860Y-17660400D02*
X8371432Y-17660400D01*
X8371432Y-17660400D02*
X8390480Y-17669924D01*
X8390480Y-17669924D02*
X8400003Y-17679448D01*
X8400003Y-17679448D02*
X8409527Y-17698496D01*
X8409527Y-17698496D02*
X8409527Y-17755639D01*
X8409527Y-17755639D02*
X8400003Y-17774686D01*
X8400003Y-17774686D02*
X8390480Y-17784210D01*
X8390480Y-17784210D02*
X8371432Y-17793734D01*
X8371432Y-17793734D02*
X8342860Y-17793734D01*
X8523813Y-17793734D02*
X8504765Y-17784210D01*
X8504765Y-17784210D02*
X8495242Y-17765162D01*
X8495242Y-17765162D02*
X8495242Y-17593734D01*
X8676194Y-17784210D02*
X8657146Y-17793734D01*
X8657146Y-17793734D02*
X8619051Y-17793734D01*
X8619051Y-17793734D02*
X8600003Y-17784210D01*
X8600003Y-17784210D02*
X8590480Y-17765162D01*
X8590480Y-17765162D02*
X8590480Y-17688972D01*
X8590480Y-17688972D02*
X8600003Y-17669924D01*
X8600003Y-17669924D02*
X8619051Y-17660400D01*
X8619051Y-17660400D02*
X8657146Y-17660400D01*
X8657146Y-17660400D02*
X8676194Y-17669924D01*
X8676194Y-17669924D02*
X8685718Y-17688972D01*
X8685718Y-17688972D02*
X8685718Y-17708020D01*
X8685718Y-17708020D02*
X8590480Y-17727067D01*
X8761908Y-17784210D02*
X8780956Y-17793734D01*
X8780956Y-17793734D02*
X8819051Y-17793734D01*
X8819051Y-17793734D02*
X8838099Y-17784210D01*
X8838099Y-17784210D02*
X8847623Y-17765162D01*
X8847623Y-17765162D02*
X8847623Y-17755639D01*
X8847623Y-17755639D02*
X8838099Y-17736591D01*
X8838099Y-17736591D02*
X8819051Y-17727067D01*
X8819051Y-17727067D02*
X8790480Y-17727067D01*
X8790480Y-17727067D02*
X8771432Y-17717543D01*
X8771432Y-17717543D02*
X8761908Y-17698496D01*
X8761908Y-17698496D02*
X8761908Y-17688972D01*
X8761908Y-17688972D02*
X8771432Y-17669924D01*
X8771432Y-17669924D02*
X8790480Y-17660400D01*
X8790480Y-17660400D02*
X8819051Y-17660400D01*
X8819051Y-17660400D02*
X8838099Y-17669924D01*
X8914289Y-17869924D02*
X8923813Y-17860400D01*
X8923813Y-17860400D02*
X8942861Y-17831829D01*
X8942861Y-17831829D02*
X8952384Y-17812781D01*
X8952384Y-17812781D02*
X8961908Y-17784210D01*
X8961908Y-17784210D02*
X8971432Y-17736591D01*
X8971432Y-17736591D02*
X8971432Y-17698496D01*
X8971432Y-17698496D02*
X8961908Y-17650877D01*
X8961908Y-17650877D02*
X8952384Y-17622305D01*
X8952384Y-17622305D02*
X8942861Y-17603258D01*
X8942861Y-17603258D02*
X8923813Y-17574686D01*
X8923813Y-17574686D02*
X8914289Y-17565162D01*
D14*
X3838750Y-17911250D02*
X3948750Y-18021250D01*
X3948750Y-17911250D02*
X3838750Y-18021250D01*
X3948750Y-17966250D02*
G75*
G02*
X3838750Y-17966250I-55000J0D01*
G01*
X3838750Y-17966250D02*
G75*
G02*
X3948750Y-17966250I55000J0D01*
G01*
D12*
X4314289Y-18057734D02*
X4200003Y-18057734D01*
X4257146Y-18057734D02*
X4257146Y-17857734D01*
X4257146Y-17857734D02*
X4238098Y-17886305D01*
X4238098Y-17886305D02*
X4219051Y-17905353D01*
X4219051Y-17905353D02*
X4200003Y-17914877D01*
X4400003Y-18038686D02*
X4409527Y-18048210D01*
X4409527Y-18048210D02*
X4400003Y-18057734D01*
X4400003Y-18057734D02*
X4390479Y-18048210D01*
X4390479Y-18048210D02*
X4400003Y-18038686D01*
X4400003Y-18038686D02*
X4400003Y-18057734D01*
X4600003Y-18057734D02*
X4485717Y-18057734D01*
X4542860Y-18057734D02*
X4542860Y-17857734D01*
X4542860Y-17857734D02*
X4523813Y-17886305D01*
X4523813Y-17886305D02*
X4504765Y-17905353D01*
X4504765Y-17905353D02*
X4485717Y-17914877D01*
X4723813Y-17857734D02*
X4742860Y-17857734D01*
X4742860Y-17857734D02*
X4761908Y-17867258D01*
X4761908Y-17867258D02*
X4771432Y-17876781D01*
X4771432Y-17876781D02*
X4780955Y-17895829D01*
X4780955Y-17895829D02*
X4790479Y-17933924D01*
X4790479Y-17933924D02*
X4790479Y-17981543D01*
X4790479Y-17981543D02*
X4780955Y-18019639D01*
X4780955Y-18019639D02*
X4771432Y-18038686D01*
X4771432Y-18038686D02*
X4761908Y-18048210D01*
X4761908Y-18048210D02*
X4742860Y-18057734D01*
X4742860Y-18057734D02*
X4723813Y-18057734D01*
X4723813Y-18057734D02*
X4704765Y-18048210D01*
X4704765Y-18048210D02*
X4695241Y-18038686D01*
X4695241Y-18038686D02*
X4685717Y-18019639D01*
X4685717Y-18019639D02*
X4676194Y-17981543D01*
X4676194Y-17981543D02*
X4676194Y-17933924D01*
X4676194Y-17933924D02*
X4685717Y-17895829D01*
X4685717Y-17895829D02*
X4695241Y-17876781D01*
X4695241Y-17876781D02*
X4704765Y-17867258D01*
X4704765Y-17867258D02*
X4723813Y-17857734D01*
X4914289Y-17857734D02*
X4933336Y-17857734D01*
X4933336Y-17857734D02*
X4952384Y-17867258D01*
X4952384Y-17867258D02*
X4961908Y-17876781D01*
X4961908Y-17876781D02*
X4971432Y-17895829D01*
X4971432Y-17895829D02*
X4980955Y-17933924D01*
X4980955Y-17933924D02*
X4980955Y-17981543D01*
X4980955Y-17981543D02*
X4971432Y-18019639D01*
X4971432Y-18019639D02*
X4961908Y-18038686D01*
X4961908Y-18038686D02*
X4952384Y-18048210D01*
X4952384Y-18048210D02*
X4933336Y-18057734D01*
X4933336Y-18057734D02*
X4914289Y-18057734D01*
X4914289Y-18057734D02*
X4895241Y-18048210D01*
X4895241Y-18048210D02*
X4885717Y-18038686D01*
X4885717Y-18038686D02*
X4876194Y-18019639D01*
X4876194Y-18019639D02*
X4866670Y-17981543D01*
X4866670Y-17981543D02*
X4866670Y-17933924D01*
X4866670Y-17933924D02*
X4876194Y-17895829D01*
X4876194Y-17895829D02*
X4885717Y-17876781D01*
X4885717Y-17876781D02*
X4895241Y-17867258D01*
X4895241Y-17867258D02*
X4914289Y-17857734D01*
X5066670Y-18057734D02*
X5066670Y-17924400D01*
X5066670Y-17943448D02*
X5076194Y-17933924D01*
X5076194Y-17933924D02*
X5095241Y-17924400D01*
X5095241Y-17924400D02*
X5123813Y-17924400D01*
X5123813Y-17924400D02*
X5142860Y-17933924D01*
X5142860Y-17933924D02*
X5152384Y-17952972D01*
X5152384Y-17952972D02*
X5152384Y-18057734D01*
X5152384Y-17952972D02*
X5161908Y-17933924D01*
X5161908Y-17933924D02*
X5180955Y-17924400D01*
X5180955Y-17924400D02*
X5209527Y-17924400D01*
X5209527Y-17924400D02*
X5228575Y-17933924D01*
X5228575Y-17933924D02*
X5238098Y-17952972D01*
X5238098Y-17952972D02*
X5238098Y-18057734D01*
X5333336Y-18057734D02*
X5333336Y-17924400D01*
X5333336Y-17943448D02*
X5342860Y-17933924D01*
X5342860Y-17933924D02*
X5361908Y-17924400D01*
X5361908Y-17924400D02*
X5390479Y-17924400D01*
X5390479Y-17924400D02*
X5409527Y-17933924D01*
X5409527Y-17933924D02*
X5419051Y-17952972D01*
X5419051Y-17952972D02*
X5419051Y-18057734D01*
X5419051Y-17952972D02*
X5428575Y-17933924D01*
X5428575Y-17933924D02*
X5447622Y-17924400D01*
X5447622Y-17924400D02*
X5476194Y-17924400D01*
X5476194Y-17924400D02*
X5495241Y-17933924D01*
X5495241Y-17933924D02*
X5504765Y-17952972D01*
X5504765Y-17952972D02*
X5504765Y-18057734D01*
X5895241Y-17848210D02*
X5723813Y-18105353D01*
X6152384Y-17857734D02*
X6171432Y-17857734D01*
X6171432Y-17857734D02*
X6190479Y-17867258D01*
X6190479Y-17867258D02*
X6200003Y-17876781D01*
X6200003Y-17876781D02*
X6209527Y-17895829D01*
X6209527Y-17895829D02*
X6219051Y-17933924D01*
X6219051Y-17933924D02*
X6219051Y-17981543D01*
X6219051Y-17981543D02*
X6209527Y-18019639D01*
X6209527Y-18019639D02*
X6200003Y-18038686D01*
X6200003Y-18038686D02*
X6190479Y-18048210D01*
X6190479Y-18048210D02*
X6171432Y-18057734D01*
X6171432Y-18057734D02*
X6152384Y-18057734D01*
X6152384Y-18057734D02*
X6133336Y-18048210D01*
X6133336Y-18048210D02*
X6123813Y-18038686D01*
X6123813Y-18038686D02*
X6114289Y-18019639D01*
X6114289Y-18019639D02*
X6104765Y-17981543D01*
X6104765Y-17981543D02*
X6104765Y-17933924D01*
X6104765Y-17933924D02*
X6114289Y-17895829D01*
X6114289Y-17895829D02*
X6123813Y-17876781D01*
X6123813Y-17876781D02*
X6133336Y-17867258D01*
X6133336Y-17867258D02*
X6152384Y-17857734D01*
X6304765Y-18038686D02*
X6314289Y-18048210D01*
X6314289Y-18048210D02*
X6304765Y-18057734D01*
X6304765Y-18057734D02*
X6295241Y-18048210D01*
X6295241Y-18048210D02*
X6304765Y-18038686D01*
X6304765Y-18038686D02*
X6304765Y-18057734D01*
X6438098Y-17857734D02*
X6457146Y-17857734D01*
X6457146Y-17857734D02*
X6476194Y-17867258D01*
X6476194Y-17867258D02*
X6485717Y-17876781D01*
X6485717Y-17876781D02*
X6495241Y-17895829D01*
X6495241Y-17895829D02*
X6504765Y-17933924D01*
X6504765Y-17933924D02*
X6504765Y-17981543D01*
X6504765Y-17981543D02*
X6495241Y-18019639D01*
X6495241Y-18019639D02*
X6485717Y-18038686D01*
X6485717Y-18038686D02*
X6476194Y-18048210D01*
X6476194Y-18048210D02*
X6457146Y-18057734D01*
X6457146Y-18057734D02*
X6438098Y-18057734D01*
X6438098Y-18057734D02*
X6419051Y-18048210D01*
X6419051Y-18048210D02*
X6409527Y-18038686D01*
X6409527Y-18038686D02*
X6400003Y-18019639D01*
X6400003Y-18019639D02*
X6390479Y-17981543D01*
X6390479Y-17981543D02*
X6390479Y-17933924D01*
X6390479Y-17933924D02*
X6400003Y-17895829D01*
X6400003Y-17895829D02*
X6409527Y-17876781D01*
X6409527Y-17876781D02*
X6419051Y-17867258D01*
X6419051Y-17867258D02*
X6438098Y-17857734D01*
X6676194Y-17924400D02*
X6676194Y-18057734D01*
X6628575Y-17848210D02*
X6580956Y-17991067D01*
X6580956Y-17991067D02*
X6704765Y-17991067D01*
X6761908Y-17857734D02*
X6885717Y-17857734D01*
X6885717Y-17857734D02*
X6819051Y-17933924D01*
X6819051Y-17933924D02*
X6847622Y-17933924D01*
X6847622Y-17933924D02*
X6866670Y-17943448D01*
X6866670Y-17943448D02*
X6876194Y-17952972D01*
X6876194Y-17952972D02*
X6885717Y-17972020D01*
X6885717Y-17972020D02*
X6885717Y-18019639D01*
X6885717Y-18019639D02*
X6876194Y-18038686D01*
X6876194Y-18038686D02*
X6866670Y-18048210D01*
X6866670Y-18048210D02*
X6847622Y-18057734D01*
X6847622Y-18057734D02*
X6790479Y-18057734D01*
X6790479Y-18057734D02*
X6771432Y-18048210D01*
X6771432Y-18048210D02*
X6761908Y-18038686D01*
X6952384Y-17857734D02*
X7076194Y-17857734D01*
X7076194Y-17857734D02*
X7009527Y-17933924D01*
X7009527Y-17933924D02*
X7038098Y-17933924D01*
X7038098Y-17933924D02*
X7057146Y-17943448D01*
X7057146Y-17943448D02*
X7066670Y-17952972D01*
X7066670Y-17952972D02*
X7076194Y-17972020D01*
X7076194Y-17972020D02*
X7076194Y-18019639D01*
X7076194Y-18019639D02*
X7066670Y-18038686D01*
X7066670Y-18038686D02*
X7057146Y-18048210D01*
X7057146Y-18048210D02*
X7038098Y-18057734D01*
X7038098Y-18057734D02*
X6980956Y-18057734D01*
X6980956Y-18057734D02*
X6961908Y-18048210D01*
X6961908Y-18048210D02*
X6952384Y-18038686D01*
X7152384Y-17857734D02*
X7152384Y-17895829D01*
X7228575Y-17857734D02*
X7228575Y-17895829D01*
X7523813Y-18133924D02*
X7514289Y-18124400D01*
X7514289Y-18124400D02*
X7495241Y-18095829D01*
X7495241Y-18095829D02*
X7485718Y-18076781D01*
X7485718Y-18076781D02*
X7476194Y-18048210D01*
X7476194Y-18048210D02*
X7466670Y-18000591D01*
X7466670Y-18000591D02*
X7466670Y-17962496D01*
X7466670Y-17962496D02*
X7476194Y-17914877D01*
X7476194Y-17914877D02*
X7485718Y-17886305D01*
X7485718Y-17886305D02*
X7495241Y-17867258D01*
X7495241Y-17867258D02*
X7514289Y-17838686D01*
X7514289Y-17838686D02*
X7523813Y-17829162D01*
X7638098Y-17857734D02*
X7657146Y-17857734D01*
X7657146Y-17857734D02*
X7676194Y-17867258D01*
X7676194Y-17867258D02*
X7685718Y-17876781D01*
X7685718Y-17876781D02*
X7695241Y-17895829D01*
X7695241Y-17895829D02*
X7704765Y-17933924D01*
X7704765Y-17933924D02*
X7704765Y-17981543D01*
X7704765Y-17981543D02*
X7695241Y-18019639D01*
X7695241Y-18019639D02*
X7685718Y-18038686D01*
X7685718Y-18038686D02*
X7676194Y-18048210D01*
X7676194Y-18048210D02*
X7657146Y-18057734D01*
X7657146Y-18057734D02*
X7638098Y-18057734D01*
X7638098Y-18057734D02*
X7619051Y-18048210D01*
X7619051Y-18048210D02*
X7609527Y-18038686D01*
X7609527Y-18038686D02*
X7600003Y-18019639D01*
X7600003Y-18019639D02*
X7590479Y-17981543D01*
X7590479Y-17981543D02*
X7590479Y-17933924D01*
X7590479Y-17933924D02*
X7600003Y-17895829D01*
X7600003Y-17895829D02*
X7609527Y-17876781D01*
X7609527Y-17876781D02*
X7619051Y-17867258D01*
X7619051Y-17867258D02*
X7638098Y-17857734D01*
X7942860Y-18057734D02*
X7942860Y-17857734D01*
X8028575Y-18057734D02*
X8028575Y-17952972D01*
X8028575Y-17952972D02*
X8019051Y-17933924D01*
X8019051Y-17933924D02*
X8000003Y-17924400D01*
X8000003Y-17924400D02*
X7971432Y-17924400D01*
X7971432Y-17924400D02*
X7952384Y-17933924D01*
X7952384Y-17933924D02*
X7942860Y-17943448D01*
X8152384Y-18057734D02*
X8133337Y-18048210D01*
X8133337Y-18048210D02*
X8123813Y-18038686D01*
X8123813Y-18038686D02*
X8114289Y-18019639D01*
X8114289Y-18019639D02*
X8114289Y-17962496D01*
X8114289Y-17962496D02*
X8123813Y-17943448D01*
X8123813Y-17943448D02*
X8133337Y-17933924D01*
X8133337Y-17933924D02*
X8152384Y-17924400D01*
X8152384Y-17924400D02*
X8180956Y-17924400D01*
X8180956Y-17924400D02*
X8200003Y-17933924D01*
X8200003Y-17933924D02*
X8209527Y-17943448D01*
X8209527Y-17943448D02*
X8219051Y-17962496D01*
X8219051Y-17962496D02*
X8219051Y-18019639D01*
X8219051Y-18019639D02*
X8209527Y-18038686D01*
X8209527Y-18038686D02*
X8200003Y-18048210D01*
X8200003Y-18048210D02*
X8180956Y-18057734D01*
X8180956Y-18057734D02*
X8152384Y-18057734D01*
X8333337Y-18057734D02*
X8314289Y-18048210D01*
X8314289Y-18048210D02*
X8304765Y-18029162D01*
X8304765Y-18029162D02*
X8304765Y-17857734D01*
X8485718Y-18048210D02*
X8466670Y-18057734D01*
X8466670Y-18057734D02*
X8428575Y-18057734D01*
X8428575Y-18057734D02*
X8409527Y-18048210D01*
X8409527Y-18048210D02*
X8400003Y-18029162D01*
X8400003Y-18029162D02*
X8400003Y-17952972D01*
X8400003Y-17952972D02*
X8409527Y-17933924D01*
X8409527Y-17933924D02*
X8428575Y-17924400D01*
X8428575Y-17924400D02*
X8466670Y-17924400D01*
X8466670Y-17924400D02*
X8485718Y-17933924D01*
X8485718Y-17933924D02*
X8495242Y-17952972D01*
X8495242Y-17952972D02*
X8495242Y-17972020D01*
X8495242Y-17972020D02*
X8400003Y-17991067D01*
X8571432Y-18048210D02*
X8590480Y-18057734D01*
X8590480Y-18057734D02*
X8628575Y-18057734D01*
X8628575Y-18057734D02*
X8647623Y-18048210D01*
X8647623Y-18048210D02*
X8657146Y-18029162D01*
X8657146Y-18029162D02*
X8657146Y-18019639D01*
X8657146Y-18019639D02*
X8647623Y-18000591D01*
X8647623Y-18000591D02*
X8628575Y-17991067D01*
X8628575Y-17991067D02*
X8600003Y-17991067D01*
X8600003Y-17991067D02*
X8580956Y-17981543D01*
X8580956Y-17981543D02*
X8571432Y-17962496D01*
X8571432Y-17962496D02*
X8571432Y-17952972D01*
X8571432Y-17952972D02*
X8580956Y-17933924D01*
X8580956Y-17933924D02*
X8600003Y-17924400D01*
X8600003Y-17924400D02*
X8628575Y-17924400D01*
X8628575Y-17924400D02*
X8647623Y-17933924D01*
X8895242Y-17981543D02*
X9047623Y-17981543D01*
X8971432Y-18057734D02*
X8971432Y-17905353D01*
X9285718Y-17876781D02*
X9295242Y-17867258D01*
X9295242Y-17867258D02*
X9314289Y-17857734D01*
X9314289Y-17857734D02*
X9361908Y-17857734D01*
X9361908Y-17857734D02*
X9380956Y-17867258D01*
X9380956Y-17867258D02*
X9390480Y-17876781D01*
X9390480Y-17876781D02*
X9400004Y-17895829D01*
X9400004Y-17895829D02*
X9400004Y-17914877D01*
X9400004Y-17914877D02*
X9390480Y-17943448D01*
X9390480Y-17943448D02*
X9276194Y-18057734D01*
X9276194Y-18057734D02*
X9400004Y-18057734D01*
X9628575Y-18048210D02*
X9647623Y-18057734D01*
X9647623Y-18057734D02*
X9685718Y-18057734D01*
X9685718Y-18057734D02*
X9704766Y-18048210D01*
X9704766Y-18048210D02*
X9714289Y-18029162D01*
X9714289Y-18029162D02*
X9714289Y-18019639D01*
X9714289Y-18019639D02*
X9704766Y-18000591D01*
X9704766Y-18000591D02*
X9685718Y-17991067D01*
X9685718Y-17991067D02*
X9657146Y-17991067D01*
X9657146Y-17991067D02*
X9638099Y-17981543D01*
X9638099Y-17981543D02*
X9628575Y-17962496D01*
X9628575Y-17962496D02*
X9628575Y-17952972D01*
X9628575Y-17952972D02*
X9638099Y-17933924D01*
X9638099Y-17933924D02*
X9657146Y-17924400D01*
X9657146Y-17924400D02*
X9685718Y-17924400D01*
X9685718Y-17924400D02*
X9704766Y-17933924D01*
X9828575Y-18057734D02*
X9809527Y-18048210D01*
X9809527Y-18048210D02*
X9800004Y-18029162D01*
X9800004Y-18029162D02*
X9800004Y-17857734D01*
X9933337Y-18057734D02*
X9914289Y-18048210D01*
X9914289Y-18048210D02*
X9904766Y-18038686D01*
X9904766Y-18038686D02*
X9895242Y-18019639D01*
X9895242Y-18019639D02*
X9895242Y-17962496D01*
X9895242Y-17962496D02*
X9904766Y-17943448D01*
X9904766Y-17943448D02*
X9914289Y-17933924D01*
X9914289Y-17933924D02*
X9933337Y-17924400D01*
X9933337Y-17924400D02*
X9961908Y-17924400D01*
X9961908Y-17924400D02*
X9980956Y-17933924D01*
X9980956Y-17933924D02*
X9990480Y-17943448D01*
X9990480Y-17943448D02*
X10000004Y-17962496D01*
X10000004Y-17962496D02*
X10000004Y-18019639D01*
X10000004Y-18019639D02*
X9990480Y-18038686D01*
X9990480Y-18038686D02*
X9980956Y-18048210D01*
X9980956Y-18048210D02*
X9961908Y-18057734D01*
X9961908Y-18057734D02*
X9933337Y-18057734D01*
X10057147Y-17924400D02*
X10133337Y-17924400D01*
X10085718Y-17857734D02*
X10085718Y-18029162D01*
X10085718Y-18029162D02*
X10095242Y-18048210D01*
X10095242Y-18048210D02*
X10114289Y-18057734D01*
X10114289Y-18057734D02*
X10133337Y-18057734D01*
X10190480Y-18048210D02*
X10209527Y-18057734D01*
X10209527Y-18057734D02*
X10247623Y-18057734D01*
X10247623Y-18057734D02*
X10266670Y-18048210D01*
X10266670Y-18048210D02*
X10276194Y-18029162D01*
X10276194Y-18029162D02*
X10276194Y-18019639D01*
X10276194Y-18019639D02*
X10266670Y-18000591D01*
X10266670Y-18000591D02*
X10247623Y-17991067D01*
X10247623Y-17991067D02*
X10219051Y-17991067D01*
X10219051Y-17991067D02*
X10200004Y-17981543D01*
X10200004Y-17981543D02*
X10190480Y-17962496D01*
X10190480Y-17962496D02*
X10190480Y-17952972D01*
X10190480Y-17952972D02*
X10200004Y-17933924D01*
X10200004Y-17933924D02*
X10219051Y-17924400D01*
X10219051Y-17924400D02*
X10247623Y-17924400D01*
X10247623Y-17924400D02*
X10266670Y-17933924D01*
X10342861Y-18133924D02*
X10352385Y-18124400D01*
X10352385Y-18124400D02*
X10371432Y-18095829D01*
X10371432Y-18095829D02*
X10380956Y-18076781D01*
X10380956Y-18076781D02*
X10390480Y-18048210D01*
X10390480Y-18048210D02*
X10400004Y-18000591D01*
X10400004Y-18000591D02*
X10400004Y-17962496D01*
X10400004Y-17962496D02*
X10390480Y-17914877D01*
X10390480Y-17914877D02*
X10380956Y-17886305D01*
X10380956Y-17886305D02*
X10371432Y-17867258D01*
X10371432Y-17867258D02*
X10352385Y-17838686D01*
X10352385Y-17838686D02*
X10342861Y-17829162D01*
X3748750Y-18130250D02*
X3948750Y-18330250D01*
X3948750Y-18130250D02*
X3748750Y-18330250D01*
X3848750Y-18130250D02*
X3848750Y-18330250D01*
X3748750Y-18230250D02*
X3948750Y-18230250D01*
X4190479Y-18121734D02*
X4314289Y-18121734D01*
X4314289Y-18121734D02*
X4247622Y-18197924D01*
X4247622Y-18197924D02*
X4276194Y-18197924D01*
X4276194Y-18197924D02*
X4295241Y-18207448D01*
X4295241Y-18207448D02*
X4304765Y-18216972D01*
X4304765Y-18216972D02*
X4314289Y-18236020D01*
X4314289Y-18236020D02*
X4314289Y-18283639D01*
X4314289Y-18283639D02*
X4304765Y-18302686D01*
X4304765Y-18302686D02*
X4295241Y-18312210D01*
X4295241Y-18312210D02*
X4276194Y-18321734D01*
X4276194Y-18321734D02*
X4219051Y-18321734D01*
X4219051Y-18321734D02*
X4200003Y-18312210D01*
X4200003Y-18312210D02*
X4190479Y-18302686D01*
X4400003Y-18302686D02*
X4409527Y-18312210D01*
X4409527Y-18312210D02*
X4400003Y-18321734D01*
X4400003Y-18321734D02*
X4390479Y-18312210D01*
X4390479Y-18312210D02*
X4400003Y-18302686D01*
X4400003Y-18302686D02*
X4400003Y-18321734D01*
X4485717Y-18140781D02*
X4495241Y-18131258D01*
X4495241Y-18131258D02*
X4514289Y-18121734D01*
X4514289Y-18121734D02*
X4561908Y-18121734D01*
X4561908Y-18121734D02*
X4580955Y-18131258D01*
X4580955Y-18131258D02*
X4590479Y-18140781D01*
X4590479Y-18140781D02*
X4600003Y-18159829D01*
X4600003Y-18159829D02*
X4600003Y-18178877D01*
X4600003Y-18178877D02*
X4590479Y-18207448D01*
X4590479Y-18207448D02*
X4476194Y-18321734D01*
X4476194Y-18321734D02*
X4600003Y-18321734D01*
X4723813Y-18121734D02*
X4742860Y-18121734D01*
X4742860Y-18121734D02*
X4761908Y-18131258D01*
X4761908Y-18131258D02*
X4771432Y-18140781D01*
X4771432Y-18140781D02*
X4780955Y-18159829D01*
X4780955Y-18159829D02*
X4790479Y-18197924D01*
X4790479Y-18197924D02*
X4790479Y-18245543D01*
X4790479Y-18245543D02*
X4780955Y-18283639D01*
X4780955Y-18283639D02*
X4771432Y-18302686D01*
X4771432Y-18302686D02*
X4761908Y-18312210D01*
X4761908Y-18312210D02*
X4742860Y-18321734D01*
X4742860Y-18321734D02*
X4723813Y-18321734D01*
X4723813Y-18321734D02*
X4704765Y-18312210D01*
X4704765Y-18312210D02*
X4695241Y-18302686D01*
X4695241Y-18302686D02*
X4685717Y-18283639D01*
X4685717Y-18283639D02*
X4676194Y-18245543D01*
X4676194Y-18245543D02*
X4676194Y-18197924D01*
X4676194Y-18197924D02*
X4685717Y-18159829D01*
X4685717Y-18159829D02*
X4695241Y-18140781D01*
X4695241Y-18140781D02*
X4704765Y-18131258D01*
X4704765Y-18131258D02*
X4723813Y-18121734D01*
X4914289Y-18121734D02*
X4933336Y-18121734D01*
X4933336Y-18121734D02*
X4952384Y-18131258D01*
X4952384Y-18131258D02*
X4961908Y-18140781D01*
X4961908Y-18140781D02*
X4971432Y-18159829D01*
X4971432Y-18159829D02*
X4980955Y-18197924D01*
X4980955Y-18197924D02*
X4980955Y-18245543D01*
X4980955Y-18245543D02*
X4971432Y-18283639D01*
X4971432Y-18283639D02*
X4961908Y-18302686D01*
X4961908Y-18302686D02*
X4952384Y-18312210D01*
X4952384Y-18312210D02*
X4933336Y-18321734D01*
X4933336Y-18321734D02*
X4914289Y-18321734D01*
X4914289Y-18321734D02*
X4895241Y-18312210D01*
X4895241Y-18312210D02*
X4885717Y-18302686D01*
X4885717Y-18302686D02*
X4876194Y-18283639D01*
X4876194Y-18283639D02*
X4866670Y-18245543D01*
X4866670Y-18245543D02*
X4866670Y-18197924D01*
X4866670Y-18197924D02*
X4876194Y-18159829D01*
X4876194Y-18159829D02*
X4885717Y-18140781D01*
X4885717Y-18140781D02*
X4895241Y-18131258D01*
X4895241Y-18131258D02*
X4914289Y-18121734D01*
X5066670Y-18321734D02*
X5066670Y-18188400D01*
X5066670Y-18207448D02*
X5076194Y-18197924D01*
X5076194Y-18197924D02*
X5095241Y-18188400D01*
X5095241Y-18188400D02*
X5123813Y-18188400D01*
X5123813Y-18188400D02*
X5142860Y-18197924D01*
X5142860Y-18197924D02*
X5152384Y-18216972D01*
X5152384Y-18216972D02*
X5152384Y-18321734D01*
X5152384Y-18216972D02*
X5161908Y-18197924D01*
X5161908Y-18197924D02*
X5180955Y-18188400D01*
X5180955Y-18188400D02*
X5209527Y-18188400D01*
X5209527Y-18188400D02*
X5228575Y-18197924D01*
X5228575Y-18197924D02*
X5238098Y-18216972D01*
X5238098Y-18216972D02*
X5238098Y-18321734D01*
X5333336Y-18321734D02*
X5333336Y-18188400D01*
X5333336Y-18207448D02*
X5342860Y-18197924D01*
X5342860Y-18197924D02*
X5361908Y-18188400D01*
X5361908Y-18188400D02*
X5390479Y-18188400D01*
X5390479Y-18188400D02*
X5409527Y-18197924D01*
X5409527Y-18197924D02*
X5419051Y-18216972D01*
X5419051Y-18216972D02*
X5419051Y-18321734D01*
X5419051Y-18216972D02*
X5428575Y-18197924D01*
X5428575Y-18197924D02*
X5447622Y-18188400D01*
X5447622Y-18188400D02*
X5476194Y-18188400D01*
X5476194Y-18188400D02*
X5495241Y-18197924D01*
X5495241Y-18197924D02*
X5504765Y-18216972D01*
X5504765Y-18216972D02*
X5504765Y-18321734D01*
X5895241Y-18112210D02*
X5723813Y-18369353D01*
X6152384Y-18121734D02*
X6171432Y-18121734D01*
X6171432Y-18121734D02*
X6190479Y-18131258D01*
X6190479Y-18131258D02*
X6200003Y-18140781D01*
X6200003Y-18140781D02*
X6209527Y-18159829D01*
X6209527Y-18159829D02*
X6219051Y-18197924D01*
X6219051Y-18197924D02*
X6219051Y-18245543D01*
X6219051Y-18245543D02*
X6209527Y-18283639D01*
X6209527Y-18283639D02*
X6200003Y-18302686D01*
X6200003Y-18302686D02*
X6190479Y-18312210D01*
X6190479Y-18312210D02*
X6171432Y-18321734D01*
X6171432Y-18321734D02*
X6152384Y-18321734D01*
X6152384Y-18321734D02*
X6133336Y-18312210D01*
X6133336Y-18312210D02*
X6123813Y-18302686D01*
X6123813Y-18302686D02*
X6114289Y-18283639D01*
X6114289Y-18283639D02*
X6104765Y-18245543D01*
X6104765Y-18245543D02*
X6104765Y-18197924D01*
X6104765Y-18197924D02*
X6114289Y-18159829D01*
X6114289Y-18159829D02*
X6123813Y-18140781D01*
X6123813Y-18140781D02*
X6133336Y-18131258D01*
X6133336Y-18131258D02*
X6152384Y-18121734D01*
X6304765Y-18302686D02*
X6314289Y-18312210D01*
X6314289Y-18312210D02*
X6304765Y-18321734D01*
X6304765Y-18321734D02*
X6295241Y-18312210D01*
X6295241Y-18312210D02*
X6304765Y-18302686D01*
X6304765Y-18302686D02*
X6304765Y-18321734D01*
X6504765Y-18321734D02*
X6390479Y-18321734D01*
X6447622Y-18321734D02*
X6447622Y-18121734D01*
X6447622Y-18121734D02*
X6428575Y-18150305D01*
X6428575Y-18150305D02*
X6409527Y-18169353D01*
X6409527Y-18169353D02*
X6390479Y-18178877D01*
X6580956Y-18140781D02*
X6590479Y-18131258D01*
X6590479Y-18131258D02*
X6609527Y-18121734D01*
X6609527Y-18121734D02*
X6657146Y-18121734D01*
X6657146Y-18121734D02*
X6676194Y-18131258D01*
X6676194Y-18131258D02*
X6685717Y-18140781D01*
X6685717Y-18140781D02*
X6695241Y-18159829D01*
X6695241Y-18159829D02*
X6695241Y-18178877D01*
X6695241Y-18178877D02*
X6685717Y-18207448D01*
X6685717Y-18207448D02*
X6571432Y-18321734D01*
X6571432Y-18321734D02*
X6695241Y-18321734D01*
X6866670Y-18121734D02*
X6828575Y-18121734D01*
X6828575Y-18121734D02*
X6809527Y-18131258D01*
X6809527Y-18131258D02*
X6800003Y-18140781D01*
X6800003Y-18140781D02*
X6780956Y-18169353D01*
X6780956Y-18169353D02*
X6771432Y-18207448D01*
X6771432Y-18207448D02*
X6771432Y-18283639D01*
X6771432Y-18283639D02*
X6780956Y-18302686D01*
X6780956Y-18302686D02*
X6790479Y-18312210D01*
X6790479Y-18312210D02*
X6809527Y-18321734D01*
X6809527Y-18321734D02*
X6847622Y-18321734D01*
X6847622Y-18321734D02*
X6866670Y-18312210D01*
X6866670Y-18312210D02*
X6876194Y-18302686D01*
X6876194Y-18302686D02*
X6885717Y-18283639D01*
X6885717Y-18283639D02*
X6885717Y-18236020D01*
X6885717Y-18236020D02*
X6876194Y-18216972D01*
X6876194Y-18216972D02*
X6866670Y-18207448D01*
X6866670Y-18207448D02*
X6847622Y-18197924D01*
X6847622Y-18197924D02*
X6809527Y-18197924D01*
X6809527Y-18197924D02*
X6790479Y-18207448D01*
X6790479Y-18207448D02*
X6780956Y-18216972D01*
X6780956Y-18216972D02*
X6771432Y-18236020D01*
X7009527Y-18121734D02*
X7028575Y-18121734D01*
X7028575Y-18121734D02*
X7047622Y-18131258D01*
X7047622Y-18131258D02*
X7057146Y-18140781D01*
X7057146Y-18140781D02*
X7066670Y-18159829D01*
X7066670Y-18159829D02*
X7076194Y-18197924D01*
X7076194Y-18197924D02*
X7076194Y-18245543D01*
X7076194Y-18245543D02*
X7066670Y-18283639D01*
X7066670Y-18283639D02*
X7057146Y-18302686D01*
X7057146Y-18302686D02*
X7047622Y-18312210D01*
X7047622Y-18312210D02*
X7028575Y-18321734D01*
X7028575Y-18321734D02*
X7009527Y-18321734D01*
X7009527Y-18321734D02*
X6990479Y-18312210D01*
X6990479Y-18312210D02*
X6980956Y-18302686D01*
X6980956Y-18302686D02*
X6971432Y-18283639D01*
X6971432Y-18283639D02*
X6961908Y-18245543D01*
X6961908Y-18245543D02*
X6961908Y-18197924D01*
X6961908Y-18197924D02*
X6971432Y-18159829D01*
X6971432Y-18159829D02*
X6980956Y-18140781D01*
X6980956Y-18140781D02*
X6990479Y-18131258D01*
X6990479Y-18131258D02*
X7009527Y-18121734D01*
X7152384Y-18121734D02*
X7152384Y-18159829D01*
X7228575Y-18121734D02*
X7228575Y-18159829D01*
X7523813Y-18397924D02*
X7514289Y-18388400D01*
X7514289Y-18388400D02*
X7495241Y-18359829D01*
X7495241Y-18359829D02*
X7485718Y-18340781D01*
X7485718Y-18340781D02*
X7476194Y-18312210D01*
X7476194Y-18312210D02*
X7466670Y-18264591D01*
X7466670Y-18264591D02*
X7466670Y-18226496D01*
X7466670Y-18226496D02*
X7476194Y-18178877D01*
X7476194Y-18178877D02*
X7485718Y-18150305D01*
X7485718Y-18150305D02*
X7495241Y-18131258D01*
X7495241Y-18131258D02*
X7514289Y-18102686D01*
X7514289Y-18102686D02*
X7523813Y-18093162D01*
X7590479Y-18140781D02*
X7600003Y-18131258D01*
X7600003Y-18131258D02*
X7619051Y-18121734D01*
X7619051Y-18121734D02*
X7666670Y-18121734D01*
X7666670Y-18121734D02*
X7685718Y-18131258D01*
X7685718Y-18131258D02*
X7695241Y-18140781D01*
X7695241Y-18140781D02*
X7704765Y-18159829D01*
X7704765Y-18159829D02*
X7704765Y-18178877D01*
X7704765Y-18178877D02*
X7695241Y-18207448D01*
X7695241Y-18207448D02*
X7580956Y-18321734D01*
X7580956Y-18321734D02*
X7704765Y-18321734D01*
X7942860Y-18321734D02*
X7942860Y-18121734D01*
X8028575Y-18321734D02*
X8028575Y-18216972D01*
X8028575Y-18216972D02*
X8019051Y-18197924D01*
X8019051Y-18197924D02*
X8000003Y-18188400D01*
X8000003Y-18188400D02*
X7971432Y-18188400D01*
X7971432Y-18188400D02*
X7952384Y-18197924D01*
X7952384Y-18197924D02*
X7942860Y-18207448D01*
X8152384Y-18321734D02*
X8133337Y-18312210D01*
X8133337Y-18312210D02*
X8123813Y-18302686D01*
X8123813Y-18302686D02*
X8114289Y-18283639D01*
X8114289Y-18283639D02*
X8114289Y-18226496D01*
X8114289Y-18226496D02*
X8123813Y-18207448D01*
X8123813Y-18207448D02*
X8133337Y-18197924D01*
X8133337Y-18197924D02*
X8152384Y-18188400D01*
X8152384Y-18188400D02*
X8180956Y-18188400D01*
X8180956Y-18188400D02*
X8200003Y-18197924D01*
X8200003Y-18197924D02*
X8209527Y-18207448D01*
X8209527Y-18207448D02*
X8219051Y-18226496D01*
X8219051Y-18226496D02*
X8219051Y-18283639D01*
X8219051Y-18283639D02*
X8209527Y-18302686D01*
X8209527Y-18302686D02*
X8200003Y-18312210D01*
X8200003Y-18312210D02*
X8180956Y-18321734D01*
X8180956Y-18321734D02*
X8152384Y-18321734D01*
X8333337Y-18321734D02*
X8314289Y-18312210D01*
X8314289Y-18312210D02*
X8304765Y-18293162D01*
X8304765Y-18293162D02*
X8304765Y-18121734D01*
X8485718Y-18312210D02*
X8466670Y-18321734D01*
X8466670Y-18321734D02*
X8428575Y-18321734D01*
X8428575Y-18321734D02*
X8409527Y-18312210D01*
X8409527Y-18312210D02*
X8400003Y-18293162D01*
X8400003Y-18293162D02*
X8400003Y-18216972D01*
X8400003Y-18216972D02*
X8409527Y-18197924D01*
X8409527Y-18197924D02*
X8428575Y-18188400D01*
X8428575Y-18188400D02*
X8466670Y-18188400D01*
X8466670Y-18188400D02*
X8485718Y-18197924D01*
X8485718Y-18197924D02*
X8495242Y-18216972D01*
X8495242Y-18216972D02*
X8495242Y-18236020D01*
X8495242Y-18236020D02*
X8400003Y-18255067D01*
X8571432Y-18312210D02*
X8590480Y-18321734D01*
X8590480Y-18321734D02*
X8628575Y-18321734D01*
X8628575Y-18321734D02*
X8647623Y-18312210D01*
X8647623Y-18312210D02*
X8657146Y-18293162D01*
X8657146Y-18293162D02*
X8657146Y-18283639D01*
X8657146Y-18283639D02*
X8647623Y-18264591D01*
X8647623Y-18264591D02*
X8628575Y-18255067D01*
X8628575Y-18255067D02*
X8600003Y-18255067D01*
X8600003Y-18255067D02*
X8580956Y-18245543D01*
X8580956Y-18245543D02*
X8571432Y-18226496D01*
X8571432Y-18226496D02*
X8571432Y-18216972D01*
X8571432Y-18216972D02*
X8580956Y-18197924D01*
X8580956Y-18197924D02*
X8600003Y-18188400D01*
X8600003Y-18188400D02*
X8628575Y-18188400D01*
X8628575Y-18188400D02*
X8647623Y-18197924D01*
X8723813Y-18397924D02*
X8733337Y-18388400D01*
X8733337Y-18388400D02*
X8752384Y-18359829D01*
X8752384Y-18359829D02*
X8761908Y-18340781D01*
X8761908Y-18340781D02*
X8771432Y-18312210D01*
X8771432Y-18312210D02*
X8780956Y-18264591D01*
X8780956Y-18264591D02*
X8780956Y-18226496D01*
X8780956Y-18226496D02*
X8771432Y-18178877D01*
X8771432Y-18178877D02*
X8761908Y-18150305D01*
X8761908Y-18150305D02*
X8752384Y-18131258D01*
X8752384Y-18131258D02*
X8733337Y-18102686D01*
X8733337Y-18102686D02*
X8723813Y-18093162D01*
M02*
