%TF.GenerationSoftware,KiCad,Pcbnew,8.0.5-dirty*%
%TF.CreationDate,2024-11-21T15:48:26-08:00*%
%TF.ProjectId,sisyphus-pci,73697379-7068-4757-932d-7063692e6b69,rev?*%
%TF.SameCoordinates,Original*%
%TF.FileFunction,Drillmap*%
%TF.FilePolarity,Positive*%
%FSLAX45Y45*%
G04 Gerber Fmt 4.5, Leading zero omitted, Abs format (unit mm)*
G04 Created by KiCad (PCBNEW 8.0.5-dirty) date 2024-11-21 15:48:26*
%MOMM*%
%LPD*%
G01*
G04 APERTURE LIST*
%ADD10C,0.050000*%
%ADD11C,0.125000*%
%ADD12C,0.200000*%
%ADD13C,0.120000*%
G04 APERTURE END LIST*
D10*
X5100000Y-6450000D02*
G75*
G02*
X4800000Y-6450000I-150000J0D01*
G01*
X4800000Y-6450000D02*
G75*
G02*
X5100000Y-6450000I150000J0D01*
G01*
D11*
X8755000Y-7410000D02*
X16110000Y-7410000D01*
X16735000Y-8035000D01*
X16735000Y-15130000D01*
X16597500Y-15266500D01*
X16025000Y-15266500D01*
X15950000Y-15350500D01*
X15950000Y-16000000D01*
X14480000Y-16000000D01*
X14480000Y-15320227D01*
X14457777Y-15297500D01*
X14335273Y-15297500D01*
X14313000Y-15320185D01*
X14313000Y-15987000D01*
X14300000Y-16000000D01*
X8060000Y-16000000D01*
X8003000Y-15938378D01*
X8003000Y-15331500D01*
X7968000Y-15296500D01*
X5810000Y-15296500D01*
X5810000Y-15860000D01*
X4500000Y-15860000D01*
X4500000Y-6130000D01*
X7475000Y-6130000D01*
X8755000Y-7410000D01*
D12*
D13*
X4640000Y-6877500D02*
X4760000Y-6997500D01*
X4760000Y-6877500D02*
X4640000Y-6997500D01*
X4640000Y-7877500D02*
X4760000Y-7997500D01*
X4760000Y-7877500D02*
X4640000Y-7997500D01*
X4640000Y-8127693D02*
X4760000Y-8247693D01*
X4760000Y-8127693D02*
X4640000Y-8247693D01*
X4640000Y-9127694D02*
X4760000Y-9247694D01*
X4760000Y-9127694D02*
X4640000Y-9247694D01*
X4640000Y-10640000D02*
X4760000Y-10760000D01*
X4760000Y-10640000D02*
X4640000Y-10760000D01*
X4640000Y-11640000D02*
X4760000Y-11760000D01*
X4760000Y-11640000D02*
X4640000Y-11760000D01*
X4890000Y-6877500D02*
X5010000Y-6997500D01*
X5010000Y-6877500D02*
X4890000Y-6997500D01*
X4890000Y-7877500D02*
X5010000Y-7997500D01*
X5010000Y-7877500D02*
X4890000Y-7997500D01*
X4890000Y-8127693D02*
X5010000Y-8247693D01*
X5010000Y-8127693D02*
X4890000Y-8247693D01*
X4890000Y-9127694D02*
X5010000Y-9247694D01*
X5010000Y-9127694D02*
X4890000Y-9247694D01*
X4890000Y-10640000D02*
X5010000Y-10760000D01*
X5010000Y-10640000D02*
X4890000Y-10760000D01*
X4890000Y-11640000D02*
X5010000Y-11760000D01*
X5010000Y-11640000D02*
X4890000Y-11760000D01*
X5390000Y-7377500D02*
X5510000Y-7497500D01*
X5510000Y-7377500D02*
X5390000Y-7497500D01*
X5390000Y-8627694D02*
X5510000Y-8747694D01*
X5510000Y-8627694D02*
X5390000Y-8747694D01*
X5390000Y-11140000D02*
X5510000Y-11260000D01*
X5510000Y-11140000D02*
X5390000Y-11260000D01*
D12*
X4754527Y-16317734D02*
X4754527Y-16117734D01*
X4754527Y-16117734D02*
X4802146Y-16117734D01*
X4802146Y-16117734D02*
X4830717Y-16127258D01*
X4830717Y-16127258D02*
X4849765Y-16146305D01*
X4849765Y-16146305D02*
X4859289Y-16165353D01*
X4859289Y-16165353D02*
X4868813Y-16203448D01*
X4868813Y-16203448D02*
X4868813Y-16232019D01*
X4868813Y-16232019D02*
X4859289Y-16270115D01*
X4859289Y-16270115D02*
X4849765Y-16289162D01*
X4849765Y-16289162D02*
X4830717Y-16308210D01*
X4830717Y-16308210D02*
X4802146Y-16317734D01*
X4802146Y-16317734D02*
X4754527Y-16317734D01*
X4954527Y-16317734D02*
X4954527Y-16184400D01*
X4954527Y-16222496D02*
X4964051Y-16203448D01*
X4964051Y-16203448D02*
X4973574Y-16193924D01*
X4973574Y-16193924D02*
X4992622Y-16184400D01*
X4992622Y-16184400D02*
X5011670Y-16184400D01*
X5078336Y-16317734D02*
X5078336Y-16184400D01*
X5078336Y-16117734D02*
X5068813Y-16127258D01*
X5068813Y-16127258D02*
X5078336Y-16136781D01*
X5078336Y-16136781D02*
X5087860Y-16127258D01*
X5087860Y-16127258D02*
X5078336Y-16117734D01*
X5078336Y-16117734D02*
X5078336Y-16136781D01*
X5202146Y-16317734D02*
X5183098Y-16308210D01*
X5183098Y-16308210D02*
X5173574Y-16289162D01*
X5173574Y-16289162D02*
X5173574Y-16117734D01*
X5306908Y-16317734D02*
X5287860Y-16308210D01*
X5287860Y-16308210D02*
X5278336Y-16289162D01*
X5278336Y-16289162D02*
X5278336Y-16117734D01*
X5535479Y-16317734D02*
X5535479Y-16117734D01*
X5535479Y-16117734D02*
X5602146Y-16260591D01*
X5602146Y-16260591D02*
X5668812Y-16117734D01*
X5668812Y-16117734D02*
X5668812Y-16317734D01*
X5849765Y-16317734D02*
X5849765Y-16212972D01*
X5849765Y-16212972D02*
X5840241Y-16193924D01*
X5840241Y-16193924D02*
X5821193Y-16184400D01*
X5821193Y-16184400D02*
X5783098Y-16184400D01*
X5783098Y-16184400D02*
X5764051Y-16193924D01*
X5849765Y-16308210D02*
X5830717Y-16317734D01*
X5830717Y-16317734D02*
X5783098Y-16317734D01*
X5783098Y-16317734D02*
X5764051Y-16308210D01*
X5764051Y-16308210D02*
X5754527Y-16289162D01*
X5754527Y-16289162D02*
X5754527Y-16270115D01*
X5754527Y-16270115D02*
X5764051Y-16251067D01*
X5764051Y-16251067D02*
X5783098Y-16241543D01*
X5783098Y-16241543D02*
X5830717Y-16241543D01*
X5830717Y-16241543D02*
X5849765Y-16232019D01*
X5945003Y-16184400D02*
X5945003Y-16384400D01*
X5945003Y-16193924D02*
X5964051Y-16184400D01*
X5964051Y-16184400D02*
X6002146Y-16184400D01*
X6002146Y-16184400D02*
X6021193Y-16193924D01*
X6021193Y-16193924D02*
X6030717Y-16203448D01*
X6030717Y-16203448D02*
X6040241Y-16222496D01*
X6040241Y-16222496D02*
X6040241Y-16279638D01*
X6040241Y-16279638D02*
X6030717Y-16298686D01*
X6030717Y-16298686D02*
X6021193Y-16308210D01*
X6021193Y-16308210D02*
X6002146Y-16317734D01*
X6002146Y-16317734D02*
X5964051Y-16317734D01*
X5964051Y-16317734D02*
X5945003Y-16308210D01*
X6125955Y-16298686D02*
X6135479Y-16308210D01*
X6135479Y-16308210D02*
X6125955Y-16317734D01*
X6125955Y-16317734D02*
X6116432Y-16308210D01*
X6116432Y-16308210D02*
X6125955Y-16298686D01*
X6125955Y-16298686D02*
X6125955Y-16317734D01*
X6125955Y-16193924D02*
X6135479Y-16203448D01*
X6135479Y-16203448D02*
X6125955Y-16212972D01*
X6125955Y-16212972D02*
X6116432Y-16203448D01*
X6116432Y-16203448D02*
X6125955Y-16193924D01*
X6125955Y-16193924D02*
X6125955Y-16212972D01*
D13*
X4373750Y-16586250D02*
X4493750Y-16706250D01*
X4493750Y-16586250D02*
X4373750Y-16706250D01*
D12*
X4859289Y-16737734D02*
X4745003Y-16737734D01*
X4802146Y-16737734D02*
X4802146Y-16537734D01*
X4802146Y-16537734D02*
X4783098Y-16566305D01*
X4783098Y-16566305D02*
X4764051Y-16585353D01*
X4764051Y-16585353D02*
X4745003Y-16594877D01*
X4945003Y-16718686D02*
X4954527Y-16728210D01*
X4954527Y-16728210D02*
X4945003Y-16737734D01*
X4945003Y-16737734D02*
X4935479Y-16728210D01*
X4935479Y-16728210D02*
X4945003Y-16718686D01*
X4945003Y-16718686D02*
X4945003Y-16737734D01*
X5030717Y-16556781D02*
X5040241Y-16547258D01*
X5040241Y-16547258D02*
X5059289Y-16537734D01*
X5059289Y-16537734D02*
X5106908Y-16537734D01*
X5106908Y-16537734D02*
X5125955Y-16547258D01*
X5125955Y-16547258D02*
X5135479Y-16556781D01*
X5135479Y-16556781D02*
X5145003Y-16575829D01*
X5145003Y-16575829D02*
X5145003Y-16594877D01*
X5145003Y-16594877D02*
X5135479Y-16623448D01*
X5135479Y-16623448D02*
X5021194Y-16737734D01*
X5021194Y-16737734D02*
X5145003Y-16737734D01*
X5268813Y-16537734D02*
X5287860Y-16537734D01*
X5287860Y-16537734D02*
X5306908Y-16547258D01*
X5306908Y-16547258D02*
X5316432Y-16556781D01*
X5316432Y-16556781D02*
X5325955Y-16575829D01*
X5325955Y-16575829D02*
X5335479Y-16613924D01*
X5335479Y-16613924D02*
X5335479Y-16661543D01*
X5335479Y-16661543D02*
X5325955Y-16699638D01*
X5325955Y-16699638D02*
X5316432Y-16718686D01*
X5316432Y-16718686D02*
X5306908Y-16728210D01*
X5306908Y-16728210D02*
X5287860Y-16737734D01*
X5287860Y-16737734D02*
X5268813Y-16737734D01*
X5268813Y-16737734D02*
X5249765Y-16728210D01*
X5249765Y-16728210D02*
X5240241Y-16718686D01*
X5240241Y-16718686D02*
X5230717Y-16699638D01*
X5230717Y-16699638D02*
X5221194Y-16661543D01*
X5221194Y-16661543D02*
X5221194Y-16613924D01*
X5221194Y-16613924D02*
X5230717Y-16575829D01*
X5230717Y-16575829D02*
X5240241Y-16556781D01*
X5240241Y-16556781D02*
X5249765Y-16547258D01*
X5249765Y-16547258D02*
X5268813Y-16537734D01*
X5459289Y-16537734D02*
X5478336Y-16537734D01*
X5478336Y-16537734D02*
X5497384Y-16547258D01*
X5497384Y-16547258D02*
X5506908Y-16556781D01*
X5506908Y-16556781D02*
X5516432Y-16575829D01*
X5516432Y-16575829D02*
X5525955Y-16613924D01*
X5525955Y-16613924D02*
X5525955Y-16661543D01*
X5525955Y-16661543D02*
X5516432Y-16699638D01*
X5516432Y-16699638D02*
X5506908Y-16718686D01*
X5506908Y-16718686D02*
X5497384Y-16728210D01*
X5497384Y-16728210D02*
X5478336Y-16737734D01*
X5478336Y-16737734D02*
X5459289Y-16737734D01*
X5459289Y-16737734D02*
X5440241Y-16728210D01*
X5440241Y-16728210D02*
X5430717Y-16718686D01*
X5430717Y-16718686D02*
X5421194Y-16699638D01*
X5421194Y-16699638D02*
X5411670Y-16661543D01*
X5411670Y-16661543D02*
X5411670Y-16613924D01*
X5411670Y-16613924D02*
X5421194Y-16575829D01*
X5421194Y-16575829D02*
X5430717Y-16556781D01*
X5430717Y-16556781D02*
X5440241Y-16547258D01*
X5440241Y-16547258D02*
X5459289Y-16537734D01*
X5611670Y-16737734D02*
X5611670Y-16604400D01*
X5611670Y-16623448D02*
X5621193Y-16613924D01*
X5621193Y-16613924D02*
X5640241Y-16604400D01*
X5640241Y-16604400D02*
X5668813Y-16604400D01*
X5668813Y-16604400D02*
X5687860Y-16613924D01*
X5687860Y-16613924D02*
X5697384Y-16632972D01*
X5697384Y-16632972D02*
X5697384Y-16737734D01*
X5697384Y-16632972D02*
X5706908Y-16613924D01*
X5706908Y-16613924D02*
X5725955Y-16604400D01*
X5725955Y-16604400D02*
X5754527Y-16604400D01*
X5754527Y-16604400D02*
X5773574Y-16613924D01*
X5773574Y-16613924D02*
X5783098Y-16632972D01*
X5783098Y-16632972D02*
X5783098Y-16737734D01*
X5878336Y-16737734D02*
X5878336Y-16604400D01*
X5878336Y-16623448D02*
X5887860Y-16613924D01*
X5887860Y-16613924D02*
X5906908Y-16604400D01*
X5906908Y-16604400D02*
X5935479Y-16604400D01*
X5935479Y-16604400D02*
X5954527Y-16613924D01*
X5954527Y-16613924D02*
X5964051Y-16632972D01*
X5964051Y-16632972D02*
X5964051Y-16737734D01*
X5964051Y-16632972D02*
X5973574Y-16613924D01*
X5973574Y-16613924D02*
X5992622Y-16604400D01*
X5992622Y-16604400D02*
X6021193Y-16604400D01*
X6021193Y-16604400D02*
X6040241Y-16613924D01*
X6040241Y-16613924D02*
X6049765Y-16632972D01*
X6049765Y-16632972D02*
X6049765Y-16737734D01*
X6440241Y-16528210D02*
X6268813Y-16785353D01*
X6697384Y-16537734D02*
X6716432Y-16537734D01*
X6716432Y-16537734D02*
X6735479Y-16547258D01*
X6735479Y-16547258D02*
X6745003Y-16556781D01*
X6745003Y-16556781D02*
X6754527Y-16575829D01*
X6754527Y-16575829D02*
X6764051Y-16613924D01*
X6764051Y-16613924D02*
X6764051Y-16661543D01*
X6764051Y-16661543D02*
X6754527Y-16699638D01*
X6754527Y-16699638D02*
X6745003Y-16718686D01*
X6745003Y-16718686D02*
X6735479Y-16728210D01*
X6735479Y-16728210D02*
X6716432Y-16737734D01*
X6716432Y-16737734D02*
X6697384Y-16737734D01*
X6697384Y-16737734D02*
X6678336Y-16728210D01*
X6678336Y-16728210D02*
X6668813Y-16718686D01*
X6668813Y-16718686D02*
X6659289Y-16699638D01*
X6659289Y-16699638D02*
X6649765Y-16661543D01*
X6649765Y-16661543D02*
X6649765Y-16613924D01*
X6649765Y-16613924D02*
X6659289Y-16575829D01*
X6659289Y-16575829D02*
X6668813Y-16556781D01*
X6668813Y-16556781D02*
X6678336Y-16547258D01*
X6678336Y-16547258D02*
X6697384Y-16537734D01*
X6849765Y-16718686D02*
X6859289Y-16728210D01*
X6859289Y-16728210D02*
X6849765Y-16737734D01*
X6849765Y-16737734D02*
X6840241Y-16728210D01*
X6840241Y-16728210D02*
X6849765Y-16718686D01*
X6849765Y-16718686D02*
X6849765Y-16737734D01*
X6983098Y-16537734D02*
X7002146Y-16537734D01*
X7002146Y-16537734D02*
X7021194Y-16547258D01*
X7021194Y-16547258D02*
X7030717Y-16556781D01*
X7030717Y-16556781D02*
X7040241Y-16575829D01*
X7040241Y-16575829D02*
X7049765Y-16613924D01*
X7049765Y-16613924D02*
X7049765Y-16661543D01*
X7049765Y-16661543D02*
X7040241Y-16699638D01*
X7040241Y-16699638D02*
X7030717Y-16718686D01*
X7030717Y-16718686D02*
X7021194Y-16728210D01*
X7021194Y-16728210D02*
X7002146Y-16737734D01*
X7002146Y-16737734D02*
X6983098Y-16737734D01*
X6983098Y-16737734D02*
X6964051Y-16728210D01*
X6964051Y-16728210D02*
X6954527Y-16718686D01*
X6954527Y-16718686D02*
X6945003Y-16699638D01*
X6945003Y-16699638D02*
X6935479Y-16661543D01*
X6935479Y-16661543D02*
X6935479Y-16613924D01*
X6935479Y-16613924D02*
X6945003Y-16575829D01*
X6945003Y-16575829D02*
X6954527Y-16556781D01*
X6954527Y-16556781D02*
X6964051Y-16547258D01*
X6964051Y-16547258D02*
X6983098Y-16537734D01*
X7221194Y-16604400D02*
X7221194Y-16737734D01*
X7173575Y-16528210D02*
X7125956Y-16671067D01*
X7125956Y-16671067D02*
X7249765Y-16671067D01*
X7306908Y-16537734D02*
X7440241Y-16537734D01*
X7440241Y-16537734D02*
X7354527Y-16737734D01*
X7506908Y-16556781D02*
X7516432Y-16547258D01*
X7516432Y-16547258D02*
X7535479Y-16537734D01*
X7535479Y-16537734D02*
X7583098Y-16537734D01*
X7583098Y-16537734D02*
X7602146Y-16547258D01*
X7602146Y-16547258D02*
X7611670Y-16556781D01*
X7611670Y-16556781D02*
X7621194Y-16575829D01*
X7621194Y-16575829D02*
X7621194Y-16594877D01*
X7621194Y-16594877D02*
X7611670Y-16623448D01*
X7611670Y-16623448D02*
X7497384Y-16737734D01*
X7497384Y-16737734D02*
X7621194Y-16737734D01*
X7697384Y-16537734D02*
X7697384Y-16575829D01*
X7773575Y-16537734D02*
X7773575Y-16575829D01*
X8068813Y-16813924D02*
X8059289Y-16804400D01*
X8059289Y-16804400D02*
X8040241Y-16775829D01*
X8040241Y-16775829D02*
X8030718Y-16756781D01*
X8030718Y-16756781D02*
X8021194Y-16728210D01*
X8021194Y-16728210D02*
X8011670Y-16680591D01*
X8011670Y-16680591D02*
X8011670Y-16642496D01*
X8011670Y-16642496D02*
X8021194Y-16594877D01*
X8021194Y-16594877D02*
X8030718Y-16566305D01*
X8030718Y-16566305D02*
X8040241Y-16547258D01*
X8040241Y-16547258D02*
X8059289Y-16518686D01*
X8059289Y-16518686D02*
X8068813Y-16509162D01*
X8249765Y-16737734D02*
X8135479Y-16737734D01*
X8192622Y-16737734D02*
X8192622Y-16537734D01*
X8192622Y-16537734D02*
X8173575Y-16566305D01*
X8173575Y-16566305D02*
X8154527Y-16585353D01*
X8154527Y-16585353D02*
X8135479Y-16594877D01*
X8430718Y-16537734D02*
X8335479Y-16537734D01*
X8335479Y-16537734D02*
X8325956Y-16632972D01*
X8325956Y-16632972D02*
X8335479Y-16623448D01*
X8335479Y-16623448D02*
X8354527Y-16613924D01*
X8354527Y-16613924D02*
X8402146Y-16613924D01*
X8402146Y-16613924D02*
X8421194Y-16623448D01*
X8421194Y-16623448D02*
X8430718Y-16632972D01*
X8430718Y-16632972D02*
X8440241Y-16652019D01*
X8440241Y-16652019D02*
X8440241Y-16699638D01*
X8440241Y-16699638D02*
X8430718Y-16718686D01*
X8430718Y-16718686D02*
X8421194Y-16728210D01*
X8421194Y-16728210D02*
X8402146Y-16737734D01*
X8402146Y-16737734D02*
X8354527Y-16737734D01*
X8354527Y-16737734D02*
X8335479Y-16728210D01*
X8335479Y-16728210D02*
X8325956Y-16718686D01*
X8678337Y-16737734D02*
X8678337Y-16537734D01*
X8764051Y-16737734D02*
X8764051Y-16632972D01*
X8764051Y-16632972D02*
X8754527Y-16613924D01*
X8754527Y-16613924D02*
X8735480Y-16604400D01*
X8735480Y-16604400D02*
X8706908Y-16604400D01*
X8706908Y-16604400D02*
X8687861Y-16613924D01*
X8687861Y-16613924D02*
X8678337Y-16623448D01*
X8887861Y-16737734D02*
X8868813Y-16728210D01*
X8868813Y-16728210D02*
X8859289Y-16718686D01*
X8859289Y-16718686D02*
X8849765Y-16699638D01*
X8849765Y-16699638D02*
X8849765Y-16642496D01*
X8849765Y-16642496D02*
X8859289Y-16623448D01*
X8859289Y-16623448D02*
X8868813Y-16613924D01*
X8868813Y-16613924D02*
X8887861Y-16604400D01*
X8887861Y-16604400D02*
X8916432Y-16604400D01*
X8916432Y-16604400D02*
X8935480Y-16613924D01*
X8935480Y-16613924D02*
X8945003Y-16623448D01*
X8945003Y-16623448D02*
X8954527Y-16642496D01*
X8954527Y-16642496D02*
X8954527Y-16699638D01*
X8954527Y-16699638D02*
X8945003Y-16718686D01*
X8945003Y-16718686D02*
X8935480Y-16728210D01*
X8935480Y-16728210D02*
X8916432Y-16737734D01*
X8916432Y-16737734D02*
X8887861Y-16737734D01*
X9068813Y-16737734D02*
X9049765Y-16728210D01*
X9049765Y-16728210D02*
X9040242Y-16709162D01*
X9040242Y-16709162D02*
X9040242Y-16537734D01*
X9221194Y-16728210D02*
X9202146Y-16737734D01*
X9202146Y-16737734D02*
X9164051Y-16737734D01*
X9164051Y-16737734D02*
X9145003Y-16728210D01*
X9145003Y-16728210D02*
X9135480Y-16709162D01*
X9135480Y-16709162D02*
X9135480Y-16632972D01*
X9135480Y-16632972D02*
X9145003Y-16613924D01*
X9145003Y-16613924D02*
X9164051Y-16604400D01*
X9164051Y-16604400D02*
X9202146Y-16604400D01*
X9202146Y-16604400D02*
X9221194Y-16613924D01*
X9221194Y-16613924D02*
X9230718Y-16632972D01*
X9230718Y-16632972D02*
X9230718Y-16652019D01*
X9230718Y-16652019D02*
X9135480Y-16671067D01*
X9306908Y-16728210D02*
X9325956Y-16737734D01*
X9325956Y-16737734D02*
X9364051Y-16737734D01*
X9364051Y-16737734D02*
X9383099Y-16728210D01*
X9383099Y-16728210D02*
X9392623Y-16709162D01*
X9392623Y-16709162D02*
X9392623Y-16699638D01*
X9392623Y-16699638D02*
X9383099Y-16680591D01*
X9383099Y-16680591D02*
X9364051Y-16671067D01*
X9364051Y-16671067D02*
X9335480Y-16671067D01*
X9335480Y-16671067D02*
X9316432Y-16661543D01*
X9316432Y-16661543D02*
X9306908Y-16642496D01*
X9306908Y-16642496D02*
X9306908Y-16632972D01*
X9306908Y-16632972D02*
X9316432Y-16613924D01*
X9316432Y-16613924D02*
X9335480Y-16604400D01*
X9335480Y-16604400D02*
X9364051Y-16604400D01*
X9364051Y-16604400D02*
X9383099Y-16613924D01*
X9459289Y-16813924D02*
X9468813Y-16804400D01*
X9468813Y-16804400D02*
X9487861Y-16775829D01*
X9487861Y-16775829D02*
X9497384Y-16756781D01*
X9497384Y-16756781D02*
X9506908Y-16728210D01*
X9506908Y-16728210D02*
X9516432Y-16680591D01*
X9516432Y-16680591D02*
X9516432Y-16642496D01*
X9516432Y-16642496D02*
X9506908Y-16594877D01*
X9506908Y-16594877D02*
X9497384Y-16566305D01*
X9497384Y-16566305D02*
X9487861Y-16547258D01*
X9487861Y-16547258D02*
X9468813Y-16518686D01*
X9468813Y-16518686D02*
X9459289Y-16509162D01*
X9821194Y-16813924D02*
X9811670Y-16804400D01*
X9811670Y-16804400D02*
X9792623Y-16775829D01*
X9792623Y-16775829D02*
X9783099Y-16756781D01*
X9783099Y-16756781D02*
X9773575Y-16728210D01*
X9773575Y-16728210D02*
X9764051Y-16680591D01*
X9764051Y-16680591D02*
X9764051Y-16642496D01*
X9764051Y-16642496D02*
X9773575Y-16594877D01*
X9773575Y-16594877D02*
X9783099Y-16566305D01*
X9783099Y-16566305D02*
X9792623Y-16547258D01*
X9792623Y-16547258D02*
X9811670Y-16518686D01*
X9811670Y-16518686D02*
X9821194Y-16509162D01*
X9897384Y-16604400D02*
X9897384Y-16737734D01*
X9897384Y-16623448D02*
X9906908Y-16613924D01*
X9906908Y-16613924D02*
X9925956Y-16604400D01*
X9925956Y-16604400D02*
X9954527Y-16604400D01*
X9954527Y-16604400D02*
X9973575Y-16613924D01*
X9973575Y-16613924D02*
X9983099Y-16632972D01*
X9983099Y-16632972D02*
X9983099Y-16737734D01*
X10106908Y-16737734D02*
X10087861Y-16728210D01*
X10087861Y-16728210D02*
X10078337Y-16718686D01*
X10078337Y-16718686D02*
X10068813Y-16699638D01*
X10068813Y-16699638D02*
X10068813Y-16642496D01*
X10068813Y-16642496D02*
X10078337Y-16623448D01*
X10078337Y-16623448D02*
X10087861Y-16613924D01*
X10087861Y-16613924D02*
X10106908Y-16604400D01*
X10106908Y-16604400D02*
X10135480Y-16604400D01*
X10135480Y-16604400D02*
X10154527Y-16613924D01*
X10154527Y-16613924D02*
X10164051Y-16623448D01*
X10164051Y-16623448D02*
X10173575Y-16642496D01*
X10173575Y-16642496D02*
X10173575Y-16699638D01*
X10173575Y-16699638D02*
X10164051Y-16718686D01*
X10164051Y-16718686D02*
X10154527Y-16728210D01*
X10154527Y-16728210D02*
X10135480Y-16737734D01*
X10135480Y-16737734D02*
X10106908Y-16737734D01*
X10230718Y-16604400D02*
X10306908Y-16604400D01*
X10259289Y-16537734D02*
X10259289Y-16709162D01*
X10259289Y-16709162D02*
X10268813Y-16728210D01*
X10268813Y-16728210D02*
X10287861Y-16737734D01*
X10287861Y-16737734D02*
X10306908Y-16737734D01*
X10525956Y-16604400D02*
X10525956Y-16804400D01*
X10525956Y-16613924D02*
X10545004Y-16604400D01*
X10545004Y-16604400D02*
X10583099Y-16604400D01*
X10583099Y-16604400D02*
X10602146Y-16613924D01*
X10602146Y-16613924D02*
X10611670Y-16623448D01*
X10611670Y-16623448D02*
X10621194Y-16642496D01*
X10621194Y-16642496D02*
X10621194Y-16699638D01*
X10621194Y-16699638D02*
X10611670Y-16718686D01*
X10611670Y-16718686D02*
X10602146Y-16728210D01*
X10602146Y-16728210D02*
X10583099Y-16737734D01*
X10583099Y-16737734D02*
X10545004Y-16737734D01*
X10545004Y-16737734D02*
X10525956Y-16728210D01*
X10735480Y-16737734D02*
X10716432Y-16728210D01*
X10716432Y-16728210D02*
X10706908Y-16709162D01*
X10706908Y-16709162D02*
X10706908Y-16537734D01*
X10897385Y-16737734D02*
X10897385Y-16632972D01*
X10897385Y-16632972D02*
X10887861Y-16613924D01*
X10887861Y-16613924D02*
X10868813Y-16604400D01*
X10868813Y-16604400D02*
X10830718Y-16604400D01*
X10830718Y-16604400D02*
X10811670Y-16613924D01*
X10897385Y-16728210D02*
X10878337Y-16737734D01*
X10878337Y-16737734D02*
X10830718Y-16737734D01*
X10830718Y-16737734D02*
X10811670Y-16728210D01*
X10811670Y-16728210D02*
X10802146Y-16709162D01*
X10802146Y-16709162D02*
X10802146Y-16690115D01*
X10802146Y-16690115D02*
X10811670Y-16671067D01*
X10811670Y-16671067D02*
X10830718Y-16661543D01*
X10830718Y-16661543D02*
X10878337Y-16661543D01*
X10878337Y-16661543D02*
X10897385Y-16652019D01*
X10964051Y-16604400D02*
X11040242Y-16604400D01*
X10992623Y-16537734D02*
X10992623Y-16709162D01*
X10992623Y-16709162D02*
X11002146Y-16728210D01*
X11002146Y-16728210D02*
X11021194Y-16737734D01*
X11021194Y-16737734D02*
X11040242Y-16737734D01*
X11183099Y-16728210D02*
X11164051Y-16737734D01*
X11164051Y-16737734D02*
X11125956Y-16737734D01*
X11125956Y-16737734D02*
X11106908Y-16728210D01*
X11106908Y-16728210D02*
X11097385Y-16709162D01*
X11097385Y-16709162D02*
X11097385Y-16632972D01*
X11097385Y-16632972D02*
X11106908Y-16613924D01*
X11106908Y-16613924D02*
X11125956Y-16604400D01*
X11125956Y-16604400D02*
X11164051Y-16604400D01*
X11164051Y-16604400D02*
X11183099Y-16613924D01*
X11183099Y-16613924D02*
X11192623Y-16632972D01*
X11192623Y-16632972D02*
X11192623Y-16652019D01*
X11192623Y-16652019D02*
X11097385Y-16671067D01*
X11364051Y-16737734D02*
X11364051Y-16537734D01*
X11364051Y-16728210D02*
X11345004Y-16737734D01*
X11345004Y-16737734D02*
X11306908Y-16737734D01*
X11306908Y-16737734D02*
X11287861Y-16728210D01*
X11287861Y-16728210D02*
X11278337Y-16718686D01*
X11278337Y-16718686D02*
X11268813Y-16699638D01*
X11268813Y-16699638D02*
X11268813Y-16642496D01*
X11268813Y-16642496D02*
X11278337Y-16623448D01*
X11278337Y-16623448D02*
X11287861Y-16613924D01*
X11287861Y-16613924D02*
X11306908Y-16604400D01*
X11306908Y-16604400D02*
X11345004Y-16604400D01*
X11345004Y-16604400D02*
X11364051Y-16613924D01*
X11440242Y-16813924D02*
X11449765Y-16804400D01*
X11449765Y-16804400D02*
X11468813Y-16775829D01*
X11468813Y-16775829D02*
X11478337Y-16756781D01*
X11478337Y-16756781D02*
X11487861Y-16728210D01*
X11487861Y-16728210D02*
X11497384Y-16680591D01*
X11497384Y-16680591D02*
X11497384Y-16642496D01*
X11497384Y-16642496D02*
X11487861Y-16594877D01*
X11487861Y-16594877D02*
X11478337Y-16566305D01*
X11478337Y-16566305D02*
X11468813Y-16547258D01*
X11468813Y-16547258D02*
X11449765Y-16518686D01*
X11449765Y-16518686D02*
X11440242Y-16509162D01*
M02*
