M48
; DRILL file {KiCad 8.0.5-dirty} date 2024-12-31T09:31:43-0800
; FORMAT={-:-/ absolute / inch / decimal}
; #@! TF.CreationDate,2024-12-31T09:31:43-08:00
; #@! TF.GenerationSoftware,Kicad,Pcbnew,8.0.5-dirty
; #@! TF.FileFunction,Plated,1,4,PTH
FMAT,2
INCH
; #@! TA.AperFunction,Plated,PTH,ViaDrill
T1C0.0118
; #@! TA.AperFunction,Plated,PTH,ComponentDrill
T2C0.0157
; #@! TA.AperFunction,Plated,PTH,ComponentDrill
T3C0.0256
; #@! TA.AperFunction,Plated,PTH,ComponentDrill
T4C0.0315
; #@! TA.AperFunction,Plated,PTH,ComponentDrill
T5C0.0394
; #@! TA.AperFunction,Plated,PTH,ComponentDrill
T6C0.0433
; #@! TA.AperFunction,Plated,PTH,ComponentDrill
T7C0.1260
%
G90
G05
T1
X1.5945Y-2.4508
X1.5945Y-2.5797
X1.5945Y-2.8839
X1.5945Y-2.9823
X1.5945Y-3.2874
X1.5945Y-3.4154
X1.5945Y-3.5433
X1.5945Y-3.7598
X1.5945Y-3.8583
X1.5945Y-3.9665
X1.5945Y-4.2874
X1.5945Y-4.3858
X1.5945Y-4.4843
X1.5945Y-4.6654
X1.5945Y-4.7638
X1.5945Y-4.8622
X1.5945Y-4.9705
X1.5945Y-5.0787
X1.5945Y-5.1772
X1.5945Y-5.2756
X1.5945Y-5.374
X1.5945Y-5.4724
X1.5945Y-5.5709
X1.5945Y-5.6791
X1.5945Y-5.7874
X1.5945Y-5.8858
X1.5945Y-5.9744
X1.5945Y-6.0925
X1.7953Y-3.9134
X2.0177Y-4.7047
X2.0335Y-2.4508
X2.126Y-2.4508
X2.1654Y-4.3701
X2.2244Y-2.4508
X2.2539Y-5.9744
X2.3228Y-2.4508
X2.3524Y-5.9744
X2.3622Y-5.1673
X2.372Y-4.9902
X2.3819Y-5.3106
X2.4132Y-5.7282
X2.4134Y-5.8327
X2.4213Y-2.4508
X2.4508Y-5.9744
X2.4898Y-5.7307
X2.4921Y-3.937
X2.5276Y-4.6969
X2.5295Y-2.4508
X2.5492Y-4.9311
X2.5591Y-5.1969
X2.5591Y-5.9744
X2.5886Y-5.0787
X2.6378Y-2.4508
X2.6575Y-5.9744
X2.6772Y-4.3898
X2.7323Y-4.0906
X2.7362Y-2.4508
X2.7559Y-5.9744
X2.7854Y-2.7756
X2.7953Y-4.1417
X2.8346Y-2.4508
X2.8391Y-3.1791
X2.8543Y-5.9744
X2.874Y-4.6457
X2.9331Y-2.4508
X2.9331Y-4.0984
X2.9528Y-5.9744
X2.9941Y-2.5138
X3.0315Y-5.5315
X3.0354Y-4.3406
X3.0354Y-4.3799
X3.0512Y-5.9744
X3.061Y-5.502
X3.063Y-2.5827
X3.0748Y-4.3602
X3.0906Y-5.5315
X3.0979Y-3.6882
X3.1077Y-5.462
X3.1142Y-4.3406
X3.1142Y-4.3799
X3.1201Y-5.502
X3.1339Y-2.6555
X3.1496Y-5.5315
X3.1836Y-3.831
X3.1845Y-3.6075
X3.2008Y-2.7205
X3.2146Y-5.1004
X3.2579Y-4.0846
X3.2598Y-2.7795
X3.2972Y-5.3839
X3.2972Y-5.4626
X3.2972Y-5.5413
X3.2972Y-5.6201
X3.3031Y-4.4567
X3.3105Y-3.4815
X3.3164Y-3.7335
X3.3169Y-5.3445
X3.3169Y-5.4232
X3.3169Y-5.502
X3.3169Y-5.5807
X3.3189Y-2.8386
X3.3361Y-3.6843
X3.3361Y-3.7532
X3.3366Y-4.0846
X3.3366Y-5.3051
X3.3366Y-5.3839
X3.3366Y-5.4626
X3.3366Y-5.5413
X3.3366Y-5.6201
X3.3425Y-6.0512
X3.3563Y-5.0492
X3.3563Y-5.3445
X3.3617Y-3.7532
X3.376Y-5.3051
X3.378Y-2.8976
X3.3853Y-3.6843
X3.3873Y-3.7532
X3.3957Y-5.3445
X3.407Y-3.7335
X3.4144Y-5.4616
X3.4144Y-5.501
X3.4144Y-5.5404
X3.4154Y-5.3051
X3.435Y-5.3445
X3.4385Y-3.5997
X3.4409Y-2.9528
X3.4537Y-5.4616
X3.4537Y-5.501
X3.4537Y-5.5404
X3.4547Y-5.3051
X3.4744Y-5.3445
X3.4744Y-5.9646
X3.4897Y-3.7926
X3.4931Y-5.4616
X3.4931Y-5.501
X3.4931Y-5.5404
X3.4941Y-5.3051
X3.5138Y-5.3445
X3.5325Y-5.4616
X3.5325Y-5.501
X3.5325Y-5.5404
X3.5335Y-5.3051
X3.5394Y-2.9528
X3.5531Y-5.3445
X3.5728Y-4.8228
X3.5728Y-5.3051
X3.5925Y-5.3445
X3.6024Y-4.0846
X3.6122Y-5.3051
X3.6122Y-5.3839
X3.6122Y-5.4626
X3.6122Y-5.5413
X3.6156Y-3.5982
X3.6156Y-3.7886
X3.6301Y-5.9565
X3.6319Y-2.9528
X3.6319Y-5.3445
X3.6319Y-5.4232
X3.6319Y-5.502
X3.6319Y-5.5807
X3.6417Y-4.7539
X3.6516Y-5.3839
X3.6516Y-5.4626
X3.6516Y-5.5413
X3.6531Y-3.6843
X3.6575Y-5.9213
X3.6909Y-4.0846
X3.7106Y-4.685
X3.7303Y-2.9528
X3.7648Y-5.9567
X3.7874Y-5.1988
X3.7894Y-5.4626
X3.7894Y-5.5807
X3.7992Y-5.9213
X3.7992Y-6.0315
X3.8287Y-2.9528
X3.8583Y-4.4587
X3.8583Y-5.0827
X3.9144Y-5.9596
X3.9173Y-4.0846
X3.9173Y-4.2323
X3.9173Y-5.3445
X3.9173Y-5.4626
X3.9173Y-5.8425
X3.9272Y-2.9528
X3.937Y-5.6398
X3.9921Y-5.1988
X4.0039Y-5.7283
X4.0059Y-4.3996
X4.0157Y-4.0846
X4.0157Y-4.2323
X4.0256Y-5.5512
X4.0354Y-2.9528
X4.0748Y-4.3406
X4.0945Y-5.8366
X4.0945Y-5.935
X4.0945Y-6.0315
X4.1142Y-4.5079
X4.1142Y-5.4626
X4.1437Y-2.9528
X4.1609Y-5.0763
X4.1634Y-3.1594
X4.1634Y-4.5571
X4.1831Y-3.7008
X4.1831Y-3.9469
X4.1831Y-4.0846
X4.1831Y-4.2323
X4.1831Y-4.3602
X4.1831Y-4.8228
X4.189Y-4.4449
X4.2028Y-5.374
X4.2126Y-5.1575
X4.2224Y-3.0807
X4.2224Y-4.6161
X4.2224Y-5.8366
X4.2224Y-5.935
X4.2224Y-6.0335
X4.2421Y-2.9528
X4.2421Y-4.7638
X4.2717Y-4.5709
X4.2805Y-5.247
X4.2815Y-4.6752
X4.311Y-3.3071
X4.3209Y-4.8228
X4.3268Y-4.5197
X4.3307Y-4.626
X4.3366Y-5.185
X4.3406Y-2.9528
X4.3406Y-3.4449
X4.3406Y-3.9469
X4.3406Y-4.0846
X4.3406Y-4.2323
X4.3406Y-4.3602
X4.3425Y-4.4449
X4.3504Y-5.1378
X4.3701Y-5.6398
X4.3799Y-3.2382
X4.3799Y-4.5768
X4.3799Y-4.7638
X4.3909Y-5.0028
X4.4045Y-3.8937
X4.4102Y-5.0278
X4.4193Y-6.0315
X4.4213Y-4.7165
X4.4272Y-4.8593
X4.439Y-2.9528
X4.4488Y-5.5512
X4.4539Y-4.8877
X4.4606Y-4.8465
X4.4669Y-4.9169
X4.4685Y-3.6122
X4.4685Y-3.7894
X4.4685Y-3.9469
X4.4685Y-4.0846
X4.4685Y-4.2323
X4.4685Y-4.3602
X4.4685Y-4.498
X4.4685Y-4.6732
X4.4751Y-4.9473
X4.5016Y-4.9679
X4.5236Y-6.0315
X4.5276Y-5.4626
X4.5344Y-4.9685
X4.5374Y-3.3957
X4.5472Y-2.9528
X4.5472Y-4.8465
X4.5634Y-5.0098
X4.5866Y-4.5571
X4.6024Y-5.1063
X4.6043Y-5.0161
X4.6063Y-4.0846
X4.6063Y-4.2323
X4.6063Y-4.3602
X4.626Y-3.6122
X4.626Y-3.7894
X4.6535Y-4.7756
X4.6555Y-2.9528
X4.6713Y-6.0335
X4.6752Y-4.8425
X4.685Y-3.2283
X4.7052Y-5.2641
X4.7111Y-5.3755
X4.7215Y-5.2913
X4.7218Y-5.0201
X4.7264Y-5.126
X4.7303Y-5.5276
X4.7343Y-5.1614
X4.7362Y-5.2539
X4.7454Y-4.9991
X4.7539Y-2.9528
X4.7539Y-3.5531
X4.7539Y-4.2323
X4.7577Y-5.0772
X4.7664Y-5.1896
X4.78Y-5.0536
X4.7844Y-4.4793
X4.7884Y-4.6543
X4.7884Y-5.1033
X4.7958Y-5.3322
X4.8031Y-4.3209
X4.8031Y-4.3701
X4.8031Y-4.4291
X4.8051Y-5.5276
X4.813Y-6.0335
X4.8268Y-5.1339
X4.8268Y-5.2047
X4.8268Y-5.2756
X4.827Y-5.3364
X4.8307Y-5.8543
X4.8524Y-2.9528
X4.8585Y-5.3356
X4.8622Y-4.3209
X4.8622Y-4.4291
X4.8819Y-4.0846
X4.8898Y-5.1339
X4.8898Y-5.2047
X4.8898Y-5.2756
X4.8904Y-5.3361
X4.9055Y-6.0079
X4.9213Y-4.1831
X4.9219Y-5.3361
X4.9331Y-4.4774
X4.9508Y-2.9528
X4.9528Y-5.1339
X4.9528Y-5.2047
X4.9528Y-5.2756
X4.9534Y-5.3361
X4.9537Y-4.6693
X4.9665Y-4.7402
X4.9685Y-6.0079
X4.9849Y-5.3361
X4.9903Y-4.9155
X4.9991Y-4.8084
X5.0Y-4.2323
X5.0Y-4.3602
X5.0157Y-5.0379
X5.0157Y-5.1339
X5.0157Y-5.2047
X5.0157Y-5.2756
X5.0164Y-5.3361
X5.0287Y-4.7977
X5.0472Y-5.0379
X5.0479Y-5.3361
X5.0591Y-2.9528
X5.0689Y-3.7894
X5.0689Y-4.0846
X5.0689Y-4.2323
X5.0689Y-4.3602
X5.0709Y-6.0083
X5.0787Y-5.1339
X5.0787Y-5.2047
X5.0787Y-5.2756
X5.0794Y-5.3361
X5.0983Y-4.8051
X5.102Y-4.9405
X5.1024Y-4.9031
X5.1299Y-4.6693
X5.1378Y-5.4626
X5.1391Y-5.2596
X5.1395Y-5.0706
X5.1395Y-5.102
X5.1395Y-5.1336
X5.1396Y-5.1651
X5.1396Y-5.1966
X5.1396Y-5.2281
X5.1396Y-5.2911
X5.1654Y-6.0079
X5.1673Y-2.9528
X5.1673Y-5.3819
X5.1969Y-3.7894
X5.1969Y-3.9469
X5.1969Y-4.0846
X5.1969Y-4.2323
X5.1969Y-4.3602
X5.2461Y-5.6201
X5.2579Y-4.5138
X5.2598Y-4.6299
X5.2598Y-4.7421
X5.2657Y-2.9528
X5.2717Y-5.3228
X5.2854Y-3.9469
X5.2854Y-4.0846
X5.2854Y-4.3602
X5.2972Y-4.5728
X5.3642Y-2.9528
X5.3661Y-6.0079
X5.3839Y-3.9567
X5.4035Y-4.6693
X5.4055Y-5.0886
X5.4134Y-5.4626
X5.4134Y-5.6201
X5.4134Y-5.7776
X5.4626Y-2.9528
X5.4921Y-5.1575
X5.5472Y-4.5157
X5.5689Y-6.0079
X5.5709Y-2.9528
X5.6004Y-4.8917
X5.6004Y-5.2559
X5.6102Y-3.5138
X5.6693Y-5.6201
X5.6693Y-5.7776
X5.6693Y-5.9843
X5.6831Y-4.3799
X5.689Y-2.9528
X5.7067Y-4.5098
X5.7067Y-4.7776
X5.7087Y-5.3642
X5.7972Y-2.9528
X5.8169Y-5.7776
X5.8169Y-5.9843
X5.8957Y-2.9528
X5.9547Y-5.2756
X5.9646Y-6.0079
X5.9941Y-2.9528
X6.0285Y-4.9016
X6.0925Y-2.9528
X6.122Y-5.935
X6.122Y-6.0138
X6.1614Y-5.9744
X6.2008Y-2.9528
X6.2008Y-5.935
X6.2008Y-6.0138
X6.2697Y-2.9528
X6.3189Y-3.002
X6.3681Y-3.0512
X6.3681Y-3.1535
X6.3681Y-3.2598
X6.3681Y-3.374
X6.3681Y-3.4823
X6.3681Y-3.5906
X6.3681Y-3.689
X6.3681Y-3.7874
X6.3681Y-3.8858
X6.3681Y-3.9941
X6.3681Y-4.0827
X6.3681Y-4.1909
X6.3681Y-4.2894
X6.3681Y-4.3878
X6.3681Y-4.4862
X6.3681Y-4.5945
X6.3681Y-4.7028
X6.3681Y-4.8012
X6.3681Y-4.8996
X6.3681Y-4.998
X6.3681Y-5.1063
X6.3681Y-5.2146
X6.3681Y-5.3224
X6.3681Y-5.4366
X6.3681Y-5.5547
X6.3681Y-5.663
X6.3681Y-5.7614
X6.3681Y-5.8598
T3
X6.2402Y-3.061
X6.2402Y-3.111
X6.2402Y-3.161
T4
X2.5866Y-4.6063
X2.5886Y-4.2126
X2.628Y-3.1791
X2.628Y-3.2579
X2.628Y-3.4547
X2.628Y-3.5335
X2.628Y-3.6811
X2.628Y-3.7598
X2.628Y-3.9567
X2.628Y-4.0354
X2.6654Y-4.6063
X2.6673Y-4.2126
X2.7913Y-5.748
X2.7913Y-5.8268
X2.8583Y-4.1772
X2.8583Y-4.2559
X3.0079Y-5.7459
X3.0079Y-5.8246
X3.2255Y-5.7461
X3.2255Y-5.8248
X3.7195Y-5.7461
X3.7195Y-5.8248
X3.8912Y-3.8851
X3.8932Y-3.5997
X3.97Y-3.8851
X3.9719Y-3.5997
X4.8622Y-3.878
X4.8632Y-3.5522
X4.9409Y-3.878
X4.9419Y-3.5522
X5.374Y-3.7205
X5.4528Y-3.7205
X6.1358Y-5.6673
X6.1358Y-5.7461
T5
X1.8754Y-5.1524
X1.8754Y-5.2614
X1.8754Y-5.3705
X1.8754Y-5.4795
X1.8754Y-5.5886
X1.8754Y-5.6976
X1.8754Y-5.8067
X1.9872Y-5.0978
X1.9872Y-5.2069
X1.9872Y-5.3159
X1.9872Y-5.425
X1.9872Y-5.5341
X1.9872Y-5.6431
X1.9872Y-5.7522
X1.9872Y-5.8612
X2.0374Y-3.8161
X2.0374Y-3.9145
X2.0374Y-4.0129
X2.1358Y-3.8161
X2.1358Y-3.9145
X2.1358Y-4.0129
X2.3504Y-3.263
X2.3504Y-3.363
X2.3504Y-3.463
X2.3504Y-3.563
X2.3524Y-2.7807
X2.3524Y-2.8807
X2.3524Y-2.9807
X2.3524Y-3.0807
X4.3829Y-3.0118
X4.4829Y-3.0118
X4.5829Y-3.0118
X4.6829Y-3.0118
X4.9024Y-3.0118
X4.9024Y-3.1118
X5.0024Y-3.0118
X5.0024Y-3.1118
X5.1024Y-3.0118
X5.1024Y-3.1118
X5.2024Y-3.0118
X5.2024Y-3.1118
X5.3024Y-3.0118
X5.3024Y-3.1118
X5.4024Y-3.0118
X5.4024Y-3.1118
X5.5024Y-3.0118
X5.5024Y-3.1118
X5.6024Y-3.0118
X5.6024Y-3.1118
X5.7024Y-3.0118
X5.7024Y-3.1118
X5.8024Y-3.0118
X5.8024Y-3.1118
X5.9024Y-3.0118
X5.9024Y-3.1118
X6.0024Y-3.0118
X6.0024Y-3.1118
X6.1024Y-3.0118
X6.1024Y-3.1118
X6.1402Y-5.2331
X6.1402Y-5.3331
X6.1402Y-5.4331
X6.2402Y-5.2331
X6.2402Y-5.3331
X6.2402Y-5.4331
T7
X1.9313Y-4.824
X1.9313Y-6.135
T2
G00X1.7343Y-2.9075
M15
G01X1.7343Y-2.9469
M16
G05
G00X1.7343Y-3.3996
M15
G01X1.7343Y-3.439
M16
G05
G00X1.7343Y-4.3898
M15
G01X1.7343Y-4.4291
M16
G05
G00X1.9508Y-2.7303
M15
G01X1.9114Y-2.7303
M16
G05
G00X1.9114Y-3.124
M15
G01X1.9508Y-3.124
M16
G05
G00X1.9508Y-3.2224
M15
G01X1.9114Y-3.2224
M16
G05
G00X1.9114Y-3.6161
M15
G01X1.9508Y-3.6161
M16
G05
G00X1.9508Y-4.2126
M15
G01X1.9114Y-4.2126
M16
G05
G00X1.9114Y-4.6063
M15
G01X1.9508Y-4.6063
M16
G05
T4
G00X1.9449Y-4.311
M15
G01X1.9173Y-4.311
M16
G05
G00X1.9173Y-4.5079
M15
G01X1.9449Y-4.5079
M16
G05
T6
G00X2.2657Y-3.7413
M15
G01X2.2657Y-3.7137
M16
G05
G00X2.2657Y-4.1153
M15
G01X2.2657Y-4.0877
M16
G05
M30
