%TF.GenerationSoftware,KiCad,Pcbnew,8.0.5-dirty*%
%TF.CreationDate,2024-12-31T09:31:42-08:00*%
%TF.ProjectId,sisyphus-pci,73697379-7068-4757-932d-7063692e6b69,rev?*%
%TF.SameCoordinates,Original*%
%TF.FileFunction,Soldermask,Bot*%
%TF.FilePolarity,Negative*%
%FSLAX46Y46*%
G04 Gerber Fmt 4.6, Leading zero omitted, Abs format (unit mm)*
G04 Created by KiCad (PCBNEW 8.0.5-dirty) date 2024-12-31 09:31:42*
%MOMM*%
%LPD*%
G01*
G04 APERTURE LIST*
G04 Aperture macros list*
%AMRoundRect*
0 Rectangle with rounded corners*
0 $1 Rounding radius*
0 $2 $3 $4 $5 $6 $7 $8 $9 X,Y pos of 4 corners*
0 Add a 4 corners polygon primitive as box body*
4,1,4,$2,$3,$4,$5,$6,$7,$8,$9,$2,$3,0*
0 Add four circle primitives for the rounded corners*
1,1,$1+$1,$2,$3*
1,1,$1+$1,$4,$5*
1,1,$1+$1,$6,$7*
1,1,$1+$1,$8,$9*
0 Add four rect primitives between the rounded corners*
20,1,$1+$1,$2,$3,$4,$5,0*
20,1,$1+$1,$4,$5,$6,$7,0*
20,1,$1+$1,$6,$7,$8,$9,0*
20,1,$1+$1,$8,$9,$2,$3,0*%
G04 Aperture macros list end*
%ADD10C,2.450000*%
%ADD11C,1.200000*%
%ADD12O,2.200000X1.200000*%
%ADD13O,1.200000X2.200000*%
%ADD14R,1.800000X1.800000*%
%ADD15C,1.800000*%
%ADD16RoundRect,0.500000X0.500000X1.000000X-0.500000X1.000000X-0.500000X-1.000000X0.500000X-1.000000X0*%
%ADD17R,1.600000X1.600000*%
%ADD18C,1.600000*%
%ADD19R,1.700000X1.700000*%
%ADD20O,1.700000X1.700000*%
%ADD21R,1.000000X1.000000*%
%ADD22O,1.000000X1.000000*%
%ADD23R,1.020000X4.570000*%
%ADD24R,0.510000X0.760000*%
%ADD25C,4.000000*%
%ADD26O,2.300000X1.600000*%
%ADD27O,2.500000X1.600000*%
G04 APERTURE END LIST*
D10*
X44825000Y-64500000D02*
G75*
G02*
X42375000Y-64500000I-1225000J0D01*
G01*
X42375000Y-64500000D02*
G75*
G02*
X44825000Y-64500000I1225000J0D01*
G01*
D11*
%TO.C,J9*%
X44050000Y-81850000D03*
X41550000Y-81850000D03*
X49050000Y-86850000D03*
X44050000Y-91850000D03*
X41550000Y-91850000D03*
D12*
X49050000Y-81850000D03*
D13*
X44050000Y-86850000D03*
D12*
X49050000Y-91850000D03*
%TD*%
D14*
%TO.C,RV1*%
X51750000Y-96928238D03*
D15*
X51750000Y-99428238D03*
X51750000Y-101928238D03*
X54250000Y-96928238D03*
X54250000Y-99428238D03*
X54250000Y-101928238D03*
D16*
X57550000Y-94678238D03*
X57550000Y-104178238D03*
%TD*%
D17*
%TO.C,C41*%
X66750000Y-93500000D03*
D18*
X66750000Y-95500000D03*
%TD*%
D17*
%TO.C,C61*%
X70900000Y-146000000D03*
D18*
X70900000Y-148000000D03*
%TD*%
D19*
%TO.C,J3*%
X111324701Y-76500000D03*
D20*
X113864701Y-76500000D03*
X116404701Y-76500000D03*
X118944701Y-76500000D03*
%TD*%
D17*
%TO.C,C56*%
X76400000Y-145944888D03*
D18*
X76400000Y-147944888D03*
%TD*%
D11*
%TO.C,J6*%
X44050000Y-69350000D03*
X41550000Y-69350000D03*
X49050000Y-74350000D03*
X44050000Y-79350000D03*
X41550000Y-79350000D03*
D12*
X49050000Y-69350000D03*
D13*
X44050000Y-74350000D03*
D12*
X49050000Y-79350000D03*
%TD*%
D17*
%TO.C,C65*%
X66750000Y-80750000D03*
D18*
X66750000Y-82750000D03*
%TD*%
D17*
%TO.C,C28*%
X125500000Y-98500000D03*
D18*
X123500000Y-98500000D03*
%TD*%
D21*
%TO.C,JP1*%
X158500000Y-77750000D03*
D22*
X158500000Y-79020000D03*
X158500000Y-80290000D03*
%TD*%
D17*
%TO.C,C47*%
X94475000Y-145950140D03*
D18*
X94475000Y-147950140D03*
%TD*%
D17*
%TO.C,C57*%
X72600000Y-106100000D03*
D18*
X72600000Y-108100000D03*
%TD*%
D20*
%TO.C,J4*%
X124520000Y-79040000D03*
X124520000Y-76500000D03*
X127060000Y-79040000D03*
X127060000Y-76500000D03*
X129600000Y-79040000D03*
X129600000Y-76500000D03*
X132140000Y-79040000D03*
X132140000Y-76500000D03*
X134680000Y-79040000D03*
X134680000Y-76500000D03*
X137220000Y-79040000D03*
X137220000Y-76500000D03*
X139760000Y-79040000D03*
X139760000Y-76500000D03*
X142300000Y-79040000D03*
X142300000Y-76500000D03*
X144840000Y-79040000D03*
X144840000Y-76500000D03*
X147380000Y-79040000D03*
X147380000Y-76500000D03*
X149920000Y-79040000D03*
X149920000Y-76500000D03*
X152460000Y-79040000D03*
X152460000Y-76500000D03*
X155000000Y-79040000D03*
D19*
X155000000Y-76500000D03*
%TD*%
%TO.C,J5*%
X59750000Y-78250000D03*
D20*
X59750000Y-75710000D03*
X59750000Y-73170000D03*
X59750000Y-70630000D03*
%TD*%
D17*
%TO.C,C45*%
X100837500Y-98681250D03*
D18*
X98837500Y-98681250D03*
%TD*%
D17*
%TO.C,C46*%
X155850000Y-145950140D03*
D18*
X155850000Y-143950140D03*
%TD*%
D17*
%TO.C,C42*%
X66750000Y-100500000D03*
D18*
X66750000Y-102500000D03*
%TD*%
D23*
%TO.C,J1*%
X81120000Y-156475000D03*
D24*
X81120000Y-159135000D03*
D23*
X82390000Y-156475000D03*
D24*
X82390000Y-159135000D03*
D23*
X83650000Y-156475000D03*
D24*
X83650000Y-159135000D03*
D23*
X84930000Y-156475000D03*
D24*
X84930000Y-159135000D03*
D23*
X86200000Y-156475000D03*
D24*
X86200000Y-159135000D03*
D23*
X87470000Y-156475000D03*
D24*
X87470000Y-159135000D03*
D23*
X88740000Y-156475000D03*
D24*
X88740000Y-159135000D03*
D23*
X90010000Y-156475000D03*
D24*
X90010000Y-159135000D03*
D23*
X91280000Y-156475000D03*
D24*
X91280000Y-159135000D03*
D23*
X92550000Y-156475000D03*
D24*
X92550000Y-159135000D03*
D23*
X93820000Y-156475000D03*
D24*
X93820000Y-159135000D03*
D23*
X95080000Y-156475000D03*
D24*
X95080000Y-159135000D03*
D23*
X96360000Y-156475000D03*
D24*
X96360000Y-159135000D03*
D23*
X97630000Y-156475000D03*
D24*
X97630000Y-159135000D03*
D23*
X98900000Y-156475000D03*
D24*
X98900000Y-159135000D03*
D23*
X100170000Y-156475000D03*
D24*
X100170000Y-159135000D03*
D23*
X101440000Y-156475000D03*
D24*
X101440000Y-159135000D03*
D23*
X102710000Y-156475000D03*
D24*
X102710000Y-159135000D03*
D23*
X103970000Y-156475000D03*
D24*
X103970000Y-159135000D03*
D23*
X105250000Y-156475000D03*
D24*
X105250000Y-159135000D03*
D23*
X106510000Y-156475000D03*
D24*
X106510000Y-159135000D03*
D23*
X107790000Y-156475000D03*
D24*
X107790000Y-159135000D03*
D23*
X109060000Y-156475000D03*
D24*
X109060000Y-159135000D03*
D23*
X110330000Y-156475000D03*
D24*
X110330000Y-159135000D03*
D23*
X111600000Y-156475000D03*
D24*
X111600000Y-159135000D03*
D23*
X112870000Y-156475000D03*
D24*
X112870000Y-159135000D03*
D23*
X114140000Y-156475000D03*
D24*
X114140000Y-159135000D03*
D23*
X115410000Y-156475000D03*
D24*
X115410000Y-159135000D03*
D23*
X116680000Y-156475000D03*
D24*
X116680000Y-159135000D03*
D23*
X117950000Y-156475000D03*
D24*
X117950000Y-159135000D03*
D23*
X119220000Y-156475000D03*
D24*
X119220000Y-159135000D03*
D23*
X120490000Y-156475000D03*
D24*
X120490000Y-159135000D03*
D23*
X121760000Y-156475000D03*
D24*
X121760000Y-159135000D03*
D23*
X123030000Y-156475000D03*
D24*
X123030000Y-159135000D03*
D23*
X124300000Y-156475000D03*
D24*
X124300000Y-159135000D03*
D23*
X125570000Y-156475000D03*
D24*
X125570000Y-159135000D03*
D23*
X126840000Y-156475000D03*
D24*
X126840000Y-159135000D03*
D23*
X128110000Y-156475000D03*
D24*
X128110000Y-159135000D03*
D23*
X129380000Y-156475000D03*
D24*
X129380000Y-159135000D03*
D23*
X130650000Y-156475000D03*
D24*
X130650000Y-159135000D03*
D23*
X131920000Y-156475000D03*
D24*
X131920000Y-159135000D03*
D23*
X133190000Y-156475000D03*
D24*
X133190000Y-159135000D03*
D23*
X134460000Y-156475000D03*
D24*
X134460000Y-159135000D03*
D23*
X135730000Y-156475000D03*
D24*
X135730000Y-159135000D03*
D23*
X137000000Y-156475000D03*
D24*
X137000000Y-159135000D03*
D23*
X138270000Y-156475000D03*
D24*
X138270000Y-159135000D03*
D23*
X139540000Y-156475000D03*
D24*
X139540000Y-159135000D03*
D23*
X140810000Y-156475000D03*
D24*
X140810000Y-159135000D03*
D23*
X142080000Y-156475000D03*
D24*
X142080000Y-159135000D03*
D23*
X145890000Y-156475000D03*
D24*
X145890000Y-159135000D03*
D23*
X147160000Y-156475000D03*
D24*
X147160000Y-159135000D03*
D23*
X148430000Y-156475000D03*
D24*
X148430000Y-159135000D03*
D23*
X149700000Y-156475000D03*
D24*
X149700000Y-159135000D03*
D23*
X150970000Y-156475000D03*
D24*
X150970000Y-159135000D03*
D23*
X152240000Y-156475000D03*
D24*
X152240000Y-159135000D03*
D23*
X153510000Y-156475000D03*
D24*
X153510000Y-159135000D03*
D23*
X154780000Y-156475000D03*
D24*
X154780000Y-159135000D03*
D23*
X156050000Y-156475000D03*
D24*
X156050000Y-159135000D03*
D23*
X157320000Y-156475000D03*
D24*
X157320000Y-159135000D03*
D23*
X158580000Y-156475000D03*
D24*
X158580000Y-159135000D03*
%TD*%
D17*
%TO.C,C64*%
X66750000Y-87750000D03*
D18*
X66750000Y-89750000D03*
%TD*%
D17*
%TO.C,C59*%
X67700000Y-117000000D03*
D18*
X65700000Y-117000000D03*
%TD*%
D17*
%TO.C,C39*%
X81927093Y-145950140D03*
D18*
X81927093Y-147950140D03*
%TD*%
D25*
%TO.C,J2*%
X49055000Y-122530000D03*
X49055000Y-155830000D03*
D17*
X50475000Y-148875000D03*
D18*
X50475000Y-146105000D03*
X50475000Y-143335000D03*
X50475000Y-140565000D03*
X50475000Y-137795000D03*
X50475000Y-135025000D03*
X50475000Y-132255000D03*
X50475000Y-129485000D03*
X47635000Y-147490000D03*
X47635000Y-144720000D03*
X47635000Y-141950000D03*
X47635000Y-139180000D03*
X47635000Y-136410000D03*
X47635000Y-133640000D03*
X47635000Y-130870000D03*
%TD*%
D17*
%TO.C,C58*%
X67750000Y-107000000D03*
D18*
X65750000Y-107000000D03*
%TD*%
D17*
%TO.C,C38*%
X138500000Y-94500000D03*
D18*
X136500000Y-94500000D03*
%TD*%
D17*
%TO.C,C44*%
X100887500Y-91431250D03*
D18*
X98887500Y-91431250D03*
%TD*%
D17*
%TO.C,C30*%
X125525000Y-90225000D03*
D18*
X123525000Y-90225000D03*
%TD*%
D19*
%TO.C,J8*%
X158500000Y-138000000D03*
D20*
X155960000Y-138000000D03*
X158500000Y-135460000D03*
X155960000Y-135460000D03*
X158500000Y-132920000D03*
X155960000Y-132920000D03*
%TD*%
D19*
%TO.C,J10*%
X59700000Y-90500000D03*
D20*
X59700000Y-87960000D03*
X59700000Y-85420000D03*
X59700000Y-82880000D03*
%TD*%
D11*
%TO.C,J7*%
X44050000Y-107000000D03*
X41550000Y-107000000D03*
X49050000Y-112000000D03*
X44050000Y-117000000D03*
X41550000Y-117000000D03*
D12*
X49050000Y-107000000D03*
D26*
X49050000Y-109500000D03*
D13*
X44050000Y-112000000D03*
D12*
X49050000Y-117000000D03*
D27*
X49050000Y-114500000D03*
%TD*%
M02*
