%TF.GenerationSoftware,KiCad,Pcbnew,8.0.5-dirty*%
%TF.CreationDate,2024-12-31T15:12:58-08:00*%
%TF.ProjectId,sisyphus-pci,73697379-7068-4757-932d-7063692e6b69,rev?*%
%TF.SameCoordinates,Original*%
%TF.FileFunction,Drillmap*%
%TF.FilePolarity,Positive*%
%FSLAX45Y45*%
G04 Gerber Fmt 4.5, Leading zero omitted, Abs format (unit mm)*
G04 Created by KiCad (PCBNEW 8.0.5-dirty) date 2024-12-31 15:12:58*
%MOMM*%
%LPD*%
G01*
G04 APERTURE LIST*
%ADD10C,0.125000*%
%ADD11C,0.200000*%
%ADD12C,0.100000*%
%ADD13C,0.320000*%
G04 APERTURE END LIST*
D10*
X16257000Y-10557000D02*
X16257000Y-14953979D01*
X15950000Y-15254304D01*
X15950000Y-16000000D01*
X14480000Y-16000000D01*
X14480000Y-15320227D01*
X14457777Y-15297500D01*
X14335273Y-15297500D01*
X14313000Y-15320185D01*
X14313000Y-15987000D01*
X14300000Y-16000000D01*
X8060000Y-16000000D01*
X8003000Y-15938378D01*
X8003000Y-15331500D01*
X7968000Y-15296500D01*
X5535000Y-15296500D01*
X5535000Y-15860000D01*
X3955000Y-15860000D01*
X3955000Y-11419000D01*
X4096000Y-11419000D01*
X4095463Y-10977037D01*
X3955000Y-10977000D01*
X3955000Y-10285000D01*
X15985000Y-10285000D01*
X16257000Y-10557000D01*
D11*
D12*
X4035000Y-10875000D02*
X4065000Y-10905000D01*
X4065000Y-10875000D02*
X4035000Y-10905000D01*
X4035000Y-11835000D02*
X4065000Y-11865000D01*
X4065000Y-11835000D02*
X4035000Y-11865000D01*
X4035000Y-12085000D02*
X4065000Y-12115000D01*
X4065000Y-12085000D02*
X4035000Y-12115000D01*
X4035000Y-12335000D02*
X4065000Y-12365000D01*
X4065000Y-12335000D02*
X4035000Y-12365000D01*
X4035000Y-12610000D02*
X4065000Y-12640000D01*
X4065000Y-12610000D02*
X4035000Y-12640000D01*
X4035000Y-12885000D02*
X4065000Y-12915000D01*
X4065000Y-12885000D02*
X4035000Y-12915000D01*
X4035000Y-13135000D02*
X4065000Y-13165000D01*
X4065000Y-13135000D02*
X4035000Y-13165000D01*
X4035000Y-13385000D02*
X4065000Y-13415000D01*
X4065000Y-13385000D02*
X4035000Y-13415000D01*
X4035000Y-13635000D02*
X4065000Y-13665000D01*
X4065000Y-13635000D02*
X4035000Y-13665000D01*
X4035000Y-13885000D02*
X4065000Y-13915000D01*
X4065000Y-13885000D02*
X4035000Y-13915000D01*
X4035000Y-14135000D02*
X4065000Y-14165000D01*
X4065000Y-14135000D02*
X4035000Y-14165000D01*
X4035000Y-14410000D02*
X4065000Y-14440000D01*
X4065000Y-14410000D02*
X4035000Y-14440000D01*
X4035000Y-14685000D02*
X4065000Y-14715000D01*
X4065000Y-14685000D02*
X4035000Y-14715000D01*
X4035000Y-14935000D02*
X4065000Y-14965000D01*
X4065000Y-14935000D02*
X4035000Y-14965000D01*
X4035000Y-15160000D02*
X4065000Y-15190000D01*
X4065000Y-15160000D02*
X4035000Y-15190000D01*
X4035000Y-15460000D02*
X4065000Y-15490000D01*
X4065000Y-15460000D02*
X4035000Y-15490000D01*
X5485000Y-11085000D02*
X5515000Y-11115000D01*
X5515000Y-11085000D02*
X5485000Y-11115000D01*
X5685000Y-14645000D02*
X5715000Y-14675000D01*
X5715000Y-14645000D02*
X5685000Y-14675000D01*
X5710000Y-15160000D02*
X5740000Y-15190000D01*
X5740000Y-15160000D02*
X5710000Y-15190000D01*
X5860000Y-12660000D02*
X5890000Y-12690000D01*
X5890000Y-12660000D02*
X5860000Y-12690000D01*
X5860000Y-13110000D02*
X5890000Y-13140000D01*
X5890000Y-13110000D02*
X5860000Y-13140000D01*
X5871000Y-13474000D02*
X5901000Y-13504000D01*
X5901000Y-13474000D02*
X5871000Y-13504000D01*
X5935000Y-14800000D02*
X5965000Y-14830000D01*
X5965000Y-14800000D02*
X5935000Y-14830000D01*
X5960000Y-15160000D02*
X5990000Y-15190000D01*
X5990000Y-15160000D02*
X5960000Y-15190000D01*
X6135000Y-14541000D02*
X6165000Y-14571000D01*
X6165000Y-14541000D02*
X6135000Y-14571000D01*
X6210000Y-15160000D02*
X6240000Y-15190000D01*
X6240000Y-15160000D02*
X6210000Y-15190000D01*
X6405000Y-11915000D02*
X6435000Y-11945000D01*
X6435000Y-11915000D02*
X6405000Y-11945000D01*
X6460000Y-12510000D02*
X6490000Y-12540000D01*
X6490000Y-12510000D02*
X6460000Y-12540000D01*
X6485000Y-13185000D02*
X6515000Y-13215000D01*
X6515000Y-13185000D02*
X6485000Y-13215000D01*
X6485000Y-15160000D02*
X6515000Y-15190000D01*
X6515000Y-15160000D02*
X6485000Y-15190000D01*
X6560000Y-12885000D02*
X6590000Y-12915000D01*
X6590000Y-12885000D02*
X6560000Y-12915000D01*
X6735000Y-15160000D02*
X6765000Y-15190000D01*
X6765000Y-15160000D02*
X6735000Y-15190000D01*
X6985000Y-15160000D02*
X7015000Y-15190000D01*
X7015000Y-15160000D02*
X6985000Y-15190000D01*
X7235000Y-15160000D02*
X7265000Y-15190000D01*
X7265000Y-15160000D02*
X7235000Y-15190000D01*
X7285000Y-14385000D02*
X7315000Y-14415000D01*
X7315000Y-14385000D02*
X7285000Y-14415000D01*
X7310000Y-10785000D02*
X7340000Y-10815000D01*
X7340000Y-10785000D02*
X7310000Y-10815000D01*
X7360000Y-13960000D02*
X7390000Y-13990000D01*
X7390000Y-13960000D02*
X7360000Y-13990000D01*
X7360000Y-14310000D02*
X7390000Y-14340000D01*
X7390000Y-14310000D02*
X7360000Y-14340000D01*
X7435000Y-14385000D02*
X7465000Y-14415000D01*
X7465000Y-14385000D02*
X7435000Y-14415000D01*
X7485000Y-15160000D02*
X7515000Y-15190000D01*
X7515000Y-15160000D02*
X7485000Y-15190000D01*
X7510000Y-11933012D02*
X7540000Y-11963012D01*
X7540000Y-11933012D02*
X7510000Y-11963012D01*
X7510000Y-14310000D02*
X7540000Y-14340000D01*
X7540000Y-14310000D02*
X7510000Y-14340000D01*
X7585000Y-14385000D02*
X7615000Y-14415000D01*
X7615000Y-14385000D02*
X7585000Y-14415000D01*
X7735000Y-15160000D02*
X7765000Y-15190000D01*
X7765000Y-15160000D02*
X7735000Y-15190000D01*
X7809372Y-14485628D02*
X7839372Y-14515628D01*
X7839372Y-14485628D02*
X7809372Y-14515628D01*
X7835000Y-15035000D02*
X7865000Y-15065000D01*
X7865000Y-15035000D02*
X7835000Y-15065000D01*
X8085000Y-15335000D02*
X8115000Y-15365000D01*
X8115000Y-15335000D02*
X8085000Y-15365000D01*
X8185000Y-12105000D02*
X8215000Y-12135000D01*
X8215000Y-12105000D02*
X8185000Y-12135000D01*
X8360000Y-13535000D02*
X8390000Y-13565000D01*
X8390000Y-13535000D02*
X8360000Y-13565000D01*
X8360000Y-13735000D02*
X8390000Y-13765000D01*
X8390000Y-13735000D02*
X8360000Y-13765000D01*
X8360000Y-13935000D02*
X8390000Y-13965000D01*
X8390000Y-13935000D02*
X8360000Y-13965000D01*
X8410000Y-13435000D02*
X8440000Y-13465000D01*
X8440000Y-13435000D02*
X8410000Y-13465000D01*
X8410000Y-13635000D02*
X8440000Y-13665000D01*
X8440000Y-13635000D02*
X8410000Y-13665000D01*
X8410000Y-13835000D02*
X8440000Y-13865000D01*
X8440000Y-13835000D02*
X8410000Y-13865000D01*
X8425000Y-10895000D02*
X8455000Y-10925000D01*
X8455000Y-10895000D02*
X8425000Y-10925000D01*
X8425000Y-12905000D02*
X8455000Y-12935000D01*
X8455000Y-12905000D02*
X8425000Y-12935000D01*
X8435000Y-14435000D02*
X8465000Y-14465000D01*
X8465000Y-14435000D02*
X8435000Y-14465000D01*
X8460000Y-13535000D02*
X8490000Y-13565000D01*
X8490000Y-13535000D02*
X8460000Y-13565000D01*
X8460000Y-13735000D02*
X8490000Y-13765000D01*
X8490000Y-13735000D02*
X8460000Y-13765000D01*
X8460000Y-13935000D02*
X8490000Y-13965000D01*
X8490000Y-13935000D02*
X8460000Y-13965000D01*
X8475000Y-15355000D02*
X8505000Y-15385000D01*
X8505000Y-15355000D02*
X8475000Y-15385000D01*
X8510000Y-13235000D02*
X8540000Y-13265000D01*
X8540000Y-13235000D02*
X8510000Y-13265000D01*
X8657500Y-13532500D02*
X8687500Y-13562500D01*
X8687500Y-13532500D02*
X8657500Y-13562500D01*
X8657500Y-13632500D02*
X8687500Y-13662500D01*
X8687500Y-13632500D02*
X8657500Y-13662500D01*
X8657500Y-13732500D02*
X8687500Y-13762500D01*
X8687500Y-13732500D02*
X8657500Y-13762500D01*
X8710000Y-13235000D02*
X8740000Y-13265000D01*
X8740000Y-13235000D02*
X8710000Y-13265000D01*
X8725000Y-11580250D02*
X8755000Y-11610250D01*
X8755000Y-11580250D02*
X8725000Y-11610250D01*
X8757500Y-13532500D02*
X8787500Y-13562500D01*
X8787500Y-13532500D02*
X8757500Y-13562500D01*
X8757500Y-13632500D02*
X8787500Y-13662500D01*
X8787500Y-13632500D02*
X8757500Y-13662500D01*
X8757500Y-13732500D02*
X8787500Y-13762500D01*
X8787500Y-13732500D02*
X8757500Y-13762500D01*
X8810000Y-15135000D02*
X8840000Y-15165000D01*
X8840000Y-15135000D02*
X8810000Y-15165000D01*
X8850000Y-10360000D02*
X8880000Y-10390000D01*
X8880000Y-10360000D02*
X8850000Y-10390000D01*
X8857500Y-13532500D02*
X8887500Y-13562500D01*
X8887500Y-13532500D02*
X8857500Y-13562500D01*
X8857500Y-13632500D02*
X8887500Y-13662500D01*
X8887500Y-13632500D02*
X8857500Y-13662500D01*
X8857500Y-13732500D02*
X8887500Y-13762500D01*
X8887500Y-13732500D02*
X8857500Y-13762500D01*
X8910000Y-13235000D02*
X8940000Y-13265000D01*
X8940000Y-13235000D02*
X8910000Y-13265000D01*
X8957500Y-13532500D02*
X8987500Y-13562500D01*
X8987500Y-13532500D02*
X8957500Y-13562500D01*
X8957500Y-13632500D02*
X8987500Y-13662500D01*
X8987500Y-13632500D02*
X8957500Y-13662500D01*
X8957500Y-13732500D02*
X8987500Y-13762500D01*
X8987500Y-13732500D02*
X8957500Y-13762500D01*
X9100000Y-10360000D02*
X9130000Y-10390000D01*
X9130000Y-10360000D02*
X9100000Y-10390000D01*
X9110000Y-13235000D02*
X9140000Y-13265000D01*
X9140000Y-13235000D02*
X9110000Y-13265000D01*
X9160000Y-13535000D02*
X9190000Y-13565000D01*
X9190000Y-13535000D02*
X9160000Y-13565000D01*
X9205409Y-15114591D02*
X9235409Y-15144591D01*
X9235409Y-15114591D02*
X9205409Y-15144591D01*
X9210000Y-13435000D02*
X9240000Y-13465000D01*
X9240000Y-13435000D02*
X9210000Y-13465000D01*
X9260000Y-13335000D02*
X9290000Y-13365000D01*
X9290000Y-13335000D02*
X9260000Y-13365000D01*
X9275000Y-15025000D02*
X9305000Y-15055000D01*
X9305000Y-15025000D02*
X9275000Y-15055000D01*
X9335000Y-10360000D02*
X9365000Y-10390000D01*
X9365000Y-10360000D02*
X9335000Y-10390000D01*
X9547500Y-15115000D02*
X9577500Y-15145000D01*
X9577500Y-15115000D02*
X9547500Y-15145000D01*
X9585000Y-10360000D02*
X9615000Y-10390000D01*
X9615000Y-10360000D02*
X9585000Y-10390000D01*
X9610000Y-13860000D02*
X9640000Y-13890000D01*
X9640000Y-13860000D02*
X9610000Y-13890000D01*
X9610000Y-14160000D02*
X9640000Y-14190000D01*
X9640000Y-14160000D02*
X9610000Y-14190000D01*
X9635000Y-15025000D02*
X9665000Y-15055000D01*
X9665000Y-15025000D02*
X9635000Y-15055000D01*
X9635000Y-15305000D02*
X9665000Y-15335000D01*
X9665000Y-15305000D02*
X9635000Y-15335000D01*
X9785000Y-12885000D02*
X9815000Y-12915000D01*
X9815000Y-12885000D02*
X9785000Y-12915000D01*
X9835000Y-10360000D02*
X9865000Y-10390000D01*
X9865000Y-10360000D02*
X9835000Y-10390000D01*
X9927500Y-15122500D02*
X9957500Y-15152500D01*
X9957500Y-15122500D02*
X9927500Y-15152500D01*
X9935000Y-13560000D02*
X9965000Y-13590000D01*
X9965000Y-13560000D02*
X9935000Y-13590000D01*
X9935000Y-13860000D02*
X9965000Y-13890000D01*
X9965000Y-13860000D02*
X9935000Y-13890000D01*
X9935000Y-14825000D02*
X9965000Y-14855000D01*
X9965000Y-14825000D02*
X9935000Y-14855000D01*
X9985000Y-11720000D02*
X10015000Y-11750000D01*
X10015000Y-11720000D02*
X9985000Y-11750000D01*
X9985000Y-14310000D02*
X10015000Y-14340000D01*
X10015000Y-14310000D02*
X9985000Y-14340000D01*
X10085000Y-10360000D02*
X10115000Y-10390000D01*
X10115000Y-10360000D02*
X10085000Y-10390000D01*
X10155000Y-14535000D02*
X10185000Y-14565000D01*
X10185000Y-14535000D02*
X10155000Y-14565000D01*
X10210000Y-14085000D02*
X10240000Y-14115000D01*
X10240000Y-14085000D02*
X10210000Y-14115000D01*
X10360000Y-10360000D02*
X10390000Y-10390000D01*
X10390000Y-10360000D02*
X10360000Y-10390000D01*
X10385000Y-14810000D02*
X10415000Y-14840000D01*
X10415000Y-14810000D02*
X10385000Y-14840000D01*
X10385000Y-15060000D02*
X10415000Y-15090000D01*
X10415000Y-15060000D02*
X10385000Y-15090000D01*
X10385000Y-15305000D02*
X10415000Y-15335000D01*
X10415000Y-15305000D02*
X10385000Y-15335000D01*
X10435000Y-10745000D02*
X10465000Y-10775000D01*
X10465000Y-10745000D02*
X10435000Y-10775000D01*
X10435000Y-13860000D02*
X10465000Y-13890000D01*
X10465000Y-13860000D02*
X10435000Y-13890000D01*
X10510000Y-12985000D02*
X10540000Y-13015000D01*
X10540000Y-12985000D02*
X10510000Y-13015000D01*
X10627600Y-13217600D02*
X10657600Y-13247600D01*
X10657600Y-13217600D02*
X10627600Y-13247600D01*
X10635000Y-10360000D02*
X10665000Y-10390000D01*
X10665000Y-10360000D02*
X10635000Y-10390000D01*
X10660000Y-13635000D02*
X10690000Y-13665000D01*
X10690000Y-13635000D02*
X10660000Y-13665000D01*
X10710000Y-14810000D02*
X10740000Y-14840000D01*
X10740000Y-14810000D02*
X10710000Y-14840000D01*
X10710000Y-15060000D02*
X10740000Y-15090000D01*
X10740000Y-15060000D02*
X10710000Y-15090000D01*
X10710000Y-15310000D02*
X10740000Y-15340000D01*
X10740000Y-15310000D02*
X10710000Y-15340000D01*
X10810000Y-13310000D02*
X10840000Y-13340000D01*
X10840000Y-13310000D02*
X10810000Y-13340000D01*
X10885000Y-10360000D02*
X10915000Y-10390000D01*
X10915000Y-10360000D02*
X10885000Y-10390000D01*
X10975000Y-12755530D02*
X11005000Y-12785530D01*
X11005000Y-12755530D02*
X10975000Y-12785530D01*
X10975000Y-13065000D02*
X11005000Y-13095000D01*
X11005000Y-13065000D02*
X10975000Y-13095000D01*
X11054794Y-12745206D02*
X11084794Y-12775206D01*
X11084794Y-12745206D02*
X11054794Y-12775206D01*
X11085000Y-14310000D02*
X11115000Y-14340000D01*
X11115000Y-14310000D02*
X11085000Y-14340000D01*
X11135000Y-10360000D02*
X11165000Y-10390000D01*
X11165000Y-10360000D02*
X11135000Y-10390000D01*
X11210000Y-15305000D02*
X11240000Y-15335000D01*
X11240000Y-15305000D02*
X11210000Y-15335000D01*
X11237620Y-12355530D02*
X11267620Y-12385530D01*
X11267620Y-12355530D02*
X11237620Y-12385530D01*
X11285000Y-12285000D02*
X11315000Y-12315000D01*
X11315000Y-12285000D02*
X11285000Y-12315000D01*
X11285000Y-14085000D02*
X11315000Y-14115000D01*
X11315000Y-14085000D02*
X11285000Y-14115000D01*
X11289662Y-12418793D02*
X11319662Y-12448793D01*
X11319662Y-12418793D02*
X11289662Y-12448793D01*
X11311263Y-12500136D02*
X11341263Y-12530136D01*
X11341263Y-12500136D02*
X11311263Y-12530136D01*
X11372146Y-12561399D02*
X11402146Y-12591399D01*
X11402146Y-12561399D02*
X11372146Y-12591399D01*
X11385000Y-10360000D02*
X11415000Y-10390000D01*
X11415000Y-10360000D02*
X11385000Y-10390000D01*
X11441428Y-12601399D02*
X11471428Y-12631399D01*
X11471428Y-12601399D02*
X11441428Y-12631399D01*
X11475000Y-15305000D02*
X11505000Y-15335000D01*
X11505000Y-15305000D02*
X11475000Y-15335000D01*
X11485000Y-13860000D02*
X11515000Y-13890000D01*
X11515000Y-13860000D02*
X11485000Y-13890000D01*
X11513824Y-12761399D02*
X11543824Y-12791399D01*
X11543824Y-12761399D02*
X11513824Y-12791399D01*
X11517185Y-12627108D02*
X11547185Y-12657108D01*
X11547185Y-12627108D02*
X11517185Y-12657108D01*
X11535000Y-12295000D02*
X11565000Y-12325000D01*
X11565000Y-12295000D02*
X11535000Y-12325000D01*
X11585000Y-11035000D02*
X11615000Y-11065000D01*
X11615000Y-11035000D02*
X11585000Y-11065000D01*
X11598676Y-12761399D02*
X11628676Y-12791399D01*
X11628676Y-12761399D02*
X11598676Y-12791399D01*
X11660000Y-10360000D02*
X11690000Y-10390000D01*
X11690000Y-10360000D02*
X11660000Y-10390000D01*
X11850000Y-15310000D02*
X11880000Y-15340000D01*
X11880000Y-15310000D02*
X11850000Y-15340000D01*
X11857500Y-13732500D02*
X11887500Y-13762500D01*
X11887500Y-13732500D02*
X11857500Y-13762500D01*
X11935000Y-10360000D02*
X11965000Y-10390000D01*
X11965000Y-10360000D02*
X11935000Y-10390000D01*
X11937637Y-13514811D02*
X11967637Y-13544811D01*
X11967637Y-13514811D02*
X11937637Y-13544811D01*
X11938990Y-12960000D02*
X11968990Y-12990000D01*
X11968990Y-12960000D02*
X11938990Y-12990000D01*
X11939498Y-12842929D02*
X11969498Y-12872929D01*
X11969498Y-12842929D02*
X11939498Y-12872929D01*
X11945000Y-13145000D02*
X11975000Y-13175000D01*
X11975000Y-13145000D02*
X11945000Y-13175000D01*
X11953785Y-13436458D02*
X11983785Y-13466458D01*
X11983785Y-13436458D02*
X11953785Y-13466458D01*
X12005000Y-13375000D02*
X12035000Y-13405000D01*
X12035000Y-13375000D02*
X12005000Y-13405000D01*
X12015000Y-14205000D02*
X12045000Y-14235000D01*
X12045000Y-14205000D02*
X12015000Y-14235000D01*
X12018070Y-12825000D02*
X12048070Y-12855000D01*
X12048070Y-12825000D02*
X12018070Y-12855000D01*
X12018572Y-13102856D02*
X12048572Y-13132856D01*
X12048572Y-13102856D02*
X12018572Y-13132856D01*
X12079585Y-13051112D02*
X12109585Y-13081112D01*
X12109585Y-13051112D02*
X12079585Y-13081112D01*
X12085000Y-11035000D02*
X12115000Y-11065000D01*
X12115000Y-11035000D02*
X12085000Y-11065000D01*
X12091569Y-13166569D02*
X12121569Y-13196569D01*
X12121569Y-13166569D02*
X12091569Y-13196569D01*
X12107582Y-13592747D02*
X12137582Y-13622747D01*
X12137582Y-13592747D02*
X12107582Y-13622747D01*
X12135000Y-11630000D02*
X12165000Y-11660000D01*
X12165000Y-11630000D02*
X12135000Y-11660000D01*
X12185000Y-10360000D02*
X12215000Y-10390000D01*
X12215000Y-10360000D02*
X12185000Y-10390000D01*
X12190000Y-14205000D02*
X12220000Y-14235000D01*
X12220000Y-14205000D02*
X12190000Y-14235000D01*
X12210000Y-15310000D02*
X12240000Y-15340000D01*
X12240000Y-15310000D02*
X12210000Y-15340000D01*
X12211626Y-13582288D02*
X12241626Y-13612288D01*
X12241626Y-13582288D02*
X12211626Y-13612288D01*
X12245000Y-13025000D02*
X12275000Y-13055000D01*
X12275000Y-13025000D02*
X12245000Y-13055000D01*
X12245000Y-13205000D02*
X12275000Y-13235000D01*
X12275000Y-13205000D02*
X12245000Y-13235000D01*
X12245000Y-13385000D02*
X12275000Y-13415000D01*
X12275000Y-13385000D02*
X12245000Y-13415000D01*
X12255000Y-14855000D02*
X12285000Y-14885000D01*
X12285000Y-14855000D02*
X12255000Y-14885000D01*
X12295234Y-13582851D02*
X12325234Y-13612851D01*
X12325234Y-13582851D02*
X12295234Y-13612851D01*
X12377708Y-13583948D02*
X12407708Y-13613948D01*
X12407708Y-13583948D02*
X12377708Y-13613948D01*
X12405000Y-13025000D02*
X12435000Y-13055000D01*
X12435000Y-13025000D02*
X12405000Y-13055000D01*
X12405000Y-13205000D02*
X12435000Y-13235000D01*
X12435000Y-13205000D02*
X12405000Y-13235000D01*
X12405000Y-13385000D02*
X12435000Y-13415000D01*
X12435000Y-13385000D02*
X12405000Y-13415000D01*
X12407500Y-11555000D02*
X12437500Y-11585000D01*
X12437500Y-11555000D02*
X12407500Y-11585000D01*
X12435000Y-10360000D02*
X12465000Y-10390000D01*
X12465000Y-10360000D02*
X12435000Y-10390000D01*
X12445000Y-15245000D02*
X12475000Y-15275000D01*
X12475000Y-15245000D02*
X12445000Y-15275000D01*
X12456328Y-13569152D02*
X12486328Y-13599152D01*
X12486328Y-13569152D02*
X12456328Y-13599152D01*
X12537093Y-13568054D02*
X12567093Y-13598054D01*
X12567093Y-13568054D02*
X12537093Y-13598054D01*
X12565000Y-13025000D02*
X12595000Y-13055000D01*
X12595000Y-13025000D02*
X12565000Y-13055000D01*
X12565000Y-13205000D02*
X12595000Y-13235000D01*
X12595000Y-13205000D02*
X12565000Y-13235000D01*
X12565000Y-13385000D02*
X12595000Y-13415000D01*
X12595000Y-13385000D02*
X12565000Y-13415000D01*
X12590177Y-12540177D02*
X12620177Y-12570177D01*
X12620177Y-12540177D02*
X12590177Y-12570177D01*
X12600147Y-12785000D02*
X12630147Y-12815000D01*
X12630147Y-12785000D02*
X12600147Y-12815000D01*
X12605000Y-15245000D02*
X12635000Y-15275000D01*
X12635000Y-15245000D02*
X12605000Y-15275000D01*
X12625000Y-13585000D02*
X12655000Y-13615000D01*
X12655000Y-13585000D02*
X12625000Y-13615000D01*
X12680784Y-12780784D02*
X12710784Y-12810784D01*
X12710784Y-12780784D02*
X12680784Y-12810784D01*
X12685000Y-10360000D02*
X12715000Y-10390000D01*
X12715000Y-10360000D02*
X12685000Y-10390000D01*
X12705000Y-12198579D02*
X12735000Y-12228579D01*
X12735000Y-12198579D02*
X12705000Y-12228579D01*
X12707127Y-13606493D02*
X12737127Y-13636493D01*
X12737127Y-13606493D02*
X12707127Y-13636493D01*
X12725000Y-13025000D02*
X12755000Y-13055000D01*
X12755000Y-13025000D02*
X12725000Y-13055000D01*
X12725000Y-13205000D02*
X12755000Y-13235000D01*
X12755000Y-13205000D02*
X12725000Y-13235000D01*
X12725000Y-13385000D02*
X12755000Y-13415000D01*
X12755000Y-13385000D02*
X12725000Y-13415000D01*
X12787108Y-13604734D02*
X12817108Y-13634734D01*
X12817108Y-13604734D02*
X12787108Y-13634734D01*
X12797580Y-12200998D02*
X12827580Y-12230998D01*
X12827580Y-12200998D02*
X12797580Y-12230998D01*
X12815000Y-11285000D02*
X12845000Y-11315000D01*
X12845000Y-11285000D02*
X12815000Y-11315000D01*
X12865000Y-15246000D02*
X12895000Y-15276000D01*
X12895000Y-15246000D02*
X12865000Y-15276000D01*
X12867107Y-13605047D02*
X12897107Y-13635047D01*
X12897107Y-13605047D02*
X12867107Y-13635047D01*
X12885000Y-13025000D02*
X12915000Y-13055000D01*
X12915000Y-13025000D02*
X12885000Y-13055000D01*
X12885000Y-13205000D02*
X12915000Y-13235000D01*
X12915000Y-13205000D02*
X12885000Y-13235000D01*
X12885000Y-13385000D02*
X12915000Y-13415000D01*
X12915000Y-13385000D02*
X12885000Y-13415000D01*
X12887500Y-12517500D02*
X12917500Y-12547500D01*
X12917500Y-12517500D02*
X12887500Y-12547500D01*
X12895000Y-11205000D02*
X12925000Y-11235000D01*
X12925000Y-11205000D02*
X12895000Y-11235000D01*
X12910000Y-10985000D02*
X12940000Y-11015000D01*
X12940000Y-10985000D02*
X12910000Y-11015000D01*
X12953284Y-12215000D02*
X12983284Y-12245000D01*
X12983284Y-12215000D02*
X12953284Y-12245000D01*
X12960000Y-10360000D02*
X12990000Y-10390000D01*
X12990000Y-10360000D02*
X12960000Y-10390000D01*
X13032628Y-13032718D02*
X13062628Y-13062718D01*
X13062628Y-13032718D02*
X13032628Y-13062718D01*
X13033082Y-13512717D02*
X13063082Y-13542717D01*
X13063082Y-13512717D02*
X13033082Y-13542717D01*
X13033082Y-13192717D02*
X13063082Y-13222717D01*
X13063082Y-13192717D02*
X13033082Y-13222717D01*
X13033082Y-13272717D02*
X13063082Y-13302717D01*
X13063082Y-13272717D02*
X13033082Y-13302717D01*
X13033082Y-13432717D02*
X13063082Y-13462717D01*
X13063082Y-13432717D02*
X13033082Y-13462717D01*
X13033082Y-13352717D02*
X13063082Y-13382717D01*
X13063082Y-13352717D02*
X13033082Y-13382717D01*
X13033082Y-13112717D02*
X13063082Y-13142717D01*
X13063082Y-13112717D02*
X13033082Y-13142717D01*
X13035000Y-12275000D02*
X13065000Y-12305000D01*
X13065000Y-12275000D02*
X13035000Y-12305000D01*
X13035000Y-13860000D02*
X13065000Y-13890000D01*
X13065000Y-13860000D02*
X13035000Y-13890000D01*
X13039745Y-12939658D02*
X13069745Y-12969658D01*
X13069745Y-12939658D02*
X13039745Y-12969658D01*
X13060000Y-11325000D02*
X13090000Y-11355000D01*
X13090000Y-11325000D02*
X13060000Y-11355000D01*
X13105000Y-15245000D02*
X13135000Y-15275000D01*
X13135000Y-15245000D02*
X13105000Y-15275000D01*
X13110000Y-13655000D02*
X13140000Y-13685000D01*
X13140000Y-13655000D02*
X13110000Y-13685000D01*
X13135000Y-10985000D02*
X13165000Y-11015000D01*
X13165000Y-10985000D02*
X13135000Y-11015000D01*
X13235000Y-10360000D02*
X13265000Y-10390000D01*
X13265000Y-10360000D02*
X13235000Y-10390000D01*
X13310000Y-14260000D02*
X13340000Y-14290000D01*
X13340000Y-14260000D02*
X13310000Y-14290000D01*
X13388000Y-11335000D02*
X13418000Y-11365000D01*
X13418000Y-11335000D02*
X13388000Y-11365000D01*
X13388033Y-11638033D02*
X13418033Y-11668033D01*
X13418033Y-11638033D02*
X13388033Y-11668033D01*
X13410000Y-12060000D02*
X13440000Y-12090000D01*
X13440000Y-12060000D02*
X13410000Y-12090000D01*
X13485000Y-10360000D02*
X13515000Y-10390000D01*
X13515000Y-10360000D02*
X13485000Y-10390000D01*
X13485000Y-13565000D02*
X13515000Y-13595000D01*
X13515000Y-13565000D02*
X13485000Y-13595000D01*
X13615000Y-15245000D02*
X13645000Y-15275000D01*
X13645000Y-15245000D02*
X13615000Y-15275000D01*
X13715000Y-12910000D02*
X13745000Y-12940000D01*
X13745000Y-12910000D02*
X13715000Y-12940000D01*
X13735000Y-10360000D02*
X13765000Y-10390000D01*
X13765000Y-10360000D02*
X13735000Y-10390000D01*
X13735000Y-13860000D02*
X13765000Y-13890000D01*
X13765000Y-13860000D02*
X13735000Y-13890000D01*
X13735000Y-14260000D02*
X13765000Y-14290000D01*
X13765000Y-14260000D02*
X13735000Y-14290000D01*
X13735000Y-14660000D02*
X13765000Y-14690000D01*
X13765000Y-14660000D02*
X13735000Y-14690000D01*
X13845000Y-11755000D02*
X13875000Y-11785000D01*
X13875000Y-11755000D02*
X13845000Y-11785000D01*
X13935000Y-13085000D02*
X13965000Y-13115000D01*
X13965000Y-13085000D02*
X13935000Y-13115000D01*
X13955000Y-10975000D02*
X13985000Y-11005000D01*
X13985000Y-10975000D02*
X13955000Y-11005000D01*
X13985000Y-10360000D02*
X14015000Y-10390000D01*
X14015000Y-10360000D02*
X13985000Y-10390000D01*
X14075000Y-11455000D02*
X14105000Y-11485000D01*
X14105000Y-11455000D02*
X14075000Y-11485000D01*
X14130000Y-15245000D02*
X14160000Y-15275000D01*
X14160000Y-15245000D02*
X14130000Y-15275000D01*
X14210000Y-13335000D02*
X14240000Y-13365000D01*
X14240000Y-13335000D02*
X14210000Y-13365000D01*
X14225000Y-12325000D02*
X14255000Y-12355000D01*
X14255000Y-12325000D02*
X14225000Y-12355000D01*
X14260000Y-10360000D02*
X14290000Y-10390000D01*
X14290000Y-10360000D02*
X14260000Y-10390000D01*
X14385000Y-14660000D02*
X14415000Y-14690000D01*
X14415000Y-14660000D02*
X14385000Y-14690000D01*
X14385000Y-15185000D02*
X14415000Y-15215000D01*
X14415000Y-15185000D02*
X14385000Y-15215000D01*
X14410000Y-12235000D02*
X14440000Y-12265000D01*
X14440000Y-12235000D02*
X14410000Y-12265000D01*
X14420000Y-11110000D02*
X14450000Y-11140000D01*
X14450000Y-11110000D02*
X14420000Y-11140000D01*
X14485000Y-13610000D02*
X14515000Y-13640000D01*
X14515000Y-13610000D02*
X14485000Y-13640000D01*
X14560000Y-10360000D02*
X14590000Y-10390000D01*
X14590000Y-10360000D02*
X14560000Y-10390000D01*
X14760000Y-14660000D02*
X14790000Y-14690000D01*
X14790000Y-14660000D02*
X14760000Y-14690000D01*
X14760000Y-15185000D02*
X14790000Y-15215000D01*
X14790000Y-15185000D02*
X14760000Y-15215000D01*
X14835000Y-10360000D02*
X14865000Y-10390000D01*
X14865000Y-10360000D02*
X14835000Y-10390000D01*
X15085000Y-10360000D02*
X15115000Y-10390000D01*
X15115000Y-10360000D02*
X15085000Y-10390000D01*
X15110000Y-13385000D02*
X15140000Y-13415000D01*
X15140000Y-13385000D02*
X15110000Y-13415000D01*
X15135000Y-15245000D02*
X15165000Y-15275000D01*
X15165000Y-15245000D02*
X15135000Y-15275000D01*
X15235000Y-10975000D02*
X15265000Y-11005000D01*
X15265000Y-10975000D02*
X15235000Y-11005000D01*
X15335000Y-10360000D02*
X15365000Y-10390000D01*
X15365000Y-10360000D02*
X15335000Y-10390000D01*
X15535000Y-15060000D02*
X15565000Y-15090000D01*
X15565000Y-15060000D02*
X15535000Y-15090000D01*
X15535000Y-15260000D02*
X15565000Y-15290000D01*
X15565000Y-15260000D02*
X15535000Y-15290000D01*
X15585000Y-10360000D02*
X15615000Y-10390000D01*
X15615000Y-10360000D02*
X15585000Y-10390000D01*
X15635000Y-15160000D02*
X15665000Y-15190000D01*
X15665000Y-15160000D02*
X15635000Y-15190000D01*
X15735000Y-15060000D02*
X15765000Y-15090000D01*
X15765000Y-15060000D02*
X15735000Y-15090000D01*
X15735000Y-15260000D02*
X15765000Y-15290000D01*
X15765000Y-15260000D02*
X15735000Y-15290000D01*
X15860000Y-10360000D02*
X15890000Y-10390000D01*
X15890000Y-10360000D02*
X15860000Y-10390000D01*
X16015000Y-10495000D02*
X16045000Y-10525000D01*
X16045000Y-10495000D02*
X16015000Y-10525000D01*
X16160000Y-10635000D02*
X16190000Y-10665000D01*
X16190000Y-10635000D02*
X16160000Y-10665000D01*
X16160000Y-10880000D02*
X16190000Y-10910000D01*
X16190000Y-10880000D02*
X16160000Y-10910000D01*
X16160000Y-11130000D02*
X16190000Y-11160000D01*
X16190000Y-11130000D02*
X16160000Y-11160000D01*
X16160000Y-11380000D02*
X16190000Y-11410000D01*
X16190000Y-11380000D02*
X16160000Y-11410000D01*
X16160000Y-11655000D02*
X16190000Y-11685000D01*
X16190000Y-11655000D02*
X16160000Y-11685000D01*
X16160000Y-11930000D02*
X16190000Y-11960000D01*
X16190000Y-11930000D02*
X16160000Y-11960000D01*
X16160000Y-12180000D02*
X16190000Y-12210000D01*
X16190000Y-12180000D02*
X16160000Y-12210000D01*
X16160000Y-12430000D02*
X16190000Y-12460000D01*
X16190000Y-12430000D02*
X16160000Y-12460000D01*
X16160000Y-12680000D02*
X16190000Y-12710000D01*
X16190000Y-12680000D02*
X16160000Y-12710000D01*
X16160000Y-12955000D02*
X16190000Y-12985000D01*
X16190000Y-12955000D02*
X16160000Y-12985000D01*
X16160000Y-13230000D02*
X16190000Y-13260000D01*
X16190000Y-13230000D02*
X16160000Y-13260000D01*
X16160000Y-13504000D02*
X16190000Y-13534000D01*
X16190000Y-13504000D02*
X16160000Y-13534000D01*
X16160000Y-13794000D02*
X16190000Y-13824000D01*
X16190000Y-13794000D02*
X16160000Y-13824000D01*
X16160000Y-14094000D02*
X16190000Y-14124000D01*
X16190000Y-14094000D02*
X16160000Y-14124000D01*
X16160000Y-14369000D02*
X16190000Y-14399000D01*
X16190000Y-14369000D02*
X16160000Y-14399000D01*
X16160000Y-14619000D02*
X16190000Y-14649000D01*
X16190000Y-14619000D02*
X16160000Y-14649000D01*
X16160000Y-14869000D02*
X16190000Y-14899000D01*
X16190000Y-14869000D02*
X16160000Y-14899000D01*
X4425000Y-11198000D02*
G75*
G02*
X4385000Y-11198000I-20000J0D01*
G01*
X4385000Y-11198000D02*
G75*
G02*
X4425000Y-11198000I20000J0D01*
G01*
X4385000Y-11148000D02*
X4385000Y-11248000D01*
X4425000Y-11248000D02*
G75*
G02*
X4385000Y-11248000I-20000J0D01*
G01*
X4425000Y-11248000D02*
X4425000Y-11148000D01*
X4425000Y-11148000D02*
G75*
G03*
X4385000Y-11148000I-20000J0D01*
G01*
X4925000Y-10698000D02*
G75*
G02*
X4885000Y-10698000I-20000J0D01*
G01*
X4885000Y-10698000D02*
G75*
G02*
X4925000Y-10698000I20000J0D01*
G01*
X4955000Y-10678000D02*
X4855000Y-10678000D01*
X4855000Y-10718000D02*
G75*
G02*
X4855000Y-10678000I0J20000D01*
G01*
X4855000Y-10718000D02*
X4955000Y-10718000D01*
X4955000Y-10718000D02*
G75*
G03*
X4955000Y-10678000I0J20000D01*
G01*
X4925000Y-11698000D02*
G75*
G02*
X4885000Y-11698000I-20000J0D01*
G01*
X4885000Y-11698000D02*
G75*
G02*
X4925000Y-11698000I20000J0D01*
G01*
X4855000Y-11718000D02*
X4955000Y-11718000D01*
X4955000Y-11678000D02*
G75*
G02*
X4955000Y-11718000I0J-20000D01*
G01*
X4955000Y-11678000D02*
X4855000Y-11678000D01*
X4855000Y-11678000D02*
G75*
G03*
X4855000Y-11718000I0J-20000D01*
G01*
X15860000Y-11613500D02*
X15860000Y-11678500D01*
X15827500Y-11646000D02*
X15892500Y-11646000D01*
X15860000Y-11740500D02*
X15860000Y-11805500D01*
X15827500Y-11773000D02*
X15892500Y-11773000D01*
X15860000Y-11867500D02*
X15860000Y-11932500D01*
X15827500Y-11900000D02*
X15892500Y-11900000D01*
X6453284Y-10828285D02*
X6453284Y-10771716D01*
X6396715Y-10771716D01*
X6396715Y-10828285D01*
X6453284Y-10828285D01*
X6453284Y-11528284D02*
X6453284Y-11471715D01*
X6396715Y-11471715D01*
X6396715Y-11528284D01*
X6453284Y-11528284D01*
X6653284Y-10828285D02*
X6653284Y-10771716D01*
X6596715Y-10771716D01*
X6596715Y-10828285D01*
X6653284Y-10828285D01*
X6653284Y-11528284D02*
X6653284Y-11471715D01*
X6596715Y-11471715D01*
X6596715Y-11528284D01*
X6653284Y-11528284D01*
X10053285Y-11203284D02*
X10053285Y-11146716D01*
X9996716Y-11146716D01*
X9996716Y-11203284D01*
X10053285Y-11203284D01*
X10053285Y-12153284D02*
X10053285Y-12096715D01*
X9996716Y-12096715D01*
X9996716Y-12153284D01*
X10053285Y-12153284D01*
X10253285Y-11203284D02*
X10253285Y-11146716D01*
X10196716Y-11146716D01*
X10196716Y-11203284D01*
X10253285Y-11203284D01*
X10253285Y-12153284D02*
X10253285Y-12096715D01*
X10196716Y-12096715D01*
X10196716Y-12153284D01*
X10253285Y-12153284D01*
X4763500Y-13137000D02*
X4813500Y-13087000D01*
X4763500Y-13037000D01*
X4713500Y-13087000D01*
X4763500Y-13137000D01*
X4763500Y-13414000D02*
X4813500Y-13364000D01*
X4763500Y-13314000D01*
X4713500Y-13364000D01*
X4763500Y-13414000D01*
X4763500Y-13691000D02*
X4813500Y-13641000D01*
X4763500Y-13591000D01*
X4713500Y-13641000D01*
X4763500Y-13691000D01*
X4763500Y-13968000D02*
X4813500Y-13918000D01*
X4763500Y-13868000D01*
X4713500Y-13918000D01*
X4763500Y-13968000D01*
X4763500Y-14245000D02*
X4813500Y-14195000D01*
X4763500Y-14145000D01*
X4713500Y-14195000D01*
X4763500Y-14245000D01*
X4763500Y-14522000D02*
X4813500Y-14472000D01*
X4763500Y-14422000D01*
X4713500Y-14472000D01*
X4763500Y-14522000D01*
X4763500Y-14799000D02*
X4813500Y-14749000D01*
X4763500Y-14699000D01*
X4713500Y-14749000D01*
X4763500Y-14799000D01*
X5047500Y-12998500D02*
X5097500Y-12948500D01*
X5047500Y-12898500D01*
X4997500Y-12948500D01*
X5047500Y-12998500D01*
X5047500Y-13275500D02*
X5097500Y-13225500D01*
X5047500Y-13175500D01*
X4997500Y-13225500D01*
X5047500Y-13275500D01*
X5047500Y-13552500D02*
X5097500Y-13502500D01*
X5047500Y-13452500D01*
X4997500Y-13502500D01*
X5047500Y-13552500D01*
X5047500Y-13829500D02*
X5097500Y-13779500D01*
X5047500Y-13729500D01*
X4997500Y-13779500D01*
X5047500Y-13829500D01*
X5047500Y-14106500D02*
X5097500Y-14056500D01*
X5047500Y-14006500D01*
X4997500Y-14056500D01*
X5047500Y-14106500D01*
X5047500Y-14383500D02*
X5097500Y-14333500D01*
X5047500Y-14283500D01*
X4997500Y-14333500D01*
X5047500Y-14383500D01*
X5047500Y-14660500D02*
X5097500Y-14610500D01*
X5047500Y-14560500D01*
X4997500Y-14610500D01*
X5047500Y-14660500D01*
X5047500Y-14937500D02*
X5097500Y-14887500D01*
X5047500Y-14837500D01*
X4997500Y-14887500D01*
X5047500Y-14937500D01*
X5750000Y-10838000D02*
X5800000Y-10788000D01*
X5750000Y-10738000D01*
X5700000Y-10788000D01*
X5750000Y-10838000D01*
X5750000Y-11092000D02*
X5800000Y-11042000D01*
X5750000Y-10992000D01*
X5700000Y-11042000D01*
X5750000Y-11092000D01*
X5750000Y-11346000D02*
X5800000Y-11296000D01*
X5750000Y-11246000D01*
X5700000Y-11296000D01*
X5750000Y-11346000D01*
X5750000Y-11600000D02*
X5800000Y-11550000D01*
X5750000Y-11500000D01*
X5700000Y-11550000D01*
X5750000Y-11600000D01*
X7800000Y-10675000D02*
X7850000Y-10625000D01*
X7800000Y-10575000D01*
X7750000Y-10625000D01*
X7800000Y-10675000D01*
X8054000Y-10675000D02*
X8104000Y-10625000D01*
X8054000Y-10575000D01*
X8004000Y-10625000D01*
X8054000Y-10675000D01*
X8308000Y-10675000D02*
X8358000Y-10625000D01*
X8308000Y-10575000D01*
X8258000Y-10625000D01*
X8308000Y-10675000D01*
X8562000Y-10675000D02*
X8612000Y-10625000D01*
X8562000Y-10575000D01*
X8512000Y-10625000D01*
X8562000Y-10675000D01*
X11220000Y-10670000D02*
X11270000Y-10620000D01*
X11220000Y-10570000D01*
X11170000Y-10620000D01*
X11220000Y-10670000D01*
X11474000Y-10670000D02*
X11524000Y-10620000D01*
X11474000Y-10570000D01*
X11424000Y-10620000D01*
X11474000Y-10670000D01*
X11728000Y-10670000D02*
X11778000Y-10620000D01*
X11728000Y-10570000D01*
X11678000Y-10620000D01*
X11728000Y-10670000D01*
X11982000Y-10670000D02*
X12032000Y-10620000D01*
X11982000Y-10570000D01*
X11932000Y-10620000D01*
X11982000Y-10670000D01*
X12820000Y-10670000D02*
X12870000Y-10620000D01*
X12820000Y-10570000D01*
X12770000Y-10620000D01*
X12820000Y-10670000D01*
X12820000Y-10924000D02*
X12870000Y-10874000D01*
X12820000Y-10824000D01*
X12770000Y-10874000D01*
X12820000Y-10924000D01*
X13074000Y-10670000D02*
X13124000Y-10620000D01*
X13074000Y-10570000D01*
X13024000Y-10620000D01*
X13074000Y-10670000D01*
X13074000Y-10924000D02*
X13124000Y-10874000D01*
X13074000Y-10824000D01*
X13024000Y-10874000D01*
X13074000Y-10924000D01*
X13328000Y-10670000D02*
X13378000Y-10620000D01*
X13328000Y-10570000D01*
X13278000Y-10620000D01*
X13328000Y-10670000D01*
X13328000Y-10924000D02*
X13378000Y-10874000D01*
X13328000Y-10824000D01*
X13278000Y-10874000D01*
X13328000Y-10924000D01*
X13582000Y-10670000D02*
X13632000Y-10620000D01*
X13582000Y-10570000D01*
X13532000Y-10620000D01*
X13582000Y-10670000D01*
X13582000Y-10924000D02*
X13632000Y-10874000D01*
X13582000Y-10824000D01*
X13532000Y-10874000D01*
X13582000Y-10924000D01*
X13836000Y-10670000D02*
X13886000Y-10620000D01*
X13836000Y-10570000D01*
X13786000Y-10620000D01*
X13836000Y-10670000D01*
X13836000Y-10924000D02*
X13886000Y-10874000D01*
X13836000Y-10824000D01*
X13786000Y-10874000D01*
X13836000Y-10924000D01*
X14090000Y-10670000D02*
X14140000Y-10620000D01*
X14090000Y-10570000D01*
X14040000Y-10620000D01*
X14090000Y-10670000D01*
X14090000Y-10924000D02*
X14140000Y-10874000D01*
X14090000Y-10824000D01*
X14040000Y-10874000D01*
X14090000Y-10924000D01*
X14344000Y-10670000D02*
X14394000Y-10620000D01*
X14344000Y-10570000D01*
X14294000Y-10620000D01*
X14344000Y-10670000D01*
X14344000Y-10924000D02*
X14394000Y-10874000D01*
X14344000Y-10824000D01*
X14294000Y-10874000D01*
X14344000Y-10924000D01*
X14598000Y-10670000D02*
X14648000Y-10620000D01*
X14598000Y-10570000D01*
X14548000Y-10620000D01*
X14598000Y-10670000D01*
X14598000Y-10924000D02*
X14648000Y-10874000D01*
X14598000Y-10824000D01*
X14548000Y-10874000D01*
X14598000Y-10924000D01*
X14852000Y-10670000D02*
X14902000Y-10620000D01*
X14852000Y-10570000D01*
X14802000Y-10620000D01*
X14852000Y-10670000D01*
X14852000Y-10924000D02*
X14902000Y-10874000D01*
X14852000Y-10824000D01*
X14802000Y-10874000D01*
X14852000Y-10924000D01*
X15106000Y-10670000D02*
X15156000Y-10620000D01*
X15106000Y-10570000D01*
X15056000Y-10620000D01*
X15106000Y-10670000D01*
X15106000Y-10924000D02*
X15156000Y-10874000D01*
X15106000Y-10824000D01*
X15056000Y-10874000D01*
X15106000Y-10924000D01*
X15360000Y-10670000D02*
X15410000Y-10620000D01*
X15360000Y-10570000D01*
X15310000Y-10620000D01*
X15360000Y-10670000D01*
X15360000Y-10924000D02*
X15410000Y-10874000D01*
X15360000Y-10824000D01*
X15310000Y-10874000D01*
X15360000Y-10924000D01*
X15596000Y-13342000D02*
X15646000Y-13292000D01*
X15596000Y-13242000D01*
X15546000Y-13292000D01*
X15596000Y-13342000D01*
X15596000Y-13596000D02*
X15646000Y-13546000D01*
X15596000Y-13496000D01*
X15546000Y-13546000D01*
X15596000Y-13596000D01*
X15596000Y-13850000D02*
X15646000Y-13800000D01*
X15596000Y-13750000D01*
X15546000Y-13800000D01*
X15596000Y-13850000D01*
X15614000Y-10670000D02*
X15664000Y-10620000D01*
X15614000Y-10570000D01*
X15564000Y-10620000D01*
X15614000Y-10670000D01*
X15614000Y-10924000D02*
X15664000Y-10874000D01*
X15614000Y-10824000D01*
X15564000Y-10874000D01*
X15614000Y-10924000D01*
X15850000Y-13342000D02*
X15900000Y-13292000D01*
X15850000Y-13242000D01*
X15800000Y-13292000D01*
X15850000Y-13342000D01*
X15850000Y-13596000D02*
X15900000Y-13546000D01*
X15850000Y-13496000D01*
X15800000Y-13546000D01*
X15850000Y-13596000D01*
X15850000Y-13850000D02*
X15900000Y-13800000D01*
X15850000Y-13750000D01*
X15800000Y-13800000D01*
X15850000Y-13850000D01*
X15868000Y-10670000D02*
X15918000Y-10620000D01*
X15868000Y-10570000D01*
X15818000Y-10620000D01*
X15868000Y-10670000D01*
X15868000Y-10924000D02*
X15918000Y-10874000D01*
X15868000Y-10824000D01*
X15818000Y-10874000D01*
X15868000Y-10924000D01*
D13*
X4745500Y-12093000D02*
X5065500Y-12413000D01*
X5065500Y-12093000D02*
X4745500Y-12413000D01*
X5065500Y-12253000D02*
G75*
G02*
X4745500Y-12253000I-160000J0D01*
G01*
X4745500Y-12253000D02*
G75*
G02*
X5065500Y-12253000I160000J0D01*
G01*
X4745500Y-15423000D02*
X5065500Y-15743000D01*
X5065500Y-15423000D02*
X4745500Y-15743000D01*
X5065500Y-15583000D02*
G75*
G02*
X4745500Y-15583000I-160000J0D01*
G01*
X4745500Y-15583000D02*
G75*
G02*
X5065500Y-15583000I160000J0D01*
G01*
D11*
X4209527Y-16317734D02*
X4209527Y-16117734D01*
X4209527Y-16117734D02*
X4257146Y-16117734D01*
X4257146Y-16117734D02*
X4285717Y-16127258D01*
X4285717Y-16127258D02*
X4304765Y-16146305D01*
X4304765Y-16146305D02*
X4314289Y-16165353D01*
X4314289Y-16165353D02*
X4323813Y-16203448D01*
X4323813Y-16203448D02*
X4323813Y-16232019D01*
X4323813Y-16232019D02*
X4314289Y-16270115D01*
X4314289Y-16270115D02*
X4304765Y-16289162D01*
X4304765Y-16289162D02*
X4285717Y-16308210D01*
X4285717Y-16308210D02*
X4257146Y-16317734D01*
X4257146Y-16317734D02*
X4209527Y-16317734D01*
X4409527Y-16317734D02*
X4409527Y-16184400D01*
X4409527Y-16222496D02*
X4419051Y-16203448D01*
X4419051Y-16203448D02*
X4428574Y-16193924D01*
X4428574Y-16193924D02*
X4447622Y-16184400D01*
X4447622Y-16184400D02*
X4466670Y-16184400D01*
X4533336Y-16317734D02*
X4533336Y-16184400D01*
X4533336Y-16117734D02*
X4523813Y-16127258D01*
X4523813Y-16127258D02*
X4533336Y-16136781D01*
X4533336Y-16136781D02*
X4542860Y-16127258D01*
X4542860Y-16127258D02*
X4533336Y-16117734D01*
X4533336Y-16117734D02*
X4533336Y-16136781D01*
X4657146Y-16317734D02*
X4638098Y-16308210D01*
X4638098Y-16308210D02*
X4628574Y-16289162D01*
X4628574Y-16289162D02*
X4628574Y-16117734D01*
X4761908Y-16317734D02*
X4742860Y-16308210D01*
X4742860Y-16308210D02*
X4733336Y-16289162D01*
X4733336Y-16289162D02*
X4733336Y-16117734D01*
X4990479Y-16317734D02*
X4990479Y-16117734D01*
X4990479Y-16117734D02*
X5057146Y-16260591D01*
X5057146Y-16260591D02*
X5123813Y-16117734D01*
X5123813Y-16117734D02*
X5123813Y-16317734D01*
X5304765Y-16317734D02*
X5304765Y-16212972D01*
X5304765Y-16212972D02*
X5295241Y-16193924D01*
X5295241Y-16193924D02*
X5276194Y-16184400D01*
X5276194Y-16184400D02*
X5238098Y-16184400D01*
X5238098Y-16184400D02*
X5219051Y-16193924D01*
X5304765Y-16308210D02*
X5285717Y-16317734D01*
X5285717Y-16317734D02*
X5238098Y-16317734D01*
X5238098Y-16317734D02*
X5219051Y-16308210D01*
X5219051Y-16308210D02*
X5209527Y-16289162D01*
X5209527Y-16289162D02*
X5209527Y-16270115D01*
X5209527Y-16270115D02*
X5219051Y-16251067D01*
X5219051Y-16251067D02*
X5238098Y-16241543D01*
X5238098Y-16241543D02*
X5285717Y-16241543D01*
X5285717Y-16241543D02*
X5304765Y-16232019D01*
X5400003Y-16184400D02*
X5400003Y-16384400D01*
X5400003Y-16193924D02*
X5419051Y-16184400D01*
X5419051Y-16184400D02*
X5457146Y-16184400D01*
X5457146Y-16184400D02*
X5476194Y-16193924D01*
X5476194Y-16193924D02*
X5485717Y-16203448D01*
X5485717Y-16203448D02*
X5495241Y-16222496D01*
X5495241Y-16222496D02*
X5495241Y-16279638D01*
X5495241Y-16279638D02*
X5485717Y-16298686D01*
X5485717Y-16298686D02*
X5476194Y-16308210D01*
X5476194Y-16308210D02*
X5457146Y-16317734D01*
X5457146Y-16317734D02*
X5419051Y-16317734D01*
X5419051Y-16317734D02*
X5400003Y-16308210D01*
X5580955Y-16298686D02*
X5590479Y-16308210D01*
X5590479Y-16308210D02*
X5580955Y-16317734D01*
X5580955Y-16317734D02*
X5571432Y-16308210D01*
X5571432Y-16308210D02*
X5580955Y-16298686D01*
X5580955Y-16298686D02*
X5580955Y-16317734D01*
X5580955Y-16193924D02*
X5590479Y-16203448D01*
X5590479Y-16203448D02*
X5580955Y-16212972D01*
X5580955Y-16212972D02*
X5571432Y-16203448D01*
X5571432Y-16203448D02*
X5580955Y-16193924D01*
X5580955Y-16193924D02*
X5580955Y-16212972D01*
D12*
X3918750Y-16631250D02*
X3948750Y-16661250D01*
X3948750Y-16631250D02*
X3918750Y-16661250D01*
D11*
X4247622Y-16537734D02*
X4266670Y-16537734D01*
X4266670Y-16537734D02*
X4285717Y-16547258D01*
X4285717Y-16547258D02*
X4295241Y-16556781D01*
X4295241Y-16556781D02*
X4304765Y-16575829D01*
X4304765Y-16575829D02*
X4314289Y-16613924D01*
X4314289Y-16613924D02*
X4314289Y-16661543D01*
X4314289Y-16661543D02*
X4304765Y-16699638D01*
X4304765Y-16699638D02*
X4295241Y-16718686D01*
X4295241Y-16718686D02*
X4285717Y-16728210D01*
X4285717Y-16728210D02*
X4266670Y-16737734D01*
X4266670Y-16737734D02*
X4247622Y-16737734D01*
X4247622Y-16737734D02*
X4228574Y-16728210D01*
X4228574Y-16728210D02*
X4219051Y-16718686D01*
X4219051Y-16718686D02*
X4209527Y-16699638D01*
X4209527Y-16699638D02*
X4200003Y-16661543D01*
X4200003Y-16661543D02*
X4200003Y-16613924D01*
X4200003Y-16613924D02*
X4209527Y-16575829D01*
X4209527Y-16575829D02*
X4219051Y-16556781D01*
X4219051Y-16556781D02*
X4228574Y-16547258D01*
X4228574Y-16547258D02*
X4247622Y-16537734D01*
X4400003Y-16718686D02*
X4409527Y-16728210D01*
X4409527Y-16728210D02*
X4400003Y-16737734D01*
X4400003Y-16737734D02*
X4390479Y-16728210D01*
X4390479Y-16728210D02*
X4400003Y-16718686D01*
X4400003Y-16718686D02*
X4400003Y-16737734D01*
X4476194Y-16537734D02*
X4600003Y-16537734D01*
X4600003Y-16537734D02*
X4533336Y-16613924D01*
X4533336Y-16613924D02*
X4561908Y-16613924D01*
X4561908Y-16613924D02*
X4580955Y-16623448D01*
X4580955Y-16623448D02*
X4590479Y-16632972D01*
X4590479Y-16632972D02*
X4600003Y-16652019D01*
X4600003Y-16652019D02*
X4600003Y-16699638D01*
X4600003Y-16699638D02*
X4590479Y-16718686D01*
X4590479Y-16718686D02*
X4580955Y-16728210D01*
X4580955Y-16728210D02*
X4561908Y-16737734D01*
X4561908Y-16737734D02*
X4504765Y-16737734D01*
X4504765Y-16737734D02*
X4485717Y-16728210D01*
X4485717Y-16728210D02*
X4476194Y-16718686D01*
X4723813Y-16537734D02*
X4742860Y-16537734D01*
X4742860Y-16537734D02*
X4761908Y-16547258D01*
X4761908Y-16547258D02*
X4771432Y-16556781D01*
X4771432Y-16556781D02*
X4780955Y-16575829D01*
X4780955Y-16575829D02*
X4790479Y-16613924D01*
X4790479Y-16613924D02*
X4790479Y-16661543D01*
X4790479Y-16661543D02*
X4780955Y-16699638D01*
X4780955Y-16699638D02*
X4771432Y-16718686D01*
X4771432Y-16718686D02*
X4761908Y-16728210D01*
X4761908Y-16728210D02*
X4742860Y-16737734D01*
X4742860Y-16737734D02*
X4723813Y-16737734D01*
X4723813Y-16737734D02*
X4704765Y-16728210D01*
X4704765Y-16728210D02*
X4695241Y-16718686D01*
X4695241Y-16718686D02*
X4685717Y-16699638D01*
X4685717Y-16699638D02*
X4676194Y-16661543D01*
X4676194Y-16661543D02*
X4676194Y-16613924D01*
X4676194Y-16613924D02*
X4685717Y-16575829D01*
X4685717Y-16575829D02*
X4695241Y-16556781D01*
X4695241Y-16556781D02*
X4704765Y-16547258D01*
X4704765Y-16547258D02*
X4723813Y-16537734D01*
X4914289Y-16537734D02*
X4933336Y-16537734D01*
X4933336Y-16537734D02*
X4952384Y-16547258D01*
X4952384Y-16547258D02*
X4961908Y-16556781D01*
X4961908Y-16556781D02*
X4971432Y-16575829D01*
X4971432Y-16575829D02*
X4980955Y-16613924D01*
X4980955Y-16613924D02*
X4980955Y-16661543D01*
X4980955Y-16661543D02*
X4971432Y-16699638D01*
X4971432Y-16699638D02*
X4961908Y-16718686D01*
X4961908Y-16718686D02*
X4952384Y-16728210D01*
X4952384Y-16728210D02*
X4933336Y-16737734D01*
X4933336Y-16737734D02*
X4914289Y-16737734D01*
X4914289Y-16737734D02*
X4895241Y-16728210D01*
X4895241Y-16728210D02*
X4885717Y-16718686D01*
X4885717Y-16718686D02*
X4876194Y-16699638D01*
X4876194Y-16699638D02*
X4866670Y-16661543D01*
X4866670Y-16661543D02*
X4866670Y-16613924D01*
X4866670Y-16613924D02*
X4876194Y-16575829D01*
X4876194Y-16575829D02*
X4885717Y-16556781D01*
X4885717Y-16556781D02*
X4895241Y-16547258D01*
X4895241Y-16547258D02*
X4914289Y-16537734D01*
X5066670Y-16737734D02*
X5066670Y-16604400D01*
X5066670Y-16623448D02*
X5076194Y-16613924D01*
X5076194Y-16613924D02*
X5095241Y-16604400D01*
X5095241Y-16604400D02*
X5123813Y-16604400D01*
X5123813Y-16604400D02*
X5142860Y-16613924D01*
X5142860Y-16613924D02*
X5152384Y-16632972D01*
X5152384Y-16632972D02*
X5152384Y-16737734D01*
X5152384Y-16632972D02*
X5161908Y-16613924D01*
X5161908Y-16613924D02*
X5180955Y-16604400D01*
X5180955Y-16604400D02*
X5209527Y-16604400D01*
X5209527Y-16604400D02*
X5228575Y-16613924D01*
X5228575Y-16613924D02*
X5238098Y-16632972D01*
X5238098Y-16632972D02*
X5238098Y-16737734D01*
X5333336Y-16737734D02*
X5333336Y-16604400D01*
X5333336Y-16623448D02*
X5342860Y-16613924D01*
X5342860Y-16613924D02*
X5361908Y-16604400D01*
X5361908Y-16604400D02*
X5390479Y-16604400D01*
X5390479Y-16604400D02*
X5409527Y-16613924D01*
X5409527Y-16613924D02*
X5419051Y-16632972D01*
X5419051Y-16632972D02*
X5419051Y-16737734D01*
X5419051Y-16632972D02*
X5428575Y-16613924D01*
X5428575Y-16613924D02*
X5447622Y-16604400D01*
X5447622Y-16604400D02*
X5476194Y-16604400D01*
X5476194Y-16604400D02*
X5495241Y-16613924D01*
X5495241Y-16613924D02*
X5504765Y-16632972D01*
X5504765Y-16632972D02*
X5504765Y-16737734D01*
X5895241Y-16528210D02*
X5723813Y-16785353D01*
X6152384Y-16537734D02*
X6171432Y-16537734D01*
X6171432Y-16537734D02*
X6190479Y-16547258D01*
X6190479Y-16547258D02*
X6200003Y-16556781D01*
X6200003Y-16556781D02*
X6209527Y-16575829D01*
X6209527Y-16575829D02*
X6219051Y-16613924D01*
X6219051Y-16613924D02*
X6219051Y-16661543D01*
X6219051Y-16661543D02*
X6209527Y-16699638D01*
X6209527Y-16699638D02*
X6200003Y-16718686D01*
X6200003Y-16718686D02*
X6190479Y-16728210D01*
X6190479Y-16728210D02*
X6171432Y-16737734D01*
X6171432Y-16737734D02*
X6152384Y-16737734D01*
X6152384Y-16737734D02*
X6133336Y-16728210D01*
X6133336Y-16728210D02*
X6123813Y-16718686D01*
X6123813Y-16718686D02*
X6114289Y-16699638D01*
X6114289Y-16699638D02*
X6104765Y-16661543D01*
X6104765Y-16661543D02*
X6104765Y-16613924D01*
X6104765Y-16613924D02*
X6114289Y-16575829D01*
X6114289Y-16575829D02*
X6123813Y-16556781D01*
X6123813Y-16556781D02*
X6133336Y-16547258D01*
X6133336Y-16547258D02*
X6152384Y-16537734D01*
X6304765Y-16718686D02*
X6314289Y-16728210D01*
X6314289Y-16728210D02*
X6304765Y-16737734D01*
X6304765Y-16737734D02*
X6295241Y-16728210D01*
X6295241Y-16728210D02*
X6304765Y-16718686D01*
X6304765Y-16718686D02*
X6304765Y-16737734D01*
X6438098Y-16537734D02*
X6457146Y-16537734D01*
X6457146Y-16537734D02*
X6476194Y-16547258D01*
X6476194Y-16547258D02*
X6485717Y-16556781D01*
X6485717Y-16556781D02*
X6495241Y-16575829D01*
X6495241Y-16575829D02*
X6504765Y-16613924D01*
X6504765Y-16613924D02*
X6504765Y-16661543D01*
X6504765Y-16661543D02*
X6495241Y-16699638D01*
X6495241Y-16699638D02*
X6485717Y-16718686D01*
X6485717Y-16718686D02*
X6476194Y-16728210D01*
X6476194Y-16728210D02*
X6457146Y-16737734D01*
X6457146Y-16737734D02*
X6438098Y-16737734D01*
X6438098Y-16737734D02*
X6419051Y-16728210D01*
X6419051Y-16728210D02*
X6409527Y-16718686D01*
X6409527Y-16718686D02*
X6400003Y-16699638D01*
X6400003Y-16699638D02*
X6390479Y-16661543D01*
X6390479Y-16661543D02*
X6390479Y-16613924D01*
X6390479Y-16613924D02*
X6400003Y-16575829D01*
X6400003Y-16575829D02*
X6409527Y-16556781D01*
X6409527Y-16556781D02*
X6419051Y-16547258D01*
X6419051Y-16547258D02*
X6438098Y-16537734D01*
X6695241Y-16737734D02*
X6580956Y-16737734D01*
X6638098Y-16737734D02*
X6638098Y-16537734D01*
X6638098Y-16537734D02*
X6619051Y-16566305D01*
X6619051Y-16566305D02*
X6600003Y-16585353D01*
X6600003Y-16585353D02*
X6580956Y-16594877D01*
X6885717Y-16737734D02*
X6771432Y-16737734D01*
X6828575Y-16737734D02*
X6828575Y-16537734D01*
X6828575Y-16537734D02*
X6809527Y-16566305D01*
X6809527Y-16566305D02*
X6790479Y-16585353D01*
X6790479Y-16585353D02*
X6771432Y-16594877D01*
X7000003Y-16623448D02*
X6980956Y-16613924D01*
X6980956Y-16613924D02*
X6971432Y-16604400D01*
X6971432Y-16604400D02*
X6961908Y-16585353D01*
X6961908Y-16585353D02*
X6961908Y-16575829D01*
X6961908Y-16575829D02*
X6971432Y-16556781D01*
X6971432Y-16556781D02*
X6980956Y-16547258D01*
X6980956Y-16547258D02*
X7000003Y-16537734D01*
X7000003Y-16537734D02*
X7038098Y-16537734D01*
X7038098Y-16537734D02*
X7057146Y-16547258D01*
X7057146Y-16547258D02*
X7066670Y-16556781D01*
X7066670Y-16556781D02*
X7076194Y-16575829D01*
X7076194Y-16575829D02*
X7076194Y-16585353D01*
X7076194Y-16585353D02*
X7066670Y-16604400D01*
X7066670Y-16604400D02*
X7057146Y-16613924D01*
X7057146Y-16613924D02*
X7038098Y-16623448D01*
X7038098Y-16623448D02*
X7000003Y-16623448D01*
X7000003Y-16623448D02*
X6980956Y-16632972D01*
X6980956Y-16632972D02*
X6971432Y-16642496D01*
X6971432Y-16642496D02*
X6961908Y-16661543D01*
X6961908Y-16661543D02*
X6961908Y-16699638D01*
X6961908Y-16699638D02*
X6971432Y-16718686D01*
X6971432Y-16718686D02*
X6980956Y-16728210D01*
X6980956Y-16728210D02*
X7000003Y-16737734D01*
X7000003Y-16737734D02*
X7038098Y-16737734D01*
X7038098Y-16737734D02*
X7057146Y-16728210D01*
X7057146Y-16728210D02*
X7066670Y-16718686D01*
X7066670Y-16718686D02*
X7076194Y-16699638D01*
X7076194Y-16699638D02*
X7076194Y-16661543D01*
X7076194Y-16661543D02*
X7066670Y-16642496D01*
X7066670Y-16642496D02*
X7057146Y-16632972D01*
X7057146Y-16632972D02*
X7038098Y-16623448D01*
X7152384Y-16537734D02*
X7152384Y-16575829D01*
X7228575Y-16537734D02*
X7228575Y-16575829D01*
X7523813Y-16813924D02*
X7514289Y-16804400D01*
X7514289Y-16804400D02*
X7495241Y-16775829D01*
X7495241Y-16775829D02*
X7485718Y-16756781D01*
X7485718Y-16756781D02*
X7476194Y-16728210D01*
X7476194Y-16728210D02*
X7466670Y-16680591D01*
X7466670Y-16680591D02*
X7466670Y-16642496D01*
X7466670Y-16642496D02*
X7476194Y-16594877D01*
X7476194Y-16594877D02*
X7485718Y-16566305D01*
X7485718Y-16566305D02*
X7495241Y-16547258D01*
X7495241Y-16547258D02*
X7514289Y-16518686D01*
X7514289Y-16518686D02*
X7523813Y-16509162D01*
X7590479Y-16556781D02*
X7600003Y-16547258D01*
X7600003Y-16547258D02*
X7619051Y-16537734D01*
X7619051Y-16537734D02*
X7666670Y-16537734D01*
X7666670Y-16537734D02*
X7685718Y-16547258D01*
X7685718Y-16547258D02*
X7695241Y-16556781D01*
X7695241Y-16556781D02*
X7704765Y-16575829D01*
X7704765Y-16575829D02*
X7704765Y-16594877D01*
X7704765Y-16594877D02*
X7695241Y-16623448D01*
X7695241Y-16623448D02*
X7580956Y-16737734D01*
X7580956Y-16737734D02*
X7704765Y-16737734D01*
X7771432Y-16537734D02*
X7904765Y-16537734D01*
X7904765Y-16537734D02*
X7819051Y-16737734D01*
X8009527Y-16623448D02*
X7990479Y-16613924D01*
X7990479Y-16613924D02*
X7980956Y-16604400D01*
X7980956Y-16604400D02*
X7971432Y-16585353D01*
X7971432Y-16585353D02*
X7971432Y-16575829D01*
X7971432Y-16575829D02*
X7980956Y-16556781D01*
X7980956Y-16556781D02*
X7990479Y-16547258D01*
X7990479Y-16547258D02*
X8009527Y-16537734D01*
X8009527Y-16537734D02*
X8047622Y-16537734D01*
X8047622Y-16537734D02*
X8066670Y-16547258D01*
X8066670Y-16547258D02*
X8076194Y-16556781D01*
X8076194Y-16556781D02*
X8085718Y-16575829D01*
X8085718Y-16575829D02*
X8085718Y-16585353D01*
X8085718Y-16585353D02*
X8076194Y-16604400D01*
X8076194Y-16604400D02*
X8066670Y-16613924D01*
X8066670Y-16613924D02*
X8047622Y-16623448D01*
X8047622Y-16623448D02*
X8009527Y-16623448D01*
X8009527Y-16623448D02*
X7990479Y-16632972D01*
X7990479Y-16632972D02*
X7980956Y-16642496D01*
X7980956Y-16642496D02*
X7971432Y-16661543D01*
X7971432Y-16661543D02*
X7971432Y-16699638D01*
X7971432Y-16699638D02*
X7980956Y-16718686D01*
X7980956Y-16718686D02*
X7990479Y-16728210D01*
X7990479Y-16728210D02*
X8009527Y-16737734D01*
X8009527Y-16737734D02*
X8047622Y-16737734D01*
X8047622Y-16737734D02*
X8066670Y-16728210D01*
X8066670Y-16728210D02*
X8076194Y-16718686D01*
X8076194Y-16718686D02*
X8085718Y-16699638D01*
X8085718Y-16699638D02*
X8085718Y-16661543D01*
X8085718Y-16661543D02*
X8076194Y-16642496D01*
X8076194Y-16642496D02*
X8066670Y-16632972D01*
X8066670Y-16632972D02*
X8047622Y-16623448D01*
X8323813Y-16737734D02*
X8323813Y-16537734D01*
X8409527Y-16737734D02*
X8409527Y-16632972D01*
X8409527Y-16632972D02*
X8400003Y-16613924D01*
X8400003Y-16613924D02*
X8380956Y-16604400D01*
X8380956Y-16604400D02*
X8352384Y-16604400D01*
X8352384Y-16604400D02*
X8333337Y-16613924D01*
X8333337Y-16613924D02*
X8323813Y-16623448D01*
X8533337Y-16737734D02*
X8514289Y-16728210D01*
X8514289Y-16728210D02*
X8504765Y-16718686D01*
X8504765Y-16718686D02*
X8495242Y-16699638D01*
X8495242Y-16699638D02*
X8495242Y-16642496D01*
X8495242Y-16642496D02*
X8504765Y-16623448D01*
X8504765Y-16623448D02*
X8514289Y-16613924D01*
X8514289Y-16613924D02*
X8533337Y-16604400D01*
X8533337Y-16604400D02*
X8561908Y-16604400D01*
X8561908Y-16604400D02*
X8580956Y-16613924D01*
X8580956Y-16613924D02*
X8590480Y-16623448D01*
X8590480Y-16623448D02*
X8600003Y-16642496D01*
X8600003Y-16642496D02*
X8600003Y-16699638D01*
X8600003Y-16699638D02*
X8590480Y-16718686D01*
X8590480Y-16718686D02*
X8580956Y-16728210D01*
X8580956Y-16728210D02*
X8561908Y-16737734D01*
X8561908Y-16737734D02*
X8533337Y-16737734D01*
X8714289Y-16737734D02*
X8695242Y-16728210D01*
X8695242Y-16728210D02*
X8685718Y-16709162D01*
X8685718Y-16709162D02*
X8685718Y-16537734D01*
X8866670Y-16728210D02*
X8847623Y-16737734D01*
X8847623Y-16737734D02*
X8809527Y-16737734D01*
X8809527Y-16737734D02*
X8790480Y-16728210D01*
X8790480Y-16728210D02*
X8780956Y-16709162D01*
X8780956Y-16709162D02*
X8780956Y-16632972D01*
X8780956Y-16632972D02*
X8790480Y-16613924D01*
X8790480Y-16613924D02*
X8809527Y-16604400D01*
X8809527Y-16604400D02*
X8847623Y-16604400D01*
X8847623Y-16604400D02*
X8866670Y-16613924D01*
X8866670Y-16613924D02*
X8876194Y-16632972D01*
X8876194Y-16632972D02*
X8876194Y-16652019D01*
X8876194Y-16652019D02*
X8780956Y-16671067D01*
X8952384Y-16728210D02*
X8971432Y-16737734D01*
X8971432Y-16737734D02*
X9009527Y-16737734D01*
X9009527Y-16737734D02*
X9028575Y-16728210D01*
X9028575Y-16728210D02*
X9038099Y-16709162D01*
X9038099Y-16709162D02*
X9038099Y-16699638D01*
X9038099Y-16699638D02*
X9028575Y-16680591D01*
X9028575Y-16680591D02*
X9009527Y-16671067D01*
X9009527Y-16671067D02*
X8980956Y-16671067D01*
X8980956Y-16671067D02*
X8961908Y-16661543D01*
X8961908Y-16661543D02*
X8952384Y-16642496D01*
X8952384Y-16642496D02*
X8952384Y-16632972D01*
X8952384Y-16632972D02*
X8961908Y-16613924D01*
X8961908Y-16613924D02*
X8980956Y-16604400D01*
X8980956Y-16604400D02*
X9009527Y-16604400D01*
X9009527Y-16604400D02*
X9028575Y-16613924D01*
X9104765Y-16813924D02*
X9114289Y-16804400D01*
X9114289Y-16804400D02*
X9133337Y-16775829D01*
X9133337Y-16775829D02*
X9142861Y-16756781D01*
X9142861Y-16756781D02*
X9152384Y-16728210D01*
X9152384Y-16728210D02*
X9161908Y-16680591D01*
X9161908Y-16680591D02*
X9161908Y-16642496D01*
X9161908Y-16642496D02*
X9152384Y-16594877D01*
X9152384Y-16594877D02*
X9142861Y-16566305D01*
X9142861Y-16566305D02*
X9133337Y-16547258D01*
X9133337Y-16547258D02*
X9114289Y-16518686D01*
X9114289Y-16518686D02*
X9104765Y-16509162D01*
D12*
X3948750Y-16910250D02*
G75*
G02*
X3908750Y-16910250I-20000J0D01*
G01*
X3908750Y-16910250D02*
G75*
G02*
X3948750Y-16910250I20000J0D01*
G01*
D11*
X4247622Y-16801734D02*
X4266670Y-16801734D01*
X4266670Y-16801734D02*
X4285717Y-16811258D01*
X4285717Y-16811258D02*
X4295241Y-16820781D01*
X4295241Y-16820781D02*
X4304765Y-16839829D01*
X4304765Y-16839829D02*
X4314289Y-16877924D01*
X4314289Y-16877924D02*
X4314289Y-16925543D01*
X4314289Y-16925543D02*
X4304765Y-16963639D01*
X4304765Y-16963639D02*
X4295241Y-16982686D01*
X4295241Y-16982686D02*
X4285717Y-16992210D01*
X4285717Y-16992210D02*
X4266670Y-17001734D01*
X4266670Y-17001734D02*
X4247622Y-17001734D01*
X4247622Y-17001734D02*
X4228574Y-16992210D01*
X4228574Y-16992210D02*
X4219051Y-16982686D01*
X4219051Y-16982686D02*
X4209527Y-16963639D01*
X4209527Y-16963639D02*
X4200003Y-16925543D01*
X4200003Y-16925543D02*
X4200003Y-16877924D01*
X4200003Y-16877924D02*
X4209527Y-16839829D01*
X4209527Y-16839829D02*
X4219051Y-16820781D01*
X4219051Y-16820781D02*
X4228574Y-16811258D01*
X4228574Y-16811258D02*
X4247622Y-16801734D01*
X4400003Y-16982686D02*
X4409527Y-16992210D01*
X4409527Y-16992210D02*
X4400003Y-17001734D01*
X4400003Y-17001734D02*
X4390479Y-16992210D01*
X4390479Y-16992210D02*
X4400003Y-16982686D01*
X4400003Y-16982686D02*
X4400003Y-17001734D01*
X4580955Y-16868400D02*
X4580955Y-17001734D01*
X4533336Y-16792210D02*
X4485717Y-16935067D01*
X4485717Y-16935067D02*
X4609527Y-16935067D01*
X4723813Y-16801734D02*
X4742860Y-16801734D01*
X4742860Y-16801734D02*
X4761908Y-16811258D01*
X4761908Y-16811258D02*
X4771432Y-16820781D01*
X4771432Y-16820781D02*
X4780955Y-16839829D01*
X4780955Y-16839829D02*
X4790479Y-16877924D01*
X4790479Y-16877924D02*
X4790479Y-16925543D01*
X4790479Y-16925543D02*
X4780955Y-16963639D01*
X4780955Y-16963639D02*
X4771432Y-16982686D01*
X4771432Y-16982686D02*
X4761908Y-16992210D01*
X4761908Y-16992210D02*
X4742860Y-17001734D01*
X4742860Y-17001734D02*
X4723813Y-17001734D01*
X4723813Y-17001734D02*
X4704765Y-16992210D01*
X4704765Y-16992210D02*
X4695241Y-16982686D01*
X4695241Y-16982686D02*
X4685717Y-16963639D01*
X4685717Y-16963639D02*
X4676194Y-16925543D01*
X4676194Y-16925543D02*
X4676194Y-16877924D01*
X4676194Y-16877924D02*
X4685717Y-16839829D01*
X4685717Y-16839829D02*
X4695241Y-16820781D01*
X4695241Y-16820781D02*
X4704765Y-16811258D01*
X4704765Y-16811258D02*
X4723813Y-16801734D01*
X4914289Y-16801734D02*
X4933336Y-16801734D01*
X4933336Y-16801734D02*
X4952384Y-16811258D01*
X4952384Y-16811258D02*
X4961908Y-16820781D01*
X4961908Y-16820781D02*
X4971432Y-16839829D01*
X4971432Y-16839829D02*
X4980955Y-16877924D01*
X4980955Y-16877924D02*
X4980955Y-16925543D01*
X4980955Y-16925543D02*
X4971432Y-16963639D01*
X4971432Y-16963639D02*
X4961908Y-16982686D01*
X4961908Y-16982686D02*
X4952384Y-16992210D01*
X4952384Y-16992210D02*
X4933336Y-17001734D01*
X4933336Y-17001734D02*
X4914289Y-17001734D01*
X4914289Y-17001734D02*
X4895241Y-16992210D01*
X4895241Y-16992210D02*
X4885717Y-16982686D01*
X4885717Y-16982686D02*
X4876194Y-16963639D01*
X4876194Y-16963639D02*
X4866670Y-16925543D01*
X4866670Y-16925543D02*
X4866670Y-16877924D01*
X4866670Y-16877924D02*
X4876194Y-16839829D01*
X4876194Y-16839829D02*
X4885717Y-16820781D01*
X4885717Y-16820781D02*
X4895241Y-16811258D01*
X4895241Y-16811258D02*
X4914289Y-16801734D01*
X5066670Y-17001734D02*
X5066670Y-16868400D01*
X5066670Y-16887448D02*
X5076194Y-16877924D01*
X5076194Y-16877924D02*
X5095241Y-16868400D01*
X5095241Y-16868400D02*
X5123813Y-16868400D01*
X5123813Y-16868400D02*
X5142860Y-16877924D01*
X5142860Y-16877924D02*
X5152384Y-16896972D01*
X5152384Y-16896972D02*
X5152384Y-17001734D01*
X5152384Y-16896972D02*
X5161908Y-16877924D01*
X5161908Y-16877924D02*
X5180955Y-16868400D01*
X5180955Y-16868400D02*
X5209527Y-16868400D01*
X5209527Y-16868400D02*
X5228575Y-16877924D01*
X5228575Y-16877924D02*
X5238098Y-16896972D01*
X5238098Y-16896972D02*
X5238098Y-17001734D01*
X5333336Y-17001734D02*
X5333336Y-16868400D01*
X5333336Y-16887448D02*
X5342860Y-16877924D01*
X5342860Y-16877924D02*
X5361908Y-16868400D01*
X5361908Y-16868400D02*
X5390479Y-16868400D01*
X5390479Y-16868400D02*
X5409527Y-16877924D01*
X5409527Y-16877924D02*
X5419051Y-16896972D01*
X5419051Y-16896972D02*
X5419051Y-17001734D01*
X5419051Y-16896972D02*
X5428575Y-16877924D01*
X5428575Y-16877924D02*
X5447622Y-16868400D01*
X5447622Y-16868400D02*
X5476194Y-16868400D01*
X5476194Y-16868400D02*
X5495241Y-16877924D01*
X5495241Y-16877924D02*
X5504765Y-16896972D01*
X5504765Y-16896972D02*
X5504765Y-17001734D01*
X5895241Y-16792210D02*
X5723813Y-17049353D01*
X6152384Y-16801734D02*
X6171432Y-16801734D01*
X6171432Y-16801734D02*
X6190479Y-16811258D01*
X6190479Y-16811258D02*
X6200003Y-16820781D01*
X6200003Y-16820781D02*
X6209527Y-16839829D01*
X6209527Y-16839829D02*
X6219051Y-16877924D01*
X6219051Y-16877924D02*
X6219051Y-16925543D01*
X6219051Y-16925543D02*
X6209527Y-16963639D01*
X6209527Y-16963639D02*
X6200003Y-16982686D01*
X6200003Y-16982686D02*
X6190479Y-16992210D01*
X6190479Y-16992210D02*
X6171432Y-17001734D01*
X6171432Y-17001734D02*
X6152384Y-17001734D01*
X6152384Y-17001734D02*
X6133336Y-16992210D01*
X6133336Y-16992210D02*
X6123813Y-16982686D01*
X6123813Y-16982686D02*
X6114289Y-16963639D01*
X6114289Y-16963639D02*
X6104765Y-16925543D01*
X6104765Y-16925543D02*
X6104765Y-16877924D01*
X6104765Y-16877924D02*
X6114289Y-16839829D01*
X6114289Y-16839829D02*
X6123813Y-16820781D01*
X6123813Y-16820781D02*
X6133336Y-16811258D01*
X6133336Y-16811258D02*
X6152384Y-16801734D01*
X6304765Y-16982686D02*
X6314289Y-16992210D01*
X6314289Y-16992210D02*
X6304765Y-17001734D01*
X6304765Y-17001734D02*
X6295241Y-16992210D01*
X6295241Y-16992210D02*
X6304765Y-16982686D01*
X6304765Y-16982686D02*
X6304765Y-17001734D01*
X6438098Y-16801734D02*
X6457146Y-16801734D01*
X6457146Y-16801734D02*
X6476194Y-16811258D01*
X6476194Y-16811258D02*
X6485717Y-16820781D01*
X6485717Y-16820781D02*
X6495241Y-16839829D01*
X6495241Y-16839829D02*
X6504765Y-16877924D01*
X6504765Y-16877924D02*
X6504765Y-16925543D01*
X6504765Y-16925543D02*
X6495241Y-16963639D01*
X6495241Y-16963639D02*
X6485717Y-16982686D01*
X6485717Y-16982686D02*
X6476194Y-16992210D01*
X6476194Y-16992210D02*
X6457146Y-17001734D01*
X6457146Y-17001734D02*
X6438098Y-17001734D01*
X6438098Y-17001734D02*
X6419051Y-16992210D01*
X6419051Y-16992210D02*
X6409527Y-16982686D01*
X6409527Y-16982686D02*
X6400003Y-16963639D01*
X6400003Y-16963639D02*
X6390479Y-16925543D01*
X6390479Y-16925543D02*
X6390479Y-16877924D01*
X6390479Y-16877924D02*
X6400003Y-16839829D01*
X6400003Y-16839829D02*
X6409527Y-16820781D01*
X6409527Y-16820781D02*
X6419051Y-16811258D01*
X6419051Y-16811258D02*
X6438098Y-16801734D01*
X6695241Y-17001734D02*
X6580956Y-17001734D01*
X6638098Y-17001734D02*
X6638098Y-16801734D01*
X6638098Y-16801734D02*
X6619051Y-16830305D01*
X6619051Y-16830305D02*
X6600003Y-16849353D01*
X6600003Y-16849353D02*
X6580956Y-16858877D01*
X6876194Y-16801734D02*
X6780956Y-16801734D01*
X6780956Y-16801734D02*
X6771432Y-16896972D01*
X6771432Y-16896972D02*
X6780956Y-16887448D01*
X6780956Y-16887448D02*
X6800003Y-16877924D01*
X6800003Y-16877924D02*
X6847622Y-16877924D01*
X6847622Y-16877924D02*
X6866670Y-16887448D01*
X6866670Y-16887448D02*
X6876194Y-16896972D01*
X6876194Y-16896972D02*
X6885717Y-16916020D01*
X6885717Y-16916020D02*
X6885717Y-16963639D01*
X6885717Y-16963639D02*
X6876194Y-16982686D01*
X6876194Y-16982686D02*
X6866670Y-16992210D01*
X6866670Y-16992210D02*
X6847622Y-17001734D01*
X6847622Y-17001734D02*
X6800003Y-17001734D01*
X6800003Y-17001734D02*
X6780956Y-16992210D01*
X6780956Y-16992210D02*
X6771432Y-16982686D01*
X6952384Y-16801734D02*
X7085717Y-16801734D01*
X7085717Y-16801734D02*
X7000003Y-17001734D01*
X7152384Y-16801734D02*
X7152384Y-16839829D01*
X7228575Y-16801734D02*
X7228575Y-16839829D01*
X7523813Y-17077924D02*
X7514289Y-17068400D01*
X7514289Y-17068400D02*
X7495241Y-17039829D01*
X7495241Y-17039829D02*
X7485718Y-17020781D01*
X7485718Y-17020781D02*
X7476194Y-16992210D01*
X7476194Y-16992210D02*
X7466670Y-16944591D01*
X7466670Y-16944591D02*
X7466670Y-16906496D01*
X7466670Y-16906496D02*
X7476194Y-16858877D01*
X7476194Y-16858877D02*
X7485718Y-16830305D01*
X7485718Y-16830305D02*
X7495241Y-16811258D01*
X7495241Y-16811258D02*
X7514289Y-16782686D01*
X7514289Y-16782686D02*
X7523813Y-16773162D01*
X7638098Y-16801734D02*
X7657146Y-16801734D01*
X7657146Y-16801734D02*
X7676194Y-16811258D01*
X7676194Y-16811258D02*
X7685718Y-16820781D01*
X7685718Y-16820781D02*
X7695241Y-16839829D01*
X7695241Y-16839829D02*
X7704765Y-16877924D01*
X7704765Y-16877924D02*
X7704765Y-16925543D01*
X7704765Y-16925543D02*
X7695241Y-16963639D01*
X7695241Y-16963639D02*
X7685718Y-16982686D01*
X7685718Y-16982686D02*
X7676194Y-16992210D01*
X7676194Y-16992210D02*
X7657146Y-17001734D01*
X7657146Y-17001734D02*
X7638098Y-17001734D01*
X7638098Y-17001734D02*
X7619051Y-16992210D01*
X7619051Y-16992210D02*
X7609527Y-16982686D01*
X7609527Y-16982686D02*
X7600003Y-16963639D01*
X7600003Y-16963639D02*
X7590479Y-16925543D01*
X7590479Y-16925543D02*
X7590479Y-16877924D01*
X7590479Y-16877924D02*
X7600003Y-16839829D01*
X7600003Y-16839829D02*
X7609527Y-16820781D01*
X7609527Y-16820781D02*
X7619051Y-16811258D01*
X7619051Y-16811258D02*
X7638098Y-16801734D01*
X7942860Y-17001734D02*
X7942860Y-16801734D01*
X8028575Y-17001734D02*
X8028575Y-16896972D01*
X8028575Y-16896972D02*
X8019051Y-16877924D01*
X8019051Y-16877924D02*
X8000003Y-16868400D01*
X8000003Y-16868400D02*
X7971432Y-16868400D01*
X7971432Y-16868400D02*
X7952384Y-16877924D01*
X7952384Y-16877924D02*
X7942860Y-16887448D01*
X8152384Y-17001734D02*
X8133337Y-16992210D01*
X8133337Y-16992210D02*
X8123813Y-16982686D01*
X8123813Y-16982686D02*
X8114289Y-16963639D01*
X8114289Y-16963639D02*
X8114289Y-16906496D01*
X8114289Y-16906496D02*
X8123813Y-16887448D01*
X8123813Y-16887448D02*
X8133337Y-16877924D01*
X8133337Y-16877924D02*
X8152384Y-16868400D01*
X8152384Y-16868400D02*
X8180956Y-16868400D01*
X8180956Y-16868400D02*
X8200003Y-16877924D01*
X8200003Y-16877924D02*
X8209527Y-16887448D01*
X8209527Y-16887448D02*
X8219051Y-16906496D01*
X8219051Y-16906496D02*
X8219051Y-16963639D01*
X8219051Y-16963639D02*
X8209527Y-16982686D01*
X8209527Y-16982686D02*
X8200003Y-16992210D01*
X8200003Y-16992210D02*
X8180956Y-17001734D01*
X8180956Y-17001734D02*
X8152384Y-17001734D01*
X8333337Y-17001734D02*
X8314289Y-16992210D01*
X8314289Y-16992210D02*
X8304765Y-16973162D01*
X8304765Y-16973162D02*
X8304765Y-16801734D01*
X8485718Y-16992210D02*
X8466670Y-17001734D01*
X8466670Y-17001734D02*
X8428575Y-17001734D01*
X8428575Y-17001734D02*
X8409527Y-16992210D01*
X8409527Y-16992210D02*
X8400003Y-16973162D01*
X8400003Y-16973162D02*
X8400003Y-16896972D01*
X8400003Y-16896972D02*
X8409527Y-16877924D01*
X8409527Y-16877924D02*
X8428575Y-16868400D01*
X8428575Y-16868400D02*
X8466670Y-16868400D01*
X8466670Y-16868400D02*
X8485718Y-16877924D01*
X8485718Y-16877924D02*
X8495242Y-16896972D01*
X8495242Y-16896972D02*
X8495242Y-16916020D01*
X8495242Y-16916020D02*
X8400003Y-16935067D01*
X8571432Y-16992210D02*
X8590480Y-17001734D01*
X8590480Y-17001734D02*
X8628575Y-17001734D01*
X8628575Y-17001734D02*
X8647623Y-16992210D01*
X8647623Y-16992210D02*
X8657146Y-16973162D01*
X8657146Y-16973162D02*
X8657146Y-16963639D01*
X8657146Y-16963639D02*
X8647623Y-16944591D01*
X8647623Y-16944591D02*
X8628575Y-16935067D01*
X8628575Y-16935067D02*
X8600003Y-16935067D01*
X8600003Y-16935067D02*
X8580956Y-16925543D01*
X8580956Y-16925543D02*
X8571432Y-16906496D01*
X8571432Y-16906496D02*
X8571432Y-16896972D01*
X8571432Y-16896972D02*
X8580956Y-16877924D01*
X8580956Y-16877924D02*
X8600003Y-16868400D01*
X8600003Y-16868400D02*
X8628575Y-16868400D01*
X8628575Y-16868400D02*
X8647623Y-16877924D01*
X8895242Y-16925543D02*
X9047623Y-16925543D01*
X8971432Y-17001734D02*
X8971432Y-16849353D01*
X9276194Y-16801734D02*
X9400004Y-16801734D01*
X9400004Y-16801734D02*
X9333337Y-16877924D01*
X9333337Y-16877924D02*
X9361908Y-16877924D01*
X9361908Y-16877924D02*
X9380956Y-16887448D01*
X9380956Y-16887448D02*
X9390480Y-16896972D01*
X9390480Y-16896972D02*
X9400004Y-16916020D01*
X9400004Y-16916020D02*
X9400004Y-16963639D01*
X9400004Y-16963639D02*
X9390480Y-16982686D01*
X9390480Y-16982686D02*
X9380956Y-16992210D01*
X9380956Y-16992210D02*
X9361908Y-17001734D01*
X9361908Y-17001734D02*
X9304765Y-17001734D01*
X9304765Y-17001734D02*
X9285718Y-16992210D01*
X9285718Y-16992210D02*
X9276194Y-16982686D01*
X9628575Y-16992210D02*
X9647623Y-17001734D01*
X9647623Y-17001734D02*
X9685718Y-17001734D01*
X9685718Y-17001734D02*
X9704766Y-16992210D01*
X9704766Y-16992210D02*
X9714289Y-16973162D01*
X9714289Y-16973162D02*
X9714289Y-16963639D01*
X9714289Y-16963639D02*
X9704766Y-16944591D01*
X9704766Y-16944591D02*
X9685718Y-16935067D01*
X9685718Y-16935067D02*
X9657146Y-16935067D01*
X9657146Y-16935067D02*
X9638099Y-16925543D01*
X9638099Y-16925543D02*
X9628575Y-16906496D01*
X9628575Y-16906496D02*
X9628575Y-16896972D01*
X9628575Y-16896972D02*
X9638099Y-16877924D01*
X9638099Y-16877924D02*
X9657146Y-16868400D01*
X9657146Y-16868400D02*
X9685718Y-16868400D01*
X9685718Y-16868400D02*
X9704766Y-16877924D01*
X9828575Y-17001734D02*
X9809527Y-16992210D01*
X9809527Y-16992210D02*
X9800004Y-16973162D01*
X9800004Y-16973162D02*
X9800004Y-16801734D01*
X9933337Y-17001734D02*
X9914289Y-16992210D01*
X9914289Y-16992210D02*
X9904766Y-16982686D01*
X9904766Y-16982686D02*
X9895242Y-16963639D01*
X9895242Y-16963639D02*
X9895242Y-16906496D01*
X9895242Y-16906496D02*
X9904766Y-16887448D01*
X9904766Y-16887448D02*
X9914289Y-16877924D01*
X9914289Y-16877924D02*
X9933337Y-16868400D01*
X9933337Y-16868400D02*
X9961908Y-16868400D01*
X9961908Y-16868400D02*
X9980956Y-16877924D01*
X9980956Y-16877924D02*
X9990480Y-16887448D01*
X9990480Y-16887448D02*
X10000004Y-16906496D01*
X10000004Y-16906496D02*
X10000004Y-16963639D01*
X10000004Y-16963639D02*
X9990480Y-16982686D01*
X9990480Y-16982686D02*
X9980956Y-16992210D01*
X9980956Y-16992210D02*
X9961908Y-17001734D01*
X9961908Y-17001734D02*
X9933337Y-17001734D01*
X10057147Y-16868400D02*
X10133337Y-16868400D01*
X10085718Y-16801734D02*
X10085718Y-16973162D01*
X10085718Y-16973162D02*
X10095242Y-16992210D01*
X10095242Y-16992210D02*
X10114289Y-17001734D01*
X10114289Y-17001734D02*
X10133337Y-17001734D01*
X10190480Y-16992210D02*
X10209527Y-17001734D01*
X10209527Y-17001734D02*
X10247623Y-17001734D01*
X10247623Y-17001734D02*
X10266670Y-16992210D01*
X10266670Y-16992210D02*
X10276194Y-16973162D01*
X10276194Y-16973162D02*
X10276194Y-16963639D01*
X10276194Y-16963639D02*
X10266670Y-16944591D01*
X10266670Y-16944591D02*
X10247623Y-16935067D01*
X10247623Y-16935067D02*
X10219051Y-16935067D01*
X10219051Y-16935067D02*
X10200004Y-16925543D01*
X10200004Y-16925543D02*
X10190480Y-16906496D01*
X10190480Y-16906496D02*
X10190480Y-16896972D01*
X10190480Y-16896972D02*
X10200004Y-16877924D01*
X10200004Y-16877924D02*
X10219051Y-16868400D01*
X10219051Y-16868400D02*
X10247623Y-16868400D01*
X10247623Y-16868400D02*
X10266670Y-16877924D01*
X10342861Y-17077924D02*
X10352385Y-17068400D01*
X10352385Y-17068400D02*
X10371432Y-17039829D01*
X10371432Y-17039829D02*
X10380956Y-17020781D01*
X10380956Y-17020781D02*
X10390480Y-16992210D01*
X10390480Y-16992210D02*
X10400004Y-16944591D01*
X10400004Y-16944591D02*
X10400004Y-16906496D01*
X10400004Y-16906496D02*
X10390480Y-16858877D01*
X10390480Y-16858877D02*
X10380956Y-16830305D01*
X10380956Y-16830305D02*
X10371432Y-16811258D01*
X10371432Y-16811258D02*
X10352385Y-16782686D01*
X10352385Y-16782686D02*
X10342861Y-16773162D01*
D12*
X3916250Y-17141750D02*
X3916250Y-17206750D01*
X3883750Y-17174250D02*
X3948750Y-17174250D01*
D11*
X4247622Y-17065734D02*
X4266670Y-17065734D01*
X4266670Y-17065734D02*
X4285717Y-17075258D01*
X4285717Y-17075258D02*
X4295241Y-17084781D01*
X4295241Y-17084781D02*
X4304765Y-17103829D01*
X4304765Y-17103829D02*
X4314289Y-17141924D01*
X4314289Y-17141924D02*
X4314289Y-17189543D01*
X4314289Y-17189543D02*
X4304765Y-17227639D01*
X4304765Y-17227639D02*
X4295241Y-17246686D01*
X4295241Y-17246686D02*
X4285717Y-17256210D01*
X4285717Y-17256210D02*
X4266670Y-17265734D01*
X4266670Y-17265734D02*
X4247622Y-17265734D01*
X4247622Y-17265734D02*
X4228574Y-17256210D01*
X4228574Y-17256210D02*
X4219051Y-17246686D01*
X4219051Y-17246686D02*
X4209527Y-17227639D01*
X4209527Y-17227639D02*
X4200003Y-17189543D01*
X4200003Y-17189543D02*
X4200003Y-17141924D01*
X4200003Y-17141924D02*
X4209527Y-17103829D01*
X4209527Y-17103829D02*
X4219051Y-17084781D01*
X4219051Y-17084781D02*
X4228574Y-17075258D01*
X4228574Y-17075258D02*
X4247622Y-17065734D01*
X4400003Y-17246686D02*
X4409527Y-17256210D01*
X4409527Y-17256210D02*
X4400003Y-17265734D01*
X4400003Y-17265734D02*
X4390479Y-17256210D01*
X4390479Y-17256210D02*
X4400003Y-17246686D01*
X4400003Y-17246686D02*
X4400003Y-17265734D01*
X4580955Y-17065734D02*
X4542860Y-17065734D01*
X4542860Y-17065734D02*
X4523813Y-17075258D01*
X4523813Y-17075258D02*
X4514289Y-17084781D01*
X4514289Y-17084781D02*
X4495241Y-17113353D01*
X4495241Y-17113353D02*
X4485717Y-17151448D01*
X4485717Y-17151448D02*
X4485717Y-17227639D01*
X4485717Y-17227639D02*
X4495241Y-17246686D01*
X4495241Y-17246686D02*
X4504765Y-17256210D01*
X4504765Y-17256210D02*
X4523813Y-17265734D01*
X4523813Y-17265734D02*
X4561908Y-17265734D01*
X4561908Y-17265734D02*
X4580955Y-17256210D01*
X4580955Y-17256210D02*
X4590479Y-17246686D01*
X4590479Y-17246686D02*
X4600003Y-17227639D01*
X4600003Y-17227639D02*
X4600003Y-17180020D01*
X4600003Y-17180020D02*
X4590479Y-17160972D01*
X4590479Y-17160972D02*
X4580955Y-17151448D01*
X4580955Y-17151448D02*
X4561908Y-17141924D01*
X4561908Y-17141924D02*
X4523813Y-17141924D01*
X4523813Y-17141924D02*
X4504765Y-17151448D01*
X4504765Y-17151448D02*
X4495241Y-17160972D01*
X4495241Y-17160972D02*
X4485717Y-17180020D01*
X4780955Y-17065734D02*
X4685717Y-17065734D01*
X4685717Y-17065734D02*
X4676194Y-17160972D01*
X4676194Y-17160972D02*
X4685717Y-17151448D01*
X4685717Y-17151448D02*
X4704765Y-17141924D01*
X4704765Y-17141924D02*
X4752384Y-17141924D01*
X4752384Y-17141924D02*
X4771432Y-17151448D01*
X4771432Y-17151448D02*
X4780955Y-17160972D01*
X4780955Y-17160972D02*
X4790479Y-17180020D01*
X4790479Y-17180020D02*
X4790479Y-17227639D01*
X4790479Y-17227639D02*
X4780955Y-17246686D01*
X4780955Y-17246686D02*
X4771432Y-17256210D01*
X4771432Y-17256210D02*
X4752384Y-17265734D01*
X4752384Y-17265734D02*
X4704765Y-17265734D01*
X4704765Y-17265734D02*
X4685717Y-17256210D01*
X4685717Y-17256210D02*
X4676194Y-17246686D01*
X4914289Y-17065734D02*
X4933336Y-17065734D01*
X4933336Y-17065734D02*
X4952384Y-17075258D01*
X4952384Y-17075258D02*
X4961908Y-17084781D01*
X4961908Y-17084781D02*
X4971432Y-17103829D01*
X4971432Y-17103829D02*
X4980955Y-17141924D01*
X4980955Y-17141924D02*
X4980955Y-17189543D01*
X4980955Y-17189543D02*
X4971432Y-17227639D01*
X4971432Y-17227639D02*
X4961908Y-17246686D01*
X4961908Y-17246686D02*
X4952384Y-17256210D01*
X4952384Y-17256210D02*
X4933336Y-17265734D01*
X4933336Y-17265734D02*
X4914289Y-17265734D01*
X4914289Y-17265734D02*
X4895241Y-17256210D01*
X4895241Y-17256210D02*
X4885717Y-17246686D01*
X4885717Y-17246686D02*
X4876194Y-17227639D01*
X4876194Y-17227639D02*
X4866670Y-17189543D01*
X4866670Y-17189543D02*
X4866670Y-17141924D01*
X4866670Y-17141924D02*
X4876194Y-17103829D01*
X4876194Y-17103829D02*
X4885717Y-17084781D01*
X4885717Y-17084781D02*
X4895241Y-17075258D01*
X4895241Y-17075258D02*
X4914289Y-17065734D01*
X5066670Y-17265734D02*
X5066670Y-17132400D01*
X5066670Y-17151448D02*
X5076194Y-17141924D01*
X5076194Y-17141924D02*
X5095241Y-17132400D01*
X5095241Y-17132400D02*
X5123813Y-17132400D01*
X5123813Y-17132400D02*
X5142860Y-17141924D01*
X5142860Y-17141924D02*
X5152384Y-17160972D01*
X5152384Y-17160972D02*
X5152384Y-17265734D01*
X5152384Y-17160972D02*
X5161908Y-17141924D01*
X5161908Y-17141924D02*
X5180955Y-17132400D01*
X5180955Y-17132400D02*
X5209527Y-17132400D01*
X5209527Y-17132400D02*
X5228575Y-17141924D01*
X5228575Y-17141924D02*
X5238098Y-17160972D01*
X5238098Y-17160972D02*
X5238098Y-17265734D01*
X5333336Y-17265734D02*
X5333336Y-17132400D01*
X5333336Y-17151448D02*
X5342860Y-17141924D01*
X5342860Y-17141924D02*
X5361908Y-17132400D01*
X5361908Y-17132400D02*
X5390479Y-17132400D01*
X5390479Y-17132400D02*
X5409527Y-17141924D01*
X5409527Y-17141924D02*
X5419051Y-17160972D01*
X5419051Y-17160972D02*
X5419051Y-17265734D01*
X5419051Y-17160972D02*
X5428575Y-17141924D01*
X5428575Y-17141924D02*
X5447622Y-17132400D01*
X5447622Y-17132400D02*
X5476194Y-17132400D01*
X5476194Y-17132400D02*
X5495241Y-17141924D01*
X5495241Y-17141924D02*
X5504765Y-17160972D01*
X5504765Y-17160972D02*
X5504765Y-17265734D01*
X5895241Y-17056210D02*
X5723813Y-17313353D01*
X6152384Y-17065734D02*
X6171432Y-17065734D01*
X6171432Y-17065734D02*
X6190479Y-17075258D01*
X6190479Y-17075258D02*
X6200003Y-17084781D01*
X6200003Y-17084781D02*
X6209527Y-17103829D01*
X6209527Y-17103829D02*
X6219051Y-17141924D01*
X6219051Y-17141924D02*
X6219051Y-17189543D01*
X6219051Y-17189543D02*
X6209527Y-17227639D01*
X6209527Y-17227639D02*
X6200003Y-17246686D01*
X6200003Y-17246686D02*
X6190479Y-17256210D01*
X6190479Y-17256210D02*
X6171432Y-17265734D01*
X6171432Y-17265734D02*
X6152384Y-17265734D01*
X6152384Y-17265734D02*
X6133336Y-17256210D01*
X6133336Y-17256210D02*
X6123813Y-17246686D01*
X6123813Y-17246686D02*
X6114289Y-17227639D01*
X6114289Y-17227639D02*
X6104765Y-17189543D01*
X6104765Y-17189543D02*
X6104765Y-17141924D01*
X6104765Y-17141924D02*
X6114289Y-17103829D01*
X6114289Y-17103829D02*
X6123813Y-17084781D01*
X6123813Y-17084781D02*
X6133336Y-17075258D01*
X6133336Y-17075258D02*
X6152384Y-17065734D01*
X6304765Y-17246686D02*
X6314289Y-17256210D01*
X6314289Y-17256210D02*
X6304765Y-17265734D01*
X6304765Y-17265734D02*
X6295241Y-17256210D01*
X6295241Y-17256210D02*
X6304765Y-17246686D01*
X6304765Y-17246686D02*
X6304765Y-17265734D01*
X6438098Y-17065734D02*
X6457146Y-17065734D01*
X6457146Y-17065734D02*
X6476194Y-17075258D01*
X6476194Y-17075258D02*
X6485717Y-17084781D01*
X6485717Y-17084781D02*
X6495241Y-17103829D01*
X6495241Y-17103829D02*
X6504765Y-17141924D01*
X6504765Y-17141924D02*
X6504765Y-17189543D01*
X6504765Y-17189543D02*
X6495241Y-17227639D01*
X6495241Y-17227639D02*
X6485717Y-17246686D01*
X6485717Y-17246686D02*
X6476194Y-17256210D01*
X6476194Y-17256210D02*
X6457146Y-17265734D01*
X6457146Y-17265734D02*
X6438098Y-17265734D01*
X6438098Y-17265734D02*
X6419051Y-17256210D01*
X6419051Y-17256210D02*
X6409527Y-17246686D01*
X6409527Y-17246686D02*
X6400003Y-17227639D01*
X6400003Y-17227639D02*
X6390479Y-17189543D01*
X6390479Y-17189543D02*
X6390479Y-17141924D01*
X6390479Y-17141924D02*
X6400003Y-17103829D01*
X6400003Y-17103829D02*
X6409527Y-17084781D01*
X6409527Y-17084781D02*
X6419051Y-17075258D01*
X6419051Y-17075258D02*
X6438098Y-17065734D01*
X6580956Y-17084781D02*
X6590479Y-17075258D01*
X6590479Y-17075258D02*
X6609527Y-17065734D01*
X6609527Y-17065734D02*
X6657146Y-17065734D01*
X6657146Y-17065734D02*
X6676194Y-17075258D01*
X6676194Y-17075258D02*
X6685717Y-17084781D01*
X6685717Y-17084781D02*
X6695241Y-17103829D01*
X6695241Y-17103829D02*
X6695241Y-17122877D01*
X6695241Y-17122877D02*
X6685717Y-17151448D01*
X6685717Y-17151448D02*
X6571432Y-17265734D01*
X6571432Y-17265734D02*
X6695241Y-17265734D01*
X6876194Y-17065734D02*
X6780956Y-17065734D01*
X6780956Y-17065734D02*
X6771432Y-17160972D01*
X6771432Y-17160972D02*
X6780956Y-17151448D01*
X6780956Y-17151448D02*
X6800003Y-17141924D01*
X6800003Y-17141924D02*
X6847622Y-17141924D01*
X6847622Y-17141924D02*
X6866670Y-17151448D01*
X6866670Y-17151448D02*
X6876194Y-17160972D01*
X6876194Y-17160972D02*
X6885717Y-17180020D01*
X6885717Y-17180020D02*
X6885717Y-17227639D01*
X6885717Y-17227639D02*
X6876194Y-17246686D01*
X6876194Y-17246686D02*
X6866670Y-17256210D01*
X6866670Y-17256210D02*
X6847622Y-17265734D01*
X6847622Y-17265734D02*
X6800003Y-17265734D01*
X6800003Y-17265734D02*
X6780956Y-17256210D01*
X6780956Y-17256210D02*
X6771432Y-17246686D01*
X7057146Y-17065734D02*
X7019051Y-17065734D01*
X7019051Y-17065734D02*
X7000003Y-17075258D01*
X7000003Y-17075258D02*
X6990479Y-17084781D01*
X6990479Y-17084781D02*
X6971432Y-17113353D01*
X6971432Y-17113353D02*
X6961908Y-17151448D01*
X6961908Y-17151448D02*
X6961908Y-17227639D01*
X6961908Y-17227639D02*
X6971432Y-17246686D01*
X6971432Y-17246686D02*
X6980956Y-17256210D01*
X6980956Y-17256210D02*
X7000003Y-17265734D01*
X7000003Y-17265734D02*
X7038098Y-17265734D01*
X7038098Y-17265734D02*
X7057146Y-17256210D01*
X7057146Y-17256210D02*
X7066670Y-17246686D01*
X7066670Y-17246686D02*
X7076194Y-17227639D01*
X7076194Y-17227639D02*
X7076194Y-17180020D01*
X7076194Y-17180020D02*
X7066670Y-17160972D01*
X7066670Y-17160972D02*
X7057146Y-17151448D01*
X7057146Y-17151448D02*
X7038098Y-17141924D01*
X7038098Y-17141924D02*
X7000003Y-17141924D01*
X7000003Y-17141924D02*
X6980956Y-17151448D01*
X6980956Y-17151448D02*
X6971432Y-17160972D01*
X6971432Y-17160972D02*
X6961908Y-17180020D01*
X7152384Y-17065734D02*
X7152384Y-17103829D01*
X7228575Y-17065734D02*
X7228575Y-17103829D01*
X7523813Y-17341924D02*
X7514289Y-17332400D01*
X7514289Y-17332400D02*
X7495241Y-17303829D01*
X7495241Y-17303829D02*
X7485718Y-17284781D01*
X7485718Y-17284781D02*
X7476194Y-17256210D01*
X7476194Y-17256210D02*
X7466670Y-17208591D01*
X7466670Y-17208591D02*
X7466670Y-17170496D01*
X7466670Y-17170496D02*
X7476194Y-17122877D01*
X7476194Y-17122877D02*
X7485718Y-17094305D01*
X7485718Y-17094305D02*
X7495241Y-17075258D01*
X7495241Y-17075258D02*
X7514289Y-17046686D01*
X7514289Y-17046686D02*
X7523813Y-17037162D01*
X7580956Y-17065734D02*
X7704765Y-17065734D01*
X7704765Y-17065734D02*
X7638098Y-17141924D01*
X7638098Y-17141924D02*
X7666670Y-17141924D01*
X7666670Y-17141924D02*
X7685718Y-17151448D01*
X7685718Y-17151448D02*
X7695241Y-17160972D01*
X7695241Y-17160972D02*
X7704765Y-17180020D01*
X7704765Y-17180020D02*
X7704765Y-17227639D01*
X7704765Y-17227639D02*
X7695241Y-17246686D01*
X7695241Y-17246686D02*
X7685718Y-17256210D01*
X7685718Y-17256210D02*
X7666670Y-17265734D01*
X7666670Y-17265734D02*
X7609527Y-17265734D01*
X7609527Y-17265734D02*
X7590479Y-17256210D01*
X7590479Y-17256210D02*
X7580956Y-17246686D01*
X7942860Y-17265734D02*
X7942860Y-17065734D01*
X8028575Y-17265734D02*
X8028575Y-17160972D01*
X8028575Y-17160972D02*
X8019051Y-17141924D01*
X8019051Y-17141924D02*
X8000003Y-17132400D01*
X8000003Y-17132400D02*
X7971432Y-17132400D01*
X7971432Y-17132400D02*
X7952384Y-17141924D01*
X7952384Y-17141924D02*
X7942860Y-17151448D01*
X8152384Y-17265734D02*
X8133337Y-17256210D01*
X8133337Y-17256210D02*
X8123813Y-17246686D01*
X8123813Y-17246686D02*
X8114289Y-17227639D01*
X8114289Y-17227639D02*
X8114289Y-17170496D01*
X8114289Y-17170496D02*
X8123813Y-17151448D01*
X8123813Y-17151448D02*
X8133337Y-17141924D01*
X8133337Y-17141924D02*
X8152384Y-17132400D01*
X8152384Y-17132400D02*
X8180956Y-17132400D01*
X8180956Y-17132400D02*
X8200003Y-17141924D01*
X8200003Y-17141924D02*
X8209527Y-17151448D01*
X8209527Y-17151448D02*
X8219051Y-17170496D01*
X8219051Y-17170496D02*
X8219051Y-17227639D01*
X8219051Y-17227639D02*
X8209527Y-17246686D01*
X8209527Y-17246686D02*
X8200003Y-17256210D01*
X8200003Y-17256210D02*
X8180956Y-17265734D01*
X8180956Y-17265734D02*
X8152384Y-17265734D01*
X8333337Y-17265734D02*
X8314289Y-17256210D01*
X8314289Y-17256210D02*
X8304765Y-17237162D01*
X8304765Y-17237162D02*
X8304765Y-17065734D01*
X8485718Y-17256210D02*
X8466670Y-17265734D01*
X8466670Y-17265734D02*
X8428575Y-17265734D01*
X8428575Y-17265734D02*
X8409527Y-17256210D01*
X8409527Y-17256210D02*
X8400003Y-17237162D01*
X8400003Y-17237162D02*
X8400003Y-17160972D01*
X8400003Y-17160972D02*
X8409527Y-17141924D01*
X8409527Y-17141924D02*
X8428575Y-17132400D01*
X8428575Y-17132400D02*
X8466670Y-17132400D01*
X8466670Y-17132400D02*
X8485718Y-17141924D01*
X8485718Y-17141924D02*
X8495242Y-17160972D01*
X8495242Y-17160972D02*
X8495242Y-17180020D01*
X8495242Y-17180020D02*
X8400003Y-17199067D01*
X8571432Y-17256210D02*
X8590480Y-17265734D01*
X8590480Y-17265734D02*
X8628575Y-17265734D01*
X8628575Y-17265734D02*
X8647623Y-17256210D01*
X8647623Y-17256210D02*
X8657146Y-17237162D01*
X8657146Y-17237162D02*
X8657146Y-17227639D01*
X8657146Y-17227639D02*
X8647623Y-17208591D01*
X8647623Y-17208591D02*
X8628575Y-17199067D01*
X8628575Y-17199067D02*
X8600003Y-17199067D01*
X8600003Y-17199067D02*
X8580956Y-17189543D01*
X8580956Y-17189543D02*
X8571432Y-17170496D01*
X8571432Y-17170496D02*
X8571432Y-17160972D01*
X8571432Y-17160972D02*
X8580956Y-17141924D01*
X8580956Y-17141924D02*
X8600003Y-17132400D01*
X8600003Y-17132400D02*
X8628575Y-17132400D01*
X8628575Y-17132400D02*
X8647623Y-17141924D01*
X8723813Y-17341924D02*
X8733337Y-17332400D01*
X8733337Y-17332400D02*
X8752384Y-17303829D01*
X8752384Y-17303829D02*
X8761908Y-17284781D01*
X8761908Y-17284781D02*
X8771432Y-17256210D01*
X8771432Y-17256210D02*
X8780956Y-17208591D01*
X8780956Y-17208591D02*
X8780956Y-17170496D01*
X8780956Y-17170496D02*
X8771432Y-17122877D01*
X8771432Y-17122877D02*
X8761908Y-17094305D01*
X8761908Y-17094305D02*
X8752384Y-17075258D01*
X8752384Y-17075258D02*
X8733337Y-17046686D01*
X8733337Y-17046686D02*
X8723813Y-17037162D01*
D12*
X3937034Y-17466535D02*
X3937034Y-17409966D01*
X3880465Y-17409966D01*
X3880465Y-17466535D01*
X3937034Y-17466535D01*
D11*
X4247622Y-17329734D02*
X4266670Y-17329734D01*
X4266670Y-17329734D02*
X4285717Y-17339258D01*
X4285717Y-17339258D02*
X4295241Y-17348781D01*
X4295241Y-17348781D02*
X4304765Y-17367829D01*
X4304765Y-17367829D02*
X4314289Y-17405924D01*
X4314289Y-17405924D02*
X4314289Y-17453543D01*
X4314289Y-17453543D02*
X4304765Y-17491639D01*
X4304765Y-17491639D02*
X4295241Y-17510686D01*
X4295241Y-17510686D02*
X4285717Y-17520210D01*
X4285717Y-17520210D02*
X4266670Y-17529734D01*
X4266670Y-17529734D02*
X4247622Y-17529734D01*
X4247622Y-17529734D02*
X4228574Y-17520210D01*
X4228574Y-17520210D02*
X4219051Y-17510686D01*
X4219051Y-17510686D02*
X4209527Y-17491639D01*
X4209527Y-17491639D02*
X4200003Y-17453543D01*
X4200003Y-17453543D02*
X4200003Y-17405924D01*
X4200003Y-17405924D02*
X4209527Y-17367829D01*
X4209527Y-17367829D02*
X4219051Y-17348781D01*
X4219051Y-17348781D02*
X4228574Y-17339258D01*
X4228574Y-17339258D02*
X4247622Y-17329734D01*
X4400003Y-17510686D02*
X4409527Y-17520210D01*
X4409527Y-17520210D02*
X4400003Y-17529734D01*
X4400003Y-17529734D02*
X4390479Y-17520210D01*
X4390479Y-17520210D02*
X4400003Y-17510686D01*
X4400003Y-17510686D02*
X4400003Y-17529734D01*
X4523813Y-17415448D02*
X4504765Y-17405924D01*
X4504765Y-17405924D02*
X4495241Y-17396400D01*
X4495241Y-17396400D02*
X4485717Y-17377353D01*
X4485717Y-17377353D02*
X4485717Y-17367829D01*
X4485717Y-17367829D02*
X4495241Y-17348781D01*
X4495241Y-17348781D02*
X4504765Y-17339258D01*
X4504765Y-17339258D02*
X4523813Y-17329734D01*
X4523813Y-17329734D02*
X4561908Y-17329734D01*
X4561908Y-17329734D02*
X4580955Y-17339258D01*
X4580955Y-17339258D02*
X4590479Y-17348781D01*
X4590479Y-17348781D02*
X4600003Y-17367829D01*
X4600003Y-17367829D02*
X4600003Y-17377353D01*
X4600003Y-17377353D02*
X4590479Y-17396400D01*
X4590479Y-17396400D02*
X4580955Y-17405924D01*
X4580955Y-17405924D02*
X4561908Y-17415448D01*
X4561908Y-17415448D02*
X4523813Y-17415448D01*
X4523813Y-17415448D02*
X4504765Y-17424972D01*
X4504765Y-17424972D02*
X4495241Y-17434496D01*
X4495241Y-17434496D02*
X4485717Y-17453543D01*
X4485717Y-17453543D02*
X4485717Y-17491639D01*
X4485717Y-17491639D02*
X4495241Y-17510686D01*
X4495241Y-17510686D02*
X4504765Y-17520210D01*
X4504765Y-17520210D02*
X4523813Y-17529734D01*
X4523813Y-17529734D02*
X4561908Y-17529734D01*
X4561908Y-17529734D02*
X4580955Y-17520210D01*
X4580955Y-17520210D02*
X4590479Y-17510686D01*
X4590479Y-17510686D02*
X4600003Y-17491639D01*
X4600003Y-17491639D02*
X4600003Y-17453543D01*
X4600003Y-17453543D02*
X4590479Y-17434496D01*
X4590479Y-17434496D02*
X4580955Y-17424972D01*
X4580955Y-17424972D02*
X4561908Y-17415448D01*
X4723813Y-17329734D02*
X4742860Y-17329734D01*
X4742860Y-17329734D02*
X4761908Y-17339258D01*
X4761908Y-17339258D02*
X4771432Y-17348781D01*
X4771432Y-17348781D02*
X4780955Y-17367829D01*
X4780955Y-17367829D02*
X4790479Y-17405924D01*
X4790479Y-17405924D02*
X4790479Y-17453543D01*
X4790479Y-17453543D02*
X4780955Y-17491639D01*
X4780955Y-17491639D02*
X4771432Y-17510686D01*
X4771432Y-17510686D02*
X4761908Y-17520210D01*
X4761908Y-17520210D02*
X4742860Y-17529734D01*
X4742860Y-17529734D02*
X4723813Y-17529734D01*
X4723813Y-17529734D02*
X4704765Y-17520210D01*
X4704765Y-17520210D02*
X4695241Y-17510686D01*
X4695241Y-17510686D02*
X4685717Y-17491639D01*
X4685717Y-17491639D02*
X4676194Y-17453543D01*
X4676194Y-17453543D02*
X4676194Y-17405924D01*
X4676194Y-17405924D02*
X4685717Y-17367829D01*
X4685717Y-17367829D02*
X4695241Y-17348781D01*
X4695241Y-17348781D02*
X4704765Y-17339258D01*
X4704765Y-17339258D02*
X4723813Y-17329734D01*
X4914289Y-17329734D02*
X4933336Y-17329734D01*
X4933336Y-17329734D02*
X4952384Y-17339258D01*
X4952384Y-17339258D02*
X4961908Y-17348781D01*
X4961908Y-17348781D02*
X4971432Y-17367829D01*
X4971432Y-17367829D02*
X4980955Y-17405924D01*
X4980955Y-17405924D02*
X4980955Y-17453543D01*
X4980955Y-17453543D02*
X4971432Y-17491639D01*
X4971432Y-17491639D02*
X4961908Y-17510686D01*
X4961908Y-17510686D02*
X4952384Y-17520210D01*
X4952384Y-17520210D02*
X4933336Y-17529734D01*
X4933336Y-17529734D02*
X4914289Y-17529734D01*
X4914289Y-17529734D02*
X4895241Y-17520210D01*
X4895241Y-17520210D02*
X4885717Y-17510686D01*
X4885717Y-17510686D02*
X4876194Y-17491639D01*
X4876194Y-17491639D02*
X4866670Y-17453543D01*
X4866670Y-17453543D02*
X4866670Y-17405924D01*
X4866670Y-17405924D02*
X4876194Y-17367829D01*
X4876194Y-17367829D02*
X4885717Y-17348781D01*
X4885717Y-17348781D02*
X4895241Y-17339258D01*
X4895241Y-17339258D02*
X4914289Y-17329734D01*
X5066670Y-17529734D02*
X5066670Y-17396400D01*
X5066670Y-17415448D02*
X5076194Y-17405924D01*
X5076194Y-17405924D02*
X5095241Y-17396400D01*
X5095241Y-17396400D02*
X5123813Y-17396400D01*
X5123813Y-17396400D02*
X5142860Y-17405924D01*
X5142860Y-17405924D02*
X5152384Y-17424972D01*
X5152384Y-17424972D02*
X5152384Y-17529734D01*
X5152384Y-17424972D02*
X5161908Y-17405924D01*
X5161908Y-17405924D02*
X5180955Y-17396400D01*
X5180955Y-17396400D02*
X5209527Y-17396400D01*
X5209527Y-17396400D02*
X5228575Y-17405924D01*
X5228575Y-17405924D02*
X5238098Y-17424972D01*
X5238098Y-17424972D02*
X5238098Y-17529734D01*
X5333336Y-17529734D02*
X5333336Y-17396400D01*
X5333336Y-17415448D02*
X5342860Y-17405924D01*
X5342860Y-17405924D02*
X5361908Y-17396400D01*
X5361908Y-17396400D02*
X5390479Y-17396400D01*
X5390479Y-17396400D02*
X5409527Y-17405924D01*
X5409527Y-17405924D02*
X5419051Y-17424972D01*
X5419051Y-17424972D02*
X5419051Y-17529734D01*
X5419051Y-17424972D02*
X5428575Y-17405924D01*
X5428575Y-17405924D02*
X5447622Y-17396400D01*
X5447622Y-17396400D02*
X5476194Y-17396400D01*
X5476194Y-17396400D02*
X5495241Y-17405924D01*
X5495241Y-17405924D02*
X5504765Y-17424972D01*
X5504765Y-17424972D02*
X5504765Y-17529734D01*
X5895241Y-17320210D02*
X5723813Y-17577353D01*
X6152384Y-17329734D02*
X6171432Y-17329734D01*
X6171432Y-17329734D02*
X6190479Y-17339258D01*
X6190479Y-17339258D02*
X6200003Y-17348781D01*
X6200003Y-17348781D02*
X6209527Y-17367829D01*
X6209527Y-17367829D02*
X6219051Y-17405924D01*
X6219051Y-17405924D02*
X6219051Y-17453543D01*
X6219051Y-17453543D02*
X6209527Y-17491639D01*
X6209527Y-17491639D02*
X6200003Y-17510686D01*
X6200003Y-17510686D02*
X6190479Y-17520210D01*
X6190479Y-17520210D02*
X6171432Y-17529734D01*
X6171432Y-17529734D02*
X6152384Y-17529734D01*
X6152384Y-17529734D02*
X6133336Y-17520210D01*
X6133336Y-17520210D02*
X6123813Y-17510686D01*
X6123813Y-17510686D02*
X6114289Y-17491639D01*
X6114289Y-17491639D02*
X6104765Y-17453543D01*
X6104765Y-17453543D02*
X6104765Y-17405924D01*
X6104765Y-17405924D02*
X6114289Y-17367829D01*
X6114289Y-17367829D02*
X6123813Y-17348781D01*
X6123813Y-17348781D02*
X6133336Y-17339258D01*
X6133336Y-17339258D02*
X6152384Y-17329734D01*
X6304765Y-17510686D02*
X6314289Y-17520210D01*
X6314289Y-17520210D02*
X6304765Y-17529734D01*
X6304765Y-17529734D02*
X6295241Y-17520210D01*
X6295241Y-17520210D02*
X6304765Y-17510686D01*
X6304765Y-17510686D02*
X6304765Y-17529734D01*
X6438098Y-17329734D02*
X6457146Y-17329734D01*
X6457146Y-17329734D02*
X6476194Y-17339258D01*
X6476194Y-17339258D02*
X6485717Y-17348781D01*
X6485717Y-17348781D02*
X6495241Y-17367829D01*
X6495241Y-17367829D02*
X6504765Y-17405924D01*
X6504765Y-17405924D02*
X6504765Y-17453543D01*
X6504765Y-17453543D02*
X6495241Y-17491639D01*
X6495241Y-17491639D02*
X6485717Y-17510686D01*
X6485717Y-17510686D02*
X6476194Y-17520210D01*
X6476194Y-17520210D02*
X6457146Y-17529734D01*
X6457146Y-17529734D02*
X6438098Y-17529734D01*
X6438098Y-17529734D02*
X6419051Y-17520210D01*
X6419051Y-17520210D02*
X6409527Y-17510686D01*
X6409527Y-17510686D02*
X6400003Y-17491639D01*
X6400003Y-17491639D02*
X6390479Y-17453543D01*
X6390479Y-17453543D02*
X6390479Y-17405924D01*
X6390479Y-17405924D02*
X6400003Y-17367829D01*
X6400003Y-17367829D02*
X6409527Y-17348781D01*
X6409527Y-17348781D02*
X6419051Y-17339258D01*
X6419051Y-17339258D02*
X6438098Y-17329734D01*
X6571432Y-17329734D02*
X6695241Y-17329734D01*
X6695241Y-17329734D02*
X6628575Y-17405924D01*
X6628575Y-17405924D02*
X6657146Y-17405924D01*
X6657146Y-17405924D02*
X6676194Y-17415448D01*
X6676194Y-17415448D02*
X6685717Y-17424972D01*
X6685717Y-17424972D02*
X6695241Y-17444020D01*
X6695241Y-17444020D02*
X6695241Y-17491639D01*
X6695241Y-17491639D02*
X6685717Y-17510686D01*
X6685717Y-17510686D02*
X6676194Y-17520210D01*
X6676194Y-17520210D02*
X6657146Y-17529734D01*
X6657146Y-17529734D02*
X6600003Y-17529734D01*
X6600003Y-17529734D02*
X6580956Y-17520210D01*
X6580956Y-17520210D02*
X6571432Y-17510686D01*
X6885717Y-17529734D02*
X6771432Y-17529734D01*
X6828575Y-17529734D02*
X6828575Y-17329734D01*
X6828575Y-17329734D02*
X6809527Y-17358305D01*
X6809527Y-17358305D02*
X6790479Y-17377353D01*
X6790479Y-17377353D02*
X6771432Y-17386877D01*
X7066670Y-17329734D02*
X6971432Y-17329734D01*
X6971432Y-17329734D02*
X6961908Y-17424972D01*
X6961908Y-17424972D02*
X6971432Y-17415448D01*
X6971432Y-17415448D02*
X6990479Y-17405924D01*
X6990479Y-17405924D02*
X7038098Y-17405924D01*
X7038098Y-17405924D02*
X7057146Y-17415448D01*
X7057146Y-17415448D02*
X7066670Y-17424972D01*
X7066670Y-17424972D02*
X7076194Y-17444020D01*
X7076194Y-17444020D02*
X7076194Y-17491639D01*
X7076194Y-17491639D02*
X7066670Y-17510686D01*
X7066670Y-17510686D02*
X7057146Y-17520210D01*
X7057146Y-17520210D02*
X7038098Y-17529734D01*
X7038098Y-17529734D02*
X6990479Y-17529734D01*
X6990479Y-17529734D02*
X6971432Y-17520210D01*
X6971432Y-17520210D02*
X6961908Y-17510686D01*
X7152384Y-17329734D02*
X7152384Y-17367829D01*
X7228575Y-17329734D02*
X7228575Y-17367829D01*
X7523813Y-17605924D02*
X7514289Y-17596400D01*
X7514289Y-17596400D02*
X7495241Y-17567829D01*
X7495241Y-17567829D02*
X7485718Y-17548781D01*
X7485718Y-17548781D02*
X7476194Y-17520210D01*
X7476194Y-17520210D02*
X7466670Y-17472591D01*
X7466670Y-17472591D02*
X7466670Y-17434496D01*
X7466670Y-17434496D02*
X7476194Y-17386877D01*
X7476194Y-17386877D02*
X7485718Y-17358305D01*
X7485718Y-17358305D02*
X7495241Y-17339258D01*
X7495241Y-17339258D02*
X7514289Y-17310686D01*
X7514289Y-17310686D02*
X7523813Y-17301162D01*
X7628575Y-17415448D02*
X7609527Y-17405924D01*
X7609527Y-17405924D02*
X7600003Y-17396400D01*
X7600003Y-17396400D02*
X7590479Y-17377353D01*
X7590479Y-17377353D02*
X7590479Y-17367829D01*
X7590479Y-17367829D02*
X7600003Y-17348781D01*
X7600003Y-17348781D02*
X7609527Y-17339258D01*
X7609527Y-17339258D02*
X7628575Y-17329734D01*
X7628575Y-17329734D02*
X7666670Y-17329734D01*
X7666670Y-17329734D02*
X7685718Y-17339258D01*
X7685718Y-17339258D02*
X7695241Y-17348781D01*
X7695241Y-17348781D02*
X7704765Y-17367829D01*
X7704765Y-17367829D02*
X7704765Y-17377353D01*
X7704765Y-17377353D02*
X7695241Y-17396400D01*
X7695241Y-17396400D02*
X7685718Y-17405924D01*
X7685718Y-17405924D02*
X7666670Y-17415448D01*
X7666670Y-17415448D02*
X7628575Y-17415448D01*
X7628575Y-17415448D02*
X7609527Y-17424972D01*
X7609527Y-17424972D02*
X7600003Y-17434496D01*
X7600003Y-17434496D02*
X7590479Y-17453543D01*
X7590479Y-17453543D02*
X7590479Y-17491639D01*
X7590479Y-17491639D02*
X7600003Y-17510686D01*
X7600003Y-17510686D02*
X7609527Y-17520210D01*
X7609527Y-17520210D02*
X7628575Y-17529734D01*
X7628575Y-17529734D02*
X7666670Y-17529734D01*
X7666670Y-17529734D02*
X7685718Y-17520210D01*
X7685718Y-17520210D02*
X7695241Y-17510686D01*
X7695241Y-17510686D02*
X7704765Y-17491639D01*
X7704765Y-17491639D02*
X7704765Y-17453543D01*
X7704765Y-17453543D02*
X7695241Y-17434496D01*
X7695241Y-17434496D02*
X7685718Y-17424972D01*
X7685718Y-17424972D02*
X7666670Y-17415448D01*
X7942860Y-17529734D02*
X7942860Y-17329734D01*
X8028575Y-17529734D02*
X8028575Y-17424972D01*
X8028575Y-17424972D02*
X8019051Y-17405924D01*
X8019051Y-17405924D02*
X8000003Y-17396400D01*
X8000003Y-17396400D02*
X7971432Y-17396400D01*
X7971432Y-17396400D02*
X7952384Y-17405924D01*
X7952384Y-17405924D02*
X7942860Y-17415448D01*
X8152384Y-17529734D02*
X8133337Y-17520210D01*
X8133337Y-17520210D02*
X8123813Y-17510686D01*
X8123813Y-17510686D02*
X8114289Y-17491639D01*
X8114289Y-17491639D02*
X8114289Y-17434496D01*
X8114289Y-17434496D02*
X8123813Y-17415448D01*
X8123813Y-17415448D02*
X8133337Y-17405924D01*
X8133337Y-17405924D02*
X8152384Y-17396400D01*
X8152384Y-17396400D02*
X8180956Y-17396400D01*
X8180956Y-17396400D02*
X8200003Y-17405924D01*
X8200003Y-17405924D02*
X8209527Y-17415448D01*
X8209527Y-17415448D02*
X8219051Y-17434496D01*
X8219051Y-17434496D02*
X8219051Y-17491639D01*
X8219051Y-17491639D02*
X8209527Y-17510686D01*
X8209527Y-17510686D02*
X8200003Y-17520210D01*
X8200003Y-17520210D02*
X8180956Y-17529734D01*
X8180956Y-17529734D02*
X8152384Y-17529734D01*
X8333337Y-17529734D02*
X8314289Y-17520210D01*
X8314289Y-17520210D02*
X8304765Y-17501162D01*
X8304765Y-17501162D02*
X8304765Y-17329734D01*
X8485718Y-17520210D02*
X8466670Y-17529734D01*
X8466670Y-17529734D02*
X8428575Y-17529734D01*
X8428575Y-17529734D02*
X8409527Y-17520210D01*
X8409527Y-17520210D02*
X8400003Y-17501162D01*
X8400003Y-17501162D02*
X8400003Y-17424972D01*
X8400003Y-17424972D02*
X8409527Y-17405924D01*
X8409527Y-17405924D02*
X8428575Y-17396400D01*
X8428575Y-17396400D02*
X8466670Y-17396400D01*
X8466670Y-17396400D02*
X8485718Y-17405924D01*
X8485718Y-17405924D02*
X8495242Y-17424972D01*
X8495242Y-17424972D02*
X8495242Y-17444020D01*
X8495242Y-17444020D02*
X8400003Y-17463067D01*
X8571432Y-17520210D02*
X8590480Y-17529734D01*
X8590480Y-17529734D02*
X8628575Y-17529734D01*
X8628575Y-17529734D02*
X8647623Y-17520210D01*
X8647623Y-17520210D02*
X8657146Y-17501162D01*
X8657146Y-17501162D02*
X8657146Y-17491639D01*
X8657146Y-17491639D02*
X8647623Y-17472591D01*
X8647623Y-17472591D02*
X8628575Y-17463067D01*
X8628575Y-17463067D02*
X8600003Y-17463067D01*
X8600003Y-17463067D02*
X8580956Y-17453543D01*
X8580956Y-17453543D02*
X8571432Y-17434496D01*
X8571432Y-17434496D02*
X8571432Y-17424972D01*
X8571432Y-17424972D02*
X8580956Y-17405924D01*
X8580956Y-17405924D02*
X8600003Y-17396400D01*
X8600003Y-17396400D02*
X8628575Y-17396400D01*
X8628575Y-17396400D02*
X8647623Y-17405924D01*
X8723813Y-17605924D02*
X8733337Y-17596400D01*
X8733337Y-17596400D02*
X8752384Y-17567829D01*
X8752384Y-17567829D02*
X8761908Y-17548781D01*
X8761908Y-17548781D02*
X8771432Y-17520210D01*
X8771432Y-17520210D02*
X8780956Y-17472591D01*
X8780956Y-17472591D02*
X8780956Y-17434496D01*
X8780956Y-17434496D02*
X8771432Y-17386877D01*
X8771432Y-17386877D02*
X8761908Y-17358305D01*
X8761908Y-17358305D02*
X8752384Y-17339258D01*
X8752384Y-17339258D02*
X8733337Y-17310686D01*
X8733337Y-17310686D02*
X8723813Y-17301162D01*
D12*
X3898750Y-17752250D02*
X3948750Y-17702250D01*
X3898750Y-17652250D01*
X3848750Y-17702250D01*
X3898750Y-17752250D01*
D11*
X4314289Y-17793734D02*
X4200003Y-17793734D01*
X4257146Y-17793734D02*
X4257146Y-17593734D01*
X4257146Y-17593734D02*
X4238098Y-17622305D01*
X4238098Y-17622305D02*
X4219051Y-17641353D01*
X4219051Y-17641353D02*
X4200003Y-17650877D01*
X4400003Y-17774686D02*
X4409527Y-17784210D01*
X4409527Y-17784210D02*
X4400003Y-17793734D01*
X4400003Y-17793734D02*
X4390479Y-17784210D01*
X4390479Y-17784210D02*
X4400003Y-17774686D01*
X4400003Y-17774686D02*
X4400003Y-17793734D01*
X4533336Y-17593734D02*
X4552384Y-17593734D01*
X4552384Y-17593734D02*
X4571432Y-17603258D01*
X4571432Y-17603258D02*
X4580955Y-17612781D01*
X4580955Y-17612781D02*
X4590479Y-17631829D01*
X4590479Y-17631829D02*
X4600003Y-17669924D01*
X4600003Y-17669924D02*
X4600003Y-17717543D01*
X4600003Y-17717543D02*
X4590479Y-17755639D01*
X4590479Y-17755639D02*
X4580955Y-17774686D01*
X4580955Y-17774686D02*
X4571432Y-17784210D01*
X4571432Y-17784210D02*
X4552384Y-17793734D01*
X4552384Y-17793734D02*
X4533336Y-17793734D01*
X4533336Y-17793734D02*
X4514289Y-17784210D01*
X4514289Y-17784210D02*
X4504765Y-17774686D01*
X4504765Y-17774686D02*
X4495241Y-17755639D01*
X4495241Y-17755639D02*
X4485717Y-17717543D01*
X4485717Y-17717543D02*
X4485717Y-17669924D01*
X4485717Y-17669924D02*
X4495241Y-17631829D01*
X4495241Y-17631829D02*
X4504765Y-17612781D01*
X4504765Y-17612781D02*
X4514289Y-17603258D01*
X4514289Y-17603258D02*
X4533336Y-17593734D01*
X4723813Y-17593734D02*
X4742860Y-17593734D01*
X4742860Y-17593734D02*
X4761908Y-17603258D01*
X4761908Y-17603258D02*
X4771432Y-17612781D01*
X4771432Y-17612781D02*
X4780955Y-17631829D01*
X4780955Y-17631829D02*
X4790479Y-17669924D01*
X4790479Y-17669924D02*
X4790479Y-17717543D01*
X4790479Y-17717543D02*
X4780955Y-17755639D01*
X4780955Y-17755639D02*
X4771432Y-17774686D01*
X4771432Y-17774686D02*
X4761908Y-17784210D01*
X4761908Y-17784210D02*
X4742860Y-17793734D01*
X4742860Y-17793734D02*
X4723813Y-17793734D01*
X4723813Y-17793734D02*
X4704765Y-17784210D01*
X4704765Y-17784210D02*
X4695241Y-17774686D01*
X4695241Y-17774686D02*
X4685717Y-17755639D01*
X4685717Y-17755639D02*
X4676194Y-17717543D01*
X4676194Y-17717543D02*
X4676194Y-17669924D01*
X4676194Y-17669924D02*
X4685717Y-17631829D01*
X4685717Y-17631829D02*
X4695241Y-17612781D01*
X4695241Y-17612781D02*
X4704765Y-17603258D01*
X4704765Y-17603258D02*
X4723813Y-17593734D01*
X4914289Y-17593734D02*
X4933336Y-17593734D01*
X4933336Y-17593734D02*
X4952384Y-17603258D01*
X4952384Y-17603258D02*
X4961908Y-17612781D01*
X4961908Y-17612781D02*
X4971432Y-17631829D01*
X4971432Y-17631829D02*
X4980955Y-17669924D01*
X4980955Y-17669924D02*
X4980955Y-17717543D01*
X4980955Y-17717543D02*
X4971432Y-17755639D01*
X4971432Y-17755639D02*
X4961908Y-17774686D01*
X4961908Y-17774686D02*
X4952384Y-17784210D01*
X4952384Y-17784210D02*
X4933336Y-17793734D01*
X4933336Y-17793734D02*
X4914289Y-17793734D01*
X4914289Y-17793734D02*
X4895241Y-17784210D01*
X4895241Y-17784210D02*
X4885717Y-17774686D01*
X4885717Y-17774686D02*
X4876194Y-17755639D01*
X4876194Y-17755639D02*
X4866670Y-17717543D01*
X4866670Y-17717543D02*
X4866670Y-17669924D01*
X4866670Y-17669924D02*
X4876194Y-17631829D01*
X4876194Y-17631829D02*
X4885717Y-17612781D01*
X4885717Y-17612781D02*
X4895241Y-17603258D01*
X4895241Y-17603258D02*
X4914289Y-17593734D01*
X5066670Y-17793734D02*
X5066670Y-17660400D01*
X5066670Y-17679448D02*
X5076194Y-17669924D01*
X5076194Y-17669924D02*
X5095241Y-17660400D01*
X5095241Y-17660400D02*
X5123813Y-17660400D01*
X5123813Y-17660400D02*
X5142860Y-17669924D01*
X5142860Y-17669924D02*
X5152384Y-17688972D01*
X5152384Y-17688972D02*
X5152384Y-17793734D01*
X5152384Y-17688972D02*
X5161908Y-17669924D01*
X5161908Y-17669924D02*
X5180955Y-17660400D01*
X5180955Y-17660400D02*
X5209527Y-17660400D01*
X5209527Y-17660400D02*
X5228575Y-17669924D01*
X5228575Y-17669924D02*
X5238098Y-17688972D01*
X5238098Y-17688972D02*
X5238098Y-17793734D01*
X5333336Y-17793734D02*
X5333336Y-17660400D01*
X5333336Y-17679448D02*
X5342860Y-17669924D01*
X5342860Y-17669924D02*
X5361908Y-17660400D01*
X5361908Y-17660400D02*
X5390479Y-17660400D01*
X5390479Y-17660400D02*
X5409527Y-17669924D01*
X5409527Y-17669924D02*
X5419051Y-17688972D01*
X5419051Y-17688972D02*
X5419051Y-17793734D01*
X5419051Y-17688972D02*
X5428575Y-17669924D01*
X5428575Y-17669924D02*
X5447622Y-17660400D01*
X5447622Y-17660400D02*
X5476194Y-17660400D01*
X5476194Y-17660400D02*
X5495241Y-17669924D01*
X5495241Y-17669924D02*
X5504765Y-17688972D01*
X5504765Y-17688972D02*
X5504765Y-17793734D01*
X5895241Y-17584210D02*
X5723813Y-17841353D01*
X6152384Y-17593734D02*
X6171432Y-17593734D01*
X6171432Y-17593734D02*
X6190479Y-17603258D01*
X6190479Y-17603258D02*
X6200003Y-17612781D01*
X6200003Y-17612781D02*
X6209527Y-17631829D01*
X6209527Y-17631829D02*
X6219051Y-17669924D01*
X6219051Y-17669924D02*
X6219051Y-17717543D01*
X6219051Y-17717543D02*
X6209527Y-17755639D01*
X6209527Y-17755639D02*
X6200003Y-17774686D01*
X6200003Y-17774686D02*
X6190479Y-17784210D01*
X6190479Y-17784210D02*
X6171432Y-17793734D01*
X6171432Y-17793734D02*
X6152384Y-17793734D01*
X6152384Y-17793734D02*
X6133336Y-17784210D01*
X6133336Y-17784210D02*
X6123813Y-17774686D01*
X6123813Y-17774686D02*
X6114289Y-17755639D01*
X6114289Y-17755639D02*
X6104765Y-17717543D01*
X6104765Y-17717543D02*
X6104765Y-17669924D01*
X6104765Y-17669924D02*
X6114289Y-17631829D01*
X6114289Y-17631829D02*
X6123813Y-17612781D01*
X6123813Y-17612781D02*
X6133336Y-17603258D01*
X6133336Y-17603258D02*
X6152384Y-17593734D01*
X6304765Y-17774686D02*
X6314289Y-17784210D01*
X6314289Y-17784210D02*
X6304765Y-17793734D01*
X6304765Y-17793734D02*
X6295241Y-17784210D01*
X6295241Y-17784210D02*
X6304765Y-17774686D01*
X6304765Y-17774686D02*
X6304765Y-17793734D01*
X6438098Y-17593734D02*
X6457146Y-17593734D01*
X6457146Y-17593734D02*
X6476194Y-17603258D01*
X6476194Y-17603258D02*
X6485717Y-17612781D01*
X6485717Y-17612781D02*
X6495241Y-17631829D01*
X6495241Y-17631829D02*
X6504765Y-17669924D01*
X6504765Y-17669924D02*
X6504765Y-17717543D01*
X6504765Y-17717543D02*
X6495241Y-17755639D01*
X6495241Y-17755639D02*
X6485717Y-17774686D01*
X6485717Y-17774686D02*
X6476194Y-17784210D01*
X6476194Y-17784210D02*
X6457146Y-17793734D01*
X6457146Y-17793734D02*
X6438098Y-17793734D01*
X6438098Y-17793734D02*
X6419051Y-17784210D01*
X6419051Y-17784210D02*
X6409527Y-17774686D01*
X6409527Y-17774686D02*
X6400003Y-17755639D01*
X6400003Y-17755639D02*
X6390479Y-17717543D01*
X6390479Y-17717543D02*
X6390479Y-17669924D01*
X6390479Y-17669924D02*
X6400003Y-17631829D01*
X6400003Y-17631829D02*
X6409527Y-17612781D01*
X6409527Y-17612781D02*
X6419051Y-17603258D01*
X6419051Y-17603258D02*
X6438098Y-17593734D01*
X6571432Y-17593734D02*
X6695241Y-17593734D01*
X6695241Y-17593734D02*
X6628575Y-17669924D01*
X6628575Y-17669924D02*
X6657146Y-17669924D01*
X6657146Y-17669924D02*
X6676194Y-17679448D01*
X6676194Y-17679448D02*
X6685717Y-17688972D01*
X6685717Y-17688972D02*
X6695241Y-17708020D01*
X6695241Y-17708020D02*
X6695241Y-17755639D01*
X6695241Y-17755639D02*
X6685717Y-17774686D01*
X6685717Y-17774686D02*
X6676194Y-17784210D01*
X6676194Y-17784210D02*
X6657146Y-17793734D01*
X6657146Y-17793734D02*
X6600003Y-17793734D01*
X6600003Y-17793734D02*
X6580956Y-17784210D01*
X6580956Y-17784210D02*
X6571432Y-17774686D01*
X6790479Y-17793734D02*
X6828575Y-17793734D01*
X6828575Y-17793734D02*
X6847622Y-17784210D01*
X6847622Y-17784210D02*
X6857146Y-17774686D01*
X6857146Y-17774686D02*
X6876194Y-17746115D01*
X6876194Y-17746115D02*
X6885717Y-17708020D01*
X6885717Y-17708020D02*
X6885717Y-17631829D01*
X6885717Y-17631829D02*
X6876194Y-17612781D01*
X6876194Y-17612781D02*
X6866670Y-17603258D01*
X6866670Y-17603258D02*
X6847622Y-17593734D01*
X6847622Y-17593734D02*
X6809527Y-17593734D01*
X6809527Y-17593734D02*
X6790479Y-17603258D01*
X6790479Y-17603258D02*
X6780956Y-17612781D01*
X6780956Y-17612781D02*
X6771432Y-17631829D01*
X6771432Y-17631829D02*
X6771432Y-17679448D01*
X6771432Y-17679448D02*
X6780956Y-17698496D01*
X6780956Y-17698496D02*
X6790479Y-17708020D01*
X6790479Y-17708020D02*
X6809527Y-17717543D01*
X6809527Y-17717543D02*
X6847622Y-17717543D01*
X6847622Y-17717543D02*
X6866670Y-17708020D01*
X6866670Y-17708020D02*
X6876194Y-17698496D01*
X6876194Y-17698496D02*
X6885717Y-17679448D01*
X7057146Y-17660400D02*
X7057146Y-17793734D01*
X7009527Y-17584210D02*
X6961908Y-17727067D01*
X6961908Y-17727067D02*
X7085717Y-17727067D01*
X7152384Y-17593734D02*
X7152384Y-17631829D01*
X7228575Y-17593734D02*
X7228575Y-17631829D01*
X7523813Y-17869924D02*
X7514289Y-17860400D01*
X7514289Y-17860400D02*
X7495241Y-17831829D01*
X7495241Y-17831829D02*
X7485718Y-17812781D01*
X7485718Y-17812781D02*
X7476194Y-17784210D01*
X7476194Y-17784210D02*
X7466670Y-17736591D01*
X7466670Y-17736591D02*
X7466670Y-17698496D01*
X7466670Y-17698496D02*
X7476194Y-17650877D01*
X7476194Y-17650877D02*
X7485718Y-17622305D01*
X7485718Y-17622305D02*
X7495241Y-17603258D01*
X7495241Y-17603258D02*
X7514289Y-17574686D01*
X7514289Y-17574686D02*
X7523813Y-17565162D01*
X7695241Y-17593734D02*
X7600003Y-17593734D01*
X7600003Y-17593734D02*
X7590479Y-17688972D01*
X7590479Y-17688972D02*
X7600003Y-17679448D01*
X7600003Y-17679448D02*
X7619051Y-17669924D01*
X7619051Y-17669924D02*
X7666670Y-17669924D01*
X7666670Y-17669924D02*
X7685718Y-17679448D01*
X7685718Y-17679448D02*
X7695241Y-17688972D01*
X7695241Y-17688972D02*
X7704765Y-17708020D01*
X7704765Y-17708020D02*
X7704765Y-17755639D01*
X7704765Y-17755639D02*
X7695241Y-17774686D01*
X7695241Y-17774686D02*
X7685718Y-17784210D01*
X7685718Y-17784210D02*
X7666670Y-17793734D01*
X7666670Y-17793734D02*
X7619051Y-17793734D01*
X7619051Y-17793734D02*
X7600003Y-17784210D01*
X7600003Y-17784210D02*
X7590479Y-17774686D01*
X7800003Y-17793734D02*
X7838098Y-17793734D01*
X7838098Y-17793734D02*
X7857146Y-17784210D01*
X7857146Y-17784210D02*
X7866670Y-17774686D01*
X7866670Y-17774686D02*
X7885718Y-17746115D01*
X7885718Y-17746115D02*
X7895241Y-17708020D01*
X7895241Y-17708020D02*
X7895241Y-17631829D01*
X7895241Y-17631829D02*
X7885718Y-17612781D01*
X7885718Y-17612781D02*
X7876194Y-17603258D01*
X7876194Y-17603258D02*
X7857146Y-17593734D01*
X7857146Y-17593734D02*
X7819051Y-17593734D01*
X7819051Y-17593734D02*
X7800003Y-17603258D01*
X7800003Y-17603258D02*
X7790479Y-17612781D01*
X7790479Y-17612781D02*
X7780956Y-17631829D01*
X7780956Y-17631829D02*
X7780956Y-17679448D01*
X7780956Y-17679448D02*
X7790479Y-17698496D01*
X7790479Y-17698496D02*
X7800003Y-17708020D01*
X7800003Y-17708020D02*
X7819051Y-17717543D01*
X7819051Y-17717543D02*
X7857146Y-17717543D01*
X7857146Y-17717543D02*
X7876194Y-17708020D01*
X7876194Y-17708020D02*
X7885718Y-17698496D01*
X7885718Y-17698496D02*
X7895241Y-17679448D01*
X8133337Y-17793734D02*
X8133337Y-17593734D01*
X8219051Y-17793734D02*
X8219051Y-17688972D01*
X8219051Y-17688972D02*
X8209527Y-17669924D01*
X8209527Y-17669924D02*
X8190480Y-17660400D01*
X8190480Y-17660400D02*
X8161908Y-17660400D01*
X8161908Y-17660400D02*
X8142860Y-17669924D01*
X8142860Y-17669924D02*
X8133337Y-17679448D01*
X8342860Y-17793734D02*
X8323813Y-17784210D01*
X8323813Y-17784210D02*
X8314289Y-17774686D01*
X8314289Y-17774686D02*
X8304765Y-17755639D01*
X8304765Y-17755639D02*
X8304765Y-17698496D01*
X8304765Y-17698496D02*
X8314289Y-17679448D01*
X8314289Y-17679448D02*
X8323813Y-17669924D01*
X8323813Y-17669924D02*
X8342860Y-17660400D01*
X8342860Y-17660400D02*
X8371432Y-17660400D01*
X8371432Y-17660400D02*
X8390480Y-17669924D01*
X8390480Y-17669924D02*
X8400003Y-17679448D01*
X8400003Y-17679448D02*
X8409527Y-17698496D01*
X8409527Y-17698496D02*
X8409527Y-17755639D01*
X8409527Y-17755639D02*
X8400003Y-17774686D01*
X8400003Y-17774686D02*
X8390480Y-17784210D01*
X8390480Y-17784210D02*
X8371432Y-17793734D01*
X8371432Y-17793734D02*
X8342860Y-17793734D01*
X8523813Y-17793734D02*
X8504765Y-17784210D01*
X8504765Y-17784210D02*
X8495242Y-17765162D01*
X8495242Y-17765162D02*
X8495242Y-17593734D01*
X8676194Y-17784210D02*
X8657146Y-17793734D01*
X8657146Y-17793734D02*
X8619051Y-17793734D01*
X8619051Y-17793734D02*
X8600003Y-17784210D01*
X8600003Y-17784210D02*
X8590480Y-17765162D01*
X8590480Y-17765162D02*
X8590480Y-17688972D01*
X8590480Y-17688972D02*
X8600003Y-17669924D01*
X8600003Y-17669924D02*
X8619051Y-17660400D01*
X8619051Y-17660400D02*
X8657146Y-17660400D01*
X8657146Y-17660400D02*
X8676194Y-17669924D01*
X8676194Y-17669924D02*
X8685718Y-17688972D01*
X8685718Y-17688972D02*
X8685718Y-17708020D01*
X8685718Y-17708020D02*
X8590480Y-17727067D01*
X8761908Y-17784210D02*
X8780956Y-17793734D01*
X8780956Y-17793734D02*
X8819051Y-17793734D01*
X8819051Y-17793734D02*
X8838099Y-17784210D01*
X8838099Y-17784210D02*
X8847623Y-17765162D01*
X8847623Y-17765162D02*
X8847623Y-17755639D01*
X8847623Y-17755639D02*
X8838099Y-17736591D01*
X8838099Y-17736591D02*
X8819051Y-17727067D01*
X8819051Y-17727067D02*
X8790480Y-17727067D01*
X8790480Y-17727067D02*
X8771432Y-17717543D01*
X8771432Y-17717543D02*
X8761908Y-17698496D01*
X8761908Y-17698496D02*
X8761908Y-17688972D01*
X8761908Y-17688972D02*
X8771432Y-17669924D01*
X8771432Y-17669924D02*
X8790480Y-17660400D01*
X8790480Y-17660400D02*
X8819051Y-17660400D01*
X8819051Y-17660400D02*
X8838099Y-17669924D01*
X8914289Y-17869924D02*
X8923813Y-17860400D01*
X8923813Y-17860400D02*
X8942861Y-17831829D01*
X8942861Y-17831829D02*
X8952384Y-17812781D01*
X8952384Y-17812781D02*
X8961908Y-17784210D01*
X8961908Y-17784210D02*
X8971432Y-17736591D01*
X8971432Y-17736591D02*
X8971432Y-17698496D01*
X8971432Y-17698496D02*
X8961908Y-17650877D01*
X8961908Y-17650877D02*
X8952384Y-17622305D01*
X8952384Y-17622305D02*
X8942861Y-17603258D01*
X8942861Y-17603258D02*
X8923813Y-17574686D01*
X8923813Y-17574686D02*
X8914289Y-17565162D01*
X3748750Y-17866250D02*
X3948750Y-18066250D01*
X3948750Y-17866250D02*
X3748750Y-18066250D01*
X3948750Y-17966250D02*
G75*
G02*
X3748750Y-17966250I-100000J0D01*
G01*
X3748750Y-17966250D02*
G75*
G02*
X3948750Y-17966250I100000J0D01*
G01*
X4190479Y-17857734D02*
X4314289Y-17857734D01*
X4314289Y-17857734D02*
X4247622Y-17933924D01*
X4247622Y-17933924D02*
X4276194Y-17933924D01*
X4276194Y-17933924D02*
X4295241Y-17943448D01*
X4295241Y-17943448D02*
X4304765Y-17952972D01*
X4304765Y-17952972D02*
X4314289Y-17972020D01*
X4314289Y-17972020D02*
X4314289Y-18019639D01*
X4314289Y-18019639D02*
X4304765Y-18038686D01*
X4304765Y-18038686D02*
X4295241Y-18048210D01*
X4295241Y-18048210D02*
X4276194Y-18057734D01*
X4276194Y-18057734D02*
X4219051Y-18057734D01*
X4219051Y-18057734D02*
X4200003Y-18048210D01*
X4200003Y-18048210D02*
X4190479Y-18038686D01*
X4400003Y-18038686D02*
X4409527Y-18048210D01*
X4409527Y-18048210D02*
X4400003Y-18057734D01*
X4400003Y-18057734D02*
X4390479Y-18048210D01*
X4390479Y-18048210D02*
X4400003Y-18038686D01*
X4400003Y-18038686D02*
X4400003Y-18057734D01*
X4485717Y-17876781D02*
X4495241Y-17867258D01*
X4495241Y-17867258D02*
X4514289Y-17857734D01*
X4514289Y-17857734D02*
X4561908Y-17857734D01*
X4561908Y-17857734D02*
X4580955Y-17867258D01*
X4580955Y-17867258D02*
X4590479Y-17876781D01*
X4590479Y-17876781D02*
X4600003Y-17895829D01*
X4600003Y-17895829D02*
X4600003Y-17914877D01*
X4600003Y-17914877D02*
X4590479Y-17943448D01*
X4590479Y-17943448D02*
X4476194Y-18057734D01*
X4476194Y-18057734D02*
X4600003Y-18057734D01*
X4723813Y-17857734D02*
X4742860Y-17857734D01*
X4742860Y-17857734D02*
X4761908Y-17867258D01*
X4761908Y-17867258D02*
X4771432Y-17876781D01*
X4771432Y-17876781D02*
X4780955Y-17895829D01*
X4780955Y-17895829D02*
X4790479Y-17933924D01*
X4790479Y-17933924D02*
X4790479Y-17981543D01*
X4790479Y-17981543D02*
X4780955Y-18019639D01*
X4780955Y-18019639D02*
X4771432Y-18038686D01*
X4771432Y-18038686D02*
X4761908Y-18048210D01*
X4761908Y-18048210D02*
X4742860Y-18057734D01*
X4742860Y-18057734D02*
X4723813Y-18057734D01*
X4723813Y-18057734D02*
X4704765Y-18048210D01*
X4704765Y-18048210D02*
X4695241Y-18038686D01*
X4695241Y-18038686D02*
X4685717Y-18019639D01*
X4685717Y-18019639D02*
X4676194Y-17981543D01*
X4676194Y-17981543D02*
X4676194Y-17933924D01*
X4676194Y-17933924D02*
X4685717Y-17895829D01*
X4685717Y-17895829D02*
X4695241Y-17876781D01*
X4695241Y-17876781D02*
X4704765Y-17867258D01*
X4704765Y-17867258D02*
X4723813Y-17857734D01*
X4914289Y-17857734D02*
X4933336Y-17857734D01*
X4933336Y-17857734D02*
X4952384Y-17867258D01*
X4952384Y-17867258D02*
X4961908Y-17876781D01*
X4961908Y-17876781D02*
X4971432Y-17895829D01*
X4971432Y-17895829D02*
X4980955Y-17933924D01*
X4980955Y-17933924D02*
X4980955Y-17981543D01*
X4980955Y-17981543D02*
X4971432Y-18019639D01*
X4971432Y-18019639D02*
X4961908Y-18038686D01*
X4961908Y-18038686D02*
X4952384Y-18048210D01*
X4952384Y-18048210D02*
X4933336Y-18057734D01*
X4933336Y-18057734D02*
X4914289Y-18057734D01*
X4914289Y-18057734D02*
X4895241Y-18048210D01*
X4895241Y-18048210D02*
X4885717Y-18038686D01*
X4885717Y-18038686D02*
X4876194Y-18019639D01*
X4876194Y-18019639D02*
X4866670Y-17981543D01*
X4866670Y-17981543D02*
X4866670Y-17933924D01*
X4866670Y-17933924D02*
X4876194Y-17895829D01*
X4876194Y-17895829D02*
X4885717Y-17876781D01*
X4885717Y-17876781D02*
X4895241Y-17867258D01*
X4895241Y-17867258D02*
X4914289Y-17857734D01*
X5066670Y-18057734D02*
X5066670Y-17924400D01*
X5066670Y-17943448D02*
X5076194Y-17933924D01*
X5076194Y-17933924D02*
X5095241Y-17924400D01*
X5095241Y-17924400D02*
X5123813Y-17924400D01*
X5123813Y-17924400D02*
X5142860Y-17933924D01*
X5142860Y-17933924D02*
X5152384Y-17952972D01*
X5152384Y-17952972D02*
X5152384Y-18057734D01*
X5152384Y-17952972D02*
X5161908Y-17933924D01*
X5161908Y-17933924D02*
X5180955Y-17924400D01*
X5180955Y-17924400D02*
X5209527Y-17924400D01*
X5209527Y-17924400D02*
X5228575Y-17933924D01*
X5228575Y-17933924D02*
X5238098Y-17952972D01*
X5238098Y-17952972D02*
X5238098Y-18057734D01*
X5333336Y-18057734D02*
X5333336Y-17924400D01*
X5333336Y-17943448D02*
X5342860Y-17933924D01*
X5342860Y-17933924D02*
X5361908Y-17924400D01*
X5361908Y-17924400D02*
X5390479Y-17924400D01*
X5390479Y-17924400D02*
X5409527Y-17933924D01*
X5409527Y-17933924D02*
X5419051Y-17952972D01*
X5419051Y-17952972D02*
X5419051Y-18057734D01*
X5419051Y-17952972D02*
X5428575Y-17933924D01*
X5428575Y-17933924D02*
X5447622Y-17924400D01*
X5447622Y-17924400D02*
X5476194Y-17924400D01*
X5476194Y-17924400D02*
X5495241Y-17933924D01*
X5495241Y-17933924D02*
X5504765Y-17952972D01*
X5504765Y-17952972D02*
X5504765Y-18057734D01*
X5895241Y-17848210D02*
X5723813Y-18105353D01*
X6152384Y-17857734D02*
X6171432Y-17857734D01*
X6171432Y-17857734D02*
X6190479Y-17867258D01*
X6190479Y-17867258D02*
X6200003Y-17876781D01*
X6200003Y-17876781D02*
X6209527Y-17895829D01*
X6209527Y-17895829D02*
X6219051Y-17933924D01*
X6219051Y-17933924D02*
X6219051Y-17981543D01*
X6219051Y-17981543D02*
X6209527Y-18019639D01*
X6209527Y-18019639D02*
X6200003Y-18038686D01*
X6200003Y-18038686D02*
X6190479Y-18048210D01*
X6190479Y-18048210D02*
X6171432Y-18057734D01*
X6171432Y-18057734D02*
X6152384Y-18057734D01*
X6152384Y-18057734D02*
X6133336Y-18048210D01*
X6133336Y-18048210D02*
X6123813Y-18038686D01*
X6123813Y-18038686D02*
X6114289Y-18019639D01*
X6114289Y-18019639D02*
X6104765Y-17981543D01*
X6104765Y-17981543D02*
X6104765Y-17933924D01*
X6104765Y-17933924D02*
X6114289Y-17895829D01*
X6114289Y-17895829D02*
X6123813Y-17876781D01*
X6123813Y-17876781D02*
X6133336Y-17867258D01*
X6133336Y-17867258D02*
X6152384Y-17857734D01*
X6304765Y-18038686D02*
X6314289Y-18048210D01*
X6314289Y-18048210D02*
X6304765Y-18057734D01*
X6304765Y-18057734D02*
X6295241Y-18048210D01*
X6295241Y-18048210D02*
X6304765Y-18038686D01*
X6304765Y-18038686D02*
X6304765Y-18057734D01*
X6504765Y-18057734D02*
X6390479Y-18057734D01*
X6447622Y-18057734D02*
X6447622Y-17857734D01*
X6447622Y-17857734D02*
X6428575Y-17886305D01*
X6428575Y-17886305D02*
X6409527Y-17905353D01*
X6409527Y-17905353D02*
X6390479Y-17914877D01*
X6580956Y-17876781D02*
X6590479Y-17867258D01*
X6590479Y-17867258D02*
X6609527Y-17857734D01*
X6609527Y-17857734D02*
X6657146Y-17857734D01*
X6657146Y-17857734D02*
X6676194Y-17867258D01*
X6676194Y-17867258D02*
X6685717Y-17876781D01*
X6685717Y-17876781D02*
X6695241Y-17895829D01*
X6695241Y-17895829D02*
X6695241Y-17914877D01*
X6695241Y-17914877D02*
X6685717Y-17943448D01*
X6685717Y-17943448D02*
X6571432Y-18057734D01*
X6571432Y-18057734D02*
X6695241Y-18057734D01*
X6866670Y-17857734D02*
X6828575Y-17857734D01*
X6828575Y-17857734D02*
X6809527Y-17867258D01*
X6809527Y-17867258D02*
X6800003Y-17876781D01*
X6800003Y-17876781D02*
X6780956Y-17905353D01*
X6780956Y-17905353D02*
X6771432Y-17943448D01*
X6771432Y-17943448D02*
X6771432Y-18019639D01*
X6771432Y-18019639D02*
X6780956Y-18038686D01*
X6780956Y-18038686D02*
X6790479Y-18048210D01*
X6790479Y-18048210D02*
X6809527Y-18057734D01*
X6809527Y-18057734D02*
X6847622Y-18057734D01*
X6847622Y-18057734D02*
X6866670Y-18048210D01*
X6866670Y-18048210D02*
X6876194Y-18038686D01*
X6876194Y-18038686D02*
X6885717Y-18019639D01*
X6885717Y-18019639D02*
X6885717Y-17972020D01*
X6885717Y-17972020D02*
X6876194Y-17952972D01*
X6876194Y-17952972D02*
X6866670Y-17943448D01*
X6866670Y-17943448D02*
X6847622Y-17933924D01*
X6847622Y-17933924D02*
X6809527Y-17933924D01*
X6809527Y-17933924D02*
X6790479Y-17943448D01*
X6790479Y-17943448D02*
X6780956Y-17952972D01*
X6780956Y-17952972D02*
X6771432Y-17972020D01*
X7009527Y-17857734D02*
X7028575Y-17857734D01*
X7028575Y-17857734D02*
X7047622Y-17867258D01*
X7047622Y-17867258D02*
X7057146Y-17876781D01*
X7057146Y-17876781D02*
X7066670Y-17895829D01*
X7066670Y-17895829D02*
X7076194Y-17933924D01*
X7076194Y-17933924D02*
X7076194Y-17981543D01*
X7076194Y-17981543D02*
X7066670Y-18019639D01*
X7066670Y-18019639D02*
X7057146Y-18038686D01*
X7057146Y-18038686D02*
X7047622Y-18048210D01*
X7047622Y-18048210D02*
X7028575Y-18057734D01*
X7028575Y-18057734D02*
X7009527Y-18057734D01*
X7009527Y-18057734D02*
X6990479Y-18048210D01*
X6990479Y-18048210D02*
X6980956Y-18038686D01*
X6980956Y-18038686D02*
X6971432Y-18019639D01*
X6971432Y-18019639D02*
X6961908Y-17981543D01*
X6961908Y-17981543D02*
X6961908Y-17933924D01*
X6961908Y-17933924D02*
X6971432Y-17895829D01*
X6971432Y-17895829D02*
X6980956Y-17876781D01*
X6980956Y-17876781D02*
X6990479Y-17867258D01*
X6990479Y-17867258D02*
X7009527Y-17857734D01*
X7152384Y-17857734D02*
X7152384Y-17895829D01*
X7228575Y-17857734D02*
X7228575Y-17895829D01*
X7523813Y-18133924D02*
X7514289Y-18124400D01*
X7514289Y-18124400D02*
X7495241Y-18095829D01*
X7495241Y-18095829D02*
X7485718Y-18076781D01*
X7485718Y-18076781D02*
X7476194Y-18048210D01*
X7476194Y-18048210D02*
X7466670Y-18000591D01*
X7466670Y-18000591D02*
X7466670Y-17962496D01*
X7466670Y-17962496D02*
X7476194Y-17914877D01*
X7476194Y-17914877D02*
X7485718Y-17886305D01*
X7485718Y-17886305D02*
X7495241Y-17867258D01*
X7495241Y-17867258D02*
X7514289Y-17838686D01*
X7514289Y-17838686D02*
X7523813Y-17829162D01*
X7590479Y-17876781D02*
X7600003Y-17867258D01*
X7600003Y-17867258D02*
X7619051Y-17857734D01*
X7619051Y-17857734D02*
X7666670Y-17857734D01*
X7666670Y-17857734D02*
X7685718Y-17867258D01*
X7685718Y-17867258D02*
X7695241Y-17876781D01*
X7695241Y-17876781D02*
X7704765Y-17895829D01*
X7704765Y-17895829D02*
X7704765Y-17914877D01*
X7704765Y-17914877D02*
X7695241Y-17943448D01*
X7695241Y-17943448D02*
X7580956Y-18057734D01*
X7580956Y-18057734D02*
X7704765Y-18057734D01*
X7942860Y-18057734D02*
X7942860Y-17857734D01*
X8028575Y-18057734D02*
X8028575Y-17952972D01*
X8028575Y-17952972D02*
X8019051Y-17933924D01*
X8019051Y-17933924D02*
X8000003Y-17924400D01*
X8000003Y-17924400D02*
X7971432Y-17924400D01*
X7971432Y-17924400D02*
X7952384Y-17933924D01*
X7952384Y-17933924D02*
X7942860Y-17943448D01*
X8152384Y-18057734D02*
X8133337Y-18048210D01*
X8133337Y-18048210D02*
X8123813Y-18038686D01*
X8123813Y-18038686D02*
X8114289Y-18019639D01*
X8114289Y-18019639D02*
X8114289Y-17962496D01*
X8114289Y-17962496D02*
X8123813Y-17943448D01*
X8123813Y-17943448D02*
X8133337Y-17933924D01*
X8133337Y-17933924D02*
X8152384Y-17924400D01*
X8152384Y-17924400D02*
X8180956Y-17924400D01*
X8180956Y-17924400D02*
X8200003Y-17933924D01*
X8200003Y-17933924D02*
X8209527Y-17943448D01*
X8209527Y-17943448D02*
X8219051Y-17962496D01*
X8219051Y-17962496D02*
X8219051Y-18019639D01*
X8219051Y-18019639D02*
X8209527Y-18038686D01*
X8209527Y-18038686D02*
X8200003Y-18048210D01*
X8200003Y-18048210D02*
X8180956Y-18057734D01*
X8180956Y-18057734D02*
X8152384Y-18057734D01*
X8333337Y-18057734D02*
X8314289Y-18048210D01*
X8314289Y-18048210D02*
X8304765Y-18029162D01*
X8304765Y-18029162D02*
X8304765Y-17857734D01*
X8485718Y-18048210D02*
X8466670Y-18057734D01*
X8466670Y-18057734D02*
X8428575Y-18057734D01*
X8428575Y-18057734D02*
X8409527Y-18048210D01*
X8409527Y-18048210D02*
X8400003Y-18029162D01*
X8400003Y-18029162D02*
X8400003Y-17952972D01*
X8400003Y-17952972D02*
X8409527Y-17933924D01*
X8409527Y-17933924D02*
X8428575Y-17924400D01*
X8428575Y-17924400D02*
X8466670Y-17924400D01*
X8466670Y-17924400D02*
X8485718Y-17933924D01*
X8485718Y-17933924D02*
X8495242Y-17952972D01*
X8495242Y-17952972D02*
X8495242Y-17972020D01*
X8495242Y-17972020D02*
X8400003Y-17991067D01*
X8571432Y-18048210D02*
X8590480Y-18057734D01*
X8590480Y-18057734D02*
X8628575Y-18057734D01*
X8628575Y-18057734D02*
X8647623Y-18048210D01*
X8647623Y-18048210D02*
X8657146Y-18029162D01*
X8657146Y-18029162D02*
X8657146Y-18019639D01*
X8657146Y-18019639D02*
X8647623Y-18000591D01*
X8647623Y-18000591D02*
X8628575Y-17991067D01*
X8628575Y-17991067D02*
X8600003Y-17991067D01*
X8600003Y-17991067D02*
X8580956Y-17981543D01*
X8580956Y-17981543D02*
X8571432Y-17962496D01*
X8571432Y-17962496D02*
X8571432Y-17952972D01*
X8571432Y-17952972D02*
X8580956Y-17933924D01*
X8580956Y-17933924D02*
X8600003Y-17924400D01*
X8600003Y-17924400D02*
X8628575Y-17924400D01*
X8628575Y-17924400D02*
X8647623Y-17933924D01*
X8723813Y-18133924D02*
X8733337Y-18124400D01*
X8733337Y-18124400D02*
X8752384Y-18095829D01*
X8752384Y-18095829D02*
X8761908Y-18076781D01*
X8761908Y-18076781D02*
X8771432Y-18048210D01*
X8771432Y-18048210D02*
X8780956Y-18000591D01*
X8780956Y-18000591D02*
X8780956Y-17962496D01*
X8780956Y-17962496D02*
X8771432Y-17914877D01*
X8771432Y-17914877D02*
X8761908Y-17886305D01*
X8761908Y-17886305D02*
X8752384Y-17867258D01*
X8752384Y-17867258D02*
X8733337Y-17838686D01*
X8733337Y-17838686D02*
X8723813Y-17829162D01*
M02*
