M48
; DRILL file {KiCad 8.0.5-dirty} date 2024-12-31T15:12:58-0800
; FORMAT={-:-/ absolute / inch / decimal}
; #@! TF.CreationDate,2024-12-31T15:12:58-08:00
; #@! TF.GenerationSoftware,Kicad,Pcbnew,8.0.5-dirty
; #@! TF.FileFunction,Plated,1,4,PTH
FMAT,2
INCH
; #@! TA.AperFunction,Plated,PTH,ViaDrill
T1C0.0118
; #@! TA.AperFunction,Plated,PTH,ComponentDrill
T2C0.0157
; #@! TA.AperFunction,Plated,PTH,ComponentDrill
T3C0.0256
; #@! TA.AperFunction,Plated,PTH,ComponentDrill
T4C0.0315
; #@! TA.AperFunction,Plated,PTH,ComponentDrill
T5C0.0394
; #@! TA.AperFunction,Plated,PTH,ComponentDrill
T6C0.1260
%
G90
G05
T1
X1.5945Y-4.2874
X1.5945Y-4.6654
X1.5945Y-4.7638
X1.5945Y-4.8622
X1.5945Y-4.9705
X1.5945Y-5.0787
X1.5945Y-5.1772
X1.5945Y-5.2756
X1.5945Y-5.374
X1.5945Y-5.4724
X1.5945Y-5.5709
X1.5945Y-5.6791
X1.5945Y-5.7874
X1.5945Y-5.8858
X1.5945Y-5.9744
X1.5945Y-6.0925
X2.1654Y-4.3701
X2.2441Y-5.7717
X2.2539Y-5.9744
X2.313Y-4.9902
X2.313Y-5.1673
X2.3173Y-5.3106
X2.3425Y-5.8327
X2.3524Y-5.9744
X2.4213Y-5.7307
X2.4508Y-5.9744
X2.5276Y-4.6969
X2.5492Y-4.9311
X2.5591Y-5.1969
X2.5591Y-5.9744
X2.5886Y-5.0787
X2.6575Y-5.9744
X2.7559Y-5.9744
X2.8543Y-5.9744
X2.874Y-5.6693
X2.8839Y-4.252
X2.9035Y-5.502
X2.9035Y-5.6398
X2.9331Y-5.6693
X2.9528Y-5.9744
X2.9626Y-4.7039
X2.9626Y-5.6398
X2.9921Y-5.6693
X3.0512Y-5.9744
X3.0805Y-5.7089
X3.0906Y-5.9252
X3.189Y-6.0433
X3.2283Y-4.7717
X3.2972Y-5.3346
X3.2972Y-5.4134
X3.2972Y-5.4921
X3.3169Y-5.2953
X3.3169Y-5.374
X3.3169Y-5.4528
X3.3228Y-4.2953
X3.3228Y-5.0866
X3.3268Y-5.689
X3.3366Y-5.3346
X3.3366Y-5.4134
X3.3366Y-5.4921
X3.3425Y-6.0512
X3.3563Y-5.2165
X3.4144Y-5.3337
X3.4144Y-5.373
X3.4144Y-5.4124
X3.435Y-5.2165
X3.4409Y-4.5651
X3.4537Y-5.3337
X3.4537Y-5.373
X3.4537Y-5.4124
X3.4744Y-5.9646
X3.4902Y-4.0846
X3.4931Y-5.3337
X3.4931Y-5.373
X3.4931Y-5.4124
X3.5138Y-5.2165
X3.5325Y-5.3337
X3.5325Y-5.373
X3.5325Y-5.4124
X3.5886Y-4.0846
X3.5925Y-5.2165
X3.6122Y-5.3346
X3.6301Y-5.9565
X3.6319Y-5.2953
X3.6516Y-5.2559
X3.6575Y-5.9213
X3.6811Y-4.0846
X3.7648Y-5.9567
X3.7795Y-4.0846
X3.7894Y-5.4626
X3.7894Y-5.5807
X3.7992Y-5.9213
X3.7992Y-6.0315
X3.8583Y-5.0787
X3.878Y-4.0846
X3.9144Y-5.9596
X3.9173Y-5.3445
X3.9173Y-5.4626
X3.9173Y-5.8425
X3.937Y-4.6201
X3.937Y-5.6398
X3.9764Y-4.0846
X4.0039Y-5.7283
X4.0256Y-5.5512
X4.0846Y-4.0846
X4.0945Y-5.8366
X4.0945Y-5.935
X4.0945Y-6.0315
X4.1142Y-4.2362
X4.1142Y-5.4626
X4.1437Y-5.1181
X4.19Y-5.2097
X4.1929Y-4.0846
X4.2028Y-5.374
X4.2224Y-5.8366
X4.2224Y-5.935
X4.2224Y-6.0335
X4.2618Y-5.2461
X4.2913Y-4.0846
X4.3268Y-5.0278
X4.3268Y-5.1496
X4.3582Y-5.0237
X4.3701Y-5.6398
X4.3898Y-4.0846
X4.4193Y-6.0315
X4.4302Y-4.8703
X4.4488Y-4.8425
X4.4488Y-5.5512
X4.4507Y-4.8952
X4.4592Y-4.9272
X4.4831Y-4.9513
X4.4882Y-4.0846
X4.5104Y-4.9671
X4.5236Y-6.0315
X4.5276Y-5.4626
X4.5389Y-5.0301
X4.5402Y-4.9772
X4.5472Y-4.8465
X4.5669Y-4.3504
X4.5723Y-5.0301
X4.5965Y-4.0846
X4.6713Y-6.0335
X4.6742Y-5.4124
X4.7047Y-4.0846
X4.7058Y-5.3267
X4.7063Y-5.1083
X4.7065Y-5.0622
X4.7087Y-5.1811
X4.7121Y-5.2958
X4.7323Y-5.2717
X4.7362Y-5.5984
X4.7374Y-5.0551
X4.7376Y-5.1645
X4.7616Y-5.1441
X4.7638Y-4.3504
X4.7664Y-5.1896
X4.7727Y-5.3574
X4.7835Y-4.5846
X4.8031Y-4.0846
X4.8051Y-5.5984
X4.813Y-6.0335
X4.8136Y-5.3533
X4.8268Y-5.1339
X4.8268Y-5.2047
X4.8268Y-5.2756
X4.8307Y-5.8543
X4.8465Y-5.3535
X4.879Y-5.3539
X4.8898Y-5.1339
X4.8898Y-5.2047
X4.8898Y-5.2756
X4.8907Y-4.5551
X4.9016Y-4.0846
X4.9055Y-6.0079
X4.91Y-5.3481
X4.9418Y-5.3477
X4.9528Y-5.1339
X4.9528Y-5.2047
X4.9528Y-5.2756
X4.9627Y-4.943
X4.9666Y-5.0394
X4.9685Y-6.0079
X4.9764Y-5.3543
X4.9983Y-5.0377
X5.0Y-4.0846
X5.0079Y-4.8085
X5.0087Y-5.3628
X5.0157Y-5.1339
X5.0157Y-5.2047
X5.0157Y-5.2756
X5.0402Y-5.3621
X5.0443Y-4.8094
X5.0512Y-4.4488
X5.0709Y-6.0083
X5.0717Y-5.3622
X5.0787Y-5.1339
X5.0787Y-5.2047
X5.0787Y-5.2756
X5.0797Y-4.9341
X5.0827Y-4.4173
X5.0886Y-4.3307
X5.1056Y-4.815
X5.1083Y-4.0846
X5.1369Y-5.1369
X5.137Y-5.3259
X5.137Y-5.1999
X5.137Y-5.2314
X5.137Y-5.2944
X5.137Y-5.2629
X5.137Y-5.1684
X5.1378Y-4.8386
X5.1378Y-5.4626
X5.1397Y-5.1003
X5.1476Y-4.4646
X5.1654Y-6.0079
X5.1673Y-5.3819
X5.1772Y-4.3307
X5.2165Y-4.0846
X5.2461Y-5.6201
X5.2768Y-4.4685
X5.2768Y-4.5878
X5.2854Y-4.7539
X5.315Y-4.0846
X5.315Y-5.3465
X5.3661Y-6.0079
X5.4055Y-5.0886
X5.4134Y-4.0846
X5.4134Y-5.4626
X5.4134Y-5.6201
X5.4134Y-5.7776
X5.4567Y-4.6339
X5.4921Y-5.1575
X5.5Y-4.3268
X5.5118Y-4.0846
X5.5472Y-4.5157
X5.5689Y-6.0079
X5.6004Y-5.2559
X5.6063Y-4.8583
X5.6201Y-4.0846
X5.6693Y-5.7776
X5.6693Y-5.9843
X5.6791Y-4.8228
X5.6831Y-4.3799
X5.7087Y-5.3642
X5.7382Y-4.0846
X5.8169Y-5.7776
X5.8169Y-5.9843
X5.8465Y-4.0846
X5.9449Y-4.0846
X5.9547Y-5.2756
X5.9646Y-6.0079
X6.0039Y-4.3268
X6.0433Y-4.0846
X6.122Y-5.935
X6.122Y-6.0138
X6.1417Y-4.0846
X6.1614Y-5.9744
X6.2008Y-5.935
X6.2008Y-6.0138
X6.25Y-4.0846
X6.311Y-4.1378
X6.3681Y-4.1929
X6.3681Y-4.2894
X6.3681Y-4.3878
X6.3681Y-4.4862
X6.3681Y-4.5945
X6.3681Y-4.7028
X6.3681Y-4.8012
X6.3681Y-4.8996
X6.3681Y-4.998
X6.3681Y-5.1063
X6.3681Y-5.2146
X6.3681Y-5.3224
X6.3681Y-5.4366
X6.3681Y-5.5547
X6.3681Y-5.663
X6.3681Y-5.7614
X6.3681Y-5.8598
T3
X6.2441Y-4.585
X6.2441Y-4.635
X6.2441Y-4.685
T4
X2.5295Y-4.252
X2.5295Y-4.5276
X2.6083Y-4.252
X2.6083Y-4.5276
X3.9469Y-4.3996
X3.9469Y-4.7736
X4.0256Y-4.3996
X4.0256Y-4.7736
T5
X1.8754Y-5.1524
X1.8754Y-5.2614
X1.8754Y-5.3705
X1.8754Y-5.4795
X1.8754Y-5.5886
X1.8754Y-5.6976
X1.8754Y-5.8067
X1.9872Y-5.0978
X1.9872Y-5.2069
X1.9872Y-5.3159
X1.9872Y-5.425
X1.9872Y-5.5341
X1.9872Y-5.6431
X1.9872Y-5.7522
X1.9872Y-5.8612
X2.2638Y-4.2472
X2.2638Y-4.3472
X2.2638Y-4.4472
X2.2638Y-4.5472
X3.0709Y-4.1831
X3.1709Y-4.1831
X3.2709Y-4.1831
X3.3709Y-4.1831
X4.4173Y-4.1811
X4.5173Y-4.1811
X4.6173Y-4.1811
X4.7173Y-4.1811
X5.0472Y-4.1811
X5.0472Y-4.2811
X5.1472Y-4.1811
X5.1472Y-4.2811
X5.2472Y-4.1811
X5.2472Y-4.2811
X5.3472Y-4.1811
X5.3472Y-4.2811
X5.4472Y-4.1811
X5.4472Y-4.2811
X5.5472Y-4.1811
X5.5472Y-4.2811
X5.6472Y-4.1811
X5.6472Y-4.2811
X5.7472Y-4.1811
X5.7472Y-4.2811
X5.8472Y-4.1811
X5.8472Y-4.2811
X5.9472Y-4.1811
X5.9472Y-4.2811
X6.0472Y-4.1811
X6.0472Y-4.2811
X6.1402Y-5.2331
X6.1402Y-5.3331
X6.1402Y-5.4331
X6.1472Y-4.1811
X6.1472Y-4.2811
X6.2402Y-5.2331
X6.2402Y-5.3331
X6.2402Y-5.4331
X6.2472Y-4.1811
X6.2472Y-4.2811
T6
X1.9313Y-4.824
X1.9313Y-6.135
T2
G00X1.7343Y-4.389
M15
G01X1.7343Y-4.4283
M16
G05
G00X1.9508Y-4.2118
M15
G01X1.9114Y-4.2118
M16
G05
G00X1.9114Y-4.6055
M15
G01X1.9508Y-4.6055
M16
G05
M30
